<?xml version="1.0" encoding="UTF-8" standalone="no"?>
<!DOCTYPE svg PUBLIC "-//W3C//DTD SVG 1.1//EN" "http://www.w3.org/Graphics/SVG/1.1/DTD/svg11.dtd">
<svg width="100%" height="100%" viewBox="0 0 754 690" version="1.1" xmlns="http://www.w3.org/2000/svg" xmlns:xlink="http://www.w3.org/1999/xlink" xml:space="preserve" xmlns:serif="http://www.serif.com/" style="fill-rule:evenodd;clip-rule:evenodd;">
    <g id="legend" class="fade-out" transform="matrix(1,0,0,1,-57.037,18.3355)">
        <g id="legend-restored">
            <g transform="matrix(1,0,0,1,-15.72,-268.336)">
                <circle cx="624" cy="588" r="6" style="fill:rgb(28,82,117);"/>
            </g>
            <g transform="matrix(1,0,0,1,-15.72,-268.336)">
                <path d="M647.955,593.227C646.504,593.227 645.262,592.727 644.227,591.726C643.191,590.725 642.674,589.375 642.674,587.675C642.674,586.538 642.933,585.539 643.45,584.68C643.968,583.82 644.625,583.181 645.42,582.761C646.211,582.346 647.056,582.138 647.955,582.138C649.156,582.138 650.169,582.441 650.994,583.046C651.819,583.652 652.366,584.475 652.635,585.515L651.272,585.998C651.072,585.197 650.687,584.58 650.115,584.145C649.544,583.71 648.824,583.493 647.955,583.493C646.915,583.493 646.023,583.859 645.281,584.592C644.539,585.324 644.17,586.352 644.175,587.675C644.175,588.994 644.546,590.024 645.289,590.766C646.031,591.508 646.919,591.877 647.955,591.872C648.824,591.872 649.549,591.64 650.13,591.176C650.711,590.712 651.116,590.095 651.346,589.323L652.649,589.807C652.361,590.837 651.805,591.665 650.979,592.29C650.154,592.915 649.146,593.227 647.955,593.227ZM657.234,585.559C658.304,585.559 659.185,585.92 659.878,586.643C660.577,587.365 660.926,588.281 660.926,589.389C660.926,590.498 660.579,591.413 659.886,592.136C659.192,592.858 658.309,593.22 657.234,593.22C656.16,593.22 655.276,592.858 654.583,592.136C653.89,591.413 653.543,590.5 653.543,589.396C653.543,588.293 653.89,587.375 654.583,586.643C655.276,585.92 656.16,585.559 657.234,585.559ZM657.234,591.967C657.864,591.967 658.396,591.74 658.831,591.286C659.266,590.837 659.483,590.207 659.483,589.396C659.483,588.586 659.266,587.954 658.831,587.5C658.396,587.045 657.864,586.818 657.234,586.818C656.604,586.818 656.072,587.045 655.638,587.5C655.203,587.954 654.986,588.583 654.986,589.389C654.986,590.195 655.203,590.827 655.638,591.286C656.072,591.745 656.604,591.972 657.234,591.967ZM664.134,588.833L664.134,593L662.728,593L662.728,585.786L664.104,585.786L664.104,586.818C664.583,585.988 665.323,585.573 666.324,585.573C667.154,585.573 667.791,585.839 668.235,586.372C668.68,586.904 668.904,587.587 668.909,588.422L668.909,593L667.496,593L667.496,588.664C667.496,587.453 666.937,586.848 665.818,586.848C665.281,586.848 664.866,587.036 664.573,587.412C664.28,587.788 664.134,588.261 664.134,588.833ZM673.04,590.81C673.04,591.469 673.338,591.799 673.934,591.799C674.217,591.799 674.439,591.779 674.6,591.74L674.6,592.941C674.361,593.029 674.041,593.073 673.641,593.073C673.021,593.073 672.53,592.893 672.168,592.531C671.807,592.17 671.626,591.667 671.626,591.022L671.626,587.06L670.25,587.06L670.25,585.786L670.638,585.786C671.009,585.786 671.287,585.683 671.473,585.478C671.658,585.273 671.751,585.004 671.751,584.672L671.751,583.508L673.04,583.508L673.04,585.786L674.6,585.786L674.6,587.06L673.04,587.06L673.04,590.81ZM679.456,593.227C678.44,593.222 677.581,592.873 676.878,592.18C676.175,591.486 675.823,590.568 675.823,589.426C675.823,588.283 676.163,587.355 676.841,586.643C677.52,585.925 678.331,585.563 679.273,585.559C680.362,585.559 681.211,585.9 681.822,586.584C682.432,587.268 682.737,588.186 682.737,589.338C682.737,589.519 682.728,589.67 682.708,589.792L677.281,589.792C677.291,590.432 677.503,590.957 677.918,591.367C678.333,591.777 678.846,591.982 679.456,591.982C680.481,591.982 681.155,591.496 681.478,590.524L682.693,590.942C682.483,591.611 682.093,592.16 681.521,592.59C680.95,593.02 680.262,593.232 679.456,593.227ZM680.73,587.316C680.389,586.975 679.922,586.804 679.332,586.804C678.741,586.804 678.265,586.987 677.903,587.353C677.542,587.719 677.349,588.151 677.325,588.649L681.265,588.649C681.25,588.103 681.072,587.658 680.73,587.316ZM685.945,588.833L685.945,593L684.539,593L684.539,585.786L685.916,585.786L685.916,586.818C686.395,585.988 687.134,585.573 688.135,585.573C688.965,585.573 689.603,585.839 690.047,586.372C690.491,586.904 690.716,587.587 690.721,588.422L690.721,593L689.307,593L689.307,588.664C689.307,587.453 688.748,586.848 687.63,586.848C687.093,586.848 686.678,587.036 686.385,587.412C686.092,587.788 685.945,588.261 685.945,588.833ZM694.852,590.81C694.852,591.469 695.149,591.799 695.745,591.799C696.028,591.799 696.25,591.779 696.412,591.74L696.412,592.941C696.172,593.029 695.853,593.073 695.452,593.073C694.832,593.073 694.341,592.893 693.98,592.531C693.619,592.17 693.438,591.667 693.438,591.022L693.438,587.06L692.061,587.06L692.061,585.786L692.449,585.786C692.82,585.786 693.099,585.683 693.284,585.478C693.47,585.273 693.562,585.004 693.562,584.672L693.562,583.508L694.852,583.508L694.852,585.786L696.412,585.786L696.412,587.06L694.852,587.06L694.852,590.81ZM705.435,587.163C704.117,587.163 703.455,587.902 703.45,589.382L703.45,593L702.044,593L702.044,585.786L703.421,585.786L703.421,587.045C703.86,586.127 704.581,585.668 705.582,585.668C705.743,585.668 705.899,585.683 706.05,585.712L706.05,587.207C705.84,587.177 705.635,587.163 705.435,587.163ZM710.525,593.227C709.51,593.222 708.65,592.873 707.947,592.18C707.244,591.486 706.893,590.568 706.893,589.426C706.893,588.283 707.232,587.355 707.911,586.643C708.589,585.925 709.4,585.563 710.342,585.559C711.431,585.559 712.281,585.9 712.891,586.584C713.501,587.268 713.807,588.186 713.807,589.338C713.807,589.519 713.797,589.67 713.777,589.792L708.35,589.792C708.36,590.432 708.572,590.957 708.987,591.367C709.402,591.777 709.915,591.982 710.525,591.982C711.551,591.982 712.225,591.496 712.547,590.524L713.763,590.942C713.553,591.611 713.162,592.16 712.591,592.59C712.02,593.02 711.331,593.232 710.525,593.227ZM711.8,587.316C711.458,586.975 710.992,586.804 710.401,586.804C709.81,586.804 709.334,586.987 708.973,587.353C708.611,587.719 708.418,588.151 708.394,588.649L712.334,588.649C712.32,588.103 712.142,587.658 711.8,587.316ZM716.714,591.645C717.002,591.899 717.366,592.026 717.806,592.026C718.245,592.026 718.572,591.933 718.787,591.748C719.007,591.562 719.117,591.335 719.117,591.066C719.117,590.588 718.807,590.278 718.187,590.136L716.956,589.865C716.399,589.748 715.96,589.509 715.638,589.147C715.315,588.786 715.154,588.322 715.154,587.756C715.154,587.189 715.408,586.682 715.916,586.232C716.424,585.783 717.027,585.559 717.725,585.559C718.917,585.559 719.756,586.01 720.245,586.914C720.342,587.104 720.416,587.297 720.464,587.492L719.219,587.961C719.18,587.707 719.087,587.485 718.941,587.294C718.663,586.938 718.257,586.76 717.725,586.76C717.374,586.76 717.085,586.855 716.861,587.045C716.636,587.236 716.524,587.46 716.524,587.719C716.524,588.178 716.797,588.469 717.344,588.591L718.516,588.847C719.156,588.989 719.649,589.245 719.996,589.616C720.342,589.987 720.516,590.454 720.516,591.015C720.516,591.572 720.281,592.08 719.812,592.539C719.344,592.998 718.682,593.227 717.828,593.227C716.968,593.227 716.287,593.005 715.784,592.561C715.286,592.111 715.003,591.633 714.935,591.125L716.209,590.678C716.258,591.069 716.426,591.391 716.714,591.645ZM724.28,590.81C724.28,591.469 724.578,591.799 725.174,591.799C725.457,591.799 725.679,591.779 725.84,591.74L725.84,592.941C725.601,593.029 725.281,593.073 724.881,593.073C724.261,593.073 723.77,592.893 723.409,592.531C723.047,592.17 722.867,591.667 722.867,591.022L722.867,587.06L721.49,587.06L721.49,585.786L721.878,585.786C722.249,585.786 722.527,585.683 722.713,585.478C722.898,585.273 722.991,585.004 722.991,584.672L722.991,583.508L724.28,583.508L724.28,585.786L725.84,585.786L725.84,587.06L724.28,587.06L724.28,590.81ZM730.74,585.559C731.81,585.559 732.691,585.92 733.384,586.643C734.083,587.365 734.432,588.281 734.432,589.389C734.432,590.498 734.085,591.413 733.392,592.136C732.698,592.858 731.814,593.22 730.74,593.22C729.666,593.22 728.782,592.858 728.089,592.136C727.396,591.413 727.049,590.5 727.049,589.396C727.049,588.293 727.396,587.375 728.089,586.643C728.782,585.92 729.666,585.559 730.74,585.559ZM730.74,591.967C731.37,591.967 731.902,591.74 732.337,591.286C732.771,590.837 732.989,590.207 732.989,589.396C732.989,588.586 732.771,587.954 732.337,587.5C731.902,587.045 731.37,586.818 730.74,586.818C730.11,586.818 729.578,587.045 729.144,587.5C728.709,587.954 728.492,588.583 728.492,589.389C728.492,590.195 728.709,590.827 729.144,591.286C729.578,591.745 730.11,591.972 730.74,591.967ZM739.625,587.163C738.306,587.163 737.645,587.902 737.64,589.382L737.64,593L736.233,593L736.233,585.786L737.61,585.786L737.61,587.045C738.05,586.127 738.77,585.668 739.771,585.668C739.932,585.668 740.088,585.683 740.24,585.712L740.24,587.207C740.03,587.177 739.825,587.163 739.625,587.163ZM744.715,593.227C743.699,593.222 742.84,592.873 742.137,592.18C741.434,591.486 741.082,590.568 741.082,589.426C741.082,588.283 741.421,587.355 742.1,586.643C742.779,585.925 743.589,585.563 744.532,585.559C745.621,585.559 746.47,585.9 747.081,586.584C747.691,587.268 747.996,588.186 747.996,589.338C747.996,589.519 747.986,589.67 747.967,589.792L742.54,589.792C742.549,590.432 742.762,590.957 743.177,591.367C743.592,591.777 744.104,591.982 744.715,591.982C745.74,591.982 746.414,591.496 746.736,590.524L747.952,590.942C747.742,591.611 747.352,592.16 746.78,592.59C746.209,593.02 745.521,593.232 744.715,593.227ZM745.989,587.316C745.647,586.975 745.181,586.804 744.59,586.804C744,586.804 743.523,586.987 743.162,587.353C742.801,587.719 742.608,588.151 742.583,588.649L746.524,588.649C746.509,588.103 746.331,587.658 745.989,587.316ZM754.852,592.026L754.852,591.901C754.661,592.272 754.373,592.58 753.987,592.824C753.602,593.068 753.145,593.193 752.618,593.198C751.587,593.193 750.76,592.829 750.135,592.106C749.51,591.384 749.197,590.485 749.197,589.411C749.197,588.337 749.517,587.429 750.157,586.687C750.796,585.954 751.617,585.588 752.618,585.588C753.208,585.588 753.689,585.705 754.061,585.939C754.432,586.174 754.686,586.462 754.822,586.804L754.822,582.138L756.214,582.138L756.214,591.667C756.214,592.155 756.241,592.6 756.294,593L754.925,593C754.876,592.722 754.852,592.397 754.852,592.026ZM754.28,587.521C753.909,587.062 753.404,586.833 752.764,586.833C752.125,586.833 751.609,587.067 751.219,587.536C750.828,588.005 750.635,588.618 750.64,589.375C750.645,590.131 750.833,590.749 751.204,591.228C751.575,591.706 752.083,591.945 752.728,591.945C753.372,591.945 753.885,591.701 754.266,591.213C754.646,590.725 754.837,590.102 754.837,589.345C754.837,588.588 754.651,587.98 754.28,587.521ZM765.457,585.559C766.526,585.559 767.408,585.92 768.101,586.643C768.799,587.365 769.148,588.281 769.148,589.389C769.148,590.498 768.802,591.413 768.108,592.136C767.415,592.858 766.531,593.22 765.457,593.22C764.383,593.22 763.499,592.858 762.806,592.136C762.112,591.413 761.766,590.5 761.766,589.396C761.766,588.293 762.112,587.375 762.806,586.643C763.499,585.92 764.383,585.559 765.457,585.559ZM765.457,591.967C766.087,591.967 766.619,591.74 767.054,591.286C767.488,590.837 767.706,590.207 767.706,589.396C767.706,588.586 767.488,587.954 767.054,587.5C766.619,587.045 766.087,586.818 765.457,586.818C764.827,586.818 764.295,587.045 763.86,587.5C763.426,587.954 763.208,588.583 763.208,589.389C763.208,590.195 763.426,590.827 763.86,591.286C764.295,591.745 764.827,591.972 765.457,591.967ZM772.356,588.833L772.356,593L770.95,593L770.95,585.786L772.327,585.786L772.327,586.818C772.806,585.988 773.545,585.573 774.546,585.573C775.376,585.573 776.014,585.839 776.458,586.372C776.902,586.904 777.127,587.587 777.132,588.422L777.132,593L775.718,593L775.718,588.664C775.718,587.453 775.159,586.848 774.041,586.848C773.504,586.848 773.089,587.036 772.796,587.412C772.503,587.788 772.356,588.261 772.356,588.833ZM785.284,592.041C785.914,592.041 786.419,591.87 786.8,591.528C787.181,591.186 787.369,590.646 787.364,589.909L787.364,589.58L785.159,589.909C784.837,589.958 784.583,590.073 784.397,590.253C784.212,590.434 784.117,590.671 784.112,590.964C784.112,591.257 784.219,591.511 784.434,591.726C784.649,591.936 784.932,592.041 785.284,592.041ZM784.991,593.227C784.341,593.227 783.792,593.015 783.343,592.59C782.894,592.165 782.669,591.65 782.669,591.044C782.669,590.439 782.869,589.948 783.27,589.572C783.67,589.196 784.2,588.964 784.859,588.876L786.814,588.591C787.186,588.542 787.371,588.344 787.371,587.998C787.371,587.651 787.239,587.358 786.976,587.119C786.712,586.879 786.331,586.76 785.833,586.76C785.335,586.76 784.947,586.892 784.668,587.155C784.39,587.419 784.224,587.773 784.17,588.217L782.823,587.902C782.891,587.219 783.206,586.657 783.768,586.218C784.329,585.778 784.998,585.559 785.774,585.559C786.8,585.559 787.557,585.808 788.045,586.306C788.533,586.804 788.777,587.436 788.777,588.203L788.777,591.813C788.777,592.243 788.807,592.639 788.865,593L787.488,593C787.439,592.702 787.415,592.377 787.415,592.026C787.215,592.348 786.922,592.629 786.536,592.868C786.15,593.107 785.635,593.227 784.991,593.227ZM796.043,591.228C796.434,590.749 796.629,590.139 796.629,589.396C796.629,588.654 796.436,588.049 796.05,587.58C795.665,587.111 795.149,586.872 794.505,586.862C793.86,586.862 793.34,587.102 792.945,587.58C792.549,588.059 792.352,588.664 792.352,589.396C792.352,590.139 792.549,590.747 792.945,591.22C793.34,591.694 793.858,591.931 794.498,591.931C795.137,591.931 795.652,591.696 796.043,591.228ZM792.366,595.849L790.975,595.849L790.975,585.786L792.337,585.786L792.337,586.914C792.547,586.533 792.862,586.223 793.282,585.983C793.702,585.744 794.192,585.622 794.754,585.617C795.794,585.617 796.607,585.974 797.193,586.687C797.779,587.399 798.072,588.3 798.072,589.389C798.072,590.478 797.769,591.384 797.164,592.106C796.558,592.829 795.74,593.193 794.71,593.198C794.178,593.198 793.707,593.088 793.296,592.868C792.886,592.648 792.576,592.368 792.366,592.026L792.366,595.849ZM804.935,591.228C805.325,590.749 805.521,590.139 805.521,589.396C805.521,588.654 805.328,588.049 804.942,587.58C804.556,587.111 804.041,586.872 803.396,586.862C802.752,586.862 802.232,587.102 801.836,587.58C801.441,588.059 801.243,588.664 801.243,589.396C801.243,590.139 801.441,590.747 801.836,591.22C802.232,591.694 802.75,591.931 803.389,591.931C804.029,591.931 804.544,591.696 804.935,591.228ZM801.258,595.849L799.866,595.849L799.866,585.786L801.229,585.786L801.229,586.914C801.438,586.533 801.753,586.223 802.173,585.983C802.593,585.744 803.084,585.622 803.646,585.617C804.686,585.617 805.499,585.974 806.084,586.687C806.67,587.399 806.963,588.3 806.963,589.389C806.963,590.478 806.661,591.384 806.055,592.106C805.45,592.829 804.632,593.193 803.602,593.198C803.069,593.198 802.598,593.088 802.188,592.868C801.778,592.648 801.468,592.368 801.258,592.026L801.258,595.849ZM811.805,593.227C810.789,593.222 809.93,592.873 809.227,592.18C808.523,591.486 808.172,590.568 808.172,589.426C808.172,588.283 808.511,587.355 809.19,586.643C809.869,585.925 810.679,585.563 811.622,585.559C812.71,585.559 813.56,585.9 814.17,586.584C814.781,587.268 815.086,588.186 815.086,589.338C815.086,589.519 815.076,589.67 815.057,589.792L809.629,589.792C809.639,590.432 809.852,590.957 810.267,591.367C810.682,591.777 811.194,591.982 811.805,591.982C812.83,591.982 813.504,591.496 813.826,590.524L815.042,590.942C814.832,591.611 814.441,592.16 813.87,592.59C813.299,593.02 812.61,593.232 811.805,593.227ZM813.079,587.316C812.737,586.975 812.271,586.804 811.68,586.804C811.089,586.804 810.613,586.987 810.252,587.353C809.891,587.719 809.698,588.151 809.673,588.649L813.614,588.649C813.599,588.103 813.421,587.658 813.079,587.316ZM819.048,592.041C819.678,592.041 820.184,591.87 820.564,591.528C820.945,591.186 821.133,590.646 821.128,589.909L821.128,589.58L818.924,589.909C818.602,589.958 818.348,590.073 818.162,590.253C817.977,590.434 817.881,590.671 817.876,590.964C817.876,591.257 817.984,591.511 818.199,591.726C818.414,591.936 818.697,592.041 819.048,592.041ZM818.755,593.227C818.106,593.227 817.557,593.015 817.107,592.59C816.658,592.165 816.434,591.65 816.434,591.044C816.434,590.439 816.634,589.948 817.034,589.572C817.435,589.196 817.964,588.964 818.624,588.876L820.579,588.591C820.95,588.542 821.136,588.344 821.136,587.998C821.136,587.651 821.004,587.358 820.74,587.119C820.477,586.879 820.096,586.76 819.598,586.76C819.1,586.76 818.711,586.892 818.433,587.155C818.155,587.419 817.989,587.773 817.935,588.217L816.587,587.902C816.656,587.219 816.971,586.657 817.532,586.218C818.094,585.778 818.763,585.559 819.539,585.559C820.564,585.559 821.321,585.808 821.81,586.306C822.298,586.804 822.542,587.436 822.542,588.203L822.542,591.813C822.542,592.243 822.571,592.639 822.63,593L821.253,593C821.204,592.702 821.18,592.377 821.18,592.026C820.979,592.348 820.687,592.629 820.301,592.868C819.915,593.107 819.4,593.227 818.755,593.227ZM826.146,593L824.739,593L824.739,582.138L826.146,582.138L826.146,593Z" style="fill:black;fill-rule:nonzero;"/>
            </g>
        </g>
        <g id="legend-appeals">
            <g transform="matrix(1,0,0,1,-15.72,-268.336)">
                <circle cx="624" cy="616" r="6" style="fill:rgb(231,92,100);"/>
            </g>
            <g transform="matrix(1,0,0,1,-15.72,-268.336)">
                <path d="M647.955,621.227C646.504,621.227 645.262,620.727 644.227,619.726C643.191,618.725 642.674,617.375 642.674,615.675C642.674,614.538 642.933,613.539 643.45,612.68C643.968,611.82 644.625,611.181 645.42,610.761C646.211,610.346 647.056,610.138 647.955,610.138C649.156,610.138 650.169,610.441 650.994,611.046C651.819,611.652 652.366,612.475 652.635,613.515L651.272,613.998C651.072,613.197 650.687,612.58 650.115,612.145C649.544,611.71 648.824,611.493 647.955,611.493C646.915,611.493 646.023,611.859 645.281,612.592C644.539,613.324 644.17,614.352 644.175,615.675C644.175,616.994 644.546,618.024 645.289,618.766C646.031,619.508 646.919,619.877 647.955,619.872C648.824,619.872 649.549,619.64 650.13,619.176C650.711,618.712 651.116,618.095 651.346,617.323L652.649,617.807C652.361,618.837 651.805,619.665 650.979,620.29C650.154,620.915 649.146,621.227 647.955,621.227ZM657.234,613.559C658.304,613.559 659.185,613.92 659.878,614.643C660.577,615.365 660.926,616.281 660.926,617.389C660.926,618.498 660.579,619.413 659.886,620.136C659.192,620.858 658.309,621.22 657.234,621.22C656.16,621.22 655.276,620.858 654.583,620.136C653.89,619.413 653.543,618.5 653.543,617.396C653.543,616.293 653.89,615.375 654.583,614.643C655.276,613.92 656.16,613.559 657.234,613.559ZM657.234,619.967C657.864,619.967 658.396,619.74 658.831,619.286C659.266,618.837 659.483,618.207 659.483,617.396C659.483,616.586 659.266,615.954 658.831,615.5C658.396,615.045 657.864,614.818 657.234,614.818C656.604,614.818 656.072,615.045 655.638,615.5C655.203,615.954 654.986,616.583 654.986,617.389C654.986,618.195 655.203,618.827 655.638,619.286C656.072,619.745 656.604,619.972 657.234,619.967ZM664.134,616.833L664.134,621L662.728,621L662.728,613.786L664.104,613.786L664.104,614.818C664.583,613.988 665.323,613.573 666.324,613.573C667.154,613.573 667.791,613.839 668.235,614.372C668.68,614.904 668.904,615.587 668.909,616.422L668.909,621L667.496,621L667.496,616.664C667.496,615.453 666.937,614.848 665.818,614.848C665.281,614.848 664.866,615.036 664.573,615.412C664.28,615.788 664.134,616.261 664.134,616.833ZM673.04,618.81C673.04,619.469 673.338,619.799 673.934,619.799C674.217,619.799 674.439,619.779 674.6,619.74L674.6,620.941C674.361,621.029 674.041,621.073 673.641,621.073C673.021,621.073 672.53,620.893 672.168,620.531C671.807,620.17 671.626,619.667 671.626,619.022L671.626,615.06L670.25,615.06L670.25,613.786L670.638,613.786C671.009,613.786 671.287,613.683 671.473,613.478C671.658,613.273 671.751,613.004 671.751,612.672L671.751,611.508L673.04,611.508L673.04,613.786L674.6,613.786L674.6,615.06L673.04,615.06L673.04,618.81ZM679.456,621.227C678.44,621.222 677.581,620.873 676.878,620.18C676.175,619.486 675.823,618.568 675.823,617.426C675.823,616.283 676.163,615.355 676.841,614.643C677.52,613.925 678.331,613.563 679.273,613.559C680.362,613.559 681.211,613.9 681.822,614.584C682.432,615.268 682.737,616.186 682.737,617.338C682.737,617.519 682.728,617.67 682.708,617.792L677.281,617.792C677.291,618.432 677.503,618.957 677.918,619.367C678.333,619.777 678.846,619.982 679.456,619.982C680.481,619.982 681.155,619.496 681.478,618.524L682.693,618.942C682.483,619.611 682.093,620.16 681.521,620.59C680.95,621.02 680.262,621.232 679.456,621.227ZM680.73,615.316C680.389,614.975 679.922,614.804 679.332,614.804C678.741,614.804 678.265,614.987 677.903,615.353C677.542,615.719 677.349,616.151 677.325,616.649L681.265,616.649C681.25,616.103 681.072,615.658 680.73,615.316ZM685.945,616.833L685.945,621L684.539,621L684.539,613.786L685.916,613.786L685.916,614.818C686.395,613.988 687.134,613.573 688.135,613.573C688.965,613.573 689.603,613.839 690.047,614.372C690.491,614.904 690.716,615.587 690.721,616.422L690.721,621L689.307,621L689.307,616.664C689.307,615.453 688.748,614.848 687.63,614.848C687.093,614.848 686.678,615.036 686.385,615.412C686.092,615.788 685.945,616.261 685.945,616.833ZM694.852,618.81C694.852,619.469 695.149,619.799 695.745,619.799C696.028,619.799 696.25,619.779 696.412,619.74L696.412,620.941C696.172,621.029 695.853,621.073 695.452,621.073C694.832,621.073 694.341,620.893 693.98,620.531C693.619,620.17 693.438,619.667 693.438,619.022L693.438,615.06L692.061,615.06L692.061,613.786L692.449,613.786C692.82,613.786 693.099,613.683 693.284,613.478C693.47,613.273 693.562,613.004 693.562,612.672L693.562,611.508L694.852,611.508L694.852,613.786L696.412,613.786L696.412,615.06L694.852,615.06L694.852,618.81ZM705.435,615.163C704.117,615.163 703.455,615.902 703.45,617.382L703.45,621L702.044,621L702.044,613.786L703.421,613.786L703.421,615.045C703.86,614.127 704.581,613.668 705.582,613.668C705.743,613.668 705.899,613.683 706.05,613.712L706.05,615.207C705.84,615.177 705.635,615.163 705.435,615.163ZM710.525,621.227C709.51,621.222 708.65,620.873 707.947,620.18C707.244,619.486 706.893,618.568 706.893,617.426C706.893,616.283 707.232,615.355 707.911,614.643C708.589,613.925 709.4,613.563 710.342,613.559C711.431,613.559 712.281,613.9 712.891,614.584C713.501,615.268 713.807,616.186 713.807,617.338C713.807,617.519 713.797,617.67 713.777,617.792L708.35,617.792C708.36,618.432 708.572,618.957 708.987,619.367C709.402,619.777 709.915,619.982 710.525,619.982C711.551,619.982 712.225,619.496 712.547,618.524L713.763,618.942C713.553,619.611 713.162,620.16 712.591,620.59C712.02,621.02 711.331,621.232 710.525,621.227ZM711.8,615.316C711.458,614.975 710.992,614.804 710.401,614.804C709.81,614.804 709.334,614.987 708.973,615.353C708.611,615.719 708.418,616.151 708.394,616.649L712.334,616.649C712.32,616.103 712.142,615.658 711.8,615.316ZM717,621L715.608,621L715.608,613.786L716.956,613.786L716.956,614.745C717.176,614.364 717.486,614.074 717.886,613.874C718.287,613.673 718.714,613.573 719.168,613.573C719.622,613.573 720.044,613.688 720.435,613.917C720.826,614.147 721.116,614.489 721.307,614.943C721.805,614.035 722.61,613.578 723.724,613.573C724.412,613.573 724.998,613.808 725.481,614.276C725.965,614.745 726.209,615.426 726.214,616.32L726.214,621L724.815,621L724.815,616.474C724.815,615.976 724.688,615.575 724.434,615.272C724.175,614.97 723.797,614.818 723.299,614.818C722.801,614.818 722.398,614.992 722.09,615.338C721.783,615.685 721.626,616.117 721.622,616.635L721.622,621L720.215,621L720.215,616.474C720.21,615.976 720.081,615.575 719.827,615.272C719.573,614.97 719.195,614.818 718.692,614.818C718.189,614.818 717.781,614.989 717.469,615.331C717.156,615.673 717,616.112 717,616.649L717,621ZM731.561,613.559C732.63,613.559 733.511,613.92 734.205,614.643C734.903,615.365 735.252,616.281 735.252,617.389C735.252,618.498 734.905,619.413 734.212,620.136C733.519,620.858 732.635,621.22 731.561,621.22C730.486,621.22 729.603,620.858 728.909,620.136C728.216,619.413 727.869,618.5 727.869,617.396C727.869,616.293 728.216,615.375 728.909,614.643C729.603,613.92 730.486,613.559 731.561,613.559ZM731.561,619.967C732.19,619.967 732.723,619.74 733.157,619.286C733.592,618.837 733.809,618.207 733.809,617.396C733.809,616.586 733.592,615.954 733.157,615.5C732.723,615.045 732.19,614.818 731.561,614.818C730.931,614.818 730.398,615.045 729.964,615.5C729.529,615.954 729.312,616.583 729.312,617.389C729.312,618.195 729.529,618.827 729.964,619.286C730.398,619.745 730.931,619.972 731.561,619.967ZM743.001,613.786L740.115,621L738.694,621L735.765,613.786L737.361,613.786L739.412,619.352L741.485,613.786L743.001,613.786ZM746.436,620.041C747.066,620.041 747.571,619.87 747.952,619.528C748.333,619.186 748.521,618.646 748.516,617.909L748.516,617.58L746.312,617.909C745.989,617.958 745.735,618.073 745.55,618.253C745.364,618.434 745.269,618.671 745.264,618.964C745.264,619.257 745.372,619.511 745.586,619.726C745.801,619.936 746.084,620.041 746.436,620.041ZM746.143,621.227C745.494,621.227 744.944,621.015 744.495,620.59C744.046,620.165 743.821,619.65 743.821,619.044C743.821,618.439 744.021,617.948 744.422,617.572C744.822,617.196 745.352,616.964 746.011,616.876L747.967,616.591C748.338,616.542 748.523,616.344 748.523,615.998C748.523,615.651 748.392,615.358 748.128,615.119C747.864,614.879 747.483,614.76 746.985,614.76C746.487,614.76 746.099,614.892 745.821,615.155C745.542,615.419 745.376,615.773 745.323,616.217L743.975,615.902C744.043,615.219 744.358,614.657 744.92,614.218C745.481,613.778 746.15,613.559 746.927,613.559C747.952,613.559 748.709,613.808 749.197,614.306C749.686,614.804 749.93,615.436 749.93,616.203L749.93,619.813C749.93,620.243 749.959,620.639 750.018,621L748.641,621C748.592,620.702 748.567,620.377 748.567,620.026C748.367,620.348 748.074,620.629 747.688,620.868C747.303,621.107 746.788,621.227 746.143,621.227ZM753.533,621L752.127,621L752.127,610.138L753.533,610.138L753.533,621ZM761.846,620.041C762.476,620.041 762.981,619.87 763.362,619.528C763.743,619.186 763.931,618.646 763.926,617.909L763.926,617.58L761.722,617.909C761.399,617.958 761.146,618.073 760.96,618.253C760.774,618.434 760.679,618.671 760.674,618.964C760.674,619.257 760.782,619.511 760.997,619.726C761.211,619.936 761.495,620.041 761.846,620.041ZM761.553,621.227C760.904,621.227 760.354,621.015 759.905,620.59C759.456,620.165 759.231,619.65 759.231,619.044C759.231,618.439 759.432,617.948 759.832,617.572C760.232,617.196 760.762,616.964 761.421,616.876L763.377,616.591C763.748,616.542 763.934,616.344 763.934,615.998C763.934,615.651 763.802,615.358 763.538,615.119C763.274,614.879 762.894,614.76 762.396,614.76C761.897,614.76 761.509,614.892 761.231,615.155C760.953,615.419 760.787,615.773 760.733,616.217L759.385,615.902C759.454,615.219 759.769,614.657 760.33,614.218C760.892,613.778 761.561,613.559 762.337,613.559C763.362,613.559 764.119,613.808 764.607,614.306C765.096,614.804 765.34,615.436 765.34,616.203L765.34,619.813C765.34,620.243 765.369,620.639 765.428,621L764.051,621C764.002,620.702 763.978,620.377 763.978,620.026C763.777,620.348 763.484,620.629 763.099,620.868C762.713,621.107 762.198,621.227 761.553,621.227ZM772.605,619.228C772.996,618.749 773.191,618.139 773.191,617.396C773.191,616.654 772.999,616.049 772.613,615.58C772.227,615.111 771.712,614.872 771.067,614.862C770.423,614.862 769.903,615.102 769.507,615.58C769.112,616.059 768.914,616.664 768.914,617.396C768.914,618.139 769.112,618.747 769.507,619.22C769.903,619.694 770.42,619.931 771.06,619.931C771.7,619.931 772.215,619.696 772.605,619.228ZM768.929,623.849L767.537,623.849L767.537,613.786L768.899,613.786L768.899,614.914C769.109,614.533 769.424,614.223 769.844,613.983C770.264,613.744 770.755,613.622 771.316,613.617C772.356,613.617 773.169,613.974 773.755,614.687C774.341,615.399 774.634,616.3 774.634,617.389C774.634,618.478 774.332,619.384 773.726,620.106C773.121,620.829 772.303,621.193 771.272,621.198C770.74,621.198 770.269,621.088 769.859,620.868C769.449,620.648 769.139,620.368 768.929,620.026L768.929,623.849ZM781.497,619.228C781.888,618.749 782.083,618.139 782.083,617.396C782.083,616.654 781.89,616.049 781.504,615.58C781.119,615.111 780.604,614.872 779.959,614.862C779.314,614.862 778.794,615.102 778.399,615.58C778.003,616.059 777.806,616.664 777.806,617.396C777.806,618.139 778.003,618.747 778.399,619.22C778.794,619.694 779.312,619.931 779.952,619.931C780.591,619.931 781.106,619.696 781.497,619.228ZM777.82,623.849L776.429,623.849L776.429,613.786L777.791,613.786L777.791,614.914C778.001,614.533 778.316,614.223 778.736,613.983C779.156,613.744 779.646,613.622 780.208,613.617C781.248,613.617 782.061,613.974 782.647,614.687C783.233,615.399 783.526,616.3 783.526,617.389C783.526,618.478 783.223,619.384 782.618,620.106C782.012,620.829 781.194,621.193 780.164,621.198C779.632,621.198 779.161,621.088 778.75,620.868C778.34,620.648 778.03,620.368 777.82,620.026L777.82,623.849ZM788.367,621.227C787.352,621.222 786.492,620.873 785.789,620.18C785.086,619.486 784.734,618.568 784.734,617.426C784.734,616.283 785.074,615.355 785.752,614.643C786.431,613.925 787.242,613.563 788.184,613.559C789.273,613.559 790.123,613.9 790.733,614.584C791.343,615.268 791.648,616.186 791.648,617.338C791.648,617.519 791.639,617.67 791.619,617.792L786.192,617.792C786.202,618.432 786.414,618.957 786.829,619.367C787.244,619.777 787.757,619.982 788.367,619.982C789.393,619.982 790.066,619.496 790.389,618.524L791.604,618.942C791.395,619.611 791.004,620.16 790.433,620.59C789.861,621.02 789.173,621.232 788.367,621.227ZM789.642,615.316C789.3,614.975 788.833,614.804 788.243,614.804C787.652,614.804 787.176,614.987 786.814,615.353C786.453,615.719 786.26,616.151 786.236,616.649L790.176,616.649C790.162,616.103 789.983,615.658 789.642,615.316ZM795.611,620.041C796.241,620.041 796.746,619.87 797.127,619.528C797.508,619.186 797.696,618.646 797.691,617.909L797.691,617.58L795.486,617.909C795.164,617.958 794.91,618.073 794.725,618.253C794.539,618.434 794.444,618.671 794.439,618.964C794.439,619.257 794.546,619.511 794.761,619.726C794.976,619.936 795.259,620.041 795.611,620.041ZM795.318,621.227C794.668,621.227 794.119,621.015 793.67,620.59C793.221,620.165 792.996,619.65 792.996,619.044C792.996,618.439 793.196,617.948 793.597,617.572C793.997,617.196 794.527,616.964 795.186,616.876L797.142,616.591C797.513,616.542 797.698,616.344 797.698,615.998C797.698,615.651 797.566,615.358 797.303,615.119C797.039,614.879 796.658,614.76 796.16,614.76C795.662,614.76 795.274,614.892 794.996,615.155C794.717,615.419 794.551,615.773 794.498,616.217L793.15,615.902C793.218,615.219 793.533,614.657 794.095,614.218C794.656,613.778 795.325,613.559 796.102,613.559C797.127,613.559 797.884,613.808 798.372,614.306C798.86,614.804 799.104,615.436 799.104,616.203L799.104,619.813C799.104,620.243 799.134,620.639 799.192,621L797.815,621C797.767,620.702 797.742,620.377 797.742,620.026C797.542,620.348 797.249,620.629 796.863,620.868C796.478,621.107 795.962,621.227 795.318,621.227ZM802.708,621L801.302,621L801.302,610.138L802.708,610.138L802.708,621ZM806.216,619.645C806.504,619.899 806.868,620.026 807.308,620.026C807.747,620.026 808.074,619.933 808.289,619.748C808.509,619.562 808.619,619.335 808.619,619.066C808.619,618.588 808.309,618.278 807.688,618.136L806.458,617.865C805.901,617.748 805.462,617.509 805.14,617.147C804.817,616.786 804.656,616.322 804.656,615.756C804.656,615.189 804.91,614.682 805.418,614.232C805.926,613.783 806.529,613.559 807.227,613.559C808.418,613.559 809.258,614.01 809.747,614.914C809.844,615.104 809.917,615.297 809.966,615.492L808.721,615.961C808.682,615.707 808.589,615.485 808.443,615.294C808.165,614.938 807.759,614.76 807.227,614.76C806.875,614.76 806.587,614.855 806.363,615.045C806.138,615.236 806.026,615.46 806.026,615.719C806.026,616.178 806.299,616.469 806.846,616.591L808.018,616.847C808.658,616.989 809.151,617.245 809.498,617.616C809.844,617.987 810.018,618.454 810.018,619.015C810.018,619.572 809.783,620.08 809.314,620.539C808.846,620.998 808.184,621.227 807.33,621.227C806.47,621.227 805.789,621.005 805.286,620.561C804.788,620.111 804.505,619.633 804.437,619.125L805.711,618.678C805.76,619.069 805.928,619.391 806.216,619.645Z" style="fill:black;fill-rule:nonzero;"/>
            </g>
        </g>
    </g>
    <g id="area-covid" class="fade-out" transform="matrix(1,0,0,1,-43.757,0)">
        <rect x="375" y="0" width="189" height="690" style="fill:white;fill-rule:nonzero;"/>
        <rect x="375" y="0" width="189" height="690" style="fill:rgb(236,164,0);fill-opacity:0.5;fill-rule:nonzero;"/>
        <path d="M411.05,666.188C413.8,666.188 414.975,664.312 415.263,663.087L413.375,662.55C413.2,663.187 412.588,664.212 411.05,664.212C409.725,664.212 408.5,663.25 408.5,661.587C408.5,659.725 409.838,658.875 411.025,658.875C412.588,658.875 413.15,659.912 413.288,660.525L415.15,659.937C414.863,658.662 413.688,656.95 411.025,656.95C408.55,656.95 406.45,658.825 406.45,661.587C406.45,664.35 408.5,666.188 411.05,666.188ZM418.083,661.562C418.083,659.712 419.408,658.875 420.645,658.875C421.87,658.875 423.195,659.712 423.195,661.562C423.195,663.412 421.87,664.237 420.645,664.237C419.408,664.237 418.083,663.412 418.083,661.562ZM416.033,661.575C416.033,664.375 418.145,666.188 420.645,666.188C423.133,666.188 425.245,664.375 425.245,661.575C425.245,658.762 423.133,656.95 420.645,656.95C418.145,656.95 416.033,658.762 416.033,661.575ZM429.81,663.375L427.673,657.137L425.498,657.137L428.748,666L430.785,666L434.023,657.137L431.923,657.137L429.81,663.375ZM437.112,666L437.112,657.137L435.112,657.137L435.112,666L437.112,666ZM441.005,664.137L441.005,659L442.155,659C443.518,659 444.63,659.8 444.63,661.575C444.63,663.35 443.518,664.137 442.155,664.137L441.005,664.137ZM442.23,666C444.905,666 446.693,664.312 446.693,661.575C446.693,658.837 444.905,657.137 442.243,657.137L439.03,657.137L439.03,666L442.23,666ZM451.45,663.087L451.45,661.375L447.7,661.375L447.7,663.087L451.45,663.087ZM456.089,666L456.089,657.887L454.402,657.887C454.264,658.712 453.402,659.4 452.189,659.412L452.189,660.725L454.127,660.725L454.127,666L456.089,666ZM457.675,665.762C458.1,666.013 458.838,666.188 459.563,666.188C462.35,666.188 463.888,664.475 463.888,661.6C463.888,659.012 462.45,657.7 460.6,657.7C458.7,657.7 457.425,658.912 457.425,660.562C457.425,662.187 458.663,663.287 460.225,663.287C460.95,663.287 461.65,663 461.988,662.5C461.863,663.937 460.763,664.5 459.525,664.5C458.95,664.5 458.363,664.312 458.1,664.175L457.675,665.762ZM461.725,660.5C461.725,661.162 461.2,661.65 460.513,661.65C459.825,661.65 459.3,661.175 459.3,660.5C459.3,659.825 459.825,659.35 460.513,659.35C461.2,659.35 461.725,659.825 461.725,660.5ZM470.376,661.112L470.376,658.85L471.526,658.85C472.276,658.85 472.788,659.275 472.788,659.987C472.788,660.675 472.276,661.112 471.526,661.112L470.376,661.112ZM471.726,662.812C473.526,662.812 474.763,661.65 474.763,659.975C474.763,658.325 473.526,657.137 471.726,657.137L468.388,657.137L468.388,666L470.363,666L470.363,662.812L471.726,662.812ZM481.296,666L483.446,666L480.146,657.137L477.859,657.137L474.521,666L476.596,666L477.234,664.2L480.659,664.2L481.296,666ZM478.971,659.337L480.034,662.4L477.884,662.4L478.971,659.337ZM492.238,666L492.238,657.137L490.263,657.137L490.263,662.525L486.938,657.137L484.538,657.137L484.538,666L486.501,666L486.501,660.175L490.151,666L492.238,666ZM496.12,664.137L496.12,659L497.27,659C498.633,659 499.745,659.8 499.745,661.575C499.745,663.35 498.633,664.137 497.27,664.137L496.12,664.137ZM497.345,666C500.02,666 501.808,664.312 501.808,661.575C501.808,658.837 500.02,657.137 497.358,657.137L494.145,657.137L494.145,666L497.345,666ZM508.84,666L508.84,664.125L505.19,664.125L505.19,662.425L508.49,662.425L508.49,660.687L505.19,660.687L505.19,659L508.828,659L508.828,657.137L503.215,657.137L503.215,666L508.84,666ZM520.54,666L520.54,657.137L517.828,657.137L515.515,663.125L513.078,657.137L510.503,657.137L510.503,666L512.378,666L512.378,660.2L514.69,666L516.29,666L518.603,660.125L518.603,666L520.54,666ZM524.466,666L524.466,657.137L522.466,657.137L522.466,666L524.466,666ZM530.472,666.188C533.222,666.188 534.397,664.312 534.684,663.087L532.797,662.55C532.622,663.187 532.009,664.212 530.472,664.212C529.147,664.212 527.922,663.25 527.922,661.587C527.922,659.725 529.259,658.875 530.447,658.875C532.009,658.875 532.572,659.912 532.709,660.525L534.572,659.937C534.284,658.662 533.109,656.95 530.447,656.95C527.972,656.95 525.872,658.825 525.872,661.587C525.872,664.35 527.922,666.188 530.472,666.188Z" fill="black" style="fill-rule:nonzero;"/>
    </g>
    <g id="label-algo" class="fade-out" transform="matrix(1,0,0,1,-43.757,0)">
        <path d="M394.9,70L397.05,70L393.75,61.138L391.463,61.138L388.125,70L390.2,70L390.838,68.2L394.263,68.2L394.9,70ZM392.575,63.338L393.638,66.4L391.488,66.4L392.575,63.338ZM403.942,70L403.942,68.113L400.117,68.113L400.117,61.138L398.142,61.138L398.142,70L403.942,70ZM413.202,70L413.202,65.263L408.69,65.263L408.69,66.938L411.352,66.938C411.24,67.438 410.627,68.388 409.165,68.388C407.727,68.388 406.502,67.425 406.502,65.575C406.502,63.6 407.915,62.8 409.115,62.8C410.59,62.8 411.177,63.8 411.315,64.35L413.215,63.688C412.827,62.45 411.652,60.95 409.115,60.95C406.615,60.95 404.502,62.788 404.502,65.575C404.502,68.375 406.527,70.188 408.99,70.188C410.252,70.188 411.09,69.663 411.477,69.1L411.602,70L413.202,70ZM416.403,65.563C416.403,63.713 417.728,62.875 418.966,62.875C420.191,62.875 421.516,63.713 421.516,65.563C421.516,67.413 420.191,68.238 418.966,68.238C417.728,68.238 416.403,67.413 416.403,65.563ZM414.353,65.575C414.353,68.375 416.466,70.188 418.966,70.188C421.453,70.188 423.566,68.375 423.566,65.575C423.566,62.763 421.453,60.95 418.966,60.95C416.466,60.95 414.353,62.763 414.353,65.575ZM429.236,70L431.411,70L429.611,66.413C430.698,66.025 431.361,65.112 431.361,63.913C431.361,62.338 430.236,61.138 428.486,61.138L424.973,61.138L424.973,70L426.948,70L426.948,66.7L427.648,66.7L429.236,70ZM426.948,65L426.948,62.85L428.111,62.85C428.923,62.85 429.361,63.263 429.361,63.925C429.361,64.55 428.923,65 428.111,65L426.948,65ZM434.822,70L434.822,61.138L432.822,61.138L432.822,70L434.822,70ZM443.453,63.025L443.453,61.138L436.016,61.138L436.016,63.025L438.741,63.025L438.741,70L440.716,70L440.716,63.025L443.453,63.025ZM452.151,70L452.151,61.138L450.164,61.138L450.164,64.612L446.626,64.612L446.626,61.138L444.651,61.138L444.651,70L446.626,70L446.626,66.475L450.164,66.475L450.164,70L452.151,70ZM464.1,70L464.1,61.138L461.388,61.138L459.075,67.125L456.638,61.138L454.063,61.138L454.063,70L455.938,70L455.938,64.2L458.25,70L459.85,70L462.163,64.125L462.163,70L464.1,70ZM472.126,63.313C471.938,62.275 471.101,60.95 468.888,60.95C467.188,60.95 465.713,62.125 465.713,63.8C465.713,65.112 466.626,66.113 468.126,66.4L469.338,66.625C469.926,66.738 470.288,67.063 470.288,67.513C470.288,68.063 469.813,68.438 469.038,68.438C467.826,68.438 467.276,67.725 467.201,66.913L465.388,67.35C465.513,68.6 466.563,70.188 469.013,70.188C471.126,70.188 472.288,68.775 472.288,67.388C472.288,66.125 471.413,65.037 469.726,64.725L468.538,64.5C467.926,64.388 467.663,64.075 467.663,63.65C467.663,63.163 468.138,62.7 468.876,62.7C469.951,62.7 470.288,63.4 470.351,63.813L472.126,63.313ZM478.719,70L478.719,61.138L476.719,61.138L476.719,70L478.719,70ZM488.337,70L488.337,61.138L486.362,61.138L486.362,66.525L483.037,61.138L480.637,61.138L480.637,70L482.6,70L482.6,64.175L486.25,70L488.337,70ZM497.408,70.188C500.158,70.188 501.333,68.313 501.621,67.088L499.733,66.55C499.558,67.188 498.946,68.213 497.408,68.213C496.083,68.213 494.858,67.25 494.858,65.588C494.858,63.725 496.196,62.875 497.383,62.875C498.946,62.875 499.508,63.913 499.646,64.525L501.508,63.938C501.221,62.663 500.046,60.95 497.383,60.95C494.908,60.95 492.808,62.825 492.808,65.588C492.808,68.35 494.858,70.188 497.408,70.188ZM510.476,70L510.476,61.138L508.489,61.138L508.489,64.612L504.951,64.612L504.951,61.138L502.976,61.138L502.976,70L504.951,70L504.951,66.475L508.489,66.475L508.489,70L510.476,70ZM518.325,70L520.475,70L517.175,61.138L514.888,61.138L511.55,70L513.625,70L514.263,68.2L517.688,68.2L518.325,70ZM516,63.338L517.063,66.4L514.913,66.4L516,63.338ZM525.83,70L528.005,70L526.205,66.413C527.293,66.025 527.955,65.112 527.955,63.913C527.955,62.338 526.83,61.138 525.08,61.138L521.568,61.138L521.568,70L523.543,70L523.543,66.7L524.243,66.7L525.83,70ZM523.543,65L523.543,62.85L524.705,62.85C525.518,62.85 525.955,63.263 525.955,63.925C525.955,64.55 525.518,65 524.705,65L523.543,65ZM537.543,70L537.543,65.263L533.031,65.263L533.031,66.938L535.693,66.938C535.581,67.438 534.968,68.388 533.506,68.388C532.068,68.388 530.843,67.425 530.843,65.575C530.843,63.6 532.256,62.8 533.456,62.8C534.931,62.8 535.518,63.8 535.656,64.35L537.556,63.688C537.168,62.45 535.993,60.95 533.456,60.95C530.956,60.95 528.843,62.788 528.843,65.575C528.843,68.375 530.868,70.188 533.331,70.188C534.593,70.188 535.431,69.663 535.818,69.1L535.943,70L537.543,70ZM544.832,70L544.832,68.125L541.182,68.125L541.182,66.425L544.482,66.425L544.482,64.688L541.182,64.688L541.182,63L544.819,63L544.819,61.138L539.207,61.138L539.207,70L544.832,70Z" style="fill:black;fill-rule:nonzero;"/>
        <path d="M477.573,32L471.573,32C471.043,32.001 470.534,32.211 470.159,32.586C469.784,32.961 469.574,33.47 469.573,34L469.573,36L463.987,36L459.573,31.586L459.573,26L461.573,26C462.103,26 462.612,25.789 462.987,25.414C463.362,25.039 463.572,24.53 463.573,24L463.573,18C463.572,17.47 463.362,16.961 462.987,16.586C462.612,16.211 462.103,16 461.573,16L455.573,16C455.043,16 454.534,16.211 454.159,16.586C453.784,16.961 453.574,17.47 453.573,18L453.573,24C453.574,24.53 453.784,25.039 454.159,25.414C454.534,25.789 455.043,26 455.573,26L457.573,26L457.573,31.586L452.866,36.293C452.679,36.481 452.573,36.735 452.573,37C452.573,37.265 452.679,37.52 452.866,37.707L457.866,42.707C458.054,42.895 458.308,43 458.573,43C458.838,43 459.093,42.895 459.28,42.707L463.987,38L469.573,38L469.573,40C469.574,40.53 469.784,41.039 470.159,41.414C470.534,41.789 471.043,42 471.573,42L477.573,42C478.103,42 478.612,41.789 478.987,41.414C479.362,41.039 479.572,40.53 479.573,40L479.573,34C479.572,33.47 479.362,32.961 478.987,32.586C478.612,32.211 478.103,32.001 477.573,32ZM455.573,18L461.573,18L461.573,24L455.573,24L455.573,18ZM458.573,40.586L454.987,37L458.573,33.414L462.159,37L458.573,40.586ZM471.573,40L471.573,34L477.573,34L477.573,40L471.573,40Z" style="fill:black;fill-rule:nonzero;"/>
    </g>
    <g id="label-human" class="fade-out" transform="matrix(1,0,0,1,43.757,0)">
        <path d="M139.737 70V61.1375H137.75V64.6125H134.212V61.1375H132.237V70H134.212V66.475H137.75V70H139.737ZM145.086 70.2C147.036 70.2 148.599 69.025 148.599 66.8V61.1375H146.624V66.6375C146.624 67.7125 146.024 68.25 145.086 68.25C144.149 68.25 143.549 67.7125 143.549 66.6375V61.1375H141.574V66.8C141.574 69.025 143.136 70.2 145.086 70.2ZM160.488 70V61.1375H157.775L155.463 67.125L153.025 61.1375H150.45V70H152.325V64.2L154.638 70H156.238L158.55 64.125V70H160.488ZM168.35 70H170.5L167.2 61.1375H164.913L161.575 70H163.65L164.288 68.2H167.713L168.35 70ZM166.025 63.3375L167.088 66.4H164.938L166.025 63.3375ZM179.293 70V61.1375H177.318V66.525L173.993 61.1375H171.593V70H173.555V64.175L177.205 70H179.293ZM185.813 65.5625C185.813 63.7125 187.138 62.875 188.376 62.875C189.601 62.875 190.926 63.7125 190.926 65.5625C190.926 67.4125 189.601 68.2375 188.376 68.2375C187.138 68.2375 185.813 67.4125 185.813 65.5625ZM183.763 65.575C183.763 68.375 185.876 70.1875 188.376 70.1875C190.863 70.1875 192.976 68.375 192.976 65.575C192.976 62.7625 190.863 60.95 188.376 60.95C185.876 60.95 183.763 62.7625 183.763 65.575ZM197.541 67.375L195.403 61.1375H193.228L196.478 70H198.516L201.753 61.1375H199.653L197.541 67.375ZM208.468 70V68.125H204.818V66.425H208.118V64.6875H204.818V63H208.455V61.1375H202.843V70H208.468ZM214.393 70H216.568L214.768 66.4125C215.855 66.025 216.518 65.1125 216.518 63.9125C216.518 62.3375 215.393 61.1375 213.643 61.1375H210.13V70H212.105V66.7H212.805L214.393 70ZM212.105 65V62.85H213.268C214.08 62.85 214.518 63.2625 214.518 63.925C214.518 64.55 214.08 65 213.268 65H212.105ZM224.079 63.3125C223.892 62.275 223.054 60.95 220.842 60.95C219.142 60.95 217.667 62.125 217.667 63.8C217.667 65.1125 218.579 66.1125 220.079 66.4L221.292 66.625C221.879 66.7375 222.242 67.0625 222.242 67.5125C222.242 68.0625 221.767 68.4375 220.992 68.4375C219.779 68.4375 219.229 67.725 219.154 66.9125L217.342 67.35C217.467 68.6 218.517 70.1875 220.967 70.1875C223.079 70.1875 224.242 68.775 224.242 67.3875C224.242 66.125 223.367 65.0375 221.679 64.725L220.492 64.5C219.879 64.3875 219.617 64.075 219.617 63.65C219.617 63.1625 220.092 62.7 220.829 62.7C221.904 62.7 222.242 63.4 222.304 63.8125L224.079 63.3125ZM227.597 70V61.1375H225.597V70H227.597ZM237.702 70V65.2625H233.19V66.9375H235.852C235.74 67.4375 235.127 68.3875 233.665 68.3875C232.227 68.3875 231.002 67.425 231.002 65.575C231.002 63.6 232.415 62.8 233.615 62.8C235.09 62.8 235.677 63.8 235.815 64.35L237.715 63.6875C237.327 62.45 236.152 60.95 233.615 60.95C231.115 60.95 229.002 62.7875 229.002 65.575C229.002 68.375 231.027 70.1875 233.49 70.1875C234.752 70.1875 235.59 69.6625 235.977 69.1L236.102 70H237.702ZM246.866 70V61.1375H244.879V64.6125H241.341V61.1375H239.366V70H241.341V66.475H244.879V70H246.866ZM255.49 63.025V61.1375H248.053V63.025H250.778V70H252.753V63.025H255.49Z" fill="black"/>
        <path transform="matrix(1,0,0,1,-75,0)" d="M257.184,40C257.18,40 257.173,40 257.163,39.999C257.137,39.997 257.094,39.993 257.039,39.984C256.925,39.965 256.788,39.928 256.663,39.866C256.542,39.806 256.452,39.731 256.389,39.637C256.331,39.549 256.258,39.388 256.258,39.083C256.258,38.382 256.637,36.722 258.121,35.238C259.575,33.784 262.177,32.417 266.758,32.417C271.338,32.417 273.94,33.784 275.394,35.238C276.878,36.722 277.258,38.382 277.258,39.083C277.258,39.388 277.184,39.549 277.126,39.637C277.064,39.731 276.973,39.806 276.852,39.866C276.727,39.928 276.59,39.965 276.476,39.984C276.421,39.993 276.378,39.997 276.352,39.999C276.342,40 276.335,40 276.331,40L257.184,40ZM270.116,27.109C269.226,28 268.017,28.5 266.758,28.5C265.498,28.5 264.29,28 263.399,27.109C262.508,26.218 262.008,25.01 262.008,23.75C262.008,22.49 262.508,21.282 263.399,20.391C264.29,19.5 265.498,19 266.758,19C268.017,19 269.226,19.5 270.116,20.391C271.007,21.282 271.508,22.49 271.508,23.75C271.508,25.01 271.007,26.218 270.116,27.109Z" style="fill:none;fill-rule:nonzero;stroke:black;stroke-width:2px;"/>
    </g>
    <g id="grid" class="fade-out" transform="matrix(1,0,0,1,-43.757,0)">
        <path d="M175,622L548,622" style="fill:none;fill-rule:nonzero;stroke:rgb(28,82,117);stroke-width:1px;"/>
        <path d="M175,579L548,579" style="fill:none;fill-rule:nonzero;stroke:rgb(28,82,117);stroke-width:1px;"/>
        <path d="M175,536L548,536" style="fill:none;fill-rule:nonzero;stroke:rgb(28,82,117);stroke-width:1px;"/>
        <path d="M175,493L548,493" style="fill:none;fill-rule:nonzero;stroke:rgb(28,82,117);stroke-width:1px;"/>
        <path d="M175,449L548,449" style="fill:none;fill-rule:nonzero;stroke:rgb(28,82,117);stroke-width:1px;"/>
        <path d="M175,406L548,406" style="fill:none;fill-rule:nonzero;stroke:rgb(28,82,117);stroke-width:1px;"/>
        <path d="M175,333L548,333" style="fill:none;fill-rule:nonzero;stroke:rgb(28,82,117);stroke-width:1px;"/>
        <path d="M175,278L548,278" style="fill:none;fill-rule:nonzero;stroke:rgb(28,82,117);stroke-width:1px;"/>
        <path d="M175,223L548,223" style="fill:none;fill-rule:nonzero;stroke:rgb(28,82,117);stroke-width:1px;"/>
        <path d="M175,168L548,168" style="fill:none;fill-rule:nonzero;stroke:rgb(28,82,117);stroke-width:1px;"/>
        <path d="M175,113L548,113" style="fill:none;fill-rule:nonzero;stroke:rgb(28,82,117);stroke-width:1px;"/>
    </g>
    <g id="labels-q" class="fade-out" transform="matrix(1,0,0,1,-43.757,12)">
        <path d="M209.63,355.323C209.63,354.454 209.935,353.712 210.545,353.097C211.156,352.481 211.969,352.174 212.984,352.174C214,352.174 214.801,352.462 215.387,353.038C215.973,353.614 216.268,354.322 216.273,355.162C216.273,356.393 215.663,357.391 214.442,358.158L212.523,359.388C211.834,359.828 211.439,360.284 211.336,360.758L216.332,360.758L216.332,362.12L209.527,362.12C209.547,361.3 209.732,360.58 210.084,359.959C210.44,359.339 211.024,358.771 211.834,358.253L213.453,357.198C214.342,356.627 214.789,355.953 214.793,355.177C214.793,354.698 214.632,354.293 214.31,353.961C213.993,353.629 213.536,353.463 212.94,353.463C212.345,353.463 211.886,353.648 211.563,354.02C211.241,354.391 211.083,354.872 211.087,355.462C211.087,355.55 211.097,355.694 211.117,355.895L209.645,355.719C209.635,355.631 209.63,355.499 209.63,355.323ZM218.558,360.787C217.977,359.923 217.687,358.746 217.687,357.257C217.687,355.768 217.977,354.593 218.558,353.734C219.247,352.694 220.24,352.174 221.539,352.174C222.838,352.174 223.834,352.694 224.527,353.734C225.108,354.593 225.399,355.768 225.399,357.257C225.399,358.746 225.108,359.923 224.527,360.787C223.839,361.827 222.845,362.347 221.546,362.347C220.248,362.347 219.251,361.827 218.558,360.787ZM220.001,354.107C219.43,354.708 219.144,355.758 219.144,357.257C219.144,358.756 219.43,359.808 220.001,360.414C220.401,360.833 220.917,361.043 221.546,361.043C222.176,361.043 222.691,360.833 223.092,360.414C223.658,359.813 223.941,358.761 223.941,357.257C223.941,355.753 223.658,354.703 223.092,354.107C222.691,353.688 222.176,353.478 221.546,353.478C220.917,353.478 220.401,353.688 220.001,354.107ZM230.248,362.12L228.812,362.12L228.812,355.265L226.454,355.265L226.454,354.232C227.113,354.222 227.669,354.049 228.124,353.712C228.573,353.375 228.851,352.938 228.958,352.401L230.248,352.401L230.248,362.12ZM237.03,356.993C237.445,356.622 237.652,356.131 237.652,355.521C237.652,354.911 237.442,354.415 237.022,354.034C236.603,353.653 236.109,353.463 235.543,353.463C234.977,353.463 234.488,353.651 234.078,354.027C233.668,354.403 233.46,354.901 233.456,355.521C233.456,356.141 233.661,356.637 234.071,357.008C234.476,357.379 234.967,357.564 235.543,357.564C236.119,357.564 236.615,357.374 237.03,356.993ZM234.474,361.021C235.582,361.021 236.415,360.704 236.971,360.069C237.528,359.435 237.821,358.602 237.85,357.572C237.66,357.923 237.347,358.219 236.913,358.458C236.478,358.697 235.951,358.817 235.331,358.817C234.432,358.817 233.646,358.526 232.972,357.945C232.303,357.359 231.969,356.566 231.969,355.565C231.969,354.564 232.32,353.749 233.023,353.119C233.727,352.489 234.583,352.174 235.594,352.174C236.605,352.174 237.481,352.555 238.224,353.316C238.966,354.078 239.334,355.187 239.33,356.642C239.325,358.463 238.917,359.869 238.106,360.86C237.296,361.852 236.085,362.347 234.474,362.347C234.093,362.342 233.683,362.286 233.243,362.179C232.804,362.071 232.464,361.937 232.225,361.776L232.701,360.56C233.209,360.868 233.8,361.021 234.474,361.021ZM246.009,356.795C246.009,358.114 246.385,359.144 247.137,359.886C247.889,360.628 248.792,360.997 249.847,360.992C250.526,360.992 251.146,360.838 251.708,360.531L249.862,358.458L250.887,357.572L252.748,359.674C253.377,358.912 253.692,357.911 253.692,356.671C253.692,355.431 253.316,354.444 252.564,353.712C251.812,352.979 250.907,352.613 249.847,352.613C248.788,352.613 247.882,352.979 247.13,353.712C246.378,354.444 246.004,355.472 246.009,356.795ZM244.508,356.795C244.508,355.941 244.659,355.157 244.962,354.444C245.528,353.126 246.502,352.188 247.884,351.632C248.514,351.383 249.168,351.258 249.847,351.258C251.244,351.258 252.467,351.737 253.517,352.694C254.024,353.148 254.43,353.729 254.732,354.437C255.035,355.145 255.187,355.931 255.187,356.795C255.187,358.387 254.688,359.698 253.692,360.729L254.938,362.12L253.927,363.006L252.638,361.578C251.798,362.086 250.895,362.34 249.928,362.34C248.961,362.34 248.08,362.132 247.284,361.717C246.488,361.292 245.826,360.65 245.299,359.791C244.771,358.932 244.508,357.933 244.508,356.795ZM261.156,358.568L261.156,353.807L257.735,358.568L261.156,358.568ZM256.388,359.93L256.388,358.238L260.555,352.401L262.584,352.401L262.584,358.568L264.247,358.568L264.247,359.93L262.584,359.93L262.584,362.12L261.156,362.12L261.156,359.93L256.388,359.93Z" style="fill:black;fill-rule:nonzero;"/>
        <path d="M302.63,355.323C302.63,354.454 302.935,353.712 303.545,353.097C304.156,352.481 304.969,352.174 305.984,352.174C307,352.174 307.801,352.462 308.387,353.038C308.973,353.614 309.268,354.322 309.273,355.162C309.273,356.393 308.663,357.391 307.442,358.158L305.523,359.388C304.834,359.828 304.439,360.284 304.336,360.758L309.332,360.758L309.332,362.12L302.527,362.12C302.547,361.3 302.732,360.58 303.084,359.959C303.44,359.339 304.024,358.771 304.834,358.253L306.453,357.198C307.342,356.627 307.789,355.953 307.793,355.177C307.793,354.698 307.632,354.293 307.31,353.961C306.993,353.629 306.536,353.463 305.94,353.463C305.345,353.463 304.886,353.648 304.563,354.02C304.241,354.391 304.083,354.872 304.087,355.462C304.087,355.55 304.097,355.694 304.117,355.895L302.645,355.719C302.635,355.631 302.63,355.499 302.63,355.323ZM311.558,360.787C310.977,359.923 310.687,358.746 310.687,357.257C310.687,355.768 310.977,354.593 311.558,353.734C312.247,352.694 313.24,352.174 314.539,352.174C315.838,352.174 316.834,352.694 317.527,353.734C318.108,354.593 318.399,355.768 318.399,357.257C318.399,358.746 318.108,359.923 317.527,360.787C316.839,361.827 315.845,362.347 314.546,362.347C313.248,362.347 312.251,361.827 311.558,360.787ZM313.001,354.107C312.43,354.708 312.144,355.758 312.144,357.257C312.144,358.756 312.43,359.808 313.001,360.414C313.401,360.833 313.917,361.043 314.546,361.043C315.176,361.043 315.691,360.833 316.092,360.414C316.658,359.813 316.941,358.761 316.941,357.257C316.941,355.753 316.658,354.703 316.092,354.107C315.691,353.688 315.176,353.478 314.546,353.478C313.917,353.478 313.401,353.688 313.001,354.107ZM319.783,355.323C319.783,354.454 320.088,353.712 320.699,353.097C321.309,352.481 322.122,352.174 323.138,352.174C324.153,352.174 324.954,352.462 325.54,353.038C326.126,353.614 326.421,354.322 326.426,355.162C326.426,356.393 325.816,357.391 324.595,358.158L322.676,359.388C321.988,359.828 321.592,360.284 321.49,360.758L326.485,360.758L326.485,362.12L319.681,362.12C319.7,361.3 319.886,360.58 320.237,359.959C320.594,359.339 321.177,358.771 321.988,358.253L323.606,357.198C324.495,356.627 324.942,355.953 324.947,355.177C324.947,354.698 324.786,354.293 324.463,353.961C324.146,353.629 323.689,353.463 323.094,353.463C322.498,353.463 322.039,353.648 321.717,354.02C321.395,354.391 321.236,354.872 321.241,355.462C321.241,355.55 321.25,355.694 321.27,355.895L319.798,355.719C319.788,355.631 319.783,355.499 319.783,355.323ZM328.711,360.787C328.13,359.923 327.84,358.746 327.84,357.257C327.84,355.768 328.13,354.593 328.711,353.734C329.4,352.694 330.394,352.174 331.692,352.174C332.991,352.174 333.987,352.694 334.681,353.734C335.262,354.593 335.552,355.768 335.552,357.257C335.552,358.746 335.262,359.923 334.681,360.787C333.992,361.827 332.999,362.347 331.7,362.347C330.401,362.347 329.405,361.827 328.711,360.787ZM330.154,354.107C329.583,354.708 329.297,355.758 329.297,357.257C329.297,358.756 329.583,359.808 330.154,360.414C330.555,360.833 331.07,361.043 331.7,361.043C332.33,361.043 332.845,360.833 333.245,360.414C333.812,359.813 334.095,358.761 334.095,357.257C334.095,355.753 333.812,354.703 333.245,354.107C332.845,353.688 332.33,353.478 331.7,353.478C331.07,353.478 330.555,353.688 330.154,354.107ZM342.232,356.795C342.232,358.114 342.608,359.144 343.36,359.886C344.112,360.628 345.015,360.997 346.07,360.992C346.749,360.992 347.369,360.838 347.93,360.531L346.084,358.458L347.11,357.572L348.97,359.674C349.6,358.912 349.915,357.911 349.915,356.671C349.915,355.431 349.539,354.444 348.787,353.712C348.035,352.979 347.129,352.613 346.07,352.613C345.01,352.613 344.104,352.979 343.353,353.712C342.601,354.444 342.227,355.472 342.232,356.795ZM340.73,356.795C340.73,355.941 340.882,355.157 341.185,354.444C341.751,353.126 342.725,352.188 344.107,351.632C344.737,351.383 345.391,351.258 346.07,351.258C347.466,351.258 348.689,351.737 349.739,352.694C350.247,353.148 350.652,353.729 350.955,354.437C351.258,355.145 351.409,355.931 351.409,356.795C351.409,358.387 350.911,359.698 349.915,360.729L351.16,362.12L350.149,363.006L348.86,361.578C348.021,362.086 347.117,362.34 346.15,362.34C345.184,362.34 344.302,362.132 343.506,361.717C342.71,361.292 342.049,360.65 341.521,359.791C340.994,358.932 340.73,357.933 340.73,356.795ZM356.25,362.12L354.815,362.12L354.815,355.265L352.457,355.265L352.457,354.232C353.116,354.222 353.672,354.049 354.126,353.712C354.576,353.375 354.854,352.938 354.961,352.401L356.25,352.401L356.25,362.12Z" style="fill:black;fill-rule:nonzero;"/>
        <path d="M391.63,355.203C391.63,354.334 391.935,353.592 392.545,352.977C393.156,352.361 393.969,352.054 394.984,352.054C396,352.054 396.801,352.342 397.387,352.918C397.973,353.494 398.268,354.202 398.273,355.042C398.273,356.272 397.663,357.271 396.442,358.038L394.523,359.268C393.834,359.708 393.439,360.164 393.336,360.638L398.332,360.638L398.332,362L391.527,362C391.547,361.18 391.732,360.459 392.084,359.839C392.44,359.219 393.024,358.65 393.834,358.133L395.453,357.078C396.342,356.507 396.789,355.833 396.793,355.057C396.793,354.578 396.632,354.173 396.31,353.841C395.993,353.509 395.536,353.343 394.94,353.343C394.345,353.343 393.886,353.528 393.563,353.899C393.241,354.271 393.083,354.751 393.087,355.342C393.087,355.43 393.097,355.574 393.117,355.774L391.645,355.599C391.635,355.511 391.63,355.379 391.63,355.203ZM400.558,360.667C399.977,359.803 399.687,358.626 399.687,357.137C399.687,355.647 399.977,354.473 400.558,353.614C401.247,352.574 402.24,352.054 403.539,352.054C404.838,352.054 405.834,352.574 406.527,353.614C407.108,354.473 407.399,355.647 407.399,357.137C407.399,358.626 407.108,359.803 406.527,360.667C405.839,361.707 404.845,362.227 403.546,362.227C402.248,362.227 401.251,361.707 400.558,360.667ZM402.001,353.987C401.43,354.588 401.144,355.638 401.144,357.137C401.144,358.636 401.43,359.688 402.001,360.293C402.401,360.713 402.917,360.923 403.546,360.923C404.176,360.923 404.691,360.713 405.092,360.293C405.658,359.693 405.941,358.641 405.941,357.137C405.941,355.633 405.658,354.583 405.092,353.987C404.691,353.567 404.176,353.357 403.546,353.357C402.917,353.357 402.401,353.567 402.001,353.987ZM408.783,355.203C408.783,354.334 409.088,353.592 409.699,352.977C410.309,352.361 411.122,352.054 412.138,352.054C413.153,352.054 413.954,352.342 414.54,352.918C415.126,353.494 415.421,354.202 415.426,355.042C415.426,356.272 414.816,357.271 413.595,358.038L411.676,359.268C410.988,359.708 410.592,360.164 410.49,360.638L415.485,360.638L415.485,362L408.681,362C408.7,361.18 408.886,360.459 409.237,359.839C409.594,359.219 410.177,358.65 410.988,358.133L412.606,357.078C413.495,356.507 413.942,355.833 413.947,355.057C413.947,354.578 413.786,354.173 413.463,353.841C413.146,353.509 412.689,353.343 412.094,353.343C411.498,353.343 411.039,353.528 410.717,353.899C410.395,354.271 410.236,354.751 410.241,355.342C410.241,355.43 410.25,355.574 410.27,355.774L408.798,355.599C408.788,355.511 408.783,355.379 408.783,355.203ZM417.711,360.667C417.13,359.803 416.84,358.626 416.84,357.137C416.84,355.647 417.13,354.473 417.711,353.614C418.4,352.574 419.394,352.054 420.692,352.054C421.991,352.054 422.987,352.574 423.681,353.614C424.262,354.473 424.552,355.647 424.552,357.137C424.552,358.626 424.262,359.803 423.681,360.667C422.992,361.707 421.999,362.227 420.7,362.227C419.401,362.227 418.405,361.707 417.711,360.667ZM419.154,353.987C418.583,354.588 418.297,355.638 418.297,357.137C418.297,358.636 418.583,359.688 419.154,360.293C419.555,360.713 420.07,360.923 420.7,360.923C421.33,360.923 421.845,360.713 422.245,360.293C422.812,359.693 423.095,358.641 423.095,357.137C423.095,355.633 422.812,354.583 422.245,353.987C421.845,353.567 421.33,353.357 420.7,353.357C420.07,353.357 419.555,353.567 419.154,353.987ZM431.232,356.675C431.232,357.994 431.608,359.024 432.36,359.766C433.112,360.508 434.015,360.877 435.07,360.872C435.749,360.872 436.369,360.718 436.93,360.411L435.084,358.338L436.11,357.452L437.97,359.554C438.6,358.792 438.915,357.791 438.915,356.551C438.915,355.311 438.539,354.324 437.787,353.592C437.035,352.859 436.129,352.493 435.07,352.493C434.01,352.493 433.104,352.859 432.353,353.592C431.601,354.324 431.227,355.352 431.232,356.675ZM429.73,356.675C429.73,355.821 429.882,355.037 430.185,354.324C430.751,353.006 431.725,352.068 433.107,351.512C433.737,351.263 434.391,351.138 435.07,351.138C436.466,351.138 437.689,351.617 438.739,352.574C439.247,353.028 439.652,353.609 439.955,354.317C440.258,355.025 440.409,355.811 440.409,356.675C440.409,358.267 439.911,359.578 438.915,360.608L440.16,362L439.149,362.886L437.86,361.458C437.021,361.966 436.117,362.22 435.15,362.22C434.184,362.22 433.302,362.012 432.506,361.597C431.71,361.172 431.049,360.53 430.521,359.671C429.994,358.812 429.73,357.813 429.73,356.675ZM441.713,355.203C441.713,354.334 442.018,353.592 442.628,352.977C443.239,352.361 444.052,352.054 445.067,352.054C446.083,352.054 446.884,352.342 447.47,352.918C448.056,353.494 448.351,354.202 448.356,355.042C448.356,356.272 447.746,357.271 446.525,358.038L444.606,359.268C443.917,359.708 443.522,360.164 443.419,360.638L448.415,360.638L448.415,362L441.61,362C441.63,361.18 441.815,360.459 442.167,359.839C442.523,359.219 443.107,358.65 443.917,358.133L445.536,357.078C446.425,356.507 446.872,355.833 446.876,355.057C446.876,354.578 446.715,354.173 446.393,353.841C446.076,353.509 445.619,353.343 445.023,353.343C444.428,353.343 443.969,353.528 443.646,353.899C443.324,354.271 443.166,354.751 443.17,355.342C443.17,355.43 443.18,355.574 443.2,355.774L441.728,355.599C441.718,355.511 441.713,355.379 441.713,355.203Z" style="fill:black;fill-rule:nonzero;"/>
        <path d="M488.63,355.203C488.63,354.334 488.935,353.592 489.545,352.977C490.156,352.361 490.969,352.054 491.984,352.054C493,352.054 493.801,352.342 494.387,352.918C494.973,353.494 495.268,354.202 495.273,355.042C495.273,356.272 494.663,357.271 493.442,358.038L491.523,359.268C490.834,359.708 490.439,360.164 490.336,360.638L495.332,360.638L495.332,362L488.527,362C488.547,361.18 488.732,360.459 489.084,359.839C489.44,359.219 490.024,358.65 490.834,358.133L492.453,357.078C493.342,356.507 493.789,355.833 493.793,355.057C493.793,354.578 493.632,354.173 493.31,353.841C492.993,353.509 492.536,353.343 491.94,353.343C491.345,353.343 490.886,353.528 490.563,353.899C490.241,354.271 490.083,354.751 490.087,355.342C490.087,355.43 490.097,355.574 490.117,355.774L488.645,355.599C488.635,355.511 488.63,355.379 488.63,355.203ZM497.558,360.667C496.977,359.803 496.687,358.626 496.687,357.137C496.687,355.647 496.977,354.473 497.558,353.614C498.247,352.574 499.24,352.054 500.539,352.054C501.838,352.054 502.834,352.574 503.527,353.614C504.108,354.473 504.399,355.647 504.399,357.137C504.399,358.626 504.108,359.803 503.527,360.667C502.839,361.707 501.845,362.227 500.546,362.227C499.248,362.227 498.251,361.707 497.558,360.667ZM499.001,353.987C498.43,354.588 498.144,355.638 498.144,357.137C498.144,358.636 498.43,359.688 499.001,360.293C499.401,360.713 499.917,360.923 500.546,360.923C501.176,360.923 501.691,360.713 502.092,360.293C502.658,359.693 502.941,358.641 502.941,357.137C502.941,355.633 502.658,354.583 502.092,353.987C501.691,353.567 501.176,353.357 500.546,353.357C499.917,353.357 499.401,353.567 499.001,353.987ZM505.783,355.203C505.783,354.334 506.088,353.592 506.699,352.977C507.309,352.361 508.122,352.054 509.138,352.054C510.153,352.054 510.954,352.342 511.54,352.918C512.126,353.494 512.421,354.202 512.426,355.042C512.426,356.272 511.816,357.271 510.595,358.038L508.676,359.268C507.988,359.708 507.592,360.164 507.49,360.638L512.485,360.638L512.485,362L505.681,362C505.7,361.18 505.886,360.459 506.237,359.839C506.594,359.219 507.177,358.65 507.988,358.133L509.606,357.078C510.495,356.507 510.942,355.833 510.947,355.057C510.947,354.578 510.786,354.173 510.463,353.841C510.146,353.509 509.689,353.343 509.094,353.343C508.498,353.343 508.039,353.528 507.717,353.899C507.395,354.271 507.236,354.751 507.241,355.342C507.241,355.43 507.25,355.574 507.27,355.774L505.798,355.599C505.788,355.511 505.783,355.379 505.783,355.203ZM514.711,360.667C514.13,359.803 513.84,358.626 513.84,357.137C513.84,355.647 514.13,354.473 514.711,353.614C515.4,352.574 516.394,352.054 517.692,352.054C518.991,352.054 519.987,352.574 520.681,353.614C521.262,354.473 521.552,355.647 521.552,357.137C521.552,358.626 521.262,359.803 520.681,360.667C519.992,361.707 518.999,362.227 517.7,362.227C516.401,362.227 515.405,361.707 514.711,360.667ZM516.154,353.987C515.583,354.588 515.297,355.638 515.297,357.137C515.297,358.636 515.583,359.688 516.154,360.293C516.555,360.713 517.07,360.923 517.7,360.923C518.33,360.923 518.845,360.713 519.245,360.293C519.812,359.693 520.095,358.641 520.095,357.137C520.095,355.633 519.812,354.583 519.245,353.987C518.845,353.567 518.33,353.357 517.7,353.357C517.07,353.357 516.555,353.567 516.154,353.987ZM528.232,356.675C528.232,357.994 528.608,359.024 529.36,359.766C530.112,360.508 531.015,360.877 532.07,360.872C532.749,360.872 533.369,360.718 533.93,360.411L532.084,358.338L533.11,357.452L534.97,359.554C535.6,358.792 535.915,357.791 535.915,356.551C535.915,355.311 535.539,354.324 534.787,353.592C534.035,352.859 533.129,352.493 532.07,352.493C531.01,352.493 530.104,352.859 529.353,353.592C528.601,354.324 528.227,355.352 528.232,356.675ZM526.73,356.675C526.73,355.821 526.882,355.037 527.185,354.324C527.751,353.006 528.725,352.068 530.107,351.512C530.737,351.263 531.391,351.138 532.07,351.138C533.466,351.138 534.689,351.617 535.739,352.574C536.247,353.028 536.652,353.609 536.955,354.317C537.258,355.025 537.409,355.811 537.409,356.675C537.409,358.267 536.911,359.578 535.915,360.608L537.16,362L536.149,362.886L534.86,361.458C534.021,361.966 533.117,362.22 532.15,362.22C531.184,362.22 530.302,362.012 529.506,361.597C528.71,361.172 528.049,360.53 527.521,359.671C526.994,358.812 526.73,357.813 526.73,356.675ZM538.955,353.628L538.955,352.281L545.554,352.281L545.554,353.599L542.778,356.163C543.569,356.167 544.267,356.429 544.873,356.946C545.478,357.464 545.781,358.172 545.781,359.07C545.781,359.969 545.466,360.721 544.836,361.326C544.211,361.937 543.356,362.242 542.272,362.242C541.188,362.242 540.324,361.944 539.68,361.348C539.035,360.752 538.688,360.03 538.64,359.18L540.075,358.851C540.104,359.48 540.322,359.988 540.727,360.374C541.132,360.76 541.645,360.953 542.265,360.953C542.885,360.953 543.378,360.779 543.745,360.433C544.111,360.081 544.294,359.632 544.294,359.085C544.294,358.538 544.099,358.111 543.708,357.803C543.317,357.496 542.854,357.339 542.316,357.334C542.023,357.339 541.738,357.391 541.459,357.488L540.734,356.272L543.605,353.628L538.955,353.628Z" style="fill:black;fill-rule:nonzero;"/>
    </g>
    <g id="label-fb" class="fade-out" transform="matrix(1,0,0,1,25,110)">
        <path d="M2.95 116L2.95 112.687H6.225V110.887H2.9375V109.012H6.675L6.675 107.137H0.9625L0.9625 116H2.95ZM13.2721 116H15.4221L12.1221 107.137H9.83457L6.49707 116H8.57207L9.20957 114.2H12.6346L13.2721 116ZM10.9471 109.337L12.0096 112.4H9.85957L10.9471 109.337ZM20.1135 116.188C22.8635 116.188 24.0385 114.312 24.326 113.087L22.4385 112.55C22.2635 113.187 21.651 114.212 20.1135 114.212C18.7885 114.212 17.5635 113.25 17.5635 111.587C17.5635 109.725 18.901 108.875 20.0885 108.875C21.651 108.875 22.2135 109.912 22.351 110.525L24.2135 109.937C23.926 108.662 22.751 106.95 20.0885 106.95C17.6135 106.95 15.5135 108.825 15.5135 111.587C15.5135 114.35 17.5635 116.188 20.1135 116.188ZM31.3067 116V114.125H27.6567V112.425H30.9567V110.687H27.6567V109H31.2942V107.137H25.6817V116H31.3067ZM32.9693 107.137L32.9693 116H36.5443C38.2193 116 39.3193 114.937 39.3193 113.487C39.3193 112.337 38.5443 111.6 37.7443 111.412C38.4693 111.175 39.0443 110.425 39.0443 109.512C39.0443 108.15 38.0318 107.137 36.2818 107.137H32.9693ZM34.8943 110.687L34.8943 108.775H35.9443C36.7193 108.775 37.1068 109.15 37.1068 109.725C37.1068 110.325 36.6568 110.687 35.9693 110.687H34.8943ZM34.8943 114.387V112.312H36.1318C36.9068 112.312 37.3568 112.737 37.3568 113.35C37.3568 113.987 36.8943 114.387 36.1318 114.387H34.8943ZM42.2217 111.562C42.2217 109.712 43.5467 108.875 44.7842 108.875C46.0092 108.875 47.3342 109.712 47.3342 111.562C47.3342 113.412 46.0092 114.237 44.7842 114.237C43.5467 114.237 42.2217 113.412 42.2217 111.562ZM40.1717 111.575C40.1717 114.375 42.2842 116.188 44.7842 116.188C47.2717 116.188 49.3842 114.375 49.3842 111.575C49.3842 108.762 47.2717 106.95 44.7842 106.95C42.2842 106.95 40.1717 108.762 40.1717 111.575ZM52.3291 111.562C52.3291 109.712 53.6541 108.875 54.8916 108.875C56.1166 108.875 57.4416 109.712 57.4416 111.562C57.4416 113.412 56.1166 114.237 54.8916 114.237C53.6541 114.237 52.3291 113.412 52.3291 111.562ZM50.2791 111.575C50.2791 114.375 52.3916 116.188 54.8916 116.188C57.3791 116.188 59.4916 114.375 59.4916 111.575C59.4916 108.762 57.3791 106.95 54.8916 106.95C52.3916 106.95 50.2791 108.762 50.2791 111.575ZM66.2615 116H68.724L65.2615 110.975L68.7115 107.137H66.1115L62.874 110.862L62.874 107.137H60.899L60.899 116H62.874V113.625L63.874 112.512L66.2615 116Z" fill="black"/>
    </g>
    <g id="label-yt" class="fade-out" transform="matrix(1,0,0,1,25,110)">
      <path d="M13.2 403.3V407H15.175V403.3L18.2875 398.137H16.0875L14.25 401.425L12.4375 398.137H10.125L13.2 403.3ZM20.2881 402.562C20.2881 400.712 21.6131 399.875 22.8506 399.875C24.0756 399.875 25.4006 400.712 25.4006 402.562C25.4006 404.412 24.0756 405.237 22.8506 405.237C21.6131 405.237 20.2881 404.412 20.2881 402.562ZM18.2381 402.575C18.2381 405.375 20.3506 407.188 22.8506 407.188C25.3381 407.188 27.4506 405.375 27.4506 402.575C27.4506 399.762 25.3381 397.95 22.8506 397.95C20.3506 397.95 18.2381 399.762 18.2381 402.575ZM32.2955 407.2C34.2455 407.2 35.808 406.025 35.808 403.8V398.137H33.833V403.637C33.833 404.712 33.233 405.25 32.2955 405.25C31.358 405.25 30.758 404.712 30.758 403.637V398.137H28.783V403.8C28.783 406.025 30.3455 407.2 32.2955 407.2ZM44.4328 400.025V398.137H36.9953V400.025H39.7203V407H41.6953V400.025H44.4328ZM49.129 407.2C51.079 407.2 52.6415 406.025 52.6415 403.8L52.6415 398.137H50.6665L50.6665 403.637C50.6665 404.712 50.0665 405.25 49.129 405.25C48.1915 405.25 47.5915 404.712 47.5915 403.637L47.5915 398.137H45.6165L45.6165 403.8C45.6165 406.025 47.179 407.2 49.129 407.2ZM54.4928 398.137L54.4928 407H58.0678C59.7428 407 60.8428 405.937 60.8428 404.487C60.8428 403.337 60.0678 402.6 59.2678 402.412C59.9928 402.175 60.5678 401.425 60.5678 400.512C60.5678 399.15 59.5553 398.137 57.8053 398.137H54.4928ZM56.4178 401.687L56.4178 399.775H57.4678C58.2428 399.775 58.6303 400.15 58.6303 400.725C58.6303 401.325 58.1803 401.687 57.4928 401.687H56.4178ZM56.4178 405.387V403.312H57.6553C58.4303 403.312 58.8803 403.737 58.8803 404.35C58.8803 404.987 58.4178 405.387 57.6553 405.387H56.4178ZM67.8326 407V405.125H64.1826V403.425H67.4826V401.687H64.1826V400H67.8201V398.137H62.2076L62.2076 407H67.8326Z" fill="black"/>
    </g>
    <g id="_2020-q3" serif:id="2020-q3" transform="matrix(1,0,0,1,-43.757,0)">
        <g id="q3-split-yt" class="fade-out">
            <rect x="496" y="530.55" width="40" height="90.64" style="fill:rgb(231,92,100);fill-rule:nonzero;"/>
            <rect x="496" y="495.08" width="40" height="35.47" style="fill:rgb(28,82,117);fill-rule:nonzero;"/>
        </g>
        <g id="q3-split-fb" class="fade-out">
            <rect x="496.5" y="330.5" width="39" height="1" style="fill:rgb(231,92,100);fill-rule:nonzero;stroke:rgb(231,92,100);stroke-width:1px;"/>
            <rect x="496.5" y="328.5" width="39" height="1" style="fill:rgb(28,82,117);fill-rule:nonzero;stroke:rgb(28,82,117);stroke-width:1px;"/>
        </g>
    </g>
    <g id="_2020-q2" serif:id="2020-q2" transform="matrix(1,0,0,1,-43.757,0)">
        <g id="q2-split-yt" class="fade-out">
            <rect x="403" y="480.67" width="40" height="140.52" style="fill:rgb(231,92,100);fill-rule:nonzero;"/>
            <rect x="403" y="411.32" width="40" height="69.36" style="fill:rgb(28,82,117);fill-rule:nonzero;"/>
        </g>
        <g id="q2-split-fb" class="fade-out">
            <rect x="403.5" y="330.5" width="39" height="1" style="fill:rgb(231,92,100);fill-rule:nonzero;stroke:rgb(231,92,100);stroke-width:1px;"/>
            <rect x="403.5" y="328.5" width="39" height="1" style="fill:rgb(28,82,117);fill-rule:nonzero;stroke:rgb(28,82,117);stroke-width:1px;"/>
        </g>
    </g>
    <g id="_2020-q1" class="fade-out" serif:id="2020-q1" transform="matrix(1,0,0,1,-43.757,0)">
        <g>
            <rect x="310" y="549.54" width="40" height="71.65" style="fill:rgb(231,92,100);fill-rule:nonzero;"/>
            <rect x="310" y="531.81" width="40" height="17.73" style="fill:rgb(28,82,117);fill-rule:nonzero;"/>
        </g>
        <g>
            <rect x="310" y="207" width="40" height="125" style="fill:rgb(231,92,100);fill-rule:nonzero;"/>
            <rect x="310" y="171" width="40" height="36" style="fill:rgb(28,82,117);fill-rule:nonzero;"/>
        </g>
    </g>
    <g id="_2019-q4" serif:id="2019-q4" transform="matrix(1,0,0,1,-43.757,0)">
        <g id="q4-split-yt" class="fade-out">
            <rect x="217" y="575.17" width="40" height="46.02" style="fill:rgb(231,92,100);fill-rule:nonzero;"/>
            <rect x="217" y="566.16" width="40" height="9.01" style="fill:rgb(28,82,117);fill-rule:nonzero;"/>
        </g>
        <g id="q4-split-fb" class="fade-out">
            <rect x="217" y="179" width="40" height="153" style="fill:rgb(231,92,100);fill-rule:nonzero;"/>
            <rect x="217" y="135" width="40" height="44" style="fill:rgb(28,82,117);fill-rule:nonzero;"/>
        </g>
    </g>
</svg>
