<svg width="617" height="831" viewBox="0 0 617 831" fill="none" xmlns="http://www.w3.org/2000/svg">
<line x1="46.2498" y1="649.904" x2="605.25" y2="649.904" stroke="#1C5275"/>
<line x1="46.2498" y1="303.904" x2="605.25" y2="303.904" stroke="#1C5275"/>
<line x1="46.2498" y1="607.904" x2="605.25" y2="607.904" stroke="#1C5275"/>
<line x1="46.2498" y1="261.904" x2="605.25" y2="261.904" stroke="#1C5275"/>
<line x1="46.2498" y1="567.904" x2="605.25" y2="567.904" stroke="#1C5275"/>
<line x1="46.2498" y1="221.904" x2="605.25" y2="221.904" stroke="#1C5275"/>
<line x1="46.2498" y1="526.904" x2="605.25" y2="526.904" stroke="#1C5275"/>
<line x1="46.2498" y1="180.904" x2="605.25" y2="180.904" stroke="#1C5275"/>
<line x1="46.2498" y1="485.904" x2="605.25" y2="485.904" stroke="#1C5275"/>
<line x1="46.2498" y1="139.904" x2="605.25" y2="139.904" stroke="#1C5275"/>
<line x1="46.2498" y1="688.904" x2="605.251" y2="688.904" stroke="#1C5275"/>
<line x1="46.2498" y1="342.904" x2="605.251" y2="342.904" stroke="#1C5275"/>
<line x1="46.2498" y1="444.904" x2="605.25" y2="444.904" stroke="#1C5275"/>
<line x1="46.2498" y1="98.9043" x2="605.25" y2="98.9043" stroke="#1C5275"/>
<rect x="324.75" y="0.202148" width="292" height="830" fill="#ECA400" fill-opacity="0.5"/>
<path d="M16.2498 261.021L16.2498 262.787L3.48804 262.787L3.48804 255.026L5.1228 255.026L5.1228 261.021L9.22729 261.021L9.22729 255.58L10.8884 255.58L10.8884 261.021L16.2498 261.021ZM15.0984 251.089C15.0984 250.333 14.8933 249.727 14.4832 249.27C14.073 248.812 13.4255 248.587 12.5408 248.593L12.1453 248.593L12.5408 251.238C12.5994 251.625 12.7371 251.93 12.9539 252.152C13.1707 252.375 13.4548 252.489 13.8064 252.495C14.158 252.495 14.4626 252.366 14.7205 252.108C14.9724 251.851 15.0984 251.511 15.0984 251.089ZM16.5222 251.44C16.5222 252.22 16.2673 252.879 15.7576 253.418C15.2478 253.957 14.6296 254.227 13.9031 254.227C13.1765 254.227 12.5876 253.986 12.1365 253.506C11.6853 253.025 11.407 252.39 11.3015 251.599L10.9587 249.252C10.9001 248.807 10.6628 248.584 10.2468 248.584C9.83081 248.584 9.47925 248.742 9.19214 249.059C8.90503 249.375 8.76147 249.832 8.76147 250.43C8.76147 251.027 8.91968 251.493 9.23608 251.827C9.55249 252.161 9.97729 252.36 10.5105 252.425L10.1326 254.042C9.31226 253.96 8.63843 253.582 8.11108 252.908C7.58374 252.234 7.32007 251.432 7.32007 250.5C7.32007 249.27 7.6189 248.361 8.21655 247.775C8.81421 247.189 9.573 246.896 10.4929 246.896L14.8259 246.896C15.3416 246.896 15.8162 246.861 16.2498 246.791L16.2498 248.443C15.8923 248.502 15.5027 248.531 15.0808 248.531C15.4675 248.771 15.8044 249.123 16.0916 249.586C16.3787 250.049 16.5222 250.667 16.5222 251.44ZM9.42944 239.057C9.06616 239.426 8.88452 239.962 8.88452 240.665C8.88452 241.368 9.14819 241.975 9.67554 242.484C10.2029 242.994 10.9441 243.249 11.8992 243.249C12.8542 243.249 13.6013 242.994 14.1404 242.484C14.6794 241.975 14.949 241.354 14.949 240.621C14.949 239.883 14.7732 239.326 14.4216 238.951C14.0583 238.576 13.6423 238.324 13.1736 238.195L13.824 236.701C14.5447 236.941 15.1746 237.396 15.7136 238.063C16.2527 238.731 16.5222 239.578 16.5222 240.604C16.5222 241.863 16.0828 242.909 15.2039 243.741C14.325 244.567 13.2205 244.98 11.8904 244.98C10.5603 244.98 9.46753 244.567 8.61206 243.741C7.75073 242.915 7.32007 241.925 7.32007 240.771C7.32007 239.616 7.5896 238.711 8.12866 238.055C8.66772 237.398 9.31811 236.971 10.0798 236.771L10.7214 238.301C10.2234 238.436 9.79272 238.687 9.42944 239.057ZM16.5222 231.146C16.5164 232.365 16.0974 233.396 15.2654 234.24C14.4333 235.084 13.3318 235.506 11.9607 235.506C10.5896 235.506 9.47632 235.099 8.62085 234.284C7.75952 233.47 7.32593 232.497 7.32007 231.366C7.32007 230.06 7.73022 229.04 8.55054 228.308C9.37085 227.575 10.4724 227.209 11.8552 227.209C12.072 227.209 12.2537 227.221 12.4001 227.244L12.4001 233.757C13.1677 233.745 13.7976 233.49 14.2898 232.992C14.782 232.494 15.0281 231.879 15.0281 231.146C15.0281 229.916 14.4451 229.107 13.2791 228.721L13.78 227.262C14.5828 227.514 15.2419 227.982 15.7576 228.668C16.2732 229.354 16.5281 230.18 16.5222 231.146ZM9.42944 229.617C9.01929 230.027 8.81421 230.587 8.81421 231.296C8.81421 232.005 9.03393 232.576 9.47339 233.01C9.91284 233.443 10.4314 233.675 11.0291 233.704L11.0291 228.976C10.3728 228.993 9.8396 229.207 9.42944 229.617ZM14.1228 218.965C13.5603 218.496 12.8103 218.262 11.8728 218.262C10.9353 218.262 10.1941 218.493 9.64917 218.956C9.10425 219.419 8.83179 220.034 8.83179 220.802C8.83179 221.569 9.10718 222.193 9.65796 222.674C10.2087 223.154 10.947 223.395 11.8728 223.395C12.7986 223.395 13.5457 223.154 14.114 222.674C14.6824 222.193 14.9666 221.572 14.9666 220.811C14.9666 220.049 14.6853 219.434 14.1228 218.965ZM16.2498 223.377L16.2498 225.047L3.21557 225.047L3.21557 223.377L8.81421 223.377C8.39233 223.148 8.04077 222.785 7.75952 222.287C7.47827 221.789 7.33764 221.197 7.33764 220.512C7.33764 219.252 7.76538 218.273 8.62085 217.576C9.47632 216.879 10.5632 216.53 11.8816 216.53C13.2117 216.53 14.3103 216.891 15.1775 217.611C16.0447 218.332 16.4783 219.328 16.4783 220.6C16.4783 221.871 15.9832 222.797 14.9929 223.377L16.2498 223.377ZM7.32007 210.668C7.32007 209.385 7.75366 208.327 8.62085 207.495C9.48803 206.657 10.5867 206.238 11.9167 206.238C13.2468 206.238 14.3455 206.654 15.2126 207.486C16.0798 208.318 16.5134 209.379 16.5134 210.668C16.5134 211.957 16.0798 213.018 15.2126 213.85C14.3455 214.682 13.2498 215.098 11.9255 215.098C10.6013 215.098 9.49975 214.682 8.62085 213.85C7.75366 213.018 7.32007 211.957 7.32007 210.668ZM15.0105 210.668C15.0105 209.912 14.738 209.273 14.1931 208.752C13.6541 208.23 12.8982 207.97 11.9255 207.97C10.9529 207.97 10.1941 208.23 9.64917 208.752C9.10425 209.273 8.83178 209.912 8.83178 210.668C8.83178 211.424 9.10425 212.062 9.64917 212.584C10.1941 213.105 10.9499 213.366 11.9167 213.366C12.8835 213.366 13.6423 213.105 14.1931 212.584C14.7439 212.062 15.0164 211.424 15.0105 210.668ZM7.32007 200.367C7.32007 199.084 7.75366 198.026 8.62085 197.194C9.48803 196.356 10.5867 195.937 11.9167 195.937C13.2468 195.937 14.3455 196.354 15.2126 197.186C16.0798 198.018 16.5134 199.078 16.5134 200.367C16.5134 201.656 16.0798 202.717 15.2126 203.549C14.3455 204.381 13.2498 204.797 11.9255 204.797C10.6013 204.797 9.49975 204.381 8.62085 203.549C7.75366 202.717 7.32007 201.656 7.32007 200.367ZM15.0105 200.367C15.0105 199.611 14.738 198.973 14.1931 198.451C13.654 197.93 12.8982 197.669 11.9255 197.669C10.9529 197.669 10.1941 197.93 9.64917 198.451C9.10425 198.973 8.83178 199.611 8.83178 200.367C8.83178 201.123 9.10425 201.762 9.64917 202.283C10.1941 202.805 10.9499 203.065 11.9167 203.065C12.8835 203.065 13.6423 202.805 14.1931 202.283C14.7439 201.762 15.0164 201.123 15.0105 200.367ZM16.2498 192.105L16.2498 193.775L3.21557 193.775L3.21557 192.105L11.4246 192.105L7.59253 188.361L7.59253 186.015L11.2488 189.706L16.2498 185.944L16.2498 188.071L12.4353 190.893L13.6394 192.105L16.2498 192.105Z" fill="#1C5275"/>
<path d="M20.2498 596.962L20.2498 598.729L14.7917 598.729L7.48804 603.229L7.48804 601.102L13.1746 597.788L7.48804 594.475L7.48804 592.462L14.7917 596.962L20.2498 596.962ZM11.3201 588.744C11.3201 587.461 11.7537 586.403 12.6208 585.571C13.488 584.733 14.5867 584.314 15.9167 584.314C17.2468 584.314 18.3455 584.73 19.2126 585.562C20.0798 586.395 20.5134 587.455 20.5134 588.744C20.5134 590.033 20.0798 591.094 19.2126 591.926C18.3455 592.758 17.2498 593.174 15.9255 593.174C14.6013 593.174 13.4998 592.758 12.6208 591.926C11.7537 591.094 11.3201 590.033 11.3201 588.744ZM19.0105 588.744C19.0105 587.988 18.738 587.35 18.1931 586.828C17.6541 586.307 16.8982 586.046 15.9255 586.046C14.9529 586.046 14.1941 586.307 13.6492 586.828C13.1042 587.35 12.8318 587.988 12.8318 588.744C12.8318 589.5 13.1042 590.139 13.6492 590.66C14.1941 591.182 14.95 591.442 15.9167 591.442C16.8835 591.442 17.6423 591.182 18.1931 590.66C18.7439 590.139 19.0164 589.5 19.0105 588.744ZM20.5222 579.094C20.5222 580.078 20.1941 580.863 19.5378 581.449C18.8816 582.035 18.0496 582.328 17.0417 582.328L11.5925 582.328L11.5925 580.641L16.7957 580.641C17.446 580.641 17.9822 580.482 18.4041 580.166C18.8259 579.85 19.0339 579.354 19.0281 578.681C19.0281 578.007 18.8259 577.497 18.4216 577.151C18.0173 576.806 17.4812 576.63 16.8132 576.624L11.5925 576.624L11.5925 574.937L18.6501 574.937C19.2126 574.937 19.7458 574.904 20.2498 574.84L20.2498 576.466C19.9861 576.513 19.6374 576.536 19.2039 576.536C19.6375 576.765 19.9656 577.113 20.1882 577.582C20.4109 578.051 20.5222 578.555 20.5222 579.094ZM9.1228 563.01L9.1228 567.272L20.2498 567.272L20.2498 569.039L9.1228 569.039L9.1228 573.311L7.48804 573.311L7.48804 563.01L9.1228 563.01ZM20.5222 559.969C20.5222 560.953 20.1941 561.738 19.5378 562.324C18.8816 562.91 18.0496 563.203 17.0417 563.203L11.5925 563.203L11.5925 561.516L16.7957 561.516C17.446 561.516 17.9822 561.357 18.4041 561.041C18.8259 560.725 19.0339 560.229 19.0281 559.556C19.0281 558.882 18.8259 558.372 18.4216 558.026C18.0173 557.681 17.4812 557.505 16.8132 557.499L11.5925 557.499L11.5925 555.812L18.6501 555.812C19.2126 555.812 19.7458 555.779 20.2498 555.715L20.2498 557.341C19.9861 557.388 19.6374 557.411 19.2039 557.411C19.6374 557.64 19.9656 557.988 20.1882 558.457C20.4109 558.926 20.5222 559.43 20.5222 559.969ZM18.1228 546.838C17.5603 546.369 16.8103 546.135 15.8728 546.135C14.9353 546.135 14.1941 546.366 13.6492 546.829C13.1042 547.292 12.8318 547.907 12.8318 548.675C12.8318 549.442 13.1072 550.066 13.658 550.547C14.2087 551.027 14.947 551.268 15.8728 551.268C16.7986 551.268 17.5457 551.027 18.114 550.547C18.6824 550.066 18.9666 549.445 18.9666 548.684C18.9666 547.922 18.6853 547.307 18.1228 546.838ZM20.2498 551.25L20.2498 552.92L7.21557 552.92L7.21557 551.25L12.8142 551.25C12.3923 551.021 12.0408 550.658 11.7595 550.16C11.4783 549.662 11.3376 549.07 11.3376 548.385C11.3376 547.125 11.7654 546.146 12.6208 545.449C13.4763 544.752 14.5632 544.403 15.8816 544.403C17.2117 544.403 18.3103 544.764 19.1775 545.484C20.0447 546.205 20.4783 547.201 20.4783 548.473C20.4783 549.744 19.9832 550.67 18.9929 551.25L20.2498 551.25ZM20.5222 538.594C20.5164 539.812 20.0974 540.844 19.2654 541.687C18.4333 542.531 17.3318 542.953 15.9607 542.953C14.5896 542.953 13.4763 542.546 12.6208 541.731C11.7595 540.917 11.3259 539.944 11.3201 538.813C11.3201 537.507 11.7302 536.487 12.5505 535.755C13.3708 535.022 14.4724 534.656 15.8552 534.656C16.072 534.656 16.2537 534.668 16.4001 534.691L16.4001 541.204C17.1677 541.192 17.7976 540.937 18.2898 540.439C18.782 539.941 19.0281 539.326 19.0281 538.594C19.0281 537.363 18.4451 536.555 17.279 536.168L17.78 534.709C18.5828 534.961 19.2419 535.43 19.7576 536.115C20.2732 536.801 20.5281 537.627 20.5222 538.594ZM13.4294 537.064C13.0193 537.475 12.8142 538.034 12.8142 538.743C12.8142 539.452 13.0339 540.023 13.4734 540.457C13.9128 540.891 14.4314 541.122 15.0291 541.151L15.029 536.423C14.3728 536.44 13.8396 536.654 13.4294 537.064Z" fill="#1C5275"/>
<path d="M73.0625 718.967C73.0625 720.066 73.3758 720.924 74.0024 721.543C74.6291 722.161 75.3818 722.468 76.2607 722.464C76.8263 722.464 77.3431 722.336 77.811 722.08L76.2729 720.353L77.1274 719.614L78.6777 721.366C79.2026 720.731 79.4651 719.897 79.4651 718.863C79.4651 717.83 79.1518 717.008 78.5251 716.397C77.8985 715.787 77.1437 715.482 76.2607 715.482C75.3778 715.482 74.623 715.787 73.9963 716.397C73.3697 717.008 73.0584 717.864 73.0625 718.967ZM71.8113 718.967C71.8113 718.255 71.9374 717.602 72.1897 717.008C72.6617 715.909 73.4735 715.128 74.625 714.664C75.1499 714.457 75.6951 714.353 76.2607 714.353C77.4245 714.353 78.4438 714.752 79.3186 715.549C79.7418 715.927 80.0795 716.412 80.3318 717.002C80.5841 717.592 80.7102 718.247 80.7102 718.967C80.7102 720.294 80.2952 721.386 79.4651 722.245L80.5027 723.404L79.6604 724.143L78.5862 722.953C77.8863 723.376 77.1335 723.587 76.3279 723.587C75.5222 723.587 74.7878 723.414 74.1245 723.069C73.4613 722.715 72.9099 722.18 72.4705 721.463C72.031 720.747 71.8113 719.915 71.8113 718.967ZM85.6846 720.444V716.477L82.8342 720.444H85.6846ZM81.7112 721.579V720.169L85.1841 715.305H86.8748V720.444H88.2603V721.579H86.8748V723.404H85.6846V721.579H81.7112ZM92.0994 717.74C92.0994 717.016 92.3537 716.397 92.8623 715.885C93.3709 715.372 94.0484 715.116 94.8948 715.116C95.7411 715.116 96.4084 715.356 96.8967 715.836C97.385 716.316 97.6312 716.906 97.6353 717.606C97.6353 718.631 97.1266 719.463 96.1094 720.102L94.5103 721.128C93.9365 721.494 93.6069 721.874 93.5215 722.269H97.6841V723.404H92.0139C92.0302 722.721 92.1848 722.121 92.4778 721.604C92.7748 721.087 93.2611 720.613 93.9365 720.182L95.2854 719.303C96.026 718.827 96.3983 718.265 96.4023 717.618C96.4023 717.219 96.2681 716.882 95.9995 716.605C95.735 716.328 95.3546 716.19 94.8582 716.19C94.3617 716.19 93.9792 716.345 93.7107 716.654C93.4421 716.963 93.3099 717.364 93.314 717.856C93.314 717.929 93.3221 718.049 93.3384 718.216L92.1116 718.07C92.1034 717.997 92.0994 717.887 92.0994 717.74ZM99.5396 722.293C99.0553 721.573 98.8132 720.593 98.8132 719.352C98.8132 718.111 99.0553 717.132 99.5396 716.416C100.113 715.549 100.941 715.116 102.024 715.116C103.106 715.116 103.936 715.549 104.514 716.416C104.998 717.132 105.24 718.111 105.24 719.352C105.24 720.593 104.998 721.573 104.514 722.293C103.94 723.16 103.112 723.594 102.03 723.594C100.947 723.594 100.117 723.16 99.5396 722.293ZM100.742 716.727C100.266 717.228 100.028 718.102 100.028 719.352C100.028 720.601 100.266 721.478 100.742 721.982C101.076 722.332 101.505 722.507 102.03 722.507C102.555 722.507 102.984 722.332 103.318 721.982C103.79 721.482 104.026 720.605 104.026 719.352C104.026 718.098 103.79 717.223 103.318 716.727C102.984 716.377 102.555 716.202 102.03 716.202C101.505 716.202 101.076 716.377 100.742 716.727ZM109.281 723.404H108.084V717.691H106.119V716.831C106.668 716.823 107.132 716.678 107.511 716.397C107.885 716.117 108.117 715.753 108.207 715.305H109.281V723.404ZM114.933 719.132C115.278 718.823 115.451 718.414 115.451 717.905C115.451 717.396 115.276 716.983 114.927 716.666C114.577 716.349 114.166 716.19 113.694 716.19C113.222 716.19 112.815 716.347 112.473 716.66C112.131 716.973 111.958 717.388 111.954 717.905C111.954 718.422 112.125 718.835 112.467 719.144C112.805 719.453 113.213 719.608 113.694 719.608C114.174 719.608 114.587 719.449 114.933 719.132ZM112.802 722.489C113.726 722.489 114.42 722.224 114.884 721.695C115.348 721.166 115.592 720.473 115.616 719.614C115.458 719.907 115.197 720.153 114.835 720.353C114.473 720.552 114.033 720.652 113.517 720.652C112.768 720.652 112.113 720.41 111.551 719.925C110.994 719.437 110.715 718.776 110.715 717.942C110.715 717.108 111.008 716.428 111.594 715.903C112.18 715.378 112.894 715.116 113.736 715.116C114.579 715.116 115.309 715.433 115.927 716.068C116.546 716.703 116.853 717.626 116.849 718.839C116.845 720.357 116.505 721.528 115.83 722.354C115.154 723.181 114.145 723.594 112.802 723.594C112.485 723.589 112.143 723.543 111.777 723.453C111.411 723.364 111.128 723.252 110.929 723.117L111.325 722.104C111.749 722.361 112.241 722.489 112.802 722.489Z" fill="#1C5275"/>
<path d="M73.0625 376.967C73.0625 378.066 73.3758 378.924 74.0024 379.543C74.6291 380.161 75.3818 380.468 76.2607 380.464C76.8263 380.464 77.3431 380.336 77.811 380.08L76.2729 378.353L77.1274 377.614L78.6777 379.366C79.2026 378.731 79.4651 377.897 79.4651 376.863C79.4651 375.83 79.1518 375.008 78.5251 374.397C77.8985 373.787 77.1437 373.482 76.2607 373.482C75.3778 373.482 74.623 373.787 73.9963 374.397C73.3697 375.008 73.0584 375.864 73.0625 376.967ZM71.8113 376.967C71.8113 376.255 71.9374 375.602 72.1897 375.008C72.6617 373.909 73.4735 373.128 74.625 372.664C75.1499 372.457 75.6951 372.353 76.2607 372.353C77.4245 372.353 78.4438 372.752 79.3186 373.549C79.7418 373.927 80.0795 374.412 80.3318 375.002C80.5841 375.592 80.7102 376.247 80.7102 376.967C80.7102 378.294 80.2952 379.386 79.4651 380.245L80.5027 381.404L79.6604 382.143L78.5862 380.953C77.8863 381.376 77.1335 381.587 76.3279 381.587C75.5222 381.587 74.7878 381.414 74.1245 381.069C73.4613 380.715 72.9099 380.18 72.4705 379.463C72.031 378.747 71.8113 377.915 71.8113 376.967ZM85.6846 378.444V374.477L82.8342 378.444H85.6846ZM81.7112 379.579V378.169L85.1841 373.305H86.8748V378.444H88.2603V379.579H86.8748V381.404H85.6846V379.579H81.7112ZM92.0994 375.74C92.0994 375.016 92.3537 374.397 92.8623 373.885C93.3709 373.372 94.0484 373.116 94.8948 373.116C95.7411 373.116 96.4084 373.356 96.8967 373.836C97.385 374.316 97.6312 374.906 97.6353 375.606C97.6353 376.631 97.1266 377.463 96.1094 378.102L94.5103 379.128C93.9365 379.494 93.6069 379.874 93.5215 380.269H97.6841V381.404H92.0139C92.0302 380.721 92.1848 380.121 92.4778 379.604C92.7748 379.087 93.2611 378.613 93.9365 378.182L95.2854 377.303C96.026 376.827 96.3983 376.265 96.4023 375.618C96.4023 375.219 96.2681 374.882 95.9995 374.605C95.735 374.328 95.3546 374.19 94.8582 374.19C94.3617 374.19 93.9792 374.345 93.7107 374.654C93.4421 374.963 93.3099 375.364 93.314 375.856C93.314 375.929 93.3221 376.049 93.3384 376.216L92.1116 376.07C92.1034 375.997 92.0994 375.887 92.0994 375.74ZM99.5396 380.293C99.0553 379.573 98.8132 378.593 98.8132 377.352C98.8132 376.111 99.0553 375.132 99.5396 374.416C100.113 373.549 100.941 373.116 102.024 373.116C103.106 373.116 103.936 373.549 104.514 374.416C104.998 375.132 105.24 376.111 105.24 377.352C105.24 378.593 104.998 379.573 104.514 380.293C103.94 381.16 103.112 381.594 102.03 381.594C100.947 381.594 100.117 381.16 99.5396 380.293ZM100.742 374.727C100.266 375.228 100.028 376.102 100.028 377.352C100.028 378.601 100.266 379.478 100.742 379.982C101.076 380.332 101.505 380.507 102.03 380.507C102.555 380.507 102.984 380.332 103.318 379.982C103.79 379.482 104.026 378.605 104.026 377.352C104.026 376.098 103.79 375.223 103.318 374.727C102.984 374.377 102.555 374.202 102.03 374.202C101.505 374.202 101.076 374.377 100.742 374.727ZM109.281 381.404H108.084V375.691H106.119V374.831C106.668 374.823 107.132 374.678 107.511 374.397C107.885 374.117 108.117 373.753 108.207 373.305H109.281V381.404ZM114.933 377.132C115.278 376.823 115.451 376.414 115.451 375.905C115.451 375.396 115.276 374.983 114.927 374.666C114.577 374.349 114.166 374.19 113.694 374.19C113.222 374.19 112.815 374.347 112.473 374.66C112.131 374.973 111.958 375.388 111.954 375.905C111.954 376.422 112.125 376.835 112.467 377.144C112.805 377.453 113.213 377.608 113.694 377.608C114.174 377.608 114.587 377.449 114.933 377.132ZM112.802 380.489C113.726 380.489 114.42 380.224 114.884 379.695C115.348 379.166 115.592 378.473 115.616 377.614C115.458 377.907 115.197 378.153 114.835 378.353C114.473 378.552 114.033 378.652 113.517 378.652C112.768 378.652 112.113 378.41 111.551 377.925C110.994 377.437 110.715 376.776 110.715 375.942C110.715 375.108 111.008 374.428 111.594 373.903C112.18 373.378 112.894 373.116 113.736 373.116C114.579 373.116 115.309 373.433 115.927 374.068C116.546 374.703 116.853 375.626 116.849 376.839C116.845 378.357 116.505 379.528 115.83 380.354C115.154 381.181 114.145 381.594 112.802 381.594C112.485 381.589 112.143 381.543 111.777 381.453C111.411 381.364 111.128 381.252 110.929 381.117L111.325 380.104C111.749 380.361 112.241 380.489 112.802 380.489Z" fill="#1C5275"/>
<path d="M217.062 718.967C217.062 720.066 217.376 720.924 218.002 721.543C218.629 722.161 219.382 722.468 220.261 722.464C220.826 722.464 221.343 722.336 221.811 722.08L220.273 720.353L221.127 719.614L222.678 721.366C223.203 720.731 223.465 719.897 223.465 718.863C223.465 717.83 223.152 717.008 222.525 716.397C221.899 715.787 221.144 715.482 220.261 715.482C219.378 715.482 218.623 715.787 217.996 716.397C217.37 717.008 217.058 717.864 217.062 718.967ZM215.811 718.967C215.811 718.255 215.937 717.602 216.19 717.008C216.662 715.909 217.473 715.128 218.625 714.664C219.15 714.457 219.695 714.353 220.261 714.353C221.424 714.353 222.444 714.752 223.319 715.549C223.742 715.927 224.08 716.412 224.332 717.002C224.584 717.592 224.71 718.247 224.71 718.967C224.71 720.294 224.295 721.386 223.465 722.245L224.503 723.404L223.66 724.143L222.586 722.953C221.886 723.376 221.134 723.587 220.328 723.587C219.522 723.587 218.788 723.414 218.125 723.069C217.461 722.715 216.91 722.18 216.47 721.463C216.031 720.747 215.811 719.915 215.811 718.967ZM229.685 720.444V716.477L226.834 720.444H229.685ZM225.711 721.579V720.169L229.184 715.305H230.875V720.444H232.26V721.579H230.875V723.404H229.685V721.579H225.711ZM236.099 717.74C236.099 717.016 236.354 716.397 236.862 715.885C237.371 715.372 238.048 715.116 238.895 715.116C239.741 715.116 240.408 715.356 240.897 715.836C241.385 716.316 241.631 716.906 241.635 717.606C241.635 718.631 241.127 719.463 240.109 720.102L238.51 721.128C237.937 721.494 237.607 721.874 237.521 722.269H241.684V723.404H236.014C236.03 722.721 236.185 722.121 236.478 721.604C236.775 721.087 237.261 720.613 237.937 720.182L239.285 719.303C240.026 718.827 240.398 718.265 240.402 717.618C240.402 717.219 240.268 716.882 240 716.605C239.735 716.328 239.355 716.19 238.858 716.19C238.362 716.19 237.979 716.345 237.711 716.654C237.442 716.963 237.31 717.364 237.314 717.856C237.314 717.929 237.322 718.049 237.338 718.216L236.112 718.07C236.103 717.997 236.099 717.887 236.099 717.74ZM243.54 722.293C243.055 721.573 242.813 720.593 242.813 719.352C242.813 718.111 243.055 717.132 243.54 716.416C244.113 715.549 244.941 715.116 246.024 715.116C247.106 715.116 247.936 715.549 248.514 716.416C248.998 717.132 249.24 718.111 249.24 719.352C249.24 720.593 248.998 721.573 248.514 722.293C247.94 723.16 247.112 723.594 246.03 723.594C244.947 723.594 244.117 723.16 243.54 722.293ZM244.742 716.727C244.266 717.228 244.028 718.102 244.028 719.352C244.028 720.601 244.266 721.478 244.742 721.982C245.076 722.332 245.505 722.507 246.03 722.507C246.555 722.507 246.984 722.332 247.318 721.982C247.79 721.482 248.026 720.605 248.026 719.352C248.026 718.098 247.79 717.223 247.318 716.727C246.984 716.377 246.555 716.202 246.03 716.202C245.505 716.202 245.076 716.377 244.742 716.727ZM253.281 723.404H252.084V717.691H250.119V716.831C250.668 716.823 251.132 716.678 251.511 716.397C251.885 716.117 252.117 715.753 252.207 715.305H253.281V723.404ZM258.933 719.132C259.278 718.823 259.451 718.414 259.451 717.905C259.451 717.396 259.276 716.983 258.927 716.666C258.577 716.349 258.166 716.19 257.694 716.19C257.222 716.19 256.815 716.347 256.473 716.66C256.131 716.973 255.958 717.388 255.954 717.905C255.954 718.422 256.125 718.835 256.467 719.144C256.805 719.453 257.213 719.608 257.694 719.608C258.174 719.608 258.587 719.449 258.933 719.132ZM256.802 722.489C257.726 722.489 258.42 722.224 258.884 721.695C259.348 721.166 259.592 720.473 259.616 719.614C259.458 719.907 259.197 720.153 258.835 720.353C258.473 720.552 258.033 720.652 257.517 720.652C256.768 720.652 256.113 720.41 255.551 719.925C254.994 719.437 254.715 718.776 254.715 717.942C254.715 717.108 255.008 716.428 255.594 715.903C256.18 715.378 256.894 715.116 257.736 715.116C258.579 715.116 259.309 715.433 259.927 716.068C260.546 716.703 260.853 717.626 260.849 718.839C260.845 720.357 260.505 721.528 259.83 722.354C259.154 723.181 258.145 723.594 256.802 723.594C256.485 723.589 256.143 723.543 255.777 723.453C255.411 723.364 255.128 723.252 254.929 723.117L255.325 722.104C255.749 722.361 256.241 722.489 256.802 722.489Z" fill="#1C5275"/>
<path d="M217.062 376.967C217.062 378.066 217.376 378.924 218.002 379.543C218.629 380.161 219.382 380.468 220.261 380.464C220.826 380.464 221.343 380.336 221.811 380.08L220.273 378.353L221.127 377.614L222.678 379.366C223.203 378.731 223.465 377.897 223.465 376.863C223.465 375.83 223.152 375.008 222.525 374.397C221.899 373.787 221.144 373.482 220.261 373.482C219.378 373.482 218.623 373.787 217.996 374.397C217.37 375.008 217.058 375.864 217.062 376.967ZM215.811 376.967C215.811 376.255 215.937 375.602 216.19 375.008C216.662 373.909 217.473 373.128 218.625 372.664C219.15 372.457 219.695 372.353 220.261 372.353C221.424 372.353 222.444 372.752 223.319 373.549C223.742 373.927 224.08 374.412 224.332 375.002C224.584 375.592 224.71 376.247 224.71 376.967C224.71 378.294 224.295 379.386 223.465 380.245L224.503 381.404L223.66 382.143L222.586 380.953C221.886 381.376 221.134 381.587 220.328 381.587C219.522 381.587 218.788 381.414 218.125 381.069C217.461 380.715 216.91 380.18 216.47 379.463C216.031 378.747 215.811 377.915 215.811 376.967ZM229.685 378.444V374.477L226.834 378.444H229.685ZM225.711 379.579V378.169L229.184 373.305H230.875V378.444H232.26V379.579H230.875V381.404H229.685V379.579H225.711ZM236.099 375.74C236.099 375.016 236.354 374.397 236.862 373.885C237.371 373.372 238.048 373.116 238.895 373.116C239.741 373.116 240.408 373.356 240.897 373.836C241.385 374.316 241.631 374.906 241.635 375.606C241.635 376.631 241.127 377.463 240.109 378.102L238.51 379.128C237.937 379.494 237.607 379.874 237.521 380.269H241.684V381.404H236.014C236.03 380.721 236.185 380.121 236.478 379.604C236.775 379.087 237.261 378.613 237.937 378.182L239.285 377.303C240.026 376.827 240.398 376.265 240.402 375.618C240.402 375.219 240.268 374.882 240 374.605C239.735 374.328 239.355 374.19 238.858 374.19C238.362 374.19 237.979 374.345 237.711 374.654C237.442 374.963 237.31 375.364 237.314 375.856C237.314 375.929 237.322 376.049 237.338 376.216L236.112 376.07C236.103 375.997 236.099 375.887 236.099 375.74ZM243.54 380.293C243.055 379.573 242.813 378.593 242.813 377.352C242.813 376.111 243.055 375.132 243.54 374.416C244.113 373.549 244.941 373.116 246.024 373.116C247.106 373.116 247.936 373.549 248.514 374.416C248.998 375.132 249.24 376.111 249.24 377.352C249.24 378.593 248.998 379.573 248.514 380.293C247.94 381.16 247.112 381.594 246.03 381.594C244.947 381.594 244.117 381.16 243.54 380.293ZM244.742 374.727C244.266 375.228 244.028 376.102 244.028 377.352C244.028 378.601 244.266 379.478 244.742 379.982C245.076 380.332 245.505 380.507 246.03 380.507C246.555 380.507 246.984 380.332 247.318 379.982C247.79 379.482 248.026 378.605 248.026 377.352C248.026 376.098 247.79 375.223 247.318 374.727C246.984 374.377 246.555 374.202 246.03 374.202C245.505 374.202 245.076 374.377 244.742 374.727ZM253.281 381.404H252.084V375.691H250.119V374.831C250.668 374.823 251.132 374.678 251.511 374.397C251.885 374.117 252.117 373.753 252.207 373.305H253.281V381.404ZM258.933 377.132C259.278 376.823 259.451 376.414 259.451 375.905C259.451 375.396 259.276 374.983 258.927 374.666C258.577 374.349 258.166 374.19 257.694 374.19C257.222 374.19 256.815 374.347 256.473 374.66C256.131 374.973 255.958 375.388 255.954 375.905C255.954 376.422 256.125 376.835 256.467 377.144C256.805 377.453 257.213 377.608 257.694 377.608C258.174 377.608 258.587 377.449 258.933 377.132ZM256.802 380.489C257.726 380.489 258.42 380.224 258.884 379.695C259.348 379.166 259.592 378.473 259.616 377.614C259.458 377.907 259.197 378.153 258.835 378.353C258.473 378.552 258.033 378.652 257.517 378.652C256.768 378.652 256.113 378.41 255.551 377.925C254.994 377.437 254.715 376.776 254.715 375.942C254.715 375.108 255.008 374.428 255.594 373.903C256.18 373.378 256.894 373.116 257.736 373.116C258.579 373.116 259.309 373.433 259.927 374.068C260.546 374.703 260.853 375.626 260.849 376.839C260.845 378.357 260.505 379.528 259.83 380.354C259.154 381.181 258.145 381.594 256.802 381.594C256.485 381.589 256.143 381.543 255.777 381.453C255.411 381.364 255.128 381.252 254.929 381.117L255.325 380.104C255.749 380.361 256.241 380.489 256.802 380.489Z" fill="#1C5275"/>
<path d="M374.062 718.967C374.062 720.066 374.376 720.924 375.002 721.543C375.629 722.161 376.382 722.468 377.261 722.464C377.826 722.464 378.343 722.336 378.811 722.08L377.273 720.353L378.127 719.614L379.678 721.366C380.203 720.731 380.465 719.897 380.465 718.863C380.465 717.83 380.152 717.008 379.525 716.397C378.899 715.787 378.144 715.482 377.261 715.482C376.378 715.482 375.623 715.787 374.996 716.397C374.37 717.008 374.058 717.864 374.062 718.967ZM372.811 718.967C372.811 718.255 372.937 717.602 373.19 717.008C373.662 715.909 374.473 715.128 375.625 714.664C376.15 714.457 376.695 714.353 377.261 714.353C378.424 714.353 379.444 714.752 380.319 715.549C380.742 715.927 381.08 716.412 381.332 717.002C381.584 717.592 381.71 718.247 381.71 718.967C381.71 720.294 381.295 721.386 380.465 722.245L381.503 723.404L380.66 724.143L379.586 722.953C378.886 723.376 378.134 723.587 377.328 723.587C376.522 723.587 375.788 723.414 375.125 723.069C374.461 722.715 373.91 722.18 373.47 721.463C373.031 720.747 372.811 719.915 372.811 718.967ZM386.685 720.444V716.477L383.834 720.444H386.685ZM382.711 721.579V720.169L386.184 715.305H387.875V720.444H389.26V721.579H387.875V723.404H386.685V721.579H382.711ZM393.099 717.74C393.099 717.016 393.354 716.397 393.862 715.885C394.371 715.372 395.048 715.116 395.895 715.116C396.741 715.116 397.408 715.356 397.897 715.836C398.385 716.316 398.631 716.906 398.635 717.606C398.635 718.631 398.127 719.463 397.109 720.102L395.51 721.128C394.937 721.494 394.607 721.874 394.521 722.269H398.684V723.404H393.014C393.03 722.721 393.185 722.121 393.478 721.604C393.775 721.087 394.261 720.613 394.937 720.182L396.285 719.303C397.026 718.827 397.398 718.265 397.402 717.618C397.402 717.219 397.268 716.882 397 716.605C396.735 716.328 396.355 716.19 395.858 716.19C395.362 716.19 394.979 716.345 394.711 716.654C394.442 716.963 394.31 717.364 394.314 717.856C394.314 717.929 394.322 718.049 394.338 718.216L393.112 718.07C393.103 717.997 393.099 717.887 393.099 717.74ZM400.54 722.293C400.055 721.573 399.813 720.593 399.813 719.352C399.813 718.111 400.055 717.132 400.54 716.416C401.113 715.549 401.941 715.116 403.024 715.116C404.106 715.116 404.936 715.549 405.514 716.416C405.998 717.132 406.24 718.111 406.24 719.352C406.24 720.593 405.998 721.573 405.514 722.293C404.94 723.16 404.112 723.594 403.03 723.594C401.947 723.594 401.117 723.16 400.54 722.293ZM401.742 716.727C401.266 717.228 401.028 718.102 401.028 719.352C401.028 720.601 401.266 721.478 401.742 721.982C402.076 722.332 402.505 722.507 403.03 722.507C403.555 722.507 403.984 722.332 404.318 721.982C404.79 721.482 405.026 720.605 405.026 719.352C405.026 718.098 404.79 717.223 404.318 716.727C403.984 716.377 403.555 716.202 403.03 716.202C402.505 716.202 402.076 716.377 401.742 716.727ZM407.394 717.74C407.394 717.016 407.648 716.397 408.157 715.885C408.665 715.372 409.343 715.116 410.189 715.116C411.036 715.116 411.703 715.356 412.191 715.836C412.679 716.316 412.926 716.906 412.93 717.606C412.93 718.631 412.421 719.463 411.404 720.102L409.805 721.128C409.231 721.494 408.901 721.874 408.816 722.269H412.979V723.404H407.308C407.325 722.721 407.479 722.121 407.772 721.604C408.069 721.087 408.556 720.613 409.231 720.182L410.58 719.303C411.32 718.827 411.693 718.265 411.697 717.618C411.697 717.219 411.562 716.882 411.294 716.605C411.029 716.328 410.649 716.19 410.153 716.19C409.656 716.19 409.274 716.345 409.005 716.654C408.737 716.963 408.604 717.364 408.608 717.856C408.608 717.929 408.617 718.049 408.633 718.216L407.406 718.07C407.398 717.997 407.394 717.887 407.394 717.74ZM414.834 722.293C414.35 721.573 414.108 720.593 414.108 719.352C414.108 718.111 414.35 717.132 414.834 716.416C415.408 715.549 416.236 715.116 417.318 715.116C418.4 715.116 419.231 715.549 419.808 716.416C420.293 717.132 420.535 718.111 420.535 719.352C420.535 720.593 420.293 721.573 419.808 722.293C419.235 723.16 418.407 723.594 417.324 723.594C416.242 723.594 415.412 723.16 414.834 722.293ZM416.036 716.727C415.56 717.228 415.322 718.102 415.322 719.352C415.322 720.601 415.56 721.478 416.036 721.982C416.37 722.332 416.799 722.507 417.324 722.507C417.849 722.507 418.278 722.332 418.612 721.982C419.084 721.482 419.32 720.605 419.32 719.352C419.32 718.098 419.084 717.223 418.612 716.727C418.278 716.377 417.849 716.202 417.324 716.202C416.799 716.202 416.37 716.377 416.036 716.727Z" fill="#1C5275"/>
<path d="M374.062 376.967C374.062 378.066 374.376 378.924 375.002 379.543C375.629 380.161 376.382 380.468 377.261 380.464C377.826 380.464 378.343 380.336 378.811 380.08L377.273 378.353L378.127 377.614L379.678 379.366C380.203 378.731 380.465 377.897 380.465 376.863C380.465 375.83 380.152 375.008 379.525 374.397C378.899 373.787 378.144 373.482 377.261 373.482C376.378 373.482 375.623 373.787 374.996 374.397C374.37 375.008 374.058 375.864 374.062 376.967ZM372.811 376.967C372.811 376.255 372.937 375.602 373.19 375.008C373.662 373.909 374.473 373.128 375.625 372.664C376.15 372.457 376.695 372.353 377.261 372.353C378.424 372.353 379.444 372.752 380.319 373.549C380.742 373.927 381.08 374.412 381.332 375.002C381.584 375.592 381.71 376.247 381.71 376.967C381.71 378.294 381.295 379.386 380.465 380.245L381.503 381.404L380.66 382.143L379.586 380.953C378.886 381.376 378.134 381.587 377.328 381.587C376.522 381.587 375.788 381.414 375.125 381.069C374.461 380.715 373.91 380.18 373.47 379.463C373.031 378.747 372.811 377.915 372.811 376.967ZM386.685 378.444V374.477L383.834 378.444H386.685ZM382.711 379.579V378.169L386.184 373.305H387.875V378.444H389.26V379.579H387.875V381.404H386.685V379.579H382.711ZM393.099 375.74C393.099 375.016 393.354 374.397 393.862 373.885C394.371 373.372 395.048 373.116 395.895 373.116C396.741 373.116 397.408 373.356 397.897 373.836C398.385 374.316 398.631 374.906 398.635 375.606C398.635 376.631 398.127 377.463 397.109 378.102L395.51 379.128C394.937 379.494 394.607 379.874 394.521 380.269H398.684V381.404H393.014C393.03 380.721 393.185 380.121 393.478 379.604C393.775 379.087 394.261 378.613 394.937 378.182L396.285 377.303C397.026 376.827 397.398 376.265 397.402 375.618C397.402 375.219 397.268 374.882 397 374.605C396.735 374.328 396.355 374.19 395.858 374.19C395.362 374.19 394.979 374.345 394.711 374.654C394.442 374.963 394.31 375.364 394.314 375.856C394.314 375.929 394.322 376.049 394.338 376.216L393.112 376.07C393.103 375.997 393.099 375.887 393.099 375.74ZM400.54 380.293C400.055 379.573 399.813 378.593 399.813 377.352C399.813 376.111 400.055 375.132 400.54 374.416C401.113 373.549 401.941 373.116 403.024 373.116C404.106 373.116 404.936 373.549 405.514 374.416C405.998 375.132 406.24 376.111 406.24 377.352C406.24 378.593 405.998 379.573 405.514 380.293C404.94 381.16 404.112 381.594 403.03 381.594C401.947 381.594 401.117 381.16 400.54 380.293ZM401.742 374.727C401.266 375.228 401.028 376.102 401.028 377.352C401.028 378.601 401.266 379.478 401.742 379.982C402.076 380.332 402.505 380.507 403.03 380.507C403.555 380.507 403.984 380.332 404.318 379.982C404.79 379.482 405.026 378.605 405.026 377.352C405.026 376.098 404.79 375.223 404.318 374.727C403.984 374.377 403.555 374.202 403.03 374.202C402.505 374.202 402.076 374.377 401.742 374.727ZM407.394 375.74C407.394 375.016 407.648 374.397 408.157 373.885C408.665 373.372 409.343 373.116 410.189 373.116C411.036 373.116 411.703 373.356 412.191 373.836C412.679 374.316 412.926 374.906 412.93 375.606C412.93 376.631 412.421 377.463 411.404 378.102L409.805 379.128C409.231 379.494 408.901 379.874 408.816 380.269H412.979V381.404H407.308C407.325 380.721 407.479 380.121 407.772 379.604C408.069 379.087 408.556 378.613 409.231 378.182L410.58 377.303C411.32 376.827 411.693 376.265 411.697 375.618C411.697 375.219 411.562 374.882 411.294 374.605C411.029 374.328 410.649 374.19 410.153 374.19C409.656 374.19 409.274 374.345 409.005 374.654C408.737 374.963 408.604 375.364 408.608 375.856C408.608 375.929 408.617 376.049 408.633 376.216L407.406 376.07C407.398 375.997 407.394 375.887 407.394 375.74ZM414.834 380.293C414.35 379.573 414.108 378.593 414.108 377.352C414.108 376.111 414.35 375.132 414.834 374.416C415.408 373.549 416.236 373.116 417.318 373.116C418.4 373.116 419.231 373.549 419.808 374.416C420.293 375.132 420.535 376.111 420.535 377.352C420.535 378.593 420.293 379.573 419.808 380.293C419.235 381.16 418.407 381.594 417.324 381.594C416.242 381.594 415.412 381.16 414.834 380.293ZM416.036 374.727C415.56 375.228 415.322 376.102 415.322 377.352C415.322 378.601 415.56 379.478 416.036 379.982C416.37 380.332 416.799 380.507 417.324 380.507C417.849 380.507 418.278 380.332 418.612 379.982C419.084 379.482 419.32 378.605 419.32 377.352C419.32 376.098 419.084 375.223 418.612 374.727C418.278 374.377 417.849 374.202 417.324 374.202C416.799 374.202 416.37 374.377 416.036 374.727Z" fill="#1C5275"/>
<path d="M528.062 718.967C528.062 720.066 528.376 720.924 529.002 721.543C529.629 722.161 530.382 722.468 531.261 722.464C531.826 722.464 532.343 722.336 532.811 722.08L531.273 720.353L532.127 719.614L533.678 721.366C534.203 720.731 534.465 719.897 534.465 718.863C534.465 717.83 534.152 717.008 533.525 716.397C532.899 715.787 532.144 715.482 531.261 715.482C530.378 715.482 529.623 715.787 528.996 716.397C528.37 717.008 528.058 717.864 528.062 718.967ZM526.811 718.967C526.811 718.255 526.937 717.602 527.19 717.008C527.662 715.909 528.473 715.128 529.625 714.664C530.15 714.457 530.695 714.353 531.261 714.353C532.424 714.353 533.444 714.752 534.319 715.549C534.742 715.927 535.08 716.412 535.332 717.002C535.584 717.592 535.71 718.247 535.71 718.967C535.71 720.294 535.295 721.386 534.465 722.245L535.503 723.404L534.66 724.143L533.586 722.953C532.886 723.376 532.134 723.587 531.328 723.587C530.522 723.587 529.788 723.414 529.125 723.069C528.461 722.715 527.91 722.18 527.47 721.463C527.031 720.747 526.811 719.915 526.811 718.967ZM540.685 720.444V716.477L537.834 720.444H540.685ZM536.711 721.579V720.169L540.184 715.305H541.875V720.444H543.26V721.579H541.875V723.404H540.685V721.579H536.711ZM547.099 717.74C547.099 717.016 547.354 716.397 547.862 715.885C548.371 715.372 549.048 715.116 549.895 715.116C550.741 715.116 551.408 715.356 551.897 715.836C552.385 716.316 552.631 716.906 552.635 717.606C552.635 718.631 552.127 719.463 551.109 720.102L549.51 721.128C548.937 721.494 548.607 721.874 548.521 722.269H552.684V723.404H547.014C547.03 722.721 547.185 722.121 547.478 721.604C547.775 721.087 548.261 720.613 548.937 720.182L550.285 719.303C551.026 718.827 551.398 718.265 551.402 717.618C551.402 717.219 551.268 716.882 551 716.605C550.735 716.328 550.355 716.19 549.858 716.19C549.362 716.19 548.979 716.345 548.711 716.654C548.442 716.963 548.31 717.364 548.314 717.856C548.314 717.929 548.322 718.049 548.338 718.216L547.112 718.07C547.103 717.997 547.099 717.887 547.099 717.74ZM554.54 722.293C554.055 721.573 553.813 720.593 553.813 719.352C553.813 718.111 554.055 717.132 554.54 716.416C555.113 715.549 555.941 715.116 557.024 715.116C558.106 715.116 558.936 715.549 559.514 716.416C559.998 717.132 560.24 718.111 560.24 719.352C560.24 720.593 559.998 721.573 559.514 722.293C558.94 723.16 558.112 723.594 557.03 723.594C555.947 723.594 555.117 723.16 554.54 722.293ZM555.742 716.727C555.266 717.228 555.028 718.102 555.028 719.352C555.028 720.601 555.266 721.478 555.742 721.982C556.076 722.332 556.505 722.507 557.03 722.507C557.555 722.507 557.984 722.332 558.318 721.982C558.79 721.482 559.026 720.605 559.026 719.352C559.026 718.098 558.79 717.223 558.318 716.727C557.984 716.377 557.555 716.202 557.03 716.202C556.505 716.202 556.076 716.377 555.742 716.727ZM561.394 717.74C561.394 717.016 561.648 716.397 562.157 715.885C562.665 715.372 563.343 715.116 564.189 715.116C565.036 715.116 565.703 715.356 566.191 715.836C566.679 716.316 566.926 716.906 566.93 717.606C566.93 718.631 566.421 719.463 565.404 720.102L563.805 721.128C563.231 721.494 562.901 721.874 562.816 722.269H566.979V723.404H561.308C561.325 722.721 561.479 722.121 561.772 721.604C562.069 721.087 562.556 720.613 563.231 720.182L564.58 719.303C565.32 718.827 565.693 718.265 565.697 717.618C565.697 717.219 565.562 716.882 565.294 716.605C565.029 716.328 564.649 716.19 564.153 716.19C563.656 716.19 563.274 716.345 563.005 716.654C562.737 716.963 562.604 717.364 562.608 717.856C562.608 717.929 562.617 718.049 562.633 718.216L561.406 718.07C561.398 717.997 561.394 717.887 561.394 717.74ZM568.834 722.293C568.35 721.573 568.108 720.593 568.108 719.352C568.108 718.111 568.35 717.132 568.834 716.416C569.408 715.549 570.236 715.116 571.318 715.116C572.4 715.116 573.231 715.549 573.808 716.416C574.293 717.132 574.535 718.111 574.535 719.352C574.535 720.593 574.293 721.573 573.808 722.293C573.235 723.16 572.407 723.594 571.324 723.594C570.242 723.594 569.412 723.16 568.834 722.293ZM570.036 716.727C569.56 717.228 569.322 718.102 569.322 719.352C569.322 720.601 569.56 721.478 570.036 721.982C570.37 722.332 570.799 722.507 571.324 722.507C571.849 722.507 572.278 722.332 572.612 721.982C573.084 721.482 573.32 720.605 573.32 719.352C573.32 718.098 573.084 717.223 572.612 716.727C572.278 716.377 571.849 716.202 571.324 716.202C570.799 716.202 570.37 716.377 570.036 716.727Z" fill="#1C5275"/>
<path d="M528.062 376.967C528.062 378.066 528.376 378.924 529.002 379.543C529.629 380.161 530.382 380.468 531.261 380.464C531.826 380.464 532.343 380.336 532.811 380.08L531.273 378.353L532.127 377.614L533.678 379.366C534.203 378.731 534.465 377.897 534.465 376.863C534.465 375.83 534.152 375.008 533.525 374.397C532.899 373.787 532.144 373.482 531.261 373.482C530.378 373.482 529.623 373.787 528.996 374.397C528.37 375.008 528.058 375.864 528.062 376.967ZM526.811 376.967C526.811 376.255 526.937 375.602 527.19 375.008C527.662 373.909 528.473 373.128 529.625 372.664C530.15 372.457 530.695 372.353 531.261 372.353C532.424 372.353 533.444 372.752 534.319 373.549C534.742 373.927 535.08 374.412 535.332 375.002C535.584 375.592 535.71 376.247 535.71 376.967C535.71 378.294 535.295 379.386 534.465 380.245L535.503 381.404L534.66 382.143L533.586 380.953C532.886 381.376 532.134 381.587 531.328 381.587C530.522 381.587 529.788 381.414 529.125 381.069C528.461 380.715 527.91 380.18 527.47 379.463C527.031 378.747 526.811 377.915 526.811 376.967ZM540.685 378.444V374.477L537.834 378.444H540.685ZM536.711 379.579V378.169L540.184 373.305H541.875V378.444H543.26V379.579H541.875V381.404H540.685V379.579H536.711ZM547.099 375.74C547.099 375.016 547.354 374.397 547.862 373.885C548.371 373.372 549.048 373.116 549.895 373.116C550.741 373.116 551.408 373.356 551.897 373.836C552.385 374.316 552.631 374.906 552.635 375.606C552.635 376.631 552.127 377.463 551.109 378.102L549.51 379.128C548.937 379.494 548.607 379.874 548.521 380.269H552.684V381.404H547.014C547.03 380.721 547.185 380.121 547.478 379.604C547.775 379.087 548.261 378.613 548.937 378.182L550.285 377.303C551.026 376.827 551.398 376.265 551.402 375.618C551.402 375.219 551.268 374.882 551 374.605C550.735 374.328 550.355 374.19 549.858 374.19C549.362 374.19 548.979 374.345 548.711 374.654C548.442 374.963 548.31 375.364 548.314 375.856C548.314 375.929 548.322 376.049 548.338 376.216L547.112 376.07C547.103 375.997 547.099 375.887 547.099 375.74ZM554.54 380.293C554.055 379.573 553.813 378.593 553.813 377.352C553.813 376.111 554.055 375.132 554.54 374.416C555.113 373.549 555.941 373.116 557.024 373.116C558.106 373.116 558.936 373.549 559.514 374.416C559.998 375.132 560.24 376.111 560.24 377.352C560.24 378.593 559.998 379.573 559.514 380.293C558.94 381.16 558.112 381.594 557.03 381.594C555.947 381.594 555.117 381.16 554.54 380.293ZM555.742 374.727C555.266 375.228 555.028 376.102 555.028 377.352C555.028 378.601 555.266 379.478 555.742 379.982C556.076 380.332 556.505 380.507 557.03 380.507C557.555 380.507 557.984 380.332 558.318 379.982C558.79 379.482 559.026 378.605 559.026 377.352C559.026 376.098 558.79 375.223 558.318 374.727C557.984 374.377 557.555 374.202 557.03 374.202C556.505 374.202 556.076 374.377 555.742 374.727ZM561.394 375.74C561.394 375.016 561.648 374.397 562.157 373.885C562.665 373.372 563.343 373.116 564.189 373.116C565.036 373.116 565.703 373.356 566.191 373.836C566.679 374.316 566.926 374.906 566.93 375.606C566.93 376.631 566.421 377.463 565.404 378.102L563.805 379.128C563.231 379.494 562.901 379.874 562.816 380.269H566.979V381.404H561.308C561.325 380.721 561.479 380.121 561.772 379.604C562.069 379.087 562.556 378.613 563.231 378.182L564.58 377.303C565.32 376.827 565.693 376.265 565.697 375.618C565.697 375.219 565.562 374.882 565.294 374.605C565.029 374.328 564.649 374.19 564.153 374.19C563.656 374.19 563.274 374.345 563.005 374.654C562.737 374.963 562.604 375.364 562.608 375.856C562.608 375.929 562.617 376.049 562.633 376.216L561.406 376.07C561.398 375.997 561.394 375.887 561.394 375.74ZM568.834 380.293C568.35 379.573 568.108 378.593 568.108 377.352C568.108 376.111 568.35 375.132 568.834 374.416C569.408 373.549 570.236 373.116 571.318 373.116C572.4 373.116 573.231 373.549 573.808 374.416C574.293 375.132 574.535 376.111 574.535 377.352C574.535 378.593 574.293 379.573 573.808 380.293C573.235 381.16 572.407 381.594 571.324 381.594C570.242 381.594 569.412 381.16 568.834 380.293ZM570.036 374.727C569.56 375.228 569.322 376.102 569.322 377.352C569.322 378.601 569.56 379.478 570.036 379.982C570.37 380.332 570.799 380.507 571.324 380.507C571.849 380.507 572.278 380.332 572.612 379.982C573.084 379.482 573.32 378.605 573.32 377.352C573.32 376.098 573.084 375.223 572.612 374.727C572.278 374.377 571.849 374.202 571.324 374.202C570.799 374.202 570.37 374.377 570.036 374.727Z" fill="#1C5275"/>
<line x1="50.2498" y1="342.904" x2="605.25" y2="342.904" stroke="#1C5275"/>
<rect x="75.2498" y="152.404" width="59" height="191" fill="#E75C64"/>
<rect x="63.2498" y="650.404" width="59" height="38" fill="#E75C64"/>
<rect x="227.25" y="197.404" width="59" height="146" fill="#E75C64"/>
<rect x="215.25" y="622.404" width="59" height="66" fill="#E75C64"/>
<rect x="227.25" y="164.404" width="59" height="33" fill="#1C5275"/>
<rect x="215.25" y="603.404" width="59" height="19" fill="#1C5275"/>
<rect x="75.2498" y="119.404" width="59" height="33" fill="#1C5275"/>
<rect x="63.2498" y="639.404" width="59" height="13" fill="#1C5275"/>
<rect x="380.25" y="339.404" width="59" height="4" fill="#E75C64"/>
<rect x="368.25" y="552.404" width="59" height="136" fill="#E75C64"/>
<rect x="532.25" y="339.404" width="59" height="4" fill="#E75C64"/>
<rect x="520.25" y="603.404" width="59" height="85" fill="#E75C64"/>
<rect x="532.25" y="337.404" width="59" height="2" fill="#1C5275"/>
<rect x="520.25" y="567.404" width="59" height="36" fill="#1C5275"/>
<rect x="380.25" y="337.404" width="59" height="2" fill="#1C5275"/>
<rect x="368.25" y="484.404" width="59" height="68" fill="#1C5275"/>
<path d="M365.25 31.4043H359.25C358.719 31.4048 358.211 31.6157 357.836 31.9907C357.461 32.3656 357.25 32.874 357.25 33.4043V35.4043H351.664L347.25 30.9903V25.4043H349.25C349.78 25.4038 350.288 25.1929 350.663 24.8179C351.038 24.443 351.249 23.9346 351.25 23.4043V17.4043C351.249 16.874 351.038 16.3656 350.663 15.9907C350.288 15.6157 349.78 15.4048 349.25 15.4043H343.25C342.719 15.4048 342.211 15.6157 341.836 15.9907C341.461 16.3656 341.25 16.874 341.25 17.4043V23.4043C341.25 23.9346 341.461 24.443 341.836 24.8179C342.211 25.1929 342.719 25.4038 343.25 25.4043H345.25V30.9903L340.543 35.6973C340.355 35.8848 340.25 36.1391 340.25 36.4043C340.25 36.6695 340.355 36.9238 340.543 37.1113L345.543 42.1113C345.73 42.2988 345.984 42.4041 346.25 42.4041C346.515 42.4041 346.769 42.2988 346.957 42.1113L351.664 37.4043H357.25V39.4043C357.25 39.9346 357.461 40.443 357.836 40.8179C358.211 41.1929 358.719 41.4038 359.25 41.4043H365.25C365.78 41.4038 366.288 41.1929 366.663 40.8179C367.038 40.443 367.249 39.9346 367.25 39.4043V33.4043C367.249 32.874 367.038 32.3656 366.663 31.9907C366.288 31.6157 365.78 31.4048 365.25 31.4043ZM343.25 17.4043H349.25V23.4043H343.25V17.4043ZM346.25 39.9903L342.664 36.4043L346.25 32.8183L349.836 36.4043L346.25 39.9903ZM359.25 39.4043V33.4043H365.25V39.4043H359.25Z" fill="#1C5275"/>
<path d="M404.186 35.4042H407.282L402.53 22.6422H399.236L394.43 35.4042H397.418L398.336 32.8122H403.268L404.186 35.4042ZM400.838 25.8102L402.368 30.2202H399.272L400.838 25.8102ZM411.41 35.4042V22.3722H408.674V35.4042H411.41ZM413.195 35.9082C413.447 37.5102 415.085 39.0942 417.659 39.0942C421.007 39.0942 422.447 36.8622 422.447 34.2882V26.4582H419.837V27.4122C419.585 26.9442 418.811 26.2962 417.353 26.2962C414.905 26.2962 413.195 28.3122 413.195 30.6702C413.195 33.1542 414.977 35.0262 417.353 35.0262C418.649 35.0262 419.423 34.5042 419.747 34.0182V34.4322C419.747 36.0522 418.901 36.7182 417.533 36.7182C416.507 36.7182 415.787 36.0882 415.607 35.2242L413.195 35.9082ZM417.857 32.6502C416.759 32.6502 415.931 31.8942 415.931 30.6702C415.931 29.4462 416.831 28.6902 417.857 28.6902C418.883 28.6902 419.765 29.4462 419.765 30.6702C419.765 31.8942 418.973 32.6502 417.857 32.6502ZM428.862 33.1542C427.836 33.1542 426.846 32.4162 426.846 30.9222C426.846 29.4102 427.836 28.7082 428.862 28.7082C429.906 28.7082 430.878 29.4102 430.878 30.9222C430.878 32.4342 429.906 33.1542 428.862 33.1542ZM428.862 26.1882C426.198 26.1882 424.11 28.1502 424.11 30.9222C424.11 33.6942 426.198 35.6742 428.862 35.6742C431.544 35.6742 433.614 33.6942 433.614 30.9222C433.614 28.1502 431.544 26.1882 428.862 26.1882ZM441.063 26.4582C440.883 26.4042 440.613 26.3682 440.343 26.3682C439.623 26.3682 438.489 26.6562 438.021 27.6642V26.4582H435.375V35.4042H438.111V31.4982C438.111 29.7162 439.101 29.0682 440.199 29.0682C440.469 29.0682 440.757 29.0862 441.063 29.1582V26.4582ZM445.459 35.4042V26.4582H442.723V35.4042H445.459ZM442.489 23.7222C442.489 24.6042 443.209 25.3242 444.073 25.3242C444.973 25.3242 445.693 24.6042 445.693 23.7222C445.693 22.8402 444.973 22.1202 444.073 22.1202C443.209 22.1202 442.489 22.8402 442.489 23.7222ZM451.132 23.8482H448.684V25.0002C448.684 25.8282 448.234 26.4582 447.298 26.4582H446.848V28.8522H448.432V32.6862C448.432 34.4682 449.566 35.5662 451.42 35.5662C452.284 35.5662 452.734 35.3682 452.842 35.3142V33.0462C452.68 33.0822 452.41 33.1362 452.122 33.1362C451.528 33.1362 451.132 32.9382 451.132 32.2002V28.8522H452.878V26.4582H451.132V23.8482ZM456.885 30.1482C456.939 29.3202 457.497 28.7082 458.361 28.7082C459.351 28.7082 459.819 29.3742 459.819 30.2562V35.4042H462.555V29.7882C462.555 27.8262 461.511 26.2242 459.171 26.2242C458.379 26.2242 457.443 26.4762 456.885 27.0342V22.3722H454.149V35.4042H456.885V30.1482ZM467.59 35.4042V30.2562C467.59 29.4462 468.112 28.7082 469.066 28.7082C470.056 28.7082 470.506 29.3742 470.506 30.2202V35.4042H473.206V30.2382C473.206 29.4462 473.728 28.7082 474.7 28.7082C475.672 28.7082 476.122 29.3742 476.122 30.2202V35.4042H478.768V29.6082C478.768 27.1782 477.148 26.1882 475.456 26.1882C474.25 26.1882 473.386 26.5842 472.684 27.5922C472.234 26.7102 471.316 26.1882 470.038 26.1882C469.066 26.1882 467.914 26.6922 467.464 27.4842V26.4582H464.854V35.4042H467.59ZM480.341 32.8662C480.413 33.8562 481.313 35.6742 484.121 35.6742C486.515 35.6742 487.685 34.1802 487.685 32.6502C487.685 31.3362 486.785 30.2202 484.931 29.8422L483.743 29.6082C483.347 29.5362 483.041 29.3202 483.041 28.9422C483.041 28.4742 483.491 28.1682 484.013 28.1682C484.841 28.1682 485.219 28.6722 485.291 29.2662L487.559 28.8522C487.469 27.8082 486.569 26.1882 483.977 26.1882C481.979 26.1882 480.539 27.5202 480.539 29.1582C480.539 30.4182 481.295 31.4982 483.203 31.9122L484.229 32.1462C484.895 32.2902 485.111 32.5602 485.111 32.8842C485.111 33.2802 484.769 33.6582 484.067 33.6582C483.131 33.6582 482.699 33.0642 482.663 32.4522L480.341 32.8662ZM496.629 35.4042V26.4582H493.893V35.4042H496.629ZM493.659 23.7222C493.659 24.6042 494.379 25.3242 495.243 25.3242C496.143 25.3242 496.863 24.6042 496.863 23.7222C496.863 22.8402 496.143 22.1202 495.243 22.1202C494.379 22.1202 493.659 22.8402 493.659 23.7222ZM501.762 30.2742C501.762 29.3742 502.338 28.7082 503.238 28.7082C504.228 28.7082 504.696 29.3742 504.696 30.2562V35.4042H507.432V29.7882C507.432 27.8262 506.424 26.2242 504.174 26.2242C503.256 26.2242 502.158 26.6382 501.672 27.4842V26.4582H499.026V35.4042H501.762V30.2742ZM518.283 28.7082C519.345 28.7082 519.885 29.3562 520.083 30.0402L522.531 29.3022C522.135 27.7002 520.695 26.1882 518.229 26.1882C515.601 26.1882 513.513 28.1502 513.513 30.9402C513.513 33.7122 515.655 35.6742 518.319 35.6742C520.713 35.6742 522.189 34.1262 522.585 32.5602L520.173 31.8222C519.975 32.4882 519.381 33.1542 518.319 33.1542C517.185 33.1542 516.231 32.3622 516.231 30.9402C516.231 29.5002 517.149 28.7082 518.283 28.7082ZM526.986 30.1482C527.04 29.3202 527.598 28.7082 528.462 28.7082C529.452 28.7082 529.92 29.3742 529.92 30.2562V35.4042H532.656V29.7882C532.656 27.8262 531.612 26.2242 529.272 26.2242C528.48 26.2242 527.544 26.4762 526.986 27.0342V22.3722H524.25V35.4042H526.986V30.1482ZM534.416 32.9382C534.416 34.3602 535.55 35.6562 537.512 35.6562C538.7 35.6562 539.564 35.1522 540.032 34.3962C540.032 35.0082 540.104 35.3322 540.122 35.4042H542.588C542.57 35.3142 542.48 34.7202 542.48 34.0182V29.6442C542.48 27.8082 541.418 26.1882 538.52 26.1882C535.892 26.1882 534.704 27.8802 534.596 29.1582L536.972 29.6442C537.026 28.9782 537.548 28.3302 538.502 28.3302C539.366 28.3302 539.816 28.7802 539.816 29.3022C539.816 29.6082 539.654 29.8422 539.168 29.9142L537.062 30.2382C535.586 30.4542 534.416 31.3542 534.416 32.9382ZM538.178 33.6762C537.422 33.6762 537.116 33.2262 537.116 32.7582C537.116 32.1282 537.548 31.8582 538.124 31.7682L539.816 31.4982V31.8942C539.816 33.2802 538.988 33.6762 538.178 33.6762ZM550.47 26.4582C550.29 26.4042 550.02 26.3682 549.75 26.3682C549.03 26.3682 547.896 26.6562 547.428 27.6642V26.4582H544.782V35.4042H547.518V31.4982C547.518 29.7162 548.508 29.0682 549.606 29.0682C549.876 29.0682 550.164 29.0862 550.47 29.1582V26.4582ZM551.394 35.9082C551.646 37.5102 553.284 39.0942 555.858 39.0942C559.206 39.0942 560.646 36.8622 560.646 34.2882V26.4582H558.036V27.4122C557.784 26.9442 557.01 26.2962 555.552 26.2962C553.104 26.2962 551.394 28.3122 551.394 30.6702C551.394 33.1542 553.176 35.0262 555.552 35.0262C556.848 35.0262 557.622 34.5042 557.946 34.0182V34.4322C557.946 36.0522 557.1 36.7182 555.732 36.7182C554.706 36.7182 553.986 36.0882 553.806 35.2242L551.394 35.9082ZM556.056 32.6502C554.958 32.6502 554.13 31.8942 554.13 30.6702C554.13 29.4462 555.03 28.6902 556.056 28.6902C557.082 28.6902 557.964 29.4462 557.964 30.6702C557.964 31.8942 557.172 32.6502 556.056 32.6502ZM565.027 29.8602C565.081 29.1942 565.657 28.3482 566.809 28.3482C568.105 28.3482 568.573 29.1762 568.609 29.8602H565.027ZM568.807 32.1822C568.555 32.8842 567.997 33.3522 567.007 33.3522C565.945 33.3522 565.027 32.6322 564.973 31.6242H571.201C571.219 31.5702 571.255 31.1562 571.255 30.7782C571.255 27.8982 569.545 26.1882 566.773 26.1882C564.451 26.1882 562.309 28.0242 562.309 30.9042C562.309 33.9102 564.505 35.6742 566.971 35.6742C569.239 35.6742 570.661 34.3782 571.093 32.8302L568.807 32.1822Z" fill="#1C5275"/>
<path d="M342.395 807.677C340.655 807.677 339.164 807.076 337.922 805.875C336.679 804.674 336.058 803.054 336.058 801.015C336.058 799.649 336.369 798.451 336.99 797.42C337.611 796.389 338.399 795.621 339.354 795.117C340.303 794.619 341.317 794.37 342.395 794.37C343.837 794.37 345.052 794.733 346.043 795.46C347.033 796.187 347.689 797.174 348.011 798.422L346.377 799.002C346.136 798.041 345.674 797.3 344.988 796.778C344.302 796.257 343.438 795.996 342.395 795.996C341.147 795.996 340.078 796.436 339.187 797.314C338.297 798.193 337.854 799.427 337.86 801.015C337.86 802.597 338.305 803.833 339.196 804.724C340.087 805.614 341.153 806.057 342.395 806.051C343.438 806.051 344.308 805.772 345.006 805.216C345.703 804.659 346.189 803.918 346.465 802.992L348.029 803.572C347.683 804.809 347.015 805.802 346.025 806.552C345.035 807.302 343.825 807.677 342.395 807.677ZM349.383 801.015C349.383 799.989 349.564 799.049 349.927 798.193C350.607 796.611 351.776 795.486 353.434 794.818C354.19 794.52 354.975 794.37 355.79 794.37C357.466 794.37 358.933 794.944 360.193 796.093C360.802 796.638 361.289 797.335 361.652 798.185C362.015 799.034 362.197 799.978 362.197 801.015C362.197 802.38 361.884 803.581 361.257 804.618C360.624 805.649 359.827 806.417 358.866 806.921C357.905 807.425 356.88 807.677 355.79 807.677C354.7 807.677 353.675 807.425 352.714 806.921C351.759 806.411 350.965 805.641 350.332 804.609C349.699 803.578 349.383 802.38 349.383 801.015ZM351.184 801.015C351.184 802.597 351.635 803.833 352.538 804.724C353.446 805.608 354.533 806.051 355.799 806.051C357.064 806.051 358.148 805.605 359.051 804.715C359.953 803.824 360.404 802.591 360.404 801.015C360.404 799.433 359.953 798.199 359.051 797.314C358.148 796.436 357.061 795.996 355.79 795.996C354.518 795.996 353.431 796.436 352.529 797.314C351.627 798.193 351.178 799.427 351.184 801.015ZM368.455 805.137L372.34 794.643H374.194L369.281 807.404H367.532L362.724 794.643H364.596L368.455 805.137ZM377.798 807.404H375.996V794.643H377.798V807.404ZM385.47 807.404H381.041V794.643H385.506C387.222 794.643 388.664 795.211 389.83 796.348C390.99 797.484 391.57 799.049 391.57 801.041C391.57 803.033 390.984 804.595 389.812 805.726C388.635 806.845 387.187 807.404 385.47 807.404ZM382.807 805.84H385.418C386.666 805.84 387.7 805.427 388.52 804.601C389.346 803.774 389.76 802.588 389.76 801.041C389.76 799.494 389.355 798.305 388.547 797.473C387.738 796.635 386.707 796.213 385.453 796.207H382.807V805.84ZM398.065 802.975H393.187V801.498H398.065V802.975ZM403.514 807.404H401.792V799.178H398.962V797.938C399.753 797.927 400.421 797.719 400.966 797.314C401.505 796.91 401.839 796.386 401.968 795.741H403.514V807.404ZM411.653 801.252C412.151 800.807 412.4 800.218 412.4 799.485C412.4 798.753 412.148 798.158 411.644 797.701C411.14 797.244 410.549 797.016 409.869 797.016C409.189 797.016 408.603 797.241 408.111 797.692C407.619 798.144 407.37 798.741 407.364 799.485C407.364 800.229 407.61 800.824 408.102 801.27C408.589 801.715 409.177 801.938 409.869 801.938C410.56 801.938 411.155 801.709 411.653 801.252ZM408.586 806.086C409.916 806.086 410.915 805.705 411.583 804.943C412.251 804.182 412.602 803.183 412.637 801.946C412.409 802.368 412.034 802.723 411.512 803.01C410.991 803.297 410.358 803.44 409.614 803.44C408.536 803.44 407.593 803.092 406.784 802.395C405.981 801.691 405.58 800.739 405.58 799.538C405.58 798.337 406.002 797.358 406.845 796.603C407.689 795.847 408.718 795.469 409.93 795.469C411.143 795.469 412.195 795.926 413.086 796.84C413.976 797.754 414.419 799.084 414.413 800.83C414.407 803.016 413.918 804.703 412.945 805.893C411.972 807.082 410.519 807.677 408.586 807.677C408.129 807.671 407.636 807.604 407.109 807.475C406.582 807.346 406.175 807.185 405.887 806.991L406.459 805.532C407.068 805.901 407.777 806.086 408.586 806.086ZM427.342 805.277C427.81 804.703 428.045 803.971 428.045 803.08C428.045 802.189 427.813 801.463 427.35 800.9C426.887 800.338 426.269 800.051 425.496 800.039C424.722 800.039 424.098 800.326 423.624 800.9C423.149 801.475 422.912 802.201 422.912 803.08C422.912 803.971 423.149 804.7 423.624 805.269C424.098 805.837 424.719 806.121 425.487 806.121C426.255 806.121 426.873 805.84 427.342 805.277ZM422.929 810.823H421.26V798.747H422.894V800.101C423.146 799.644 423.524 799.271 424.028 798.984C424.532 798.697 425.121 798.551 425.795 798.545C427.043 798.545 428.018 798.973 428.721 799.828C429.425 800.684 429.776 801.765 429.776 803.071C429.776 804.378 429.413 805.465 428.686 806.332C427.96 807.199 426.978 807.636 425.742 807.642C425.103 807.642 424.538 807.51 424.046 807.246C423.553 806.982 423.181 806.646 422.929 806.235V810.823ZM434.522 806.253C435.278 806.253 435.885 806.048 436.342 805.638C436.799 805.228 437.024 804.58 437.018 803.695V803.3L434.373 803.695C433.986 803.754 433.681 803.892 433.459 804.108C433.236 804.325 433.122 804.609 433.116 804.961C433.116 805.312 433.245 805.617 433.503 805.875C433.76 806.127 434.1 806.253 434.522 806.253ZM434.171 807.677C433.391 807.677 432.732 807.422 432.193 806.912C431.654 806.402 431.385 805.784 431.385 805.058C431.385 804.331 431.625 803.742 432.105 803.291C432.586 802.84 433.221 802.562 434.012 802.456L436.359 802.113C436.804 802.055 437.027 801.817 437.027 801.401C437.027 800.985 436.869 800.634 436.552 800.347C436.236 800.06 435.779 799.916 435.181 799.916C434.584 799.916 434.118 800.074 433.784 800.391C433.45 800.707 433.251 801.132 433.186 801.665L431.569 801.287C431.651 800.467 432.029 799.793 432.703 799.266C433.377 798.738 434.179 798.475 435.111 798.475C436.342 798.475 437.25 798.773 437.836 799.371C438.422 799.969 438.715 800.728 438.715 801.647V805.98C438.715 806.496 438.75 806.971 438.82 807.404H437.168C437.109 807.047 437.08 806.657 437.08 806.235C436.84 806.622 436.488 806.959 436.025 807.246C435.562 807.533 434.944 807.677 434.171 807.677ZM443.039 802.403V807.404H441.351V798.747H443.004V799.986C443.578 798.99 444.466 798.492 445.667 798.492C446.663 798.492 447.427 798.812 447.961 799.45C448.494 800.089 448.763 800.909 448.769 801.911V807.404H447.073V802.201C447.073 800.748 446.402 800.021 445.06 800.021C444.416 800.021 443.918 800.247 443.566 800.698C443.215 801.149 443.039 801.718 443.039 802.403ZM457.523 806.235V806.086C457.295 806.531 456.949 806.9 456.486 807.193C456.023 807.486 455.475 807.636 454.843 807.642C453.606 807.636 452.613 807.199 451.863 806.332C451.113 805.465 450.738 804.387 450.738 803.098C450.738 801.809 451.122 800.719 451.889 799.828C452.657 798.949 453.641 798.51 454.843 798.51C455.552 798.51 456.129 798.65 456.574 798.932C457.019 799.213 457.324 799.559 457.488 799.969V794.37H459.158V805.805C459.158 806.391 459.19 806.924 459.255 807.404H457.611C457.552 807.07 457.523 806.681 457.523 806.235ZM456.838 800.83C456.392 800.279 455.786 800.004 455.018 800.004C454.251 800.004 453.633 800.285 453.164 800.848C452.695 801.41 452.464 802.146 452.469 803.054C452.475 803.962 452.701 804.703 453.146 805.277C453.592 805.852 454.201 806.139 454.974 806.139C455.748 806.139 456.363 805.846 456.82 805.26C457.277 804.674 457.506 803.927 457.506 803.019C457.506 802.11 457.283 801.381 456.838 800.83ZM465.697 807.677C464.478 807.671 463.447 807.252 462.603 806.42C461.76 805.588 461.338 804.486 461.338 803.115C461.338 801.744 461.745 800.631 462.559 799.775C463.374 798.914 464.346 798.48 465.477 798.475C466.784 798.475 467.803 798.885 468.536 799.705C469.268 800.525 469.635 801.627 469.635 803.01C469.635 803.227 469.623 803.408 469.599 803.555H463.087C463.098 804.322 463.353 804.952 463.851 805.444C464.349 805.937 464.965 806.183 465.697 806.183C466.927 806.183 467.736 805.6 468.123 804.434L469.582 804.935C469.33 805.737 468.861 806.396 468.176 806.912C467.49 807.428 466.664 807.683 465.697 807.677ZM467.226 800.584C466.816 800.174 466.257 799.969 465.548 799.969C464.839 799.969 464.267 800.188 463.834 800.628C463.4 801.067 463.169 801.586 463.139 802.184H467.868C467.85 801.527 467.636 800.994 467.226 800.584ZM473.467 807.404H471.797V798.747H473.414V799.898C473.677 799.441 474.05 799.093 474.53 798.853C475.01 798.612 475.523 798.492 476.068 798.492C476.613 798.492 477.12 798.63 477.589 798.905C478.057 799.181 478.406 799.591 478.635 800.136C479.232 799.046 480.199 798.498 481.535 798.492C482.361 798.492 483.064 798.773 483.644 799.336C484.224 799.898 484.517 800.716 484.523 801.788V807.404H482.844V801.973C482.844 801.375 482.692 800.895 482.387 800.531C482.077 800.168 481.623 799.986 481.025 799.986C480.427 799.986 479.944 800.194 479.575 800.61C479.206 801.026 479.018 801.545 479.012 802.166V807.404H477.325V801.973C477.319 801.375 477.164 800.895 476.859 800.531C476.554 800.168 476.1 799.986 475.497 799.986C474.893 799.986 474.404 800.191 474.029 800.602C473.654 801.012 473.467 801.539 473.467 802.184V807.404ZM487.204 796.321C486.969 796.087 486.852 795.803 486.852 795.469C486.852 795.135 486.969 794.848 487.204 794.607C487.438 794.367 487.722 794.247 488.056 794.247C488.39 794.247 488.677 794.364 488.918 794.599C489.158 794.833 489.278 795.12 489.278 795.46C489.278 795.8 489.158 796.087 488.918 796.321C488.677 796.556 488.39 796.673 488.056 796.673C487.722 796.673 487.438 796.556 487.204 796.321ZM488.9 807.404H487.23V798.747H488.9V807.404ZM496.986 800.584C496.617 800.221 496.081 800.039 495.378 800.039C494.675 800.039 494.068 800.303 493.558 800.83C493.049 801.357 492.794 802.099 492.794 803.054C492.794 804.009 493.049 804.756 493.558 805.295C494.068 805.834 494.689 806.104 495.422 806.104C496.16 806.104 496.717 805.928 497.092 805.576C497.467 805.213 497.719 804.797 497.847 804.328L499.342 804.979C499.101 805.699 498.647 806.329 497.979 806.868C497.311 807.407 496.465 807.677 495.439 807.677C494.179 807.677 493.134 807.237 492.302 806.358C491.475 805.479 491.062 804.375 491.062 803.045C491.062 801.715 491.475 800.622 492.302 799.767C493.128 798.905 494.118 798.475 495.272 798.475C496.427 798.475 497.332 798.744 497.988 799.283C498.644 799.822 499.072 800.473 499.271 801.234L497.742 801.876C497.607 801.378 497.355 800.947 496.986 800.584Z" fill="#1C5275"/>
<line x1="326.25" y1="772.904" x2="604.25" y2="772.904" stroke="#1C5275"/>
<path d="M67.1759 37.4043C67.1722 37.4041 67.1652 37.4038 67.1553 37.4031C67.1295 37.4013 67.0861 37.3971 67.0313 37.388C66.9171 37.3689 66.7802 37.3327 66.6553 37.2703C66.5343 37.2098 66.4438 37.1348 66.3813 37.041C66.3229 36.9535 66.2498 36.7918 66.2498 36.4876C66.2498 35.786 66.6295 34.1263 68.1131 32.6427C69.5675 31.1883 72.169 29.821 76.7498 29.821C81.3305 29.821 83.9321 31.1883 85.3864 32.6427C86.87 34.1263 87.2498 35.786 87.2498 36.4876C87.2498 36.7918 87.1766 36.9535 87.1182 37.041C87.0557 37.1348 86.9652 37.2098 86.8442 37.2703C86.7193 37.3327 86.5824 37.3689 86.4682 37.388C86.4134 37.3971 86.37 37.4013 86.3442 37.4031C86.3343 37.4038 86.3273 37.4041 86.3236 37.4043H67.1759ZM80.1085 24.5131C79.2177 25.4039 78.0095 25.9043 76.7498 25.9043C75.49 25.9043 74.2818 25.4039 73.391 24.5131C72.5002 23.6223 71.9998 22.4141 71.9998 21.1543C71.9998 19.8945 72.5002 18.6863 73.391 17.7955C74.2818 16.9047 75.49 16.4043 76.7498 16.4043C78.0095 16.4043 79.2177 16.9047 80.1085 17.7955C80.9993 18.6863 81.4998 19.8945 81.4998 21.1543C81.4998 22.4141 80.9993 23.6223 80.1085 24.5131Z" stroke="#1C5275" stroke-width="2"/>
<path d="M127.436 33.4043V20.6423H124.574V25.6463H119.48V20.6423H116.636V33.4043H119.48V28.3283H124.574V33.4043H127.436ZM135.786 33.4043H138.414C138.396 33.2603 138.324 32.6123 138.324 31.8023V24.4583H135.588V29.5523C135.588 30.4523 135.012 31.0823 134.094 31.0823C133.122 31.0823 132.654 30.3983 132.654 29.5343V24.4583H129.918V30.1103C129.918 32.0183 131.142 33.6023 133.32 33.6023C134.22 33.6023 135.246 33.2783 135.714 32.5043C135.714 32.7383 135.75 33.2423 135.786 33.4043ZM143.467 33.4043V28.2563C143.467 27.4463 143.989 26.7083 144.943 26.7083C145.933 26.7083 146.383 27.3743 146.383 28.2203V33.4043H149.083V28.2383C149.083 27.4463 149.605 26.7083 150.577 26.7083C151.549 26.7083 151.999 27.3743 151.999 28.2203V33.4043H154.645V27.6083C154.645 25.1783 153.025 24.1883 151.333 24.1883C150.127 24.1883 149.263 24.5843 148.561 25.5923C148.111 24.7103 147.193 24.1883 145.915 24.1883C144.943 24.1883 143.791 24.6923 143.341 25.4843V24.4583H140.731V33.4043H143.467ZM156.416 30.9383C156.416 32.3603 157.55 33.6563 159.512 33.6563C160.7 33.6563 161.564 33.1523 162.032 32.3963C162.032 33.0083 162.104 33.3323 162.122 33.4043H164.588C164.57 33.3143 164.48 32.7203 164.48 32.0183V27.6443C164.48 25.8083 163.418 24.1883 160.52 24.1883C157.892 24.1883 156.704 25.8803 156.596 27.1583L158.972 27.6443C159.026 26.9783 159.548 26.3303 160.502 26.3303C161.366 26.3303 161.816 26.7803 161.816 27.3023C161.816 27.6083 161.654 27.8423 161.168 27.9143L159.062 28.2383C157.586 28.4543 156.416 29.3543 156.416 30.9383ZM160.178 31.6763C159.422 31.6763 159.116 31.2263 159.116 30.7583C159.116 30.1283 159.548 29.8583 160.124 29.7683L161.816 29.4983V29.8943C161.816 31.2803 160.988 31.6763 160.178 31.6763ZM169.518 28.2743C169.518 27.3743 170.094 26.7083 170.994 26.7083C171.984 26.7083 172.452 27.3743 172.452 28.2563V33.4043H175.188V27.7883C175.188 25.8263 174.18 24.2243 171.93 24.2243C171.012 24.2243 169.914 24.6383 169.428 25.4843V24.4583H166.782V33.4043H169.518V28.2743ZM184.653 33.4043V28.2563C184.653 27.4463 185.175 26.7083 186.129 26.7083C187.119 26.7083 187.569 27.3743 187.569 28.2203V33.4043H190.269V28.2383C190.269 27.4463 190.791 26.7083 191.763 26.7083C192.735 26.7083 193.185 27.3743 193.185 28.2203V33.4043H195.831V27.6083C195.831 25.1783 194.211 24.1883 192.519 24.1883C191.313 24.1883 190.449 24.5843 189.747 25.5923C189.297 24.7103 188.379 24.1883 187.101 24.1883C186.129 24.1883 184.977 24.6923 184.527 25.4843V24.4583H181.917V33.4043H184.653ZM202.245 31.1543C201.219 31.1543 200.229 30.4163 200.229 28.9223C200.229 27.4103 201.219 26.7083 202.245 26.7083C203.289 26.7083 204.261 27.4103 204.261 28.9223C204.261 30.4343 203.289 31.1543 202.245 31.1543ZM202.245 24.1883C199.581 24.1883 197.493 26.1503 197.493 28.9223C197.493 31.6943 199.581 33.6743 202.245 33.6743C204.927 33.6743 206.997 31.6943 206.997 28.9223C206.997 26.1503 204.927 24.1883 202.245 24.1883ZM217.56 20.3723H214.86V25.1603C214.644 24.8183 213.978 24.2423 212.448 24.2423C209.91 24.2423 208.11 26.2403 208.11 28.9043C208.11 31.6583 210.018 33.6023 212.538 33.6023C213.618 33.6023 214.518 33.1523 214.932 32.5403C214.932 32.9003 214.986 33.2963 215.004 33.4043H217.632C217.614 33.2063 217.56 32.6123 217.56 31.8023V20.3723ZM210.864 28.9223C210.864 27.4283 211.818 26.7083 212.88 26.7083C213.942 26.7083 214.896 27.4283 214.896 28.9223C214.896 30.3983 213.942 31.1543 212.88 31.1543C211.818 31.1543 210.864 30.3983 210.864 28.9223ZM222.096 27.8603C222.15 27.1943 222.726 26.3483 223.878 26.3483C225.174 26.3483 225.642 27.1763 225.678 27.8603H222.096ZM225.876 30.1823C225.624 30.8843 225.066 31.3523 224.076 31.3523C223.014 31.3523 222.096 30.6323 222.042 29.6243H228.27C228.288 29.5703 228.324 29.1563 228.324 28.7783C228.324 25.8983 226.614 24.1883 223.842 24.1883C221.52 24.1883 219.378 26.0243 219.378 28.9043C219.378 31.9103 221.574 33.6743 224.04 33.6743C226.308 33.6743 227.73 32.3783 228.162 30.8303L225.876 30.1823ZM235.769 24.4583C235.589 24.4043 235.319 24.3683 235.049 24.3683C234.329 24.3683 233.195 24.6563 232.727 25.6643V24.4583H230.081V33.4043H232.817V29.4983C232.817 27.7163 233.807 27.0683 234.905 27.0683C235.175 27.0683 235.463 27.0863 235.769 27.1583V24.4583ZM236.959 30.9383C236.959 32.3603 238.093 33.6563 240.055 33.6563C241.243 33.6563 242.107 33.1523 242.575 32.3963C242.575 33.0083 242.647 33.3323 242.665 33.4043H245.131C245.113 33.3143 245.023 32.7203 245.023 32.0183V27.6443C245.023 25.8083 243.961 24.1883 241.063 24.1883C238.435 24.1883 237.247 25.8803 237.139 27.1583L239.515 27.6443C239.569 26.9783 240.091 26.3303 241.045 26.3303C241.909 26.3303 242.359 26.7803 242.359 27.3023C242.359 27.6083 242.197 27.8423 241.711 27.9143L239.605 28.2383C238.129 28.4543 236.959 29.3543 236.959 30.9383ZM240.721 31.6763C239.965 31.6763 239.659 31.2263 239.659 30.7583C239.659 30.1283 240.091 29.8583 240.667 29.7683L242.359 29.4983V29.8943C242.359 31.2803 241.531 31.6763 240.721 31.6763ZM250.513 21.8483H248.065V23.0003C248.065 23.8283 247.615 24.4583 246.679 24.4583H246.229V26.8523H247.813V30.6863C247.813 32.4683 248.947 33.5663 250.801 33.5663C251.665 33.5663 252.115 33.3683 252.223 33.3143V31.0463C252.061 31.0823 251.791 31.1363 251.503 31.1363C250.909 31.1363 250.513 30.9383 250.513 30.2003V26.8523H252.259V24.4583H250.513V21.8483ZM256.934 33.4043V24.4583H254.198V33.4043H256.934ZM253.964 21.7223C253.964 22.6043 254.684 23.3243 255.548 23.3243C256.448 23.3243 257.168 22.6043 257.168 21.7223C257.168 20.8403 256.448 20.1203 255.548 20.1203C254.684 20.1203 253.964 20.8403 253.964 21.7223ZM263.435 31.1543C262.409 31.1543 261.419 30.4163 261.419 28.9223C261.419 27.4103 262.409 26.7083 263.435 26.7083C264.479 26.7083 265.451 27.4103 265.451 28.9223C265.451 30.4343 264.479 31.1543 263.435 31.1543ZM263.435 24.1883C260.771 24.1883 258.683 26.1503 258.683 28.9223C258.683 31.6943 260.771 33.6743 263.435 33.6743C266.117 33.6743 268.187 31.6943 268.187 28.9223C268.187 26.1503 266.117 24.1883 263.435 24.1883ZM272.684 28.2743C272.684 27.3743 273.26 26.7083 274.16 26.7083C275.15 26.7083 275.618 27.3743 275.618 28.2563V33.4043H278.354V27.7883C278.354 25.8263 277.346 24.2243 275.096 24.2243C274.178 24.2243 273.08 24.6383 272.594 25.4843V24.4583H269.948V33.4043H272.684V28.2743Z" fill="#1C5275"/>
</svg>
