<svg fill="none" xmlns="http://www.w3.org/2000/svg"><path d="M38.964 432.5h-1.472v-4.548l-3.75-6.087h1.773l2.76 4.739 2.762-4.739h1.677l-3.75 6.087v4.548zm6.285-.959c.63 0 1.135-.171 1.516-.513.38-.342.569-.882.564-1.619v-.329l-2.205.329c-.322.049-.576.164-.762.344-.185.181-.28.418-.285.711 0 .293.107.547.322.762.215.21.498.315.85.315zm-.293 1.186c-.65 0-1.2-.212-1.648-.637a2.049 2.049 0 01-.674-1.546c0-.605.2-1.096.6-1.472.4-.376.93-.608 1.59-.696l1.955-.285c.371-.049.557-.247.557-.593 0-.347-.132-.64-.396-.879-.263-.24-.644-.359-1.142-.359-.498 0-.886.132-1.165.395-.278.264-.444.618-.498 1.062l-1.347-.315c.068-.683.383-1.245.944-1.684.562-.44 1.23-.659 2.007-.659 1.026 0 1.783.249 2.27.747.489.498.733 1.13.733 1.897v3.61c0 .43.03.826.088 1.187h-1.377a6.043 6.043 0 01-.073-.974c-.2.322-.493.603-.879.842s-.9.359-1.545.359zm7.39-4.394v4.167H50.94v-7.214h1.376v1.032c.479-.83 1.219-1.245 2.22-1.245.83 0 1.467.266 1.911.799.445.532.67 1.215.674 2.05v4.578h-1.413v-4.336c0-1.211-.56-1.816-1.678-1.816-.537 0-.952.188-1.245.564-.293.376-.44.849-.44 1.421zm12.07 3.193v-.125c-.19.371-.478.679-.864.923s-.843.369-1.37.374c-1.03-.005-1.858-.369-2.483-1.092-.625-.722-.937-1.621-.937-2.695 0-1.074.32-1.982.96-2.724.639-.733 1.46-1.099 2.46-1.099.59 0 1.072.117 1.443.351.371.235.625.523.762.865v-4.666h1.391v9.529c0 .488.027.933.08 1.333H64.49a5.69 5.69 0 01-.073-.974zm-.571-4.505c-.371-.458-.877-.688-1.516-.688-.64 0-1.155.234-1.546.703-.39.469-.583 1.082-.578 1.839.005.756.193 1.374.564 1.853.37.478.879.717 1.523.717.645 0 1.157-.244 1.538-.732.38-.488.571-1.111.571-1.868 0-.757-.185-1.365-.556-1.824zm7.383 5.706c-1.016-.005-1.875-.354-2.579-1.047-.703-.694-1.054-1.612-1.054-2.754 0-1.143.34-2.071 1.018-2.783.678-.718 1.49-1.08 2.431-1.084 1.09 0 1.939.341 2.55 1.025.61.684.915 1.602.915 2.754 0 .181-.01.332-.03.454h-5.427c.01.64.222 1.165.637 1.575.416.41.928.615 1.539.615 1.025 0 1.699-.486 2.021-1.458l1.216.418c-.21.669-.6 1.218-1.172 1.648-.571.43-1.26.642-2.066.637zm1.274-5.911c-.342-.341-.808-.512-1.399-.512-.59 0-1.067.183-1.428.549a1.925 1.925 0 00-.579 1.296h3.94c-.014-.546-.192-.991-.534-1.333zm2.68 5.684l2.689-3.677-2.593-3.537h1.706l1.773 2.534 1.736-2.534h1.67l-2.564 3.537c.151.191.598.801 1.34 1.831a91.949 91.949 0 011.312 1.846h-1.692l-1.86-2.651-1.832 2.651h-1.684z" fill="#000"/><path stroke="#D6C9C9" d="M.5 403.5h115v48H.5z"/><circle cx="196.5" cy="427.5" r="7.5" fill="#ED6A5A"/><path d="M192.627 431.405l7.726-7.83M200.389 431.389l-7.778-7.778" stroke="#fff" stroke-width="2"/><path d="M115 403v-1h-1v1h1zm163 0h1v-1h-1v1zm0 49v1h1v-1h-1zm-163 0h-1v1h1v-1zm0-48h163v-2H115v2zm162-1v49h2v-49h-2zm1 48H115v2h163v-2zm-162 1v-49h-2v49h2z" fill="#D6C9C9"/><circle cx="358.5" cy="427.5" r="7.5" fill="#ED6A5A"/><path d="M354.627 431.405l7.726-7.83M362.389 431.389l-7.778-7.778" stroke="#fff" stroke-width="2"/><path d="M277 403v-1h-1v1h1zm163 0h1v-1h-1v1zm0 49v1h1v-1h-1zm-163 0h-1v1h1v-1zm0-48h163v-2H277v2zm162-1v49h2v-49h-2zm1 48H277v2h163v-2zm-162 1v-49h-2v49h2z" fill="#D6C9C9"/><circle cx="520.5" cy="427.5" r="7.5" fill="#ED6A5A"/><path d="M516.627 431.405l7.726-7.83M524.389 431.389l-7.778-7.778" stroke="#fff" stroke-width="2"/><path d="M439 403v-1h-1v1h1zm163 0h1v-1h-1v1zm0 49v1h1v-1h-1zm-163 0h-1v1h1v-1zm0-48h163v-2H439v2zm162-1v49h2v-49h-2zm1 48H439v2h163v-2zm-162 1v-49h-2v49h2z" fill="#D6C9C9"/><path d="M42.898 375.228h-3.553v9.272h-1.472v-9.272h-3.56v-1.363h8.584v1.363zm4.284 2.058h1.458l1.875 5.427 1.589-5.427h1.48l-2.337 7.214H49.79l-1.92-5.493-1.874 5.493h-1.487l-2.366-7.214h1.545l1.62 5.427 1.874-5.427zm7.808-2.022a.966.966 0 01-.293-.71.99.99 0 01.293-.718c.195-.2.432-.3.71-.3a.99.99 0 01.718.293c.2.195.3.434.3.717 0 .284-.1.523-.3.718a.993.993 0 01-.718.293.969.969 0 01-.71-.293zm1.413 9.236h-1.391v-7.214h1.391v7.214zm4.292-2.19c0 .659.298.989.894.989.283 0 .505-.02.666-.059v1.201c-.239.088-.559.132-.96.132-.62 0-1.11-.18-1.471-.542-.362-.361-.542-.864-.542-1.509v-3.962h-1.377v-1.274h.388c.371 0 .65-.103.835-.308.185-.205.278-.474.278-.806v-1.164h1.29v2.278h1.56v1.274h-1.56v3.75zm5.332 0c0 .659.298.989.894.989.283 0 .505-.02.666-.059v1.201c-.239.088-.559.132-.96.132-.62 0-1.11-.18-1.471-.542-.362-.361-.542-.864-.542-1.509v-3.962h-1.377v-1.274h.388c.371 0 .65-.103.835-.308.186-.205.278-.474.278-.806v-1.164h1.29v2.278h1.56v1.274h-1.56v3.75zm6.416 2.417c-1.015-.005-1.875-.354-2.578-1.047-.703-.694-1.054-1.612-1.054-2.754 0-1.143.339-2.071 1.018-2.783.678-.718 1.489-1.08 2.431-1.084 1.09 0 1.939.341 2.55 1.025.61.684.915 1.602.915 2.754 0 .181-.01.332-.03.454h-5.427c.01.64.222 1.165.637 1.575.415.41.928.615 1.538.615 1.026 0 1.7-.486 2.022-1.458l1.216.418a3.23 3.23 0 01-1.172 1.648c-.572.43-1.26.642-2.066.637zm1.275-5.911c-.342-.341-.808-.512-1.4-.512-.59 0-1.066.183-1.427.549a1.925 1.925 0 00-.579 1.296h3.94c-.014-.546-.192-.991-.534-1.333zm7.2-.153c-1.319 0-1.98.739-1.985 2.219v3.618h-1.407v-7.214h1.377v1.259c.44-.918 1.16-1.377 2.161-1.377.161 0 .317.015.469.044v1.495a4.342 4.342 0 00-.615-.044z" fill="#000"/><path stroke="#D6C9C9" d="M.5 355.5h115v48H.5z"/><circle cx="196.5" cy="379.5" r="7.5" fill="#ED6A5A"/><path d="M192.627 383.405l7.726-7.83M200.389 383.389l-7.778-7.778" stroke="#fff" stroke-width="2"/><path d="M115 355v-1h-1v1h1zm163 0h1v-1h-1v1zm0 49v1h1v-1h-1zm-163 0h-1v1h1v-1zm0-48h163v-2H115v2zm162-1v49h2v-49h-2zm1 48H115v2h163v-2zm-162 1v-49h-2v49h2z" fill="#D6C9C9"/><circle cx="358.5" cy="379.5" r="7.5" fill="#ED6A5A"/><path d="M354.627 383.405l7.726-7.83M362.389 383.389l-7.778-7.778" stroke="#fff" stroke-width="2"/><path d="M277 355v-1h-1v1h1zm163 0h1v-1h-1v1zm0 49v1h1v-1h-1zm-163 0h-1v1h1v-1zm0-48h163v-2H277v2zm162-1v49h2v-49h-2zm1 48H277v2h163v-2zm-162 1v-49h-2v49h2z" fill="#D6C9C9"/><circle cx="520.5" cy="379.5" r="7.5" fill="#ED6A5A"/><path d="M516.627 383.405l7.726-7.83M524.389 383.389l-7.778-7.778" stroke="#fff" stroke-width="2"/><path d="M439 355v-1h-1v1h1zm163 0h1v-1h-1v1zm0 49v1h1v-1h-1zm-163 0h-1v1h1v-1zm0-48h163v-2H439v2zm162-1v49h2v-49h-2zm1 48H439v2h163v-2zm-162 1v-49h-2v49h2z" fill="#D6C9C9"/><path d="M39.85 327.228h-3.552v9.272h-1.472v-9.272h-3.56v-1.363h8.585v1.363zm2.96 9.499c-1.016-.005-1.875-.354-2.579-1.047-.703-.694-1.054-1.612-1.054-2.754 0-1.143.34-2.071 1.018-2.783.678-.718 1.49-1.08 2.431-1.084 1.09 0 1.939.341 2.55 1.025.61.684.915 1.602.915 2.754 0 .181-.01.332-.03.454h-5.427c.01.64.222 1.165.638 1.575.415.41.927.615 1.538.615 1.025 0 1.699-.486 2.021-1.458l1.216.418a3.23 3.23 0 01-1.172 1.648c-.571.43-1.26.642-2.065.637zm1.274-5.911c-.342-.341-.808-.512-1.399-.512-.59 0-1.067.183-1.428.549a1.925 1.925 0 00-.579 1.296h3.94c-.014-.546-.192-.991-.534-1.333zm5.215 1.517v4.167h-1.406v-7.214h1.377v1.032c.478-.83 1.218-1.245 2.219-1.245.83 0 1.467.266 1.911.799.445.532.67 1.215.674 2.05v4.578h-1.413v-4.336c0-1.211-.56-1.816-1.678-1.816-.537 0-.952.188-1.245.564-.293.376-.44.849-.44 1.421zm11.352-1.517c-.307-.302-.754-.454-1.34-.454-.586 0-1.091.22-1.516.659-.425.44-.637 1.058-.637 1.854 0 .795.212 1.418.637 1.867.425.449.942.674 1.553.674.615 0 1.079-.146 1.391-.439.313-.303.523-.65.63-1.04l1.245.542c-.2.6-.578 1.125-1.135 1.574-.557.449-1.262.674-2.117.674-1.05 0-1.921-.366-2.614-1.099-.689-.732-1.033-1.652-1.033-2.761 0-1.108.344-2.019 1.033-2.732.688-.718 1.513-1.076 2.475-1.076.962 0 1.717.224 2.263.673.547.45.904.992 1.07 1.626l-1.275.535a2.347 2.347 0 00-.63-1.077zm6.592 5.911c-1.015-.005-1.875-.354-2.578-1.047-.703-.694-1.055-1.612-1.055-2.754 0-1.143.34-2.071 1.018-2.783.68-.718 1.49-1.08 2.432-1.084 1.089 0 1.939.341 2.549 1.025.61.684.915 1.602.915 2.754 0 .181-.01.332-.029.454h-5.427c.01.64.222 1.165.637 1.575.415.41.928.615 1.538.615 1.026 0 1.7-.486 2.022-1.458l1.216.418a3.23 3.23 0 01-1.172 1.648c-.572.43-1.26.642-2.066.637zm1.275-5.911c-.342-.341-.808-.512-1.4-.512-.59 0-1.066.183-1.428.549a1.925 1.925 0 00-.578 1.296h3.94c-.014-.546-.193-.991-.534-1.333zm5.214 1.517v4.167h-1.406v-7.214h1.377v1.032c.479-.83 1.218-1.245 2.22-1.245.83 0 1.467.266 1.911.799.444.532.669 1.215.674 2.05v4.578h-1.414v-4.336c0-1.211-.559-1.816-1.677-1.816-.537 0-.952.188-1.245.564-.293.376-.44.849-.44 1.421zm8.907 1.977c0 .659.297.989.893.989.283 0 .506-.02.667-.059v1.201c-.24.088-.56.132-.96.132-.62 0-1.11-.18-1.472-.542-.361-.361-.542-.864-.542-1.509v-3.962h-1.377v-1.274h.388c.371 0 .65-.103.835-.308.186-.205.279-.474.279-.806v-1.164h1.289v2.278h1.56v1.274h-1.56v3.75z" fill="#000"/><path stroke="#D6C9C9" d="M.5 307.5h115v48H.5z"/><circle cx="196.5" cy="331.5" r="7.5" fill="#ED6A5A"/><path d="M192.627 335.405l7.726-7.83M200.389 335.389l-7.778-7.778" stroke="#fff" stroke-width="2"/><path d="M115 307v-1h-1v1h1zm163 0h1v-1h-1v1zm0 49v1h1v-1h-1zm-163 0h-1v1h1v-1zm0-48h163v-2H115v2zm162-1v49h2v-49h-2zm1 48H115v2h163v-2zm-162 1v-49h-2v49h2z" fill="#D6C9C9"/><circle cx="358.5" cy="331.5" r="7.5" fill="#ED6A5A"/><path d="M354.627 335.405l7.726-7.83M362.389 335.389l-7.778-7.778" stroke="#fff" stroke-width="2"/><path d="M277 307v-1h-1v1h1zm163 0h1v-1h-1v1zm0 49v1h1v-1h-1zm-163 0h-1v1h1v-1zm0-48h163v-2H277v2zm162-1v49h2v-49h-2zm1 48H277v2h163v-2zm-162 1v-49h-2v49h2z" fill="#D6C9C9"/><circle cx="520.5" cy="331.5" r="7.5" fill="#ED6A5A"/><path d="M516.627 335.405l7.726-7.83M524.389 335.389l-7.778-7.778" stroke="#fff" stroke-width="2"/><path d="M439 307v-1h-1v1h1zm163 0h1v-1h-1v1zm0 49v1h1v-1h-1zm-163 0h-1v1h1v-1zm0-48h163v-2H439v2zm162-1v49h2v-49h-2zm1 48H439v2h163v-2zm-162 1v-49h-2v49h2z" fill="#D6C9C9"/><path d="M47.314 288.5h-1.458v-8.276l-3.625 8.276h-1.355l-3.596-8.276v8.276h-1.458v-10.635h2l3.75 8.657 3.78-8.657h1.962V288.5zm4.644-.959c.63 0 1.135-.171 1.516-.513.38-.342.569-.882.564-1.619v-.329l-2.205.329c-.322.049-.576.164-.762.344-.185.181-.28.418-.285.711 0 .293.107.547.322.762.215.21.498.315.85.315zm-.293 1.186c-.65 0-1.2-.212-1.648-.637a2.049 2.049 0 01-.674-1.546c0-.605.2-1.096.6-1.472.4-.376.93-.608 1.59-.696l1.955-.285c.371-.049.557-.247.557-.593 0-.347-.132-.64-.396-.879-.263-.24-.644-.359-1.142-.359-.498 0-.886.132-1.165.395-.278.264-.444.618-.498 1.062l-1.347-.315c.068-.683.383-1.245.944-1.684.562-.44 1.23-.659 2.007-.659 1.026 0 1.782.249 2.27.747.489.498.733 1.13.733 1.897v3.61c0 .43.03.826.088 1.187h-1.377a6.043 6.043 0 01-.073-.974c-.2.322-.493.603-.879.842s-.9.359-1.545.359zm5.962-9.463a.967.967 0 01-.294-.71c0-.279.098-.518.294-.718.195-.2.432-.3.71-.3a.99.99 0 01.718.293c.2.195.3.434.3.717 0 .284-.1.523-.3.718a.993.993 0 01-.718.293.969.969 0 01-.71-.293zm1.413 9.236h-1.392v-7.214h1.392v7.214zm3.809 0h-1.407v-10.862h1.407V288.5zm4.035-5.669h2.249c.6 0 1.086-.164 1.457-.491.371-.327.557-.769.557-1.325 0-.557-.186-1.001-.557-1.333-.37-.332-.857-.498-1.457-.498h-2.249v3.647zm0 1.318v4.351h-1.487v-10.635h4.007c.981 0 1.77.303 2.365.908.596.606.894 1.326.894 2.161s-.23 1.526-.688 2.073c-.46.547-1.092.893-1.897 1.04l2.534 4.453h-1.707l-2.431-4.351h-1.59zm9.969 4.578c-.82 0-1.475-.273-1.963-.82-.489-.547-.733-1.24-.733-2.08v-4.541h1.407v4.336c0 .542.131.988.395 1.34.264.351.676.525 1.238.52.561 0 .986-.169 1.274-.505.288-.337.435-.784.44-1.341v-4.35h1.406v5.881c0 .469.027.913.08 1.333h-1.355a5.18 5.18 0 01-.058-.872 1.85 1.85 0 01-.872.821c-.39.185-.81.278-1.26.278z" fill="#000"/><path stroke="#D6C9C9" d="M.5 259.5h115v48H.5z"/><circle cx="196.5" cy="283.5" r="7.5" fill="#ED6A5A"/><path d="M192.627 287.405l7.726-7.83M200.389 287.389l-7.778-7.778" stroke="#fff" stroke-width="2"/><path d="M115 259v-1h-1v1h1zm163 0h1v-1h-1v1zm0 49v1h1v-1h-1zm-163 0h-1v1h1v-1zm0-48h163v-2H115v2zm162-1v49h2v-49h-2zm1 48H115v2h163v-2zm-162 1v-49h-2v49h2z" fill="#D6C9C9"/><circle cx="358.5" cy="283.5" r="7.5" fill="#ED6A5A"/><path d="M354.627 287.405l7.726-7.83M362.389 287.389l-7.778-7.778" stroke="#fff" stroke-width="2"/><path d="M277 259v-1h-1v1h1zm163 0h1v-1h-1v1zm0 49v1h1v-1h-1zm-163 0h-1v1h1v-1zm0-48h163v-2H277v2zm162-1v49h2v-49h-2zm1 48H277v2h163v-2zm-162 1v-49h-2v49h2z" fill="#D6C9C9"/><circle cx="520.5" cy="283.5" r="7.5" fill="#ED6A5A"/><path d="M516.627 287.405l7.726-7.83M524.389 287.389l-7.778-7.778" stroke="#fff" stroke-width="2"/><path d="M439 259v-1h-1v1h1zm163 0h1v-1h-1v1zm0 49v1h1v-1h-1zm-163 0h-1v1h1v-1zm0-48h163v-2H439v2zm162-1v49h2v-49h-2zm1 48H439v2h163v-2zm-162 1v-49h-2v49h2z" fill="#D6C9C9"/><path d="M39.96 240.5h-1.472v-10.635h1.472v5.471l4.98-5.471h1.934l-4.423 4.739 4.482 5.896h-1.86l-3.596-4.827-1.517 1.619v3.208zm10.328-.959c.63 0 1.135-.171 1.516-.513.38-.342.569-.882.564-1.619v-.329l-2.205.329c-.322.049-.576.164-.762.344-.185.181-.28.418-.285.711 0 .293.107.547.322.762.215.21.498.315.85.315zm-.293 1.186c-.65 0-1.2-.212-1.648-.637a2.049 2.049 0 01-.674-1.546c0-.605.2-1.096.6-1.472.4-.376.93-.608 1.59-.696l1.955-.285c.372-.049.557-.247.557-.593 0-.347-.132-.64-.395-.879-.264-.24-.645-.359-1.143-.359s-.886.132-1.165.395c-.278.264-.444.618-.498 1.062l-1.347-.315c.068-.683.383-1.245.945-1.684.561-.44 1.23-.659 2.006-.659 1.026 0 1.782.249 2.27.747.49.498.733 1.13.733 1.897v3.61c0 .43.03.826.088 1.187h-1.377a6.043 6.043 0 01-.073-.974c-.2.322-.493.603-.879.842s-.9.359-1.545.359zm7.375-.227h-1.392v-10.862h1.392v6.841l3.12-3.193h1.956l-3.076 3.047 3.134 4.167h-1.772l-2.351-3.179-1.01 1.004v2.175zm8.416-.959c.63 0 1.135-.171 1.516-.513.38-.342.569-.882.564-1.619v-.329l-2.205.329c-.322.049-.576.164-.762.344-.185.181-.28.418-.285.711 0 .293.107.547.322.762.215.21.498.315.85.315zm-.293 1.186c-.65 0-1.2-.212-1.648-.637a2.049 2.049 0 01-.674-1.546c0-.605.2-1.096.6-1.472.4-.376.93-.608 1.59-.696l1.955-.285c.371-.049.557-.247.557-.593 0-.347-.132-.64-.395-.879-.264-.24-.645-.359-1.143-.359s-.886.132-1.165.395c-.278.264-.444.618-.498 1.062l-1.347-.315c.068-.683.383-1.245.944-1.684.562-.44 1.231-.659 2.007-.659 1.026 0 1.783.249 2.27.747.49.498.733 1.13.733 1.897v3.61c0 .43.03.826.088 1.187H67.99a6.043 6.043 0 01-.073-.974c-.2.322-.493.603-.879.842s-.9.359-1.545.359zm9.074-7.668c1.07 0 1.951.361 2.644 1.084.699.722 1.048 1.638 1.048 2.746 0 1.109-.347 2.024-1.04 2.747-.694.722-1.577 1.084-2.652 1.084-1.074 0-1.958-.362-2.651-1.084-.693-.723-1.04-1.636-1.04-2.74 0-1.103.347-2.021 1.04-2.753.693-.723 1.577-1.084 2.651-1.084zm0 6.408c.63 0 1.163-.227 1.597-.681.435-.449.652-1.079.652-1.89 0-.81-.217-1.442-.652-1.896a2.122 2.122 0 00-1.597-.682c-.63 0-1.162.227-1.596.682-.435.454-.652 1.083-.652 1.889s.217 1.438.652 1.897a2.09 2.09 0 001.596.681z" fill="#000"/><path stroke="#D6C9C9" d="M.5 211.5h115v48H.5z"/><circle cx="196.5" cy="235.5" r="7.5" fill="#ED6A5A"/><path d="M192.627 239.405l7.726-7.83M200.389 239.389l-7.778-7.778" stroke="#fff" stroke-width="2"/><path d="M115 211v-1h-1v1h1zm163 0h1v-1h-1v1zm0 49v1h1v-1h-1zm-163 0h-1v1h1v-1zm0-48h163v-2H115v2zm162-1v49h2v-49h-2zm1 48H115v2h163v-2zm-162 1v-49h-2v49h2z" fill="#D6C9C9"/><circle cx="358.5" cy="235.5" r="7.5" fill="#ED6A5A"/><path d="M354.627 239.405l7.726-7.83M362.389 239.389l-7.778-7.778" stroke="#fff" stroke-width="2"/><path d="M277 211v-1h-1v1h1zm163 0h1v-1h-1v1zm0 49v1h1v-1h-1zm-163 0h-1v1h1v-1zm0-48h163v-2H277v2zm162-1v49h2v-49h-2zm1 48H277v2h163v-2zm-162 1v-49h-2v49h2z" fill="#D6C9C9"/><circle cx="520.5" cy="235.5" r="7.5" fill="#ED6A5A"/><path d="M516.627 239.405l7.726-7.83M524.389 239.389l-7.778-7.778" stroke="#fff" stroke-width="2"/><path d="M439 211v-1h-1v1h1zm163 0h1v-1h-1v1zm0 49v1h1v-1h-1zm-163 0h-1v1h1v-1zm0-48h163v-2H439v2zm162-1v49h2v-49h-2zm1 48H439v2h163v-2zm-162 1v-49h-2v49h2z" fill="#D6C9C9"/><path d="M43.938 192.5H42.75l-.132-1.501c-.254.468-.679.874-1.274 1.215-.596.342-1.328.513-2.197.513-.87 0-1.688-.207-2.454-.623-.772-.415-1.404-1.052-1.897-1.911-.493-.86-.742-1.865-.747-3.018 0-1.152.259-2.158.776-3.017.518-.86 1.172-1.494 1.963-1.905a5.385 5.385 0 012.527-.615c1.138 0 2.131.293 2.98.879a4.334 4.334 0 011.73 2.337l-1.334.563c-.239-.776-.656-1.374-1.252-1.794-.596-.42-1.304-.63-2.124-.63-1.03 0-1.917.366-2.659 1.099-.742.732-1.11 1.762-1.106 3.091 0 1.333.362 2.368 1.084 3.105.723.737 1.597 1.104 2.622 1.099 1.524 0 2.547-.625 3.07-1.875.126-.298.197-.596.212-.894h-3.684v-1.326h5.083v5.208zm5.2-7.441c1.069 0 1.95.361 2.644 1.084.698.722 1.047 1.638 1.047 2.746 0 1.109-.347 2.024-1.04 2.747-.693.722-1.577 1.084-2.651 1.084-1.075 0-1.958-.362-2.652-1.084-.693-.723-1.04-1.636-1.04-2.74 0-1.103.347-2.021 1.04-2.753.694-.723 1.578-1.084 2.652-1.084zm0 6.408c.63 0 1.162-.227 1.596-.681.435-.449.652-1.079.652-1.89 0-.81-.217-1.442-.652-1.896a2.122 2.122 0 00-1.596-.682c-.63 0-1.162.227-1.597.682-.435.454-.652 1.083-.652 1.889s.217 1.438.652 1.897a2.09 2.09 0 001.597.681zm8.584-6.408c1.069 0 1.95.361 2.644 1.084.698.722 1.047 1.638 1.047 2.746 0 1.109-.347 2.024-1.04 2.747-.693.722-1.577 1.084-2.651 1.084-1.075 0-1.958-.362-2.652-1.084-.693-.723-1.04-1.636-1.04-2.74 0-1.103.347-2.021 1.04-2.753.694-.723 1.578-1.084 2.652-1.084zm0 6.408c.63 0 1.162-.227 1.596-.681.435-.449.652-1.079.652-1.89 0-.81-.217-1.442-.652-1.896a2.122 2.122 0 00-1.596-.682c-.63 0-1.162.227-1.597.682-.435.454-.652 1.083-.652 1.889s.217 1.438.652 1.897a2.09 2.09 0 001.597.681zm10.561-2.805c0-.683-.19-1.24-.571-1.67-.38-.429-.879-.644-1.494-.644s-1.114.21-1.494.63c-.381.419-.574.981-.579 1.684.005.703.193 1.265.564 1.685.371.415.87.622 1.494.622.625 0 1.128-.212 1.509-.637.38-.425.571-.981.571-1.67zm-2.263 5.684c1.47 0 2.205-.782 2.205-2.344v-1.033c-.181.352-.464.637-.85.857-.386.22-.837.33-1.355.33-.962 0-1.755-.327-2.38-.982-.625-.654-.938-1.484-.938-2.49 0-1.006.31-1.846.93-2.519.62-.679 1.448-1.019 2.483-1.019 1.035 0 1.743.381 2.124 1.143v-1.003h1.392v6.672c0 .991-.259 1.821-.776 2.49-.264.352-.64.628-1.128.828-.489.2-1.058.3-1.707.3-.884 0-1.638-.254-2.263-.762-.625-.507-.982-1.149-1.07-1.926l1.37-.315c.044.508.247.93.608 1.267.361.337.813.506 1.355.506zm7.273-1.846h-1.406v-10.862h1.406V192.5zm5.45.227c-1.016-.005-1.876-.354-2.579-1.047-.703-.694-1.055-1.612-1.055-2.754 0-1.143.34-2.071 1.018-2.783.68-.718 1.49-1.08 2.432-1.084 1.089 0 1.939.341 2.549 1.025.61.684.915 1.602.915 2.754 0 .181-.01.332-.029.454h-5.427c.01.64.222 1.165.637 1.575.415.41.928.615 1.538.615 1.026 0 1.7-.486 2.022-1.458l1.216.418a3.23 3.23 0 01-1.172 1.648c-.572.43-1.26.642-2.066.637zm1.274-5.911c-.342-.341-.808-.512-1.4-.512-.59 0-1.066.183-1.428.549a1.925 1.925 0 00-.578 1.296h3.94c-.014-.546-.193-.991-.534-1.333z" fill="#000"/><path stroke="#D6C9C9" d="M.5 163.5h115v48H.5z"/><circle cx="196.5" cy="187.5" r="7.5" fill="#ED6A5A"/><path d="M192.627 191.405l7.726-7.83M200.389 191.389l-7.778-7.778" stroke="#fff" stroke-width="2"/><path d="M115 163v-1h-1v1h1zm163 0h1v-1h-1v1zm0 49v1h1v-1h-1zm-163 0h-1v1h1v-1zm0-48h163v-2H115v2zm162-1v49h2v-49h-2zm1 48H115v2h163v-2zm-162 1v-49h-2v49h2z" fill="#D6C9C9"/><circle cx="358.5" cy="187.5" r="7.5" fill="#ED6A5A"/><path d="M354.627 191.405l7.726-7.83M362.389 191.389l-7.778-7.778" stroke="#fff" stroke-width="2"/><path d="M277 163v-1h-1v1h1zm163 0h1v-1h-1v1zm0 49v1h1v-1h-1zm-163 0h-1v1h1v-1zm0-48h163v-2H277v2zm162-1v49h2v-49h-2zm1 48H277v2h163v-2zm-162 1v-49h-2v49h2z" fill="#D6C9C9"/><circle cx="520.5" cy="187.5" r="7.5" fill="#ED6A5A"/><path d="M516.627 191.405l7.726-7.83M524.389 191.389l-7.778-7.778" stroke="#fff" stroke-width="2"/><path d="M439 163v-1h-1v1h1zm163 0h1v-1h-1v1zm0 49v1h1v-1h-1zm-163 0h-1v1h1v-1zm0-48h163v-2H439v2zm162-1v49h2v-49h-2zm1 48H439v2h163v-2zm-162 1v-49h-2v49h2z" fill="#D6C9C9"/><path d="M28.051 144.5H26.58v-10.635h6.467v1.363h-4.995v3.42h4.534v1.384h-4.534v4.468zm8.277-.959c.63 0 1.135-.171 1.516-.513.38-.342.569-.882.564-1.619v-.329l-2.205.329c-.322.049-.576.164-.762.344-.185.181-.28.418-.285.711 0 .293.107.547.322.762.215.21.498.315.85.315zm-.293 1.186c-.65 0-1.2-.212-1.648-.637a2.049 2.049 0 01-.674-1.546c0-.605.2-1.096.6-1.472.4-.376.93-.608 1.59-.696l1.955-.285c.372-.049.557-.247.557-.593 0-.347-.132-.64-.395-.879-.264-.24-.645-.359-1.143-.359s-.886.132-1.165.395c-.278.264-.444.618-.498 1.062l-1.347-.315c.068-.683.383-1.245.945-1.684.561-.44 1.23-.659 2.006-.659 1.026 0 1.783.249 2.27.747.49.498.733 1.13.733 1.897v3.61c0 .43.03.826.088 1.187h-1.377a6.043 6.043 0 01-.073-.974c-.2.322-.493.603-.879.842s-.9.359-1.545.359zm10.32-5.911c-.308-.302-.755-.454-1.34-.454-.587 0-1.092.22-1.517.659-.425.44-.637 1.058-.637 1.854 0 .795.212 1.418.637 1.867.425.449.942.674 1.553.674.615 0 1.079-.146 1.391-.439.313-.303.523-.65.63-1.04l1.245.542c-.2.6-.578 1.125-1.135 1.574-.556.449-1.262.674-2.117.674-1.05 0-1.921-.366-2.614-1.099-.689-.732-1.033-1.652-1.033-2.761 0-1.108.344-2.019 1.033-2.732.688-.718 1.513-1.076 2.475-1.076.962 0 1.717.224 2.264.673.546.45.903.992 1.069 1.626l-1.275.535a2.347 2.347 0 00-.63-1.077zm6.591 5.911c-1.015-.005-1.875-.354-2.578-1.047-.703-.694-1.055-1.612-1.055-2.754 0-1.143.34-2.071 1.018-2.783.68-.718 1.49-1.08 2.432-1.084 1.09 0 1.939.341 2.549 1.025.61.684.916 1.602.916 2.754 0 .181-.01.332-.03.454h-5.427c.01.64.222 1.165.637 1.575.415.41.928.615 1.538.615 1.026 0 1.7-.486 2.022-1.458l1.216.418a3.23 3.23 0 01-1.172 1.648c-.572.43-1.26.642-2.066.637zm1.275-5.911c-.342-.341-.808-.512-1.4-.512-.59 0-1.066.183-1.427.549a1.925 1.925 0 00-.58 1.296h3.941c-.014-.546-.193-.991-.534-1.333zm8.877 3.912c.39-.469.586-1.094.586-1.875 0-.782-.193-1.399-.579-1.853-.386-.455-.898-.682-1.538-.682s-1.16.23-1.56.689c-.4.459-.6 1.074-.6 1.846 0 .771.2 1.394.6 1.867.4.474.918.711 1.553.711.634 0 1.147-.235 1.538-.703zM59.42 144.5h-1.392v-10.862h1.392v4.666c.19-.352.493-.645.908-.879.415-.235.908-.352 1.48-.352 1.05 0 1.865.357 2.446 1.07.58.712.871 1.618.871 2.717 0 1.108-.3 2.024-.9 2.746-.601.723-1.431 1.084-2.49 1.084-1.06 0-1.832-.412-2.315-1.237v1.047zm10.59-7.441c1.07 0 1.951.361 2.645 1.084.698.722 1.047 1.638 1.047 2.746 0 1.109-.347 2.024-1.04 2.747-.693.722-1.577 1.084-2.651 1.084-1.075 0-1.958-.362-2.652-1.084-.693-.723-1.04-1.636-1.04-2.74 0-1.103.347-2.021 1.04-2.753.694-.723 1.578-1.084 2.652-1.084zm0 6.408c.63 0 1.163-.227 1.597-.681.435-.449.652-1.079.652-1.89 0-.81-.217-1.442-.652-1.896a2.122 2.122 0 00-1.596-.682c-.63 0-1.162.227-1.597.682-.434.454-.652 1.083-.652 1.889s.218 1.438.652 1.897a2.09 2.09 0 001.597.681zm8.585-6.408c1.069 0 1.95.361 2.644 1.084.698.722 1.047 1.638 1.047 2.746 0 1.109-.347 2.024-1.04 2.747-.693.722-1.577 1.084-2.651 1.084-1.075 0-1.958-.362-2.652-1.084-.693-.723-1.04-1.636-1.04-2.74 0-1.103.347-2.021 1.04-2.753.694-.723 1.578-1.084 2.652-1.084zm0 6.408c.63 0 1.162-.227 1.596-.681.435-.449.652-1.079.652-1.89 0-.81-.217-1.442-.652-1.896a2.122 2.122 0 00-1.596-.682c-.63 0-1.162.227-1.597.682-.434.454-.652 1.083-.652 1.889s.218 1.438.652 1.897a2.09 2.09 0 001.597.681zm6.885 1.033h-1.392v-10.862h1.392v6.841l3.12-3.193h1.955l-3.076 3.047 3.135 4.167h-1.773l-2.35-3.179-1.011 1.004v2.175z" fill="#000"/><path stroke="#D6C9C9" d="M.5 115.5h115v48H.5z"/><circle cx="196.5" cy="139.5" r="7.5" fill="#ED6A5A"/><path d="M192.627 143.405l7.726-7.83M200.389 143.389l-7.778-7.778" stroke="#fff" stroke-width="2"/><path d="M115 115v-1h-1v1h1zm163 0h1v-1h-1v1zm0 49v1h1v-1h-1zm-163 0h-1v1h1v-1zm0-48h163v-2H115v2zm162-1v49h2v-49h-2zm1 48H115v2h163v-2zm-162 1v-49h-2v49h2z" fill="#D6C9C9"/><mask id="prefix__a" fill="#fff"><path d="M363.803 134.197A7.487 7.487 0 01366 139.5a7.498 7.498 0 01-7.5 7.5 7.498 7.498 0 01-5.303-2.197l5.303-5.303 5.303-5.303z"/></mask><path d="M363.803 134.197A7.487 7.487 0 01366 139.5a7.498 7.498 0 01-7.5 7.5 7.498 7.498 0 01-5.303-2.197l5.303-5.303 5.303-5.303z" fill="#ECA400" stroke="#ECA400" stroke-width="4" mask="url(#prefix__a)"/><path fill-rule="evenodd" clip-rule="evenodd" d="M353.414 141.527c.274.66.675 1.26 1.18 1.766l-1.414 1.414a7.443 7.443 0 0110.527-10.527l-.353.354-.354.353-.354.354-.353.353a5.455 5.455 0 00-5.932-1.18 5.462 5.462 0 00-1.767 1.18 5.468 5.468 0 00-1.18 1.766 5.46 5.46 0 000 4.167z" fill="#ECA400"/><path d="M277 115v-1h-1v1h1zm163 0h1v-1h-1v1zm0 49v1h1v-1h-1zm-163 0h-1v1h1v-1zm0-48h163v-2H277v2zm162-1v49h2v-49h-2zm1 48H277v2h163v-2zm-162 1v-49h-2v49h2z" fill="#D6C9C9"/><mask id="prefix__b" fill="#fff"><path d="M525.803 134.197A7.487 7.487 0 01528 139.5a7.498 7.498 0 01-7.5 7.5 7.498 7.498 0 01-5.303-2.197l5.303-5.303 5.303-5.303z"/></mask><path d="M525.803 134.197A7.487 7.487 0 01528 139.5a7.498 7.498 0 01-7.5 7.5 7.498 7.498 0 01-5.303-2.197l5.303-5.303 5.303-5.303z" fill="#ECA400" stroke="#ECA400" stroke-width="4" mask="url(#prefix__b)"/><path fill-rule="evenodd" clip-rule="evenodd" d="M515.414 141.527c.274.66.675 1.26 1.18 1.766l-1.414 1.414a7.443 7.443 0 0110.527-10.527l-.353.354-.354.353-.354.354-.353.353a5.455 5.455 0 00-5.932-1.18 5.462 5.462 0 00-1.767 1.18 5.468 5.468 0 00-1.18 1.766 5.46 5.46 0 000 4.167z" fill="#ECA400"/><path d="M439 115v-1h-1v1h1zm163 0h1v-1h-1v1zm0 49v1h1v-1h-1zm-163 0h-1v1h1v-1zm0-48h163v-2H439v2zm162-1v49h2v-49h-2zm1 48H439v2h163v-2zm-162 1v-49h-2v49h2z" fill="#D6C9C9"/><path d="M41.938 95.21h2.043c.606 0 1.09-.155 1.45-.468.362-.312.543-.727.543-1.245 0-.527-.166-.947-.498-1.26-.332-.312-.811-.466-1.436-.461h-2.102v3.435zm0-4.694h1.831c.581 0 1.043-.159 1.384-.476.342-.317.51-.728.506-1.23 0-.503-.176-.904-.528-1.202-.351-.297-.825-.449-1.42-.454h-1.773v3.362zm-1.472-4.65h3.464c.991 0 1.775.265 2.351.798.576.532.864 1.225.864 2.08 0 .551-.146 1.028-.439 1.428-.293.4-.676.69-1.15.871.591.152 1.057.464 1.4.938.34.474.514 1.016.52 1.626 0 .835-.306 1.526-.916 2.073-.61.547-1.402.82-2.373.82h-3.721V85.865zm10.89 9.674c.63 0 1.136-.17 1.517-.512.38-.342.569-.882.564-1.619v-.33l-2.205.33c-.322.049-.576.164-.761.344-.186.181-.281.418-.286.71 0 .294.107.548.322.763.215.21.498.314.85.314zm-.292 1.187c-.65 0-1.199-.212-1.648-.637a2.048 2.048 0 01-.674-1.546c0-.605.2-1.096.6-1.472.401-.376.93-.608 1.59-.696l1.956-.285c.37-.049.556-.247.556-.593 0-.347-.132-.64-.395-.88-.264-.239-.645-.358-1.143-.358s-.886.132-1.164.395c-.279.264-.445.618-.498 1.062l-1.348-.315c.068-.683.383-1.245.945-1.684.561-.44 1.23-.66 2.007-.66 1.025 0 1.782.25 2.27.748s.733 1.13.733 1.897v3.61c0 .43.029.826.087 1.187h-1.377a6.04 6.04 0 01-.073-.974c-.2.322-.493.603-.879.842-.385.24-.9.36-1.545.36zm5.962-9.463a.968.968 0 01-.293-.71c0-.279.098-.518.293-.718.195-.2.432-.3.71-.3.279 0 .518.097.718.293.2.195.3.434.3.717 0 .284-.1.523-.3.718a.992.992 0 01-.718.293.967.967 0 01-.71-.293zm1.413 9.236h-1.391v-7.214h1.392V96.5zm7.456-.974V95.4c-.19.371-.478.68-.864.923-.386.244-.842.369-1.37.374-1.03-.005-1.857-.369-2.482-1.092-.625-.722-.938-1.62-.938-2.695 0-1.074.32-1.982.96-2.725.64-.732 1.46-1.098 2.46-1.098.591 0 1.072.117 1.444.352.37.234.624.522.761.864v-4.666h1.392v9.529c0 .488.027.933.08 1.333h-1.37a5.703 5.703 0 01-.073-.974zm-.57-4.504c-.372-.46-.877-.689-1.517-.689-.64 0-1.155.234-1.545.703-.39.469-.584 1.082-.579 1.838.005.757.193 1.375.564 1.854.371.478.879.717 1.524.717.644 0 1.157-.244 1.538-.732.38-.488.57-1.11.57-1.868 0-.757-.185-1.364-.556-1.823zm6.884 5.705c-.82 0-1.475-.273-1.963-.82-.488-.547-.732-1.24-.732-2.08v-4.541h1.406v4.336c0 .542.132.988.395 1.34.264.352.677.525 1.238.52.562 0 .987-.168 1.275-.505.288-.337.434-.784.44-1.34v-4.351h1.405v5.881c0 .469.027.913.08 1.333H74.4a5.19 5.19 0 01-.059-.872 1.85 1.85 0 01-.871.82c-.39.186-.81.28-1.26.28z" fill="#000"/><path stroke="#D6C9C9" d="M.5 67.5h115v48H.5z"/><circle cx="196.5" cy="91.5" r="7.5" fill="#ED6A5A"/><path d="M192.627 95.405l7.726-7.83M200.389 95.39l-7.778-7.779" stroke="#fff" stroke-width="2"/><path d="M115 67v-1h-1v1h1zm163 0h1v-1h-1v1zm0 49v1h1v-1h-1zm-163 0h-1v1h1v-1zm0-48h163v-2H115v2zm162-1v49h2V67h-2zm1 48H115v2h163v-2zm-162 1V67h-2v49h2z" fill="#D6C9C9"/><circle cx="358.5" cy="91.5" r="7.5" fill="#ED6A5A"/><path d="M354.627 95.405l7.726-7.83M362.389 95.39l-7.778-7.779" stroke="#fff" stroke-width="2"/><path d="M277 67v-1h-1v1h1zm163 0h1v-1h-1v1zm0 49v1h1v-1h-1zm-163 0h-1v1h1v-1zm0-48h163v-2H277v2zm162-1v49h2V67h-2zm1 48H277v2h163v-2zm-162 1V67h-2v49h2z" fill="#D6C9C9"/><circle cx="520.5" cy="91.5" r="7.5" fill="#ED6A5A"/><path d="M516.627 95.405l7.726-7.83M524.389 95.39l-7.778-7.779" stroke="#fff" stroke-width="2"/><path d="M439 67v-1h-1v1h1zm163 0h1v-1h-1v1zm0 49v1h1v-1h-1zm-163 0h-1v1h1v-1zm0-48h163v-2H439v2zm162-1v49h2V67h-2zm1 48H439v2h163v-2zm-162 1V67h-2v49h2z" fill="#D6C9C9"/><path d="M122.665 29.5h-1.473V18.865h6.468v1.363h-4.995v3.42h4.533v1.384h-4.533V29.5zm9.653-5.837c-1.318 0-1.98.74-1.985 2.219V29.5h-1.406v-7.214h1.377v1.26c.439-.919 1.159-1.377 2.16-1.377.161 0 .318.014.469.043v1.494a4.448 4.448 0 00-.615-.043zm5.09 6.064c-1.015-.005-1.875-.354-2.578-1.047-.703-.694-1.055-1.612-1.055-2.754 0-1.143.34-2.07 1.018-2.783.679-.718 1.49-1.08 2.432-1.084 1.089 0 1.939.341 2.549 1.025.61.684.915 1.602.915 2.754 0 .18-.009.332-.029.454h-5.427c.01.64.222 1.164.637 1.575.415.41.928.615 1.538.615 1.026 0 1.699-.486 2.022-1.458l1.216.418a3.23 3.23 0 01-1.172 1.648c-.572.43-1.26.642-2.066.637zm1.275-5.91c-.342-.342-.808-.513-1.399-.513s-1.067.183-1.429.549a1.926 1.926 0 00-.578 1.296h3.94c-.014-.547-.193-.99-.534-1.333zm6.855 5.91c-1.016-.005-1.875-.354-2.578-1.047-.703-.694-1.055-1.612-1.055-2.754 0-1.143.34-2.07 1.018-2.783.679-.718 1.49-1.08 2.432-1.084 1.089 0 1.938.341 2.549 1.025.61.684.915 1.602.915 2.754 0 .18-.009.332-.029.454h-5.427c.01.64.222 1.164.637 1.575.415.41.928.615 1.538.615 1.025 0 1.699-.486 2.022-1.458l1.215.418c-.21.669-.6 1.218-1.171 1.648-.572.43-1.26.642-2.066.637zm1.274-5.91c-.341-.342-.808-.513-1.398-.513-.591 0-1.067.183-1.429.549a1.926 1.926 0 00-.578 1.296h3.94c-.014-.547-.193-.99-.535-1.333zm8.863 4.709V28.4a2.374 2.374 0 01-.864.923c-.386.244-.843.369-1.37.374-1.03-.005-1.858-.369-2.483-1.092-.625-.722-.937-1.62-.937-2.695 0-1.074.319-1.982.959-2.725.64-.732 1.46-1.098 2.461-1.098.591 0 1.072.117 1.443.351.371.235.625.523.762.865v-4.666h1.391v9.529c0 .488.027.933.081 1.333h-1.37a5.684 5.684 0 01-.073-.974zm-.571-4.505c-.372-.459-.877-.688-1.517-.688-.639 0-1.154.234-1.545.703s-.584 1.082-.579 1.838c.005.757.193 1.375.564 1.854.371.478.879.717 1.524.717.644 0 1.157-.244 1.538-.732s.571-1.11.571-1.868c0-.757-.185-1.364-.556-1.823zm7.426-1.962c1.07 0 1.951.36 2.644 1.084.699.722 1.048 1.638 1.048 2.746 0 1.109-.347 2.024-1.04 2.747-.694.722-1.578 1.084-2.652 1.084s-1.958-.362-2.651-1.084c-.693-.723-1.04-1.636-1.04-2.74 0-1.103.347-2.021 1.04-2.753.693-.723 1.577-1.084 2.651-1.084zm0 6.408c.63 0 1.162-.227 1.597-.68.435-.45.652-1.08.652-1.89 0-.811-.217-1.443-.652-1.897a2.126 2.126 0 00-1.597-.682c-.63 0-1.162.227-1.596.681-.435.455-.652 1.085-.652 1.89 0 .806.217 1.438.652 1.897.434.46.966.686 1.596.681zm6.885 1.033h-1.392v-7.214h1.348v.96c.22-.382.53-.672.93-.872.401-.2.828-.3 1.282-.3.454 0 .876.114 1.267.343.391.23.681.572.872 1.026.498-.908 1.303-1.365 2.417-1.37a2.43 2.43 0 011.757.703c.484.47.728 1.15.733 2.044v4.68h-1.399v-4.526c0-.498-.127-.899-.381-1.201-.259-.303-.637-.455-1.135-.455s-.901.174-1.209.52c-.307.347-.463.78-.468 1.297V29.5h-1.407v-4.526c-.005-.498-.134-.899-.388-1.201-.254-.303-.632-.455-1.135-.455s-.911.171-1.223.513c-.313.342-.469.781-.469 1.318V29.5zm18.311-7.441c1.069 0 1.95.36 2.644 1.084.698.722 1.047 1.638 1.047 2.746 0 1.109-.347 2.024-1.04 2.747-.693.722-1.577 1.084-2.651 1.084-1.075 0-1.958-.362-2.652-1.084-.693-.723-1.04-1.636-1.04-2.74 0-1.103.347-2.021 1.04-2.753.694-.723 1.577-1.084 2.652-1.084zm0 6.408c.629 0 1.162-.227 1.596-.68.435-.45.652-1.08.652-1.89 0-.811-.217-1.443-.652-1.897a2.124 2.124 0 00-1.596-.682c-.63 0-1.163.227-1.597.681-.435.455-.652 1.085-.652 1.89 0 .806.217 1.438.652 1.897a2.09 2.09 0 001.597.681zm9.118-4.907h-1.736v5.94h-1.457v-5.94h-1.333v-1.274h1.333V21.07c0-.772.224-1.377.674-1.817.449-.439 1.015-.659 1.699-.659.43 0 .71.051.842.154v1.26c-.151-.059-.368-.088-.652-.088-.288 0-.544.09-.769.27-.224.186-.337.504-.337.953v1.143h1.736v1.274zm8.313 6.167c-1.015-.005-1.875-.354-2.578-1.047-.703-.694-1.055-1.612-1.055-2.754 0-1.143.34-2.07 1.018-2.783.679-.718 1.49-1.08 2.432-1.084 1.089 0 1.939.341 2.549 1.025.61.684.915 1.602.915 2.754 0 .18-.009.332-.029.454h-5.427c.01.64.222 1.164.637 1.575.415.41.928.615 1.538.615 1.026 0 1.699-.486 2.022-1.458l1.216.418a3.23 3.23 0 01-1.172 1.648c-.572.43-1.26.642-2.066.637zm1.275-5.91c-.342-.342-.808-.513-1.399-.513s-1.067.183-1.429.549a1.926 1.926 0 00-.578 1.296h3.94c-.014-.547-.193-.99-.534-1.333zm2.68 5.683l2.688-3.677-2.592-3.537h1.706l1.773 2.534 1.735-2.534h1.67l-2.563 3.537c.151.19.598.801 1.34 1.831a90.855 90.855 0 011.311 1.846h-1.692l-1.86-2.651-1.831 2.651h-1.685zm13.492-1.773c.39-.478.585-1.088.585-1.83 0-.743-.192-1.348-.578-1.817-.386-.469-.901-.708-1.546-.718-.644 0-1.164.24-1.56.718-.395.479-.593 1.084-.593 1.817 0 .742.198 1.35.593 1.823.396.474.913.71 1.553.71.64 0 1.155-.234 1.546-.703zm-3.677 4.622h-1.392V22.286h1.362v1.128c.21-.381.525-.691.945-.93.42-.24.911-.362 1.472-.367 1.04 0 1.853.357 2.439 1.07.586.712.879 1.613.879 2.702s-.302 1.995-.908 2.718c-.605.722-1.423 1.086-2.453 1.09-.533 0-1.004-.11-1.414-.329-.41-.22-.72-.5-.93-.842v3.823zm10.891-8.686c-1.318 0-1.98.74-1.985 2.219V29.5h-1.406v-7.214h1.377v1.26c.439-.919 1.159-1.377 2.16-1.377.161 0 .318.014.469.043v1.494a4.464 4.464 0 00-.615-.043zm5.09 6.064c-1.015-.005-1.875-.354-2.578-1.047-.703-.694-1.055-1.612-1.055-2.754 0-1.143.34-2.07 1.018-2.783.679-.718 1.49-1.08 2.432-1.084 1.089 0 1.939.341 2.549 1.025.61.684.915 1.602.915 2.754 0 .18-.009.332-.029.454h-5.427c.01.64.222 1.164.637 1.575.415.41.928.615 1.538.615 1.026 0 1.699-.486 2.022-1.458l1.216.418a3.23 3.23 0 01-1.172 1.648c-.572.43-1.26.642-2.066.637zm1.275-5.91c-.342-.342-.808-.513-1.399-.513s-1.067.183-1.429.549a1.926 1.926 0 00-.578 1.296h3.94c-.014-.547-.193-.99-.534-1.333zm4.914 4.328c.288.254.652.38 1.091.38.44 0 .767-.092.982-.277a.86.86 0 00.33-.682c0-.478-.311-.788-.931-.93l-1.23-.27c-.557-.118-.996-.357-1.318-.718-.323-.362-.484-.826-.484-1.392 0-.567.254-1.074.762-1.524a2.64 2.64 0 011.809-.673c1.191 0 2.031.451 2.519 1.355.098.19.171.383.22.578l-1.245.469a1.434 1.434 0 00-.278-.667c-.279-.356-.684-.534-1.216-.534-.352 0-.64.095-.864.285-.225.19-.337.415-.337.674 0 .46.273.75.82.872l1.172.256c.64.142 1.133.398 1.479.77.347.37.52.837.52 1.398 0 .557-.234 1.065-.703 1.524-.468.459-1.13.688-1.985.688-.859 0-1.54-.222-2.043-.666-.498-.45-.781-.928-.85-1.436l1.275-.447c.049.39.217.713.505.967zm6.782 0c.288.254.652.38 1.092.38.439 0 .766-.092.981-.277a.86.86 0 00.33-.682c0-.478-.31-.788-.93-.93l-1.231-.27c-.557-.118-.996-.357-1.318-.718-.323-.362-.484-.826-.484-1.392 0-.567.254-1.074.762-1.524a2.64 2.64 0 011.809-.673c1.192 0 2.031.451 2.52 1.355.097.19.171.383.219.578l-1.245.469a1.434 1.434 0 00-.278-.667c-.278-.356-.684-.534-1.216-.534-.351 0-.64.095-.864.285-.225.19-.337.415-.337.674 0 .46.273.75.82.872l1.172.256c.64.142 1.133.398 1.48.77.346.37.52.837.52 1.398 0 .557-.235 1.065-.703 1.524-.469.459-1.131.688-1.985.688-.86 0-1.541-.222-2.044-.666-.498-.45-.781-.928-.849-1.436l1.274-.447c.049.39.217.713.505.967zm5.655-7.88a.965.965 0 01-.293-.711.99.99 0 01.293-.718c.195-.2.432-.3.71-.3.278 0 .518.097.718.293.2.195.3.434.3.717 0 .284-.1.523-.3.718a.993.993 0 01-.718.293.966.966 0 01-.71-.293zm1.413 9.235h-1.391v-7.214h1.391V29.5zm5.493-7.441c1.07 0 1.951.36 2.644 1.084.699.722 1.048 1.638 1.048 2.746 0 1.109-.347 2.024-1.04 2.747-.694.722-1.577 1.084-2.652 1.084-1.074 0-1.958-.362-2.651-1.084-.693-.723-1.04-1.636-1.04-2.74 0-1.103.347-2.021 1.04-2.753.693-.723 1.577-1.084 2.651-1.084zm0 6.408c.63 0 1.163-.227 1.597-.68.435-.45.652-1.08.652-1.89 0-.811-.217-1.443-.652-1.897a2.124 2.124 0 00-1.597-.682c-.629 0-1.162.227-1.596.681-.435.455-.652 1.085-.652 1.89 0 .806.217 1.438.652 1.897.434.46.967.686 1.596.681zm6.9-3.134V29.5h-1.406v-7.214h1.377v1.032c.478-.83 1.218-1.245 2.219-1.245.83 0 1.467.266 1.911.799.445.532.669 1.215.674 2.05V29.5h-1.413v-4.336c0-1.21-.559-1.816-1.678-1.816-.537 0-.952.188-1.245.564-.293.376-.439.85-.439 1.42zM146.446 46.54c.63 0 1.136-.171 1.516-.513.381-.342.569-.881.564-1.619v-.33l-2.204.33c-.322.049-.576.164-.762.344-.185.181-.281.418-.286.71 0 .294.108.548.323.763.215.21.498.315.849.315zm-.293 1.186c-.649 0-1.198-.212-1.648-.637a2.048 2.048 0 01-.673-1.546c0-.605.2-1.096.6-1.472.401-.376.93-.608 1.589-.696l1.956-.285c.371-.049.557-.247.557-.593 0-.347-.132-.64-.396-.88-.263-.239-.644-.358-1.142-.358-.498 0-.887.132-1.165.395-.278.264-.444.618-.498 1.062l-1.348-.315c.069-.683.384-1.245.945-1.684.562-.44 1.231-.66 2.007-.66 1.025 0 1.782.25 2.271.748.488.498.732 1.13.732 1.897v3.61c0 .43.029.826.088 1.187h-1.377a6.016 6.016 0 01-.073-.974c-.201.322-.494.603-.879.842-.386.24-.901.36-1.546.36zm7.39-4.394V47.5h-1.406v-7.214h1.377v1.032c.479-.83 1.218-1.245 2.219-1.245.83 0 1.468.266 1.912.799.444.532.669 1.215.674 2.05V47.5h-1.414v-4.336c0-1.21-.559-1.816-1.677-1.816-.537 0-.952.188-1.245.564-.293.376-.44.85-.44 1.42zm12.071 3.193V46.4a2.374 2.374 0 01-.864.923c-.386.244-.843.369-1.37.374-1.03-.005-1.858-.369-2.483-1.092-.625-.722-.938-1.62-.938-2.695 0-1.074.32-1.982.96-2.724.64-.733 1.46-1.1 2.461-1.1.591 0 1.072.118 1.443.352.371.235.625.523.761.865v-4.666h1.392v9.529c0 .488.027.933.081 1.333h-1.37a5.684 5.684 0 01-.073-.974zm-.572-4.505c-.371-.459-.876-.688-1.516-.688-.639 0-1.154.234-1.545.703s-.584 1.082-.579 1.838c.005.757.193 1.375.564 1.853.371.48.879.718 1.524.718.644 0 1.157-.244 1.538-.732s.571-1.11.571-1.868c0-.757-.185-1.364-.557-1.823zm8.064-3.757a.969.969 0 01-.293-.71c0-.279.098-.518.293-.718.196-.2.433-.3.711-.3.278 0 .517.097.718.293.2.195.3.434.3.717 0 .284-.1.523-.3.718a.994.994 0 01-.718.293.97.97 0 01-.711-.293zm1.414 9.236h-1.392v-7.214h1.392V47.5zm3.809-4.167V47.5h-1.407v-7.214h1.377v1.032c.479-.83 1.219-1.245 2.22-1.245.83 0 1.467.266 1.911.799.445.532.669 1.215.674 2.05V47.5h-1.414v-4.336c0-1.21-.559-1.816-1.677-1.816-.537 0-.952.188-1.245.564-.293.376-.439.85-.439 1.42zm10.642-1.773h-1.736v5.94h-1.458v-5.94h-1.333v-1.274h1.333V39.07c0-.772.225-1.377.674-1.817.449-.439 1.016-.659 1.699-.659.43 0 .711.051.843.154v1.26c-.152-.059-.369-.088-.652-.088-.288 0-.545.09-.769.27-.225.187-.337.504-.337.953v1.143h1.736v1.274zm4.299-1.501c1.069 0 1.951.36 2.644 1.084.698.722 1.047 1.638 1.047 2.746 0 1.109-.346 2.024-1.04 2.747-.693.722-1.577 1.084-2.651 1.084-1.074 0-1.958-.362-2.651-1.084-.694-.723-1.04-1.636-1.04-2.74 0-1.103.346-2.021 1.04-2.753.693-.723 1.577-1.084 2.651-1.084zm0 6.408c.63 0 1.162-.227 1.597-.68.434-.45.652-1.08.652-1.89 0-.811-.218-1.443-.652-1.898a2.126 2.126 0 00-1.597-.68c-.63 0-1.162.226-1.597.68-.434.455-.652 1.084-.652 1.89 0 .806.218 1.438.652 1.897.435.46.967.686 1.597.681zm8.884-4.804c-1.318 0-1.98.74-1.985 2.219V47.5h-1.406v-7.214h1.377v1.26c.44-.919 1.16-1.377 2.161-1.377.161 0 .317.014.469.043v1.494a4.478 4.478 0 00-.616-.043zm3.509 5.837h-1.392v-7.214h1.348v.96c.219-.382.529-.672.93-.873.4-.2.827-.3 1.282-.3.454 0 .876.115 1.267.344.39.23.681.572.871 1.026.498-.908 1.304-1.365 2.417-1.37a2.43 2.43 0 011.758.703c.483.47.728 1.15.732 2.044v4.68h-1.398v-4.526c0-.498-.127-.899-.381-1.201-.259-.303-.638-.455-1.136-.455-.498 0-.9.174-1.208.52-.308.347-.464.78-.469 1.297V47.5h-1.406v-4.526c-.005-.498-.134-.899-.388-1.201-.254-.303-.633-.455-1.136-.455-.502 0-.91.171-1.223.513-.312.342-.468.781-.468 1.318V47.5zm13.63-.96c.63 0 1.135-.17 1.516-.512.381-.342.569-.881.564-1.619v-.33l-2.205.33c-.322.049-.576.164-.761.344-.186.181-.281.418-.286.71 0 .294.108.548.322.763.215.21.498.315.85.315zM219 47.727c-.649 0-1.199-.212-1.648-.637a2.05 2.05 0 01-.674-1.546c0-.605.2-1.096.601-1.472.4-.376.93-.608 1.589-.696l1.956-.285c.371-.049.556-.247.556-.593 0-.347-.131-.64-.395-.88-.264-.239-.645-.358-1.143-.358s-.886.132-1.164.395c-.279.264-.445.618-.498 1.062l-1.348-.315c.068-.683.383-1.245.945-1.684.561-.44 1.23-.66 2.007-.66 1.025 0 1.782.25 2.27.748s.733 1.13.733 1.897v3.61c0 .43.029.826.088 1.187h-1.377a6.012 6.012 0 01-.074-.974c-.2.322-.493.603-.879.842-.385.24-.9.36-1.545.36zm7.874-2.417c0 .66.297.989.893.989.283 0 .505-.02.667-.059v1.201c-.24.088-.559.132-.96.132-.62 0-1.111-.18-1.472-.542-.361-.361-.542-.864-.542-1.508V41.56h-1.377v-1.274h.388c.371 0 .65-.103.835-.308.186-.205.278-.474.278-.806v-1.164h1.29v2.278h1.56v1.274h-1.56v3.75zm3.42-7.046a.969.969 0 01-.293-.71c0-.279.098-.518.293-.718.195-.2.432-.3.71-.3a.99.99 0 01.718.293c.2.195.3.434.3.717 0 .284-.1.523-.3.718a.99.99 0 01-.718.293.966.966 0 01-.71-.293zm1.414 9.236h-1.392v-7.214h1.392V47.5zm5.493-7.441c1.069 0 1.95.36 2.644 1.084.698.722 1.047 1.638 1.047 2.746 0 1.109-.347 2.024-1.04 2.747-.693.722-1.577 1.084-2.651 1.084-1.075 0-1.958-.362-2.652-1.084-.693-.723-1.04-1.636-1.04-2.74 0-1.103.347-2.021 1.04-2.753.694-.723 1.577-1.084 2.652-1.084zm0 6.408c.63 0 1.162-.227 1.596-.68.435-.45.652-1.08.652-1.89 0-.811-.217-1.443-.652-1.898a2.122 2.122 0 00-1.596-.68c-.63 0-1.162.226-1.597.68-.435.455-.652 1.084-.652 1.89 0 .806.217 1.438.652 1.897.435.46.967.686 1.597.681zm6.899-3.134V47.5h-1.406v-7.214h1.377v1.032c.478-.83 1.218-1.245 2.219-1.245.83 0 1.467.266 1.912.799.444.532.669 1.215.673 2.05V47.5h-1.413v-4.336c0-1.21-.559-1.816-1.677-1.816-.537 0-.952.188-1.245.564-.293.376-.44.85-.44 1.42z" fill="#000"/><path stroke="#D6C9C9" d="M115 0h163v67H115z"/><path d="M339.693 34.15h-2.402v4.35h-1.472V27.865h3.874c.972 0 1.761.3 2.366.901.606.6.911 1.353.916 2.256-.005.903-.31 1.65-.916 2.241-.605.591-1.394.886-2.366.886zm-2.402-1.319h2.131c.63 0 1.131-.164 1.502-.49.366-.328.549-.77.549-1.326 0-.557-.185-1.001-.556-1.333-.372-.332-.87-.498-1.495-.498h-2.131v3.647zm10.488-.168c-1.318 0-1.98.74-1.985 2.219V38.5h-1.406v-7.214h1.377v1.26c.44-.919 1.16-1.377 2.161-1.377.161 0 .317.014.469.043v1.494a4.478 4.478 0 00-.616-.043zm2.095-3.399a.969.969 0 01-.293-.71c0-.279.098-.518.293-.718.195-.2.432-.3.71-.3.279 0 .518.097.718.293.2.195.301.434.301.717a.965.965 0 01-.301.718.99.99 0 01-.718.293.966.966 0 01-.71-.293zm1.414 9.236h-1.392v-7.214h1.392V38.5zm8.584-7.214l-2.886 7.214h-1.421l-2.93-7.214h1.597l2.051 5.566 2.072-5.566h1.517zm3.435 6.255c.63 0 1.135-.171 1.516-.513.381-.342.569-.881.564-1.619v-.33l-2.205.33c-.322.049-.576.164-.762.344-.185.181-.28.418-.285.71 0 .294.107.548.322.763.215.21.498.315.85.315zm-.293 1.186c-.65 0-1.199-.212-1.648-.637a2.05 2.05 0 01-.674-1.546c0-.605.2-1.096.6-1.472.401-.376.931-.608 1.59-.696l1.955-.285c.371-.049.557-.247.557-.593 0-.347-.132-.64-.395-.88-.264-.239-.645-.358-1.143-.358s-.886.132-1.165.395c-.278.264-.444.618-.498 1.062l-1.347-.315c.068-.683.383-1.245.945-1.684.561-.44 1.23-.66 2.006-.66 1.026 0 1.783.25 2.271.748s.732 1.13.732 1.897v3.61c0 .43.03.826.088 1.187h-1.377a6.016 6.016 0 01-.073-.974c-.2.322-.493.603-.879.842-.386.24-.901.36-1.545.36zm10.319-5.91c-.307-.303-.754-.455-1.34-.455-.586 0-1.091.22-1.516.66-.425.439-.637 1.057-.637 1.852 0 .796.212 1.419.637 1.868.425.45.942.674 1.553.674.615 0 1.079-.146 1.391-.44.313-.302.523-.649.63-1.04l1.245.542c-.2.601-.578 1.126-1.135 1.575-.557.45-1.262.674-2.117.674-1.049 0-1.921-.366-2.614-1.099-.689-.732-1.033-1.652-1.033-2.76 0-1.11.344-2.02 1.033-2.733.688-.717 1.513-1.076 2.475-1.076.962 0 1.717.224 2.263.673.547.45.904.992 1.07 1.626l-1.275.535a2.338 2.338 0 00-.63-1.077zm5.347 8.7h-1.545l1.794-3.815-3.105-6.416h1.626l2.248 4.98 2.161-4.98h1.516l-4.695 10.232z" fill="#000"/><path stroke="#D6C9C9" d="M277 0h164v67H277z"/><path d="M477.73 38.5h-3.691V27.865h3.721c1.43 0 2.632.474 3.603 1.421.967.947 1.45 2.251 1.45 3.911 0 1.66-.488 2.962-1.464 3.904-.982.933-2.188 1.399-3.619 1.399zm-2.219-1.304h2.176c1.04 0 1.901-.344 2.585-1.032.688-.689 1.033-1.678 1.033-2.967 0-1.289-.337-2.28-1.011-2.973-.674-.699-1.533-1.05-2.578-1.055h-2.205v8.027zm9.156-7.932a.965.965 0 01-.293-.71.99.99 0 01.293-.718c.195-.2.432-.3.71-.3.278 0 .518.097.718.293.2.195.3.434.3.717 0 .284-.1.523-.3.718a.993.993 0 01-.718.293.966.966 0 01-.71-.293zm1.413 9.236h-1.392v-7.214h1.392V38.5zm3.508-1.355c.288.254.652.38 1.092.38.439 0 .766-.092.981-.277a.86.86 0 00.33-.682c0-.478-.31-.788-.93-.93l-1.231-.27c-.557-.118-.996-.357-1.318-.718-.323-.362-.484-.826-.484-1.392s.254-1.074.762-1.524a2.64 2.64 0 011.809-.673c1.192 0 2.031.451 2.52 1.355.097.19.171.383.219.578l-1.245.469a1.434 1.434 0 00-.278-.667c-.278-.356-.684-.534-1.216-.534-.351 0-.64.095-.864.285-.225.19-.337.416-.337.674 0 .46.273.75.82.872l1.172.256c.64.142 1.133.398 1.48.77.346.37.52.837.52 1.398 0 .557-.235 1.065-.703 1.524-.469.459-1.131.688-1.985.688-.86 0-1.541-.222-2.044-.666-.498-.45-.781-.928-.849-1.436l1.274-.447c.049.39.217.713.505.967zm9.939-4.329c-.307-.302-.754-.454-1.34-.454-.586 0-1.091.22-1.516.66-.425.439-.637 1.057-.637 1.852 0 .796.212 1.419.637 1.868.425.45.942.674 1.553.674.615 0 1.079-.146 1.391-.44.313-.302.523-.649.63-1.04l1.245.542c-.2.601-.578 1.126-1.135 1.575-.557.45-1.262.674-2.117.674-1.05 0-1.921-.366-2.614-1.099-.689-.732-1.033-1.652-1.033-2.76 0-1.11.344-2.02 1.033-2.733.688-.717 1.513-1.076 2.475-1.076.962 0 1.716.224 2.263.673.547.45.904.992 1.07 1.626l-1.275.535a2.338 2.338 0 00-.63-1.077zm7.01-.153c-1.319 0-1.98.74-1.985 2.219V38.5h-1.406v-7.214h1.376v1.26c.44-.919 1.16-1.377 2.161-1.377.161 0 .317.014.469.043v1.494a4.448 4.448 0 00-.615-.043zm2.094-3.399a.969.969 0 01-.293-.71c0-.279.098-.518.293-.718.196-.2.432-.3.711-.3.278 0 .517.097.718.293.2.195.3.434.3.717 0 .284-.1.523-.3.718a.994.994 0 01-.718.293.969.969 0 01-.711-.293zm1.414 9.236h-1.392v-7.214h1.392V38.5zm3.794 0h-1.392v-7.214h1.348v.96c.22-.382.53-.672.93-.873.4-.2.828-.3 1.282-.3.454 0 .876.115 1.267.345.391.229.681.57.872 1.025.498-.908 1.303-1.365 2.416-1.37a2.43 2.43 0 011.758.703c.484.47.728 1.15.733 2.044v4.68h-1.399v-4.526c0-.498-.127-.899-.381-1.201-.259-.303-.637-.455-1.135-.455s-.901.174-1.209.52c-.307.347-.464.78-.469 1.297V38.5h-1.406v-4.526c-.005-.498-.134-.899-.388-1.201-.254-.303-.632-.455-1.135-.455s-.911.171-1.223.513c-.313.342-.469.781-.469 1.318V38.5zm11.448-9.236a.965.965 0 01-.293-.71.99.99 0 01.293-.718c.195-.2.432-.3.71-.3.278 0 .518.097.718.293.2.195.3.434.3.717 0 .284-.1.523-.3.718a.993.993 0 01-.718.293.966.966 0 01-.71-.293zM526.7 38.5h-1.391v-7.214h1.391V38.5zm3.809-4.167V38.5h-1.406v-7.214h1.376v1.032c.479-.83 1.219-1.245 2.22-1.245.83 0 1.467.266 1.911.799.445.532.669 1.215.674 2.05V38.5h-1.413v-4.336c0-1.21-.559-1.816-1.678-1.816-.537 0-.952.188-1.245.564-.293.376-.439.85-.439 1.42zm9.177 3.208c.63 0 1.135-.171 1.516-.513.381-.342.569-.881.564-1.619v-.33l-2.204.33c-.323.049-.577.164-.762.344-.186.181-.281.418-.286.71 0 .294.108.548.322.763.215.21.498.315.85.315zm-.293 1.186c-.649 0-1.199-.212-1.648-.637a2.05 2.05 0 01-.674-1.546c0-.605.2-1.096.601-1.472.4-.376.93-.608 1.589-.696l1.956-.285c.371-.049.556-.247.556-.593 0-.347-.131-.64-.395-.88-.264-.239-.645-.358-1.143-.358s-.886.132-1.164.395c-.279.264-.445.618-.498 1.062l-1.348-.315c.068-.683.383-1.245.945-1.684.561-.44 1.23-.66 2.007-.66 1.025 0 1.782.25 2.27.748.489.498.733 1.13.733 1.897v3.61c0 .43.029.826.088 1.187h-1.377a6.012 6.012 0 01-.074-.974c-.2.322-.493.603-.879.842-.385.24-.9.36-1.545.36zm7.874-2.417c0 .66.297.989.893.989.283 0 .506-.02.667-.059v1.201c-.24.088-.559.132-.96.132-.62 0-1.111-.18-1.472-.542-.361-.361-.542-.864-.542-1.508V32.56h-1.377v-1.274h.388c.371 0 .65-.103.835-.308.186-.205.279-.474.279-.806v-1.164h1.289v2.278h1.56v1.274h-1.56v3.75zm3.42-7.046a.969.969 0 01-.293-.71c0-.279.098-.518.293-.718.195-.2.432-.3.71-.3a.99.99 0 01.718.293c.2.195.301.434.301.717a.965.965 0 01-.301.718.99.99 0 01-.718.293.966.966 0 01-.71-.293zm1.414 9.236h-1.392v-7.214h1.392V38.5zm5.493-7.441c1.069 0 1.95.36 2.644 1.084.698.722 1.047 1.638 1.047 2.746 0 1.109-.347 2.024-1.04 2.747-.693.722-1.577 1.084-2.651 1.084-1.074 0-1.958-.362-2.652-1.084-.693-.723-1.04-1.636-1.04-2.74 0-1.103.347-2.021 1.04-2.753.694-.723 1.578-1.084 2.652-1.084zm0 6.408c.63 0 1.162-.227 1.596-.68.435-.45.652-1.08.652-1.89 0-.811-.217-1.443-.652-1.898a2.122 2.122 0 00-1.596-.68c-.63 0-1.162.226-1.597.68-.435.455-.652 1.084-.652 1.89 0 .806.217 1.438.652 1.897.435.46.967.686 1.597.681zm6.899-3.134V38.5h-1.406v-7.214h1.377v1.032c.478-.83 1.218-1.245 2.219-1.245.83 0 1.467.266 1.912.799.444.532.669 1.215.674 2.05V38.5h-1.414v-4.336c0-1.21-.559-1.816-1.677-1.816-.537 0-.952.188-1.245.564-.293.376-.44.85-.44 1.42z" fill="#000"/><path stroke="#D6C9C9" d="M440 0h163v67H440z"/></svg>
