<?xml version="1.0" encoding="UTF-8" standalone="no"?>
<!DOCTYPE svg PUBLIC "-//W3C//DTD SVG 1.1//EN" "http://www.w3.org/Graphics/SVG/1.1/DTD/svg11.dtd">
<svg width="100%" height="100%" viewBox="0 0 617 831" version="1.1" xmlns="http://www.w3.org/2000/svg" xmlns:xlink="http://www.w3.org/1999/xlink" xml:space="preserve" xmlns:serif="http://www.serif.com/" style="fill-rule:evenodd;clip-rule:evenodd;">
    <g id="area-covid" class="fade-out">
        <rect id="area-covid1" serif:id="area-covid" x="324.75" y="0.202" width="292" height="830" style="fill:rgb(236,164,0);fill-opacity:0.5;"/>
        <g id="label-covid">
            <path d="M342.395,807.677C340.655,807.677 339.164,807.076 337.922,805.875C336.679,804.674 336.058,803.054 336.058,801.015C336.058,799.649 336.369,798.451 336.99,797.42C337.611,796.389 338.399,795.621 339.354,795.117C340.303,794.619 341.317,794.37 342.395,794.37C343.837,794.37 345.052,794.733 346.043,795.46C347.033,796.187 347.689,797.174 348.011,798.422L346.377,799.002C346.136,798.041 345.674,797.3 344.988,796.778C344.302,796.257 343.438,795.996 342.395,795.996C341.147,795.996 340.078,796.436 339.187,797.314C338.297,798.193 337.854,799.427 337.86,801.015C337.86,802.597 338.305,803.833 339.196,804.724C340.087,805.614 341.153,806.057 342.395,806.051C343.438,806.051 344.308,805.772 345.006,805.216C345.703,804.659 346.189,803.918 346.465,802.992L348.029,803.572C347.683,804.809 347.015,805.802 346.025,806.552C345.035,807.302 343.825,807.677 342.395,807.677ZM349.383,801.015C349.383,799.989 349.564,799.049 349.927,798.193C350.607,796.611 351.776,795.486 353.434,794.818C354.19,794.52 354.975,794.37 355.79,794.37C357.466,794.37 358.933,794.944 360.193,796.093C360.802,796.638 361.289,797.335 361.652,798.185C362.015,799.034 362.197,799.978 362.197,801.015C362.197,802.38 361.884,803.581 361.257,804.618C360.624,805.649 359.827,806.417 358.866,806.921C357.905,807.425 356.88,807.677 355.79,807.677C354.7,807.677 353.675,807.425 352.714,806.921C351.759,806.411 350.965,805.641 350.332,804.609C349.699,803.578 349.383,802.38 349.383,801.015ZM351.184,801.015C351.184,802.597 351.635,803.833 352.538,804.724C353.446,805.608 354.533,806.051 355.799,806.051C357.064,806.051 358.148,805.605 359.051,804.715C359.953,803.824 360.404,802.591 360.404,801.015C360.404,799.433 359.953,798.199 359.051,797.314C358.148,796.436 357.061,795.996 355.79,795.996C354.518,795.996 353.431,796.436 352.529,797.314C351.627,798.193 351.178,799.427 351.184,801.015ZM368.455,805.137L372.34,794.643L374.194,794.643L369.281,807.404L367.532,807.404L362.724,794.643L364.596,794.643L368.455,805.137ZM377.798,807.404L375.996,807.404L375.996,794.643L377.798,794.643L377.798,807.404ZM385.47,807.404L381.041,807.404L381.041,794.643L385.506,794.643C387.222,794.643 388.664,795.211 389.83,796.348C390.99,797.484 391.57,799.049 391.57,801.041C391.57,803.033 390.984,804.595 389.812,805.726C388.635,806.845 387.187,807.404 385.47,807.404ZM382.807,805.84L385.418,805.84C386.666,805.84 387.7,805.427 388.52,804.601C389.346,803.774 389.76,802.588 389.76,801.041C389.76,799.494 389.355,798.305 388.547,797.473C387.738,796.635 386.707,796.213 385.453,796.207L382.807,796.207L382.807,805.84ZM398.065,802.975L393.187,802.975L393.187,801.498L398.065,801.498L398.065,802.975ZM403.514,807.404L401.792,807.404L401.792,799.178L398.962,799.178L398.962,797.938C399.753,797.927 400.421,797.719 400.966,797.314C401.505,796.91 401.839,796.386 401.968,795.741L403.514,795.741L403.514,807.404ZM411.653,801.252C412.151,800.807 412.4,800.218 412.4,799.485C412.4,798.753 412.148,798.158 411.644,797.701C411.14,797.244 410.549,797.016 409.869,797.016C409.189,797.016 408.603,797.241 408.111,797.692C407.619,798.144 407.37,798.741 407.364,799.485C407.364,800.229 407.61,800.824 408.102,801.27C408.589,801.715 409.177,801.938 409.869,801.938C410.56,801.938 411.155,801.709 411.653,801.252ZM408.586,806.086C409.916,806.086 410.915,805.705 411.583,804.943C412.251,804.182 412.602,803.183 412.637,801.946C412.409,802.368 412.034,802.723 411.512,803.01C410.991,803.297 410.358,803.44 409.614,803.44C408.536,803.44 407.593,803.092 406.784,802.395C405.981,801.691 405.58,800.739 405.58,799.538C405.58,798.337 406.002,797.358 406.845,796.603C407.689,795.847 408.718,795.469 409.93,795.469C411.143,795.469 412.195,795.926 413.086,796.84C413.976,797.754 414.419,799.084 414.413,800.83C414.407,803.016 413.918,804.703 412.945,805.893C411.972,807.082 410.519,807.677 408.586,807.677C408.129,807.671 407.636,807.604 407.109,807.475C406.582,807.346 406.175,807.185 405.887,806.991L406.459,805.532C407.068,805.901 407.777,806.086 408.586,806.086ZM427.342,805.277C427.81,804.703 428.045,803.971 428.045,803.08C428.045,802.189 427.813,801.463 427.35,800.9C426.887,800.338 426.269,800.051 425.496,800.039C424.722,800.039 424.098,800.326 423.624,800.9C423.149,801.475 422.912,802.201 422.912,803.08C422.912,803.971 423.149,804.7 423.624,805.269C424.098,805.837 424.719,806.121 425.487,806.121C426.255,806.121 426.873,805.84 427.342,805.277ZM422.929,810.823L421.26,810.823L421.26,798.747L422.894,798.747L422.894,800.101C423.146,799.644 423.524,799.271 424.028,798.984C424.532,798.697 425.121,798.551 425.795,798.545C427.043,798.545 428.018,798.973 428.721,799.828C429.425,800.684 429.776,801.765 429.776,803.071C429.776,804.378 429.413,805.465 428.686,806.332C427.96,807.199 426.978,807.636 425.742,807.642C425.103,807.642 424.538,807.51 424.046,807.246C423.553,806.982 423.181,806.646 422.929,806.235L422.929,810.823ZM434.522,806.253C435.278,806.253 435.885,806.048 436.342,805.638C436.799,805.228 437.024,804.58 437.018,803.695L437.018,803.3L434.373,803.695C433.986,803.754 433.681,803.892 433.459,804.108C433.236,804.325 433.122,804.609 433.116,804.961C433.116,805.312 433.245,805.617 433.503,805.875C433.76,806.127 434.1,806.253 434.522,806.253ZM434.171,807.677C433.391,807.677 432.732,807.422 432.193,806.912C431.654,806.402 431.385,805.784 431.385,805.058C431.385,804.331 431.625,803.742 432.105,803.291C432.586,802.84 433.221,802.562 434.012,802.456L436.359,802.113C436.804,802.055 437.027,801.817 437.027,801.401C437.027,800.985 436.869,800.634 436.552,800.347C436.236,800.06 435.779,799.916 435.181,799.916C434.584,799.916 434.118,800.074 433.784,800.391C433.45,800.707 433.251,801.132 433.186,801.665L431.569,801.287C431.651,800.467 432.029,799.793 432.703,799.266C433.377,798.738 434.179,798.475 435.111,798.475C436.342,798.475 437.25,798.773 437.836,799.371C438.422,799.969 438.715,800.728 438.715,801.647L438.715,805.98C438.715,806.496 438.75,806.971 438.82,807.404L437.168,807.404C437.109,807.047 437.08,806.657 437.08,806.235C436.84,806.622 436.488,806.959 436.025,807.246C435.562,807.533 434.944,807.677 434.171,807.677ZM443.039,802.403L443.039,807.404L441.351,807.404L441.351,798.747L443.004,798.747L443.004,799.986C443.578,798.99 444.466,798.492 445.667,798.492C446.663,798.492 447.427,798.812 447.961,799.45C448.494,800.089 448.763,800.909 448.769,801.911L448.769,807.404L447.073,807.404L447.073,802.201C447.073,800.748 446.402,800.021 445.06,800.021C444.416,800.021 443.918,800.247 443.566,800.698C443.215,801.149 443.039,801.718 443.039,802.403ZM457.523,806.235L457.523,806.086C457.295,806.531 456.949,806.9 456.486,807.193C456.023,807.486 455.475,807.636 454.843,807.642C453.606,807.636 452.613,807.199 451.863,806.332C451.113,805.465 450.738,804.387 450.738,803.098C450.738,801.809 451.122,800.719 451.889,799.828C452.657,798.949 453.641,798.51 454.843,798.51C455.552,798.51 456.129,798.65 456.574,798.932C457.019,799.213 457.324,799.559 457.488,799.969L457.488,794.37L459.158,794.37L459.158,805.805C459.158,806.391 459.19,806.924 459.255,807.404L457.611,807.404C457.552,807.07 457.523,806.681 457.523,806.235ZM456.838,800.83C456.392,800.279 455.786,800.004 455.018,800.004C454.251,800.004 453.633,800.285 453.164,800.848C452.695,801.41 452.464,802.146 452.469,803.054C452.475,803.962 452.701,804.703 453.146,805.277C453.592,805.852 454.201,806.139 454.974,806.139C455.748,806.139 456.363,805.846 456.82,805.26C457.277,804.674 457.506,803.927 457.506,803.019C457.506,802.11 457.283,801.381 456.838,800.83ZM465.697,807.677C464.478,807.671 463.447,807.252 462.603,806.42C461.76,805.588 461.338,804.486 461.338,803.115C461.338,801.744 461.745,800.631 462.559,799.775C463.374,798.914 464.346,798.48 465.477,798.475C466.784,798.475 467.803,798.885 468.536,799.705C469.268,800.525 469.635,801.627 469.635,803.01C469.635,803.227 469.623,803.408 469.599,803.555L463.087,803.555C463.098,804.322 463.353,804.952 463.851,805.444C464.349,805.937 464.965,806.183 465.697,806.183C466.927,806.183 467.736,805.6 468.123,804.434L469.582,804.935C469.33,805.737 468.861,806.396 468.176,806.912C467.49,807.428 466.664,807.683 465.697,807.677ZM467.226,800.584C466.816,800.174 466.257,799.969 465.548,799.969C464.839,799.969 464.267,800.188 463.834,800.628C463.4,801.067 463.169,801.586 463.139,802.184L467.868,802.184C467.85,801.527 467.636,800.994 467.226,800.584ZM473.467,807.404L471.797,807.404L471.797,798.747L473.414,798.747L473.414,799.898C473.677,799.441 474.05,799.093 474.53,798.853C475.01,798.612 475.523,798.492 476.068,798.492C476.613,798.492 477.12,798.63 477.589,798.905C478.057,799.181 478.406,799.591 478.635,800.136C479.232,799.046 480.199,798.498 481.535,798.492C482.361,798.492 483.064,798.773 483.644,799.336C484.224,799.898 484.517,800.716 484.523,801.788L484.523,807.404L482.844,807.404L482.844,801.973C482.844,801.375 482.692,800.895 482.387,800.531C482.077,800.168 481.623,799.986 481.025,799.986C480.427,799.986 479.944,800.194 479.575,800.61C479.206,801.026 479.018,801.545 479.012,802.166L479.012,807.404L477.325,807.404L477.325,801.973C477.319,801.375 477.164,800.895 476.859,800.531C476.554,800.168 476.1,799.986 475.497,799.986C474.893,799.986 474.404,800.191 474.029,800.602C473.654,801.012 473.467,801.539 473.467,802.184L473.467,807.404ZM487.204,796.321C486.969,796.087 486.852,795.803 486.852,795.469C486.852,795.135 486.969,794.848 487.204,794.607C487.438,794.367 487.722,794.247 488.056,794.247C488.39,794.247 488.677,794.364 488.918,794.599C489.158,794.833 489.278,795.12 489.278,795.46C489.278,795.8 489.158,796.087 488.918,796.321C488.677,796.556 488.39,796.673 488.056,796.673C487.722,796.673 487.438,796.556 487.204,796.321ZM488.9,807.404L487.23,807.404L487.23,798.747L488.9,798.747L488.9,807.404ZM496.986,800.584C496.617,800.221 496.081,800.039 495.378,800.039C494.675,800.039 494.068,800.303 493.558,800.83C493.049,801.357 492.794,802.099 492.794,803.054C492.794,804.009 493.049,804.756 493.558,805.295C494.068,805.834 494.689,806.104 495.422,806.104C496.16,806.104 496.717,805.928 497.092,805.576C497.467,805.213 497.719,804.797 497.847,804.328L499.342,804.979C499.101,805.699 498.647,806.329 497.979,806.868C497.311,807.407 496.465,807.677 495.439,807.677C494.179,807.677 493.134,807.237 492.302,806.358C491.475,805.479 491.062,804.375 491.062,803.045C491.062,801.715 491.475,800.622 492.302,799.767C493.128,798.905 494.118,798.475 495.272,798.475C496.427,798.475 497.332,798.744 497.988,799.283C498.644,799.822 499.072,800.473 499.271,801.234L497.742,801.876C497.607,801.378 497.355,800.947 496.986,800.584Z" style="fill:rgb(28,82,117);fill-rule:nonzero;"/>
            <path d="M326.25,772.904L604.25,772.904" style="fill:none;fill-rule:nonzero;stroke:rgb(28,82,117);stroke-width:1px;"/>
        </g>
    </g>
    <g id="grid"  class="fade-out">
        <path d="M46.25,649.904L605.25,649.904" style="fill:none;fill-rule:nonzero;stroke:rgb(28,82,117);stroke-width:1px;"/>
        <path d="M50.25,342.904L605.25,342.904" style="fill:none;fill-rule:nonzero;stroke:rgb(28,82,117);stroke-width:1px;"/>
        <path d="M46.25,303.904L605.25,303.904" style="fill:none;fill-rule:nonzero;stroke:rgb(28,82,117);stroke-width:1px;"/>
        <path d="M46.25,607.904L605.25,607.904" style="fill:none;fill-rule:nonzero;stroke:rgb(28,82,117);stroke-width:1px;"/>
        <path d="M46.25,261.904L605.25,261.904" style="fill:none;fill-rule:nonzero;stroke:rgb(28,82,117);stroke-width:1px;"/>
        <path d="M46.25,567.904L605.25,567.904" style="fill:none;fill-rule:nonzero;stroke:rgb(28,82,117);stroke-width:1px;"/>
        <path d="M46.25,221.904L605.25,221.904" style="fill:none;fill-rule:nonzero;stroke:rgb(28,82,117);stroke-width:1px;"/>
        <path d="M46.25,526.904L605.25,526.904" style="fill:none;fill-rule:nonzero;stroke:rgb(28,82,117);stroke-width:1px;"/>
        <path d="M46.25,180.904L605.25,180.904" style="fill:none;fill-rule:nonzero;stroke:rgb(28,82,117);stroke-width:1px;"/>
        <path d="M46.25,485.904L605.25,485.904" style="fill:none;fill-rule:nonzero;stroke:rgb(28,82,117);stroke-width:1px;"/>
        <path d="M46.25,139.904L605.25,139.904" style="fill:none;fill-rule:nonzero;stroke:rgb(28,82,117);stroke-width:1px;"/>
        <path d="M46.25,688.904L605.251,688.904" style="fill:none;fill-rule:nonzero;stroke:rgb(28,82,117);stroke-width:1px;"/>
        <path d="M46.25,342.904L605.251,342.904" style="fill:none;fill-rule:nonzero;stroke:rgb(28,82,117);stroke-width:1px;"/>
        <path d="M46.25,444.904L605.25,444.904" style="fill:none;fill-rule:nonzero;stroke:rgb(28,82,117);stroke-width:1px;"/>
        <path d="M46.25,98.904L605.25,98.904" style="fill:none;fill-rule:nonzero;stroke:rgb(28,82,117);stroke-width:1px;"/>
    </g>
    <g id="labels-q" class="fade-out">
        <g transform="matrix(1,0,0,1,0.62,352.718)">
            <text x="63.25px" y="372.353px" style="font-family:'CircularStd-Book', 'Circular Std', sans-serif;font-weight:450;font-size:16px;fill:rgb(28,82,117);">Q4 2019</text>
        </g>
        <g transform="matrix(1,0,0,1,0.62,10.22)">
            <text x="63.25px" y="372.353px" style="font-family:'CircularStd-Book', 'Circular Std', sans-serif;font-weight:450;font-size:16px;fill:rgb(28,82,117);">Q4 2019</text>
        </g>
            <g transform="matrix(1,0,0,1,146.719,352.992)">
            <text x="63.25px" y="372.353px" style="font-family:'CircularStd-Book', 'Circular Std', sans-serif;font-weight:450;font-size:16px;fill:rgb(28,82,117);">Q1 2020</text>
        </g>
        <g transform="matrix(1,0,0,1,146.719,10.495)">
            <text x="63.25px" y="372.353px" style="font-family:'CircularStd-Book', 'Circular Std', sans-serif;font-weight:450;font-size:16px;fill:rgb(28,82,117);">Q1 2020</text>
        </g>
            <g transform="matrix(1,0,0,1,305.74,352.718)">
            <text x="63.25px" y="372.353px" style="font-family:'CircularStd-Book', 'Circular Std', sans-serif;font-weight:450;font-size:16px;fill:rgb(28,82,117);">Q2 2020</text>
        </g>
        <g transform="matrix(1,0,0,1,305.74,10.22)">
            <text x="63.25px" y="372.353px" style="font-family:'CircularStd-Book', 'Circular Std', sans-serif;font-weight:450;font-size:16px;fill:rgb(28,82,117);">Q2 2020</text>
        </g>
                <g transform="matrix(1,0,0,1,456.556,352.718)">
            <text x="63.25px" y="372.353px" style="font-family:'CircularStd-Book', 'Circular Std', sans-serif;font-weight:450;font-size:16px;fill:rgb(28,82,117);">Q3 2020</text>
        </g>
        <g transform="matrix(1,0,0,1,456.556,10.22)">
            <text x="63.25px" y="372.353px" style="font-family:'CircularStd-Book', 'Circular Std', sans-serif;font-weight:450;font-size:16px;fill:rgb(28,82,117);">Q3 2020</text>
        </g>
    </g>
    <path id="label-fb" class="fade-out" d="M16.25,261.021L16.25,262.787L3.488,262.787L3.488,255.026L5.123,255.026L5.123,261.021L9.227,261.021L9.227,255.58L10.888,255.58L10.888,261.021L16.25,261.021ZM15.098,251.089C15.098,250.333 14.893,249.727 14.483,249.27C14.073,248.812 13.426,248.587 12.541,248.593L12.145,248.593L12.541,251.238C12.599,251.625 12.737,251.93 12.954,252.152C13.171,252.375 13.455,252.489 13.806,252.495C14.158,252.495 14.463,252.366 14.721,252.108C14.972,251.851 15.098,251.511 15.098,251.089ZM16.522,251.44C16.522,252.22 16.267,252.879 15.758,253.418C15.248,253.957 14.63,254.227 13.903,254.227C13.177,254.227 12.588,253.986 12.137,253.506C11.685,253.025 11.407,252.39 11.302,251.599L10.959,249.252C10.9,248.807 10.663,248.584 10.247,248.584C9.831,248.584 9.479,248.742 9.192,249.059C8.905,249.375 8.761,249.832 8.761,250.43C8.761,251.027 8.92,251.493 9.236,251.827C9.552,252.161 9.977,252.36 10.511,252.425L10.133,254.042C9.312,253.96 8.638,253.582 8.111,252.908C7.584,252.234 7.32,251.432 7.32,250.5C7.32,249.27 7.619,248.361 8.217,247.775C8.814,247.189 9.573,246.896 10.493,246.896L14.826,246.896C15.342,246.896 15.816,246.861 16.25,246.791L16.25,248.443C15.892,248.502 15.503,248.531 15.081,248.531C15.467,248.771 15.804,249.123 16.092,249.586C16.379,250.049 16.522,250.667 16.522,251.44ZM9.429,239.057C9.066,239.426 8.885,239.962 8.885,240.665C8.885,241.368 9.148,241.975 9.676,242.484C10.203,242.994 10.944,243.249 11.899,243.249C12.854,243.249 13.601,242.994 14.14,242.484C14.679,241.975 14.949,241.354 14.949,240.621C14.949,239.883 14.773,239.326 14.422,238.951C14.058,238.576 13.642,238.324 13.174,238.195L13.824,236.701C14.545,236.941 15.175,237.396 15.714,238.063C16.253,238.731 16.522,239.578 16.522,240.604C16.522,241.863 16.083,242.909 15.204,243.741C14.325,244.567 13.221,244.98 11.89,244.98C10.56,244.98 9.468,244.567 8.612,243.741C7.751,242.915 7.32,241.925 7.32,240.771C7.32,239.616 7.59,238.711 8.129,238.055C8.668,237.398 9.318,236.971 10.08,236.771L10.721,238.301C10.223,238.436 9.793,238.687 9.429,239.057ZM16.522,231.146C16.516,232.365 16.097,233.396 15.265,234.24C14.433,235.084 13.332,235.506 11.961,235.506C10.59,235.506 9.476,235.099 8.621,234.284C7.76,233.47 7.326,232.497 7.32,231.366C7.32,230.06 7.73,229.04 8.551,228.308C9.371,227.575 10.472,227.209 11.855,227.209C12.072,227.209 12.254,227.221 12.4,227.244L12.4,233.757C13.168,233.745 13.798,233.49 14.29,232.992C14.782,232.494 15.028,231.879 15.028,231.146C15.028,229.916 14.445,229.107 13.279,228.721L13.78,227.262C14.583,227.514 15.242,227.982 15.758,228.668C16.273,229.354 16.528,230.18 16.522,231.146ZM9.429,229.617C9.019,230.027 8.814,230.587 8.814,231.296C8.814,232.005 9.034,232.576 9.473,233.01C9.913,233.443 10.431,233.675 11.029,233.704L11.029,228.976C10.373,228.993 9.84,229.207 9.429,229.617ZM14.123,218.965C13.56,218.496 12.81,218.262 11.873,218.262C10.935,218.262 10.194,218.493 9.649,218.956C9.104,219.419 8.832,220.034 8.832,220.802C8.832,221.569 9.107,222.193 9.658,222.674C10.209,223.154 10.947,223.395 11.873,223.395C12.799,223.395 13.546,223.154 14.114,222.674C14.682,222.193 14.967,221.572 14.967,220.811C14.967,220.049 14.685,219.434 14.123,218.965ZM16.25,223.377L16.25,225.047L3.216,225.047L3.216,223.377L8.814,223.377C8.392,223.148 8.041,222.785 7.76,222.287C7.478,221.789 7.338,221.197 7.338,220.512C7.338,219.252 7.765,218.273 8.621,217.576C9.476,216.879 10.563,216.53 11.882,216.53C13.212,216.53 14.31,216.891 15.178,217.611C16.045,218.332 16.478,219.328 16.478,220.6C16.478,221.871 15.983,222.797 14.993,223.377L16.25,223.377ZM7.32,210.668C7.32,209.385 7.754,208.327 8.621,207.495C9.488,206.657 10.587,206.238 11.917,206.238C13.247,206.238 14.346,206.654 15.213,207.486C16.08,208.318 16.513,209.379 16.513,210.668C16.513,211.957 16.08,213.018 15.213,213.85C14.346,214.682 13.25,215.098 11.926,215.098C10.601,215.098 9.5,214.682 8.621,213.85C7.754,213.018 7.32,211.957 7.32,210.668ZM15.011,210.668C15.011,209.912 14.738,209.273 14.193,208.752C13.654,208.23 12.898,207.97 11.926,207.97C10.953,207.97 10.194,208.23 9.649,208.752C9.104,209.273 8.832,209.912 8.832,210.668C8.832,211.424 9.104,212.062 9.649,212.584C10.194,213.105 10.95,213.366 11.917,213.366C12.884,213.366 13.642,213.105 14.193,212.584C14.744,212.062 15.016,211.424 15.011,210.668ZM7.32,200.367C7.32,199.084 7.754,198.026 8.621,197.194C9.488,196.356 10.587,195.937 11.917,195.937C13.247,195.937 14.346,196.354 15.213,197.186C16.08,198.018 16.513,199.078 16.513,200.367C16.513,201.656 16.08,202.717 15.213,203.549C14.346,204.381 13.25,204.797 11.926,204.797C10.601,204.797 9.5,204.381 8.621,203.549C7.754,202.717 7.32,201.656 7.32,200.367ZM15.011,200.367C15.011,199.611 14.738,198.973 14.193,198.451C13.654,197.93 12.898,197.669 11.926,197.669C10.953,197.669 10.194,197.93 9.649,198.451C9.104,198.973 8.832,199.611 8.832,200.367C8.832,201.123 9.104,201.762 9.649,202.283C10.194,202.805 10.95,203.065 11.917,203.065C12.884,203.065 13.642,202.805 14.193,202.283C14.744,201.762 15.016,201.123 15.011,200.367ZM16.25,192.105L16.25,193.775L3.216,193.775L3.216,192.105L11.425,192.105L7.593,188.361L7.593,186.015L11.249,189.706L16.25,185.944L16.25,188.071L12.435,190.893L13.639,192.105L16.25,192.105Z" style="fill:rgb(28,82,117);fill-rule:nonzero;"/>
    <path id="label-yt" class="fade-out" d="M20.25,596.962L20.25,598.729L14.792,598.729L7.488,603.229L7.488,601.102L13.175,597.788L7.488,594.475L7.488,592.462L14.792,596.962L20.25,596.962ZM11.32,588.744C11.32,587.461 11.754,586.403 12.621,585.571C13.488,584.733 14.587,584.314 15.917,584.314C17.247,584.314 18.346,584.73 19.213,585.562C20.08,586.395 20.513,587.455 20.513,588.744C20.513,590.033 20.08,591.094 19.213,591.926C18.346,592.758 17.25,593.174 15.926,593.174C14.601,593.174 13.5,592.758 12.621,591.926C11.754,591.094 11.32,590.033 11.32,588.744ZM19.011,588.744C19.011,587.988 18.738,587.35 18.193,586.828C17.654,586.307 16.898,586.046 15.926,586.046C14.953,586.046 14.194,586.307 13.649,586.828C13.104,587.35 12.832,587.988 12.832,588.744C12.832,589.5 13.104,590.139 13.649,590.66C14.194,591.182 14.95,591.442 15.917,591.442C16.884,591.442 17.642,591.182 18.193,590.66C18.744,590.139 19.016,589.5 19.011,588.744ZM20.522,579.094C20.522,580.078 20.194,580.863 19.538,581.449C18.882,582.035 18.05,582.328 17.042,582.328L11.593,582.328L11.593,580.641L16.796,580.641C17.446,580.641 17.982,580.482 18.404,580.166C18.826,579.85 19.034,579.354 19.028,578.681C19.028,578.007 18.826,577.497 18.422,577.151C18.017,576.806 17.481,576.63 16.813,576.624L11.593,576.624L11.593,574.937L18.65,574.937C19.213,574.937 19.746,574.904 20.25,574.84L20.25,576.466C19.986,576.513 19.637,576.536 19.204,576.536C19.638,576.765 19.966,577.113 20.188,577.582C20.411,578.051 20.522,578.555 20.522,579.094ZM9.123,563.01L9.123,567.272L20.25,567.272L20.25,569.039L9.123,569.039L9.123,573.311L7.488,573.311L7.488,563.01L9.123,563.01ZM20.522,559.969C20.522,560.953 20.194,561.738 19.538,562.324C18.882,562.91 18.05,563.203 17.042,563.203L11.593,563.203L11.593,561.516L16.796,561.516C17.446,561.516 17.982,561.357 18.404,561.041C18.826,560.725 19.034,560.229 19.028,559.556C19.028,558.882 18.826,558.372 18.422,558.026C18.017,557.681 17.481,557.505 16.813,557.499L11.593,557.499L11.593,555.812L18.65,555.812C19.213,555.812 19.746,555.779 20.25,555.715L20.25,557.341C19.986,557.388 19.637,557.411 19.204,557.411C19.637,557.64 19.966,557.988 20.188,558.457C20.411,558.926 20.522,559.43 20.522,559.969ZM18.123,546.838C17.56,546.369 16.81,546.135 15.873,546.135C14.935,546.135 14.194,546.366 13.649,546.829C13.104,547.292 12.832,547.907 12.832,548.675C12.832,549.442 13.107,550.066 13.658,550.547C14.209,551.027 14.947,551.268 15.873,551.268C16.799,551.268 17.546,551.027 18.114,550.547C18.682,550.066 18.967,549.445 18.967,548.684C18.967,547.922 18.685,547.307 18.123,546.838ZM20.25,551.25L20.25,552.92L7.216,552.92L7.216,551.25L12.814,551.25C12.392,551.021 12.041,550.658 11.759,550.16C11.478,549.662 11.338,549.07 11.338,548.385C11.338,547.125 11.765,546.146 12.621,545.449C13.476,544.752 14.563,544.403 15.882,544.403C17.212,544.403 18.31,544.764 19.177,545.484C20.045,546.205 20.478,547.201 20.478,548.473C20.478,549.744 19.983,550.67 18.993,551.25L20.25,551.25ZM20.522,538.594C20.516,539.812 20.097,540.844 19.265,541.687C18.433,542.531 17.332,542.953 15.961,542.953C14.59,542.953 13.476,542.546 12.621,541.731C11.759,540.917 11.326,539.944 11.32,538.813C11.32,537.507 11.73,536.487 12.551,535.755C13.371,535.022 14.472,534.656 15.855,534.656C16.072,534.656 16.254,534.668 16.4,534.691L16.4,541.204C17.168,541.192 17.798,540.937 18.29,540.439C18.782,539.941 19.028,539.326 19.028,538.594C19.028,537.363 18.445,536.555 17.279,536.168L17.78,534.709C18.583,534.961 19.242,535.43 19.758,536.115C20.273,536.801 20.528,537.627 20.522,538.594ZM13.429,537.064C13.019,537.475 12.814,538.034 12.814,538.743C12.814,539.452 13.034,540.023 13.473,540.457C13.913,540.891 14.431,541.122 15.029,541.151L15.029,536.423C14.373,536.44 13.84,536.654 13.429,537.064Z" style="fill:rgb(28,82,117);fill-rule:nonzero;"/>
    <g id="_2019-q4" serif:id="2019-q4">
        <g id="q4-split-fb" class="fade-out">
          <g transform="matrix(1,0,0,1,-12,-0.5)">
              <rect x="75.25" y="152.404" width="59" height="191" style="fill:rgb(231,92,100);"/>
          </g>
          <g transform="matrix(1,0,0,1,-12,-0.5)">
              <rect x="75.25" y="119.404" width="59" height="33" style="fill:rgb(28,82,117);"/>
          </g>
        </g>
        <g id="q4-split-yt" class="fade-out">
          <rect x="63.25" y="650.404" width="59" height="38" style="fill:rgb(231,92,100);"/>
          <rect x="63.25" y="639.404" width="59" height="13" style="fill:rgb(28,82,117);"/>
        </g>
    </g>
    <g id="_2020-q3" serif:id="2020-q3">
      <g id="q3-split-fb" class="fade-out">
        <g transform="matrix(1,0,0,1,-12,-1)">
          <rect x="532.25" y="339.404" width="59" height="4" style="fill:rgb(231,92,100);"/>
        </g>
        <g transform="matrix(1,0,0,1,-12,-1)">
            <rect x="532.25" y="337.404" width="59" height="2" style="fill:rgb(28,82,117);"/>
        </g>
      </g>
      <g id="q3-split-yt" class="fade-out">
        <rect x="520.25" y="603.404" width="59" height="85" style="fill:rgb(231,92,100);"/>
        <rect x="520.25" y="567.404" width="59" height="36" style="fill:rgb(28,82,117);"/>
      </g>
    </g>
    <g id="_2020-q2" serif:id="2020-q2">
      <g id="q2-split-fb" class="fade-out">
        <g transform="matrix(1,0,0,1,-12,-1)">
            <rect x="380.25" y="339.404" width="59" height="4" style="fill:rgb(231,92,100);"/>
        </g>
        <g transform="matrix(1,0,0,1,-12,-1)">
            <rect x="380.25" y="337.404" width="59" height="2" style="fill:rgb(28,82,117);"/>
        </g>
      </g>
      <g id="q2-split-yt" class="fade-out">
        <rect x="368.25" y="552.404" width="59" height="136" style="fill:rgb(231,92,100);"/>
        <rect x="368.25" y="484.404" width="59" height="68" style="fill:rgb(28,82,117);"/>
      </g>
    </g>
    <g id="_2020-q1" class="fade-out" serif:id="2020-q1">
        <g transform="matrix(1,0,0,1,-17.901,-1)">
            <rect x="227.25" y="197.404" width="59" height="146" style="fill:rgb(231,92,100);"/>
        </g>
        <g transform="matrix(1,0,0,1,-17.901,-1)">
            <rect x="227.25" y="164.404" width="59" height="33" style="fill:rgb(28,82,117);"/>
        </g>
        <g transform="matrix(1,0,0,1,-5.901,-0.175)">
            <rect x="215.25" y="622.404" width="59" height="66" style="fill:rgb(231,92,100);"/>
        </g>
        <g transform="matrix(1,0,0,1,-5.901,-0.175)">
            <rect x="215.25" y="603.404" width="59" height="19" style="fill:rgb(28,82,117);"/>
        </g>
    </g>
    <g id="label-algo" class="fade-out">
        <path d="M365.25,31.404L359.25,31.404C358.719,31.405 358.211,31.616 357.836,31.991C357.461,32.366 357.25,32.874 357.25,33.404L357.25,35.404L351.664,35.404L347.25,30.99L347.25,25.404L349.25,25.404C349.78,25.404 350.288,25.193 350.663,24.818C351.038,24.443 351.249,23.935 351.25,23.404L351.25,17.404C351.249,16.874 351.038,16.366 350.663,15.991C350.288,15.616 349.78,15.405 349.25,15.404L343.25,15.404C342.719,15.405 342.211,15.616 341.836,15.991C341.461,16.366 341.25,16.874 341.25,17.404L341.25,23.404C341.25,23.935 341.461,24.443 341.836,24.818C342.211,25.193 342.719,25.404 343.25,25.404L345.25,25.404L345.25,30.99L340.543,35.697C340.355,35.885 340.25,36.139 340.25,36.404C340.25,36.67 340.355,36.924 340.543,37.111L345.543,42.111C345.73,42.299 345.984,42.404 346.25,42.404C346.515,42.404 346.769,42.299 346.957,42.111L351.664,37.404L357.25,37.404L357.25,39.404C357.25,39.935 357.461,40.443 357.836,40.818C358.211,41.193 358.719,41.404 359.25,41.404L365.25,41.404C365.78,41.404 366.288,41.193 366.663,40.818C367.038,40.443 367.249,39.935 367.25,39.404L367.25,33.404C367.249,32.874 367.038,32.366 366.663,31.991C366.288,31.616 365.78,31.405 365.25,31.404ZM343.25,17.404L349.25,17.404L349.25,23.404L343.25,23.404L343.25,17.404ZM346.25,39.99L342.664,36.404L346.25,32.818L349.836,36.404L346.25,39.99ZM359.25,39.404L359.25,33.404L365.25,33.404L365.25,39.404L359.25,39.404Z" style="fill:rgb(28,82,117);fill-rule:nonzero;"/>
        <path d="M404.186,35.404L407.282,35.404L402.53,22.642L399.236,22.642L394.43,35.404L397.418,35.404L398.336,32.812L403.268,32.812L404.186,35.404ZM400.838,25.81L402.368,30.22L399.272,30.22L400.838,25.81ZM411.41,35.404L411.41,22.372L408.674,22.372L408.674,35.404L411.41,35.404ZM413.195,35.908C413.447,37.51 415.085,39.094 417.659,39.094C421.007,39.094 422.447,36.862 422.447,34.288L422.447,26.458L419.837,26.458L419.837,27.412C419.585,26.944 418.811,26.296 417.353,26.296C414.905,26.296 413.195,28.312 413.195,30.67C413.195,33.154 414.977,35.026 417.353,35.026C418.649,35.026 419.423,34.504 419.747,34.018L419.747,34.432C419.747,36.052 418.901,36.718 417.533,36.718C416.507,36.718 415.787,36.088 415.607,35.224L413.195,35.908ZM417.857,32.65C416.759,32.65 415.931,31.894 415.931,30.67C415.931,29.446 416.831,28.69 417.857,28.69C418.883,28.69 419.765,29.446 419.765,30.67C419.765,31.894 418.973,32.65 417.857,32.65ZM428.862,33.154C427.836,33.154 426.846,32.416 426.846,30.922C426.846,29.41 427.836,28.708 428.862,28.708C429.906,28.708 430.878,29.41 430.878,30.922C430.878,32.434 429.906,33.154 428.862,33.154ZM428.862,26.188C426.198,26.188 424.11,28.15 424.11,30.922C424.11,33.694 426.198,35.674 428.862,35.674C431.544,35.674 433.614,33.694 433.614,30.922C433.614,28.15 431.544,26.188 428.862,26.188ZM441.063,26.458C440.883,26.404 440.613,26.368 440.343,26.368C439.623,26.368 438.489,26.656 438.021,27.664L438.021,26.458L435.375,26.458L435.375,35.404L438.111,35.404L438.111,31.498C438.111,29.716 439.101,29.068 440.199,29.068C440.469,29.068 440.757,29.086 441.063,29.158L441.063,26.458ZM445.459,35.404L445.459,26.458L442.723,26.458L442.723,35.404L445.459,35.404ZM442.489,23.722C442.489,24.604 443.209,25.324 444.073,25.324C444.973,25.324 445.693,24.604 445.693,23.722C445.693,22.84 444.973,22.12 444.073,22.12C443.209,22.12 442.489,22.84 442.489,23.722ZM451.132,23.848L448.684,23.848L448.684,25C448.684,25.828 448.234,26.458 447.298,26.458L446.848,26.458L446.848,28.852L448.432,28.852L448.432,32.686C448.432,34.468 449.566,35.566 451.42,35.566C452.284,35.566 452.734,35.368 452.842,35.314L452.842,33.046C452.68,33.082 452.41,33.136 452.122,33.136C451.528,33.136 451.132,32.938 451.132,32.2L451.132,28.852L452.878,28.852L452.878,26.458L451.132,26.458L451.132,23.848ZM456.885,30.148C456.939,29.32 457.497,28.708 458.361,28.708C459.351,28.708 459.819,29.374 459.819,30.256L459.819,35.404L462.555,35.404L462.555,29.788C462.555,27.826 461.511,26.224 459.171,26.224C458.379,26.224 457.443,26.476 456.885,27.034L456.885,22.372L454.149,22.372L454.149,35.404L456.885,35.404L456.885,30.148ZM467.59,35.404L467.59,30.256C467.59,29.446 468.112,28.708 469.066,28.708C470.056,28.708 470.506,29.374 470.506,30.22L470.506,35.404L473.206,35.404L473.206,30.238C473.206,29.446 473.728,28.708 474.7,28.708C475.672,28.708 476.122,29.374 476.122,30.22L476.122,35.404L478.768,35.404L478.768,29.608C478.768,27.178 477.148,26.188 475.456,26.188C474.25,26.188 473.386,26.584 472.684,27.592C472.234,26.71 471.316,26.188 470.038,26.188C469.066,26.188 467.914,26.692 467.464,27.484L467.464,26.458L464.854,26.458L464.854,35.404L467.59,35.404ZM480.341,32.866C480.413,33.856 481.313,35.674 484.121,35.674C486.515,35.674 487.685,34.18 487.685,32.65C487.685,31.336 486.785,30.22 484.931,29.842L483.743,29.608C483.347,29.536 483.041,29.32 483.041,28.942C483.041,28.474 483.491,28.168 484.013,28.168C484.841,28.168 485.219,28.672 485.291,29.266L487.559,28.852C487.469,27.808 486.569,26.188 483.977,26.188C481.979,26.188 480.539,27.52 480.539,29.158C480.539,30.418 481.295,31.498 483.203,31.912L484.229,32.146C484.895,32.29 485.111,32.56 485.111,32.884C485.111,33.28 484.769,33.658 484.067,33.658C483.131,33.658 482.699,33.064 482.663,32.452L480.341,32.866ZM496.629,35.404L496.629,26.458L493.893,26.458L493.893,35.404L496.629,35.404ZM493.659,23.722C493.659,24.604 494.379,25.324 495.243,25.324C496.143,25.324 496.863,24.604 496.863,23.722C496.863,22.84 496.143,22.12 495.243,22.12C494.379,22.12 493.659,22.84 493.659,23.722ZM501.762,30.274C501.762,29.374 502.338,28.708 503.238,28.708C504.228,28.708 504.696,29.374 504.696,30.256L504.696,35.404L507.432,35.404L507.432,29.788C507.432,27.826 506.424,26.224 504.174,26.224C503.256,26.224 502.158,26.638 501.672,27.484L501.672,26.458L499.026,26.458L499.026,35.404L501.762,35.404L501.762,30.274ZM518.283,28.708C519.345,28.708 519.885,29.356 520.083,30.04L522.531,29.302C522.135,27.7 520.695,26.188 518.229,26.188C515.601,26.188 513.513,28.15 513.513,30.94C513.513,33.712 515.655,35.674 518.319,35.674C520.713,35.674 522.189,34.126 522.585,32.56L520.173,31.822C519.975,32.488 519.381,33.154 518.319,33.154C517.185,33.154 516.231,32.362 516.231,30.94C516.231,29.5 517.149,28.708 518.283,28.708ZM526.986,30.148C527.04,29.32 527.598,28.708 528.462,28.708C529.452,28.708 529.92,29.374 529.92,30.256L529.92,35.404L532.656,35.404L532.656,29.788C532.656,27.826 531.612,26.224 529.272,26.224C528.48,26.224 527.544,26.476 526.986,27.034L526.986,22.372L524.25,22.372L524.25,35.404L526.986,35.404L526.986,30.148ZM534.416,32.938C534.416,34.36 535.55,35.656 537.512,35.656C538.7,35.656 539.564,35.152 540.032,34.396C540.032,35.008 540.104,35.332 540.122,35.404L542.588,35.404C542.57,35.314 542.48,34.72 542.48,34.018L542.48,29.644C542.48,27.808 541.418,26.188 538.52,26.188C535.892,26.188 534.704,27.88 534.596,29.158L536.972,29.644C537.026,28.978 537.548,28.33 538.502,28.33C539.366,28.33 539.816,28.78 539.816,29.302C539.816,29.608 539.654,29.842 539.168,29.914L537.062,30.238C535.586,30.454 534.416,31.354 534.416,32.938ZM538.178,33.676C537.422,33.676 537.116,33.226 537.116,32.758C537.116,32.128 537.548,31.858 538.124,31.768L539.816,31.498L539.816,31.894C539.816,33.28 538.988,33.676 538.178,33.676ZM550.47,26.458C550.29,26.404 550.02,26.368 549.75,26.368C549.03,26.368 547.896,26.656 547.428,27.664L547.428,26.458L544.782,26.458L544.782,35.404L547.518,35.404L547.518,31.498C547.518,29.716 548.508,29.068 549.606,29.068C549.876,29.068 550.164,29.086 550.47,29.158L550.47,26.458ZM551.394,35.908C551.646,37.51 553.284,39.094 555.858,39.094C559.206,39.094 560.646,36.862 560.646,34.288L560.646,26.458L558.036,26.458L558.036,27.412C557.784,26.944 557.01,26.296 555.552,26.296C553.104,26.296 551.394,28.312 551.394,30.67C551.394,33.154 553.176,35.026 555.552,35.026C556.848,35.026 557.622,34.504 557.946,34.018L557.946,34.432C557.946,36.052 557.1,36.718 555.732,36.718C554.706,36.718 553.986,36.088 553.806,35.224L551.394,35.908ZM556.056,32.65C554.958,32.65 554.13,31.894 554.13,30.67C554.13,29.446 555.03,28.69 556.056,28.69C557.082,28.69 557.964,29.446 557.964,30.67C557.964,31.894 557.172,32.65 556.056,32.65ZM565.027,29.86C565.081,29.194 565.657,28.348 566.809,28.348C568.105,28.348 568.573,29.176 568.609,29.86L565.027,29.86ZM568.807,32.182C568.555,32.884 567.997,33.352 567.007,33.352C565.945,33.352 565.027,32.632 564.973,31.624L571.201,31.624C571.219,31.57 571.255,31.156 571.255,30.778C571.255,27.898 569.545,26.188 566.773,26.188C564.451,26.188 562.309,28.024 562.309,30.904C562.309,33.91 564.505,35.674 566.971,35.674C569.239,35.674 570.661,34.378 571.093,32.83L568.807,32.182Z" style="fill:rgb(28,82,117);fill-rule:nonzero;"/>
    </g>
    <g id="label-human" class="fade-out">
        <path d="M67.176,37.404C67.172,37.404 67.165,37.404 67.155,37.403C67.129,37.401 67.086,37.397 67.031,37.388C66.917,37.369 66.78,37.333 66.655,37.27C66.534,37.21 66.444,37.135 66.381,37.041C66.323,36.954 66.25,36.792 66.25,36.488C66.25,35.786 66.629,34.126 68.113,32.643C69.568,31.188 72.169,29.821 76.75,29.821C81.331,29.821 83.932,31.188 85.386,32.643C86.87,34.126 87.25,35.786 87.25,36.488C87.25,36.792 87.177,36.954 87.118,37.041C87.056,37.135 86.965,37.21 86.844,37.27C86.719,37.333 86.582,37.369 86.468,37.388C86.413,37.397 86.37,37.401 86.344,37.403C86.334,37.404 86.327,37.404 86.324,37.404L67.176,37.404ZM80.109,24.513C79.218,25.404 78.01,25.904 76.75,25.904C75.49,25.904 74.282,25.404 73.391,24.513C72.5,23.622 72,22.414 72,21.154C72,19.895 72.5,18.686 73.391,17.796C74.282,16.905 75.49,16.404 76.75,16.404C78.01,16.404 79.218,16.905 80.109,17.796C80.999,18.686 81.5,19.895 81.5,21.154C81.5,22.414 80.999,23.622 80.109,24.513Z" style="fill:none;fill-rule:nonzero;stroke:rgb(28,82,117);stroke-width:2px;"/>
        <path d="M127.436,33.404L127.436,20.642L124.574,20.642L124.574,25.646L119.48,25.646L119.48,20.642L116.636,20.642L116.636,33.404L119.48,33.404L119.48,28.328L124.574,28.328L124.574,33.404L127.436,33.404ZM135.786,33.404L138.414,33.404C138.396,33.26 138.324,32.612 138.324,31.802L138.324,24.458L135.588,24.458L135.588,29.552C135.588,30.452 135.012,31.082 134.094,31.082C133.122,31.082 132.654,30.398 132.654,29.534L132.654,24.458L129.918,24.458L129.918,30.11C129.918,32.018 131.142,33.602 133.32,33.602C134.22,33.602 135.246,33.278 135.714,32.504C135.714,32.738 135.75,33.242 135.786,33.404ZM143.467,33.404L143.467,28.256C143.467,27.446 143.989,26.708 144.943,26.708C145.933,26.708 146.383,27.374 146.383,28.22L146.383,33.404L149.083,33.404L149.083,28.238C149.083,27.446 149.605,26.708 150.577,26.708C151.549,26.708 151.999,27.374 151.999,28.22L151.999,33.404L154.645,33.404L154.645,27.608C154.645,25.178 153.025,24.188 151.333,24.188C150.127,24.188 149.263,24.584 148.561,25.592C148.111,24.71 147.193,24.188 145.915,24.188C144.943,24.188 143.791,24.692 143.341,25.484L143.341,24.458L140.731,24.458L140.731,33.404L143.467,33.404ZM156.416,30.938C156.416,32.36 157.55,33.656 159.512,33.656C160.7,33.656 161.564,33.152 162.032,32.396C162.032,33.008 162.104,33.332 162.122,33.404L164.588,33.404C164.57,33.314 164.48,32.72 164.48,32.018L164.48,27.644C164.48,25.808 163.418,24.188 160.52,24.188C157.892,24.188 156.704,25.88 156.596,27.158L158.972,27.644C159.026,26.978 159.548,26.33 160.502,26.33C161.366,26.33 161.816,26.78 161.816,27.302C161.816,27.608 161.654,27.842 161.168,27.914L159.062,28.238C157.586,28.454 156.416,29.354 156.416,30.938ZM160.178,31.676C159.422,31.676 159.116,31.226 159.116,30.758C159.116,30.128 159.548,29.858 160.124,29.768L161.816,29.498L161.816,29.894C161.816,31.28 160.988,31.676 160.178,31.676ZM169.518,28.274C169.518,27.374 170.094,26.708 170.994,26.708C171.984,26.708 172.452,27.374 172.452,28.256L172.452,33.404L175.188,33.404L175.188,27.788C175.188,25.826 174.18,24.224 171.93,24.224C171.012,24.224 169.914,24.638 169.428,25.484L169.428,24.458L166.782,24.458L166.782,33.404L169.518,33.404L169.518,28.274ZM184.653,33.404L184.653,28.256C184.653,27.446 185.175,26.708 186.129,26.708C187.119,26.708 187.569,27.374 187.569,28.22L187.569,33.404L190.269,33.404L190.269,28.238C190.269,27.446 190.791,26.708 191.763,26.708C192.735,26.708 193.185,27.374 193.185,28.22L193.185,33.404L195.831,33.404L195.831,27.608C195.831,25.178 194.211,24.188 192.519,24.188C191.313,24.188 190.449,24.584 189.747,25.592C189.297,24.71 188.379,24.188 187.101,24.188C186.129,24.188 184.977,24.692 184.527,25.484L184.527,24.458L181.917,24.458L181.917,33.404L184.653,33.404ZM202.245,31.154C201.219,31.154 200.229,30.416 200.229,28.922C200.229,27.41 201.219,26.708 202.245,26.708C203.289,26.708 204.261,27.41 204.261,28.922C204.261,30.434 203.289,31.154 202.245,31.154ZM202.245,24.188C199.581,24.188 197.493,26.15 197.493,28.922C197.493,31.694 199.581,33.674 202.245,33.674C204.927,33.674 206.997,31.694 206.997,28.922C206.997,26.15 204.927,24.188 202.245,24.188ZM217.56,20.372L214.86,20.372L214.86,25.16C214.644,24.818 213.978,24.242 212.448,24.242C209.91,24.242 208.11,26.24 208.11,28.904C208.11,31.658 210.018,33.602 212.538,33.602C213.618,33.602 214.518,33.152 214.932,32.54C214.932,32.9 214.986,33.296 215.004,33.404L217.632,33.404C217.614,33.206 217.56,32.612 217.56,31.802L217.56,20.372ZM210.864,28.922C210.864,27.428 211.818,26.708 212.88,26.708C213.942,26.708 214.896,27.428 214.896,28.922C214.896,30.398 213.942,31.154 212.88,31.154C211.818,31.154 210.864,30.398 210.864,28.922ZM222.096,27.86C222.15,27.194 222.726,26.348 223.878,26.348C225.174,26.348 225.642,27.176 225.678,27.86L222.096,27.86ZM225.876,30.182C225.624,30.884 225.066,31.352 224.076,31.352C223.014,31.352 222.096,30.632 222.042,29.624L228.27,29.624C228.288,29.57 228.324,29.156 228.324,28.778C228.324,25.898 226.614,24.188 223.842,24.188C221.52,24.188 219.378,26.024 219.378,28.904C219.378,31.91 221.574,33.674 224.04,33.674C226.308,33.674 227.73,32.378 228.162,30.83L225.876,30.182ZM235.769,24.458C235.589,24.404 235.319,24.368 235.049,24.368C234.329,24.368 233.195,24.656 232.727,25.664L232.727,24.458L230.081,24.458L230.081,33.404L232.817,33.404L232.817,29.498C232.817,27.716 233.807,27.068 234.905,27.068C235.175,27.068 235.463,27.086 235.769,27.158L235.769,24.458ZM236.959,30.938C236.959,32.36 238.093,33.656 240.055,33.656C241.243,33.656 242.107,33.152 242.575,32.396C242.575,33.008 242.647,33.332 242.665,33.404L245.131,33.404C245.113,33.314 245.023,32.72 245.023,32.018L245.023,27.644C245.023,25.808 243.961,24.188 241.063,24.188C238.435,24.188 237.247,25.88 237.139,27.158L239.515,27.644C239.569,26.978 240.091,26.33 241.045,26.33C241.909,26.33 242.359,26.78 242.359,27.302C242.359,27.608 242.197,27.842 241.711,27.914L239.605,28.238C238.129,28.454 236.959,29.354 236.959,30.938ZM240.721,31.676C239.965,31.676 239.659,31.226 239.659,30.758C239.659,30.128 240.091,29.858 240.667,29.768L242.359,29.498L242.359,29.894C242.359,31.28 241.531,31.676 240.721,31.676ZM250.513,21.848L248.065,21.848L248.065,23C248.065,23.828 247.615,24.458 246.679,24.458L246.229,24.458L246.229,26.852L247.813,26.852L247.813,30.686C247.813,32.468 248.947,33.566 250.801,33.566C251.665,33.566 252.115,33.368 252.223,33.314L252.223,31.046C252.061,31.082 251.791,31.136 251.503,31.136C250.909,31.136 250.513,30.938 250.513,30.2L250.513,26.852L252.259,26.852L252.259,24.458L250.513,24.458L250.513,21.848ZM256.934,33.404L256.934,24.458L254.198,24.458L254.198,33.404L256.934,33.404ZM253.964,21.722C253.964,22.604 254.684,23.324 255.548,23.324C256.448,23.324 257.168,22.604 257.168,21.722C257.168,20.84 256.448,20.12 255.548,20.12C254.684,20.12 253.964,20.84 253.964,21.722ZM263.435,31.154C262.409,31.154 261.419,30.416 261.419,28.922C261.419,27.41 262.409,26.708 263.435,26.708C264.479,26.708 265.451,27.41 265.451,28.922C265.451,30.434 264.479,31.154 263.435,31.154ZM263.435,24.188C260.771,24.188 258.683,26.15 258.683,28.922C258.683,31.694 260.771,33.674 263.435,33.674C266.117,33.674 268.187,31.694 268.187,28.922C268.187,26.15 266.117,24.188 263.435,24.188ZM272.684,28.274C272.684,27.374 273.26,26.708 274.16,26.708C275.15,26.708 275.618,27.374 275.618,28.256L275.618,33.404L278.354,33.404L278.354,27.788C278.354,25.826 277.346,24.224 275.096,24.224C274.178,24.224 273.08,24.638 272.594,25.484L272.594,24.458L269.948,24.458L269.948,33.404L272.684,33.404L272.684,28.274Z" style="fill:rgb(28,82,117);fill-rule:nonzero;"/>
    </g>
</svg>
