<svg viewBox="0 0 273 109" fill="none"
xmlns="http://www.w3.org/2000/svg">
  <path d="M40.1258 54.2886H3.19996C1.68185 54.2886 0.431641 55.5137 0.431641 57.0507V66.6961C0.431641 68.2108 1.65952 69.4583 3.19996 69.4583H23.4935C24.7437 69.4583 25.1902 71.1289 24.0963 71.7304L5.61108 82.2445C4.02599 83.1355 3.73576 85.2962 5.03062 86.5882L15.5011 97.0355C16.796 98.3275 18.9839 98.0156 19.8545 96.434L30.2581 77.7225C30.8608 76.631 32.5575 77.0543 32.5575 78.324V98.7507C32.5575 100.265 33.7854 101.513 35.3259 101.513H44.9927C46.5108 101.513 47.761 100.288 47.761 98.7507V61.9068C47.694 57.6745 44.3006 54.2886 40.1258 54.2886Z"
  fill="white" />
  <path d="M47.694 8.95798V45.8018C47.694 47.3166 46.4661 48.564 44.9257 48.564H35.2589C33.7408 48.564 32.4906 47.3389 32.4906 45.8018V25.5533C32.4906 24.3059 30.8162 23.8604 30.2134 24.9519L19.6759 43.3961C18.7829 44.9776 16.6174 45.2672 15.3225 43.9752L4.89667 33.5503C3.60181 32.2583 3.91437 30.0753 5.49945 29.2065L24.2526 18.8261C25.3465 18.2246 24.9223 16.5317 23.6498 16.5317H3.17764C1.65952 16.5317 0.431641 15.2843 0.431641 13.7695V4.12418C0.431641 2.60944 1.65952 1.38428 3.19996 1.38428H40.1258C44.3006 1.38428 47.694 4.77017 47.694 8.95798Z"
  fill="white" />
  <path d="M93.1258 54.2886H56.2C54.6819 54.2886 53.4316 55.5137 53.4316 57.0507V66.6961C53.4316 68.2108 54.6595 69.4583 56.2 69.4583H76.4935C77.7437 69.4583 78.1902 71.1289 77.0963 71.7304L58.6111 82.2445C57.026 83.1355 56.7358 85.2962 58.0306 86.5882L68.5011 97.0355C69.796 98.3275 71.9839 98.0156 72.8545 96.434L83.2581 77.7225C83.8608 76.631 85.5575 77.0543 85.5575 78.324V98.7507C85.5575 100.265 86.7854 101.513 88.3259 101.513H97.9927C99.5108 101.513 100.761 100.288 100.761 98.7507V61.9068C100.716 57.6745 97.3229 54.2886 93.1258 54.2886Z"
  fill="white" />
  <path d="M77.074 48.5635C90.1313 48.5635 100.716 38.002 100.716 24.9737C100.716 11.9453 90.1313 1.38379 77.074 1.38379C64.0167 1.38379 53.4316 11.9453 53.4316 24.9737C53.4316 38.002 64.0167 48.5635 77.074 48.5635Z"
  fill="#EB6A5B" />
  <path d="M149.028 23.1917C149.653 23.4812 150.412 23.6149 151.327 23.5926V28.4264C148.648 28.4264 146.483 28.07 144.831 27.3572C143.179 26.6444 142.353 25.2633 142.353 23.2139V22.2784C142.353 21.3651 142.018 20.5854 141.348 19.9394C140.678 19.2934 139.696 18.9593 138.379 18.9593H135.119V28.1591H129.359V1.27246H140.187C143.38 1.27246 145.992 1.94073 148.068 3.27727C150.144 4.6138 151.171 6.64088 151.171 9.35851C151.171 11.5861 150.613 13.2345 149.497 14.3037C148.38 15.3952 147.175 16.0635 145.88 16.3085C144.585 16.5535 143.223 16.6872 141.839 16.6872V17.2886C143.915 17.3109 145.478 17.5559 146.527 18.046C147.577 18.5361 148.09 19.3603 148.09 20.5409V21.7215C148.113 22.412 148.425 22.9021 149.028 23.1917ZM143.692 13.4795C144.741 12.8781 145.255 11.8757 145.255 10.45C145.255 9.0021 144.764 7.95514 143.759 7.30915C142.754 6.66316 141.281 6.32902 139.339 6.32902H135.097V14.3928H139.339C141.192 14.3928 142.643 14.0809 143.692 13.4795Z"
  fill="white" />
  <path d="M158.315 27.8034C157.266 27.3133 156.418 26.5782 155.77 25.6203C155.123 24.6625 154.81 23.5487 154.81 22.2567C154.81 20.7643 155.123 19.6059 155.748 18.7595C156.373 17.913 157.288 17.2893 158.449 16.8883C159.632 16.4873 161.173 16.1978 163.093 16.0196C164.633 15.8636 165.66 15.6409 166.196 15.3513C166.732 15.0617 167 14.7944 167 14.5716V14.4603C167 13.9479 166.754 13.4801 166.241 13.0123C165.727 12.5446 164.879 12.3218 163.673 12.3218C162.49 12.3218 161.508 12.5446 160.771 12.9901C160.034 13.4356 159.655 14.0148 159.655 14.7053L154.431 15.6186C154.431 14.2821 154.766 13.0123 155.458 11.7872C156.15 10.562 157.154 9.5819 158.494 8.82453C159.833 8.06716 161.441 7.68848 163.316 7.68848C165.794 7.68848 167.714 8.15626 169.054 9.09184C170.415 10.0274 171.286 11.0521 171.733 12.1882C172.157 13.3242 172.38 14.3712 172.38 15.329V26.1995C172.38 26.5336 172.402 26.8455 172.447 27.1351C172.492 27.4469 172.536 27.6697 172.603 27.8256V28.1375H167.268C167.111 27.8256 167.044 27.4024 167.044 26.8232C167.044 25.999 167.312 25.2194 167.87 24.4843L167.268 24.3729C166.843 25.8877 166.196 26.9569 165.325 27.6029C164.455 28.2489 163.227 28.5607 161.619 28.5607C160.458 28.5385 159.365 28.2934 158.315 27.8034ZM165.861 23.0809C166.643 22.6131 167.044 21.7444 167.044 20.4524V18.0021C166.799 18.8931 165.571 19.45 163.361 19.6728C162.066 19.7841 161.173 19.9846 160.659 20.2965C160.146 20.6083 159.9 21.0761 159.9 21.7221C159.9 22.4795 160.213 23.0141 160.838 23.326C161.463 23.6378 162.111 23.7937 162.736 23.7937C164.053 23.7715 165.08 23.5487 165.861 23.0809Z"
  fill="white" />
  <path d="M181.489 8.44585C181.556 8.75771 181.6 9.09184 181.6 9.51508C181.6 10.5843 181.31 11.6535 180.73 12.7228L181.332 12.8341C181.89 11.0966 182.649 9.80466 183.587 8.95819C184.525 8.11171 185.887 7.68848 187.673 7.68848C190.285 7.68848 192.16 8.46812 193.299 10.0051C194.46 11.5422 195.018 14.037 195.018 17.4897V28.1152H189.905V20.1405C189.905 18.1135 189.816 16.5987 189.66 15.574C189.503 14.5494 189.168 13.8143 188.722 13.3688C188.253 12.9232 187.539 12.6782 186.534 12.6782C185.128 12.6782 183.922 13.2128 182.962 14.2598C181.98 15.329 181.511 16.9551 181.511 19.1827V28.1152H176.398V8.44585H181.489Z"
  fill="white" />
  <path d="M204.283 0.359375V15.2618L212.633 8.44542H219.263L211.048 15.1727L217.433 26.1991C217.611 26.5109 217.835 26.8451 218.103 27.2015C218.37 27.5579 218.594 27.8029 218.795 27.892V28.1148H213.414C212.968 27.8698 212.521 27.3351 212.097 26.5555L208.793 20.9643C208.391 20.2738 208.19 19.6055 208.19 18.9595C208.19 18.3803 208.369 17.9794 208.748 17.7566L208.436 17.2666L204.261 20.7193V28.1371H199.148V0.359375H204.283Z"
  fill="white" />
  <path d="M227.009 0.359375V5.95055H221.428V0.359375H227.009ZM226.763 8.44542V28.1148H221.651V8.44542H226.763Z"
  fill="white" />
  <path d="M236.096 8.44585C236.163 8.75771 236.208 9.09184 236.208 9.51508C236.208 10.5843 235.917 11.6535 235.337 12.7228L235.94 12.8341C236.498 11.0966 237.257 9.80466 238.195 8.95819C239.132 8.11171 240.494 7.68848 242.28 7.68848C244.892 7.68848 246.767 8.46812 247.906 10.0051C249.067 11.5422 249.625 14.037 249.625 17.4897V28.1152H244.513V20.1405C244.513 18.1135 244.423 16.5987 244.267 15.574C244.111 14.5494 243.776 13.8143 243.329 13.3688C242.861 12.9232 242.146 12.6782 241.141 12.6782C239.735 12.6782 238.529 13.2128 237.569 14.2598C236.587 15.329 236.118 16.9551 236.118 19.1827V28.1152H231.006V8.44585H236.096Z"
  fill="white" />
  <path d="M254.068 13.1235C254.827 11.5642 255.877 10.339 257.239 9.42571C258.6 8.51241 260.141 8.06689 261.882 8.06689C263.4 8.06689 264.584 8.35648 265.454 8.95792C266.325 9.55936 267.173 10.4949 267.977 11.8092V8.44558H272.688V26.1547C272.688 28.0258 272.219 29.652 271.259 31.0331C270.321 32.4141 269.049 33.4834 267.463 34.2185C265.878 34.9536 264.182 35.31 262.329 35.31C260.587 35.31 259.047 35.0204 257.752 34.4189C256.435 33.8175 255.386 33.0824 254.604 32.1914C253.823 31.3004 253.287 30.3871 253.019 29.4515L257.64 28.6941C257.841 29.3401 258.377 29.9193 259.203 30.3871C260.052 30.8548 261.101 31.0999 262.329 31.0999C264.092 31.0999 265.477 30.6989 266.481 29.897C267.486 29.0951 267.977 27.7363 267.977 25.8206V24.3726L267.597 24.2613C267.218 25.4864 266.526 26.4888 265.521 27.2462C264.517 28.0036 263.289 28.3823 261.882 28.3823C260.275 28.3823 258.757 27.9367 257.395 27.0234C256.011 26.1101 254.939 24.885 254.135 23.3257C253.332 21.7664 252.952 20.0735 252.952 18.2469C252.93 16.3757 253.309 14.6828 254.068 13.1235ZM259.203 22.2342C260.029 23.2589 261.235 23.7935 262.864 23.7935C264.561 23.7935 265.901 23.2811 266.883 22.2787C267.865 21.2763 268.356 19.9398 268.356 18.3137C268.356 16.6653 267.865 15.351 266.883 14.3486C265.901 13.3462 264.561 12.8339 262.864 12.8339C261.257 12.8339 260.029 13.3685 259.203 14.3932C258.377 15.4401 257.975 16.7544 257.975 18.3137C257.975 19.873 258.377 21.1872 259.203 22.2342Z"
  fill="white" />
  <path d="M128.622 37.8267H138.512C141.437 37.8267 143.959 38.4058 146.036 39.5864C148.112 40.767 149.697 42.3709 150.746 44.398C151.818 46.425 152.331 48.7194 152.331 51.2589C152.331 53.7983 151.796 56.0927 150.746 58.1197C149.675 60.1468 148.112 61.7507 146.036 62.9313C143.959 64.1119 141.437 64.691 138.512 64.691H128.622V37.8267ZM144.361 57.5183C145.812 56.1595 146.527 54.0879 146.527 51.2589C146.527 48.4521 145.812 46.3805 144.361 44.9994C142.91 43.6183 140.678 42.9278 137.641 42.9278H134.382V59.5231H137.641C140.678 59.5454 142.91 58.8771 144.361 57.5183Z"
  fill="white" />
  <path d="M161.44 36.9355V42.5267H155.858V36.9355H161.44ZM161.172 45.0216V64.691H156.059V45.0216H161.172Z"
  fill="white" />
  <path d="M166.017 49.6996C166.776 48.1403 167.825 46.9152 169.187 46.0019C170.549 45.0886 172.089 44.6431 173.83 44.6431C175.348 44.6431 176.532 44.9326 177.402 45.5341C178.273 46.1355 179.121 47.0711 179.925 48.3854V45.0218H184.613V62.7309C184.613 64.602 184.145 66.2281 183.185 67.6092C182.247 68.9903 180.974 70.0595 179.389 70.7946C177.804 71.5297 176.107 71.8861 174.254 71.8861C172.513 71.8861 170.973 71.5966 169.678 70.9951C168.361 70.3937 167.311 69.6586 166.53 68.7676C165.749 67.8765 165.213 66.9632 164.945 66.0277L169.566 65.2703C169.767 65.9163 170.303 66.4954 171.129 66.9632C171.977 67.431 173.027 67.6761 174.254 67.6761C176.018 67.6761 177.402 67.2751 178.407 66.4732C179.412 65.6712 179.903 64.3124 179.903 62.3967V60.9488L179.523 60.8374C179.144 62.0626 178.452 63.065 177.447 63.8224C176.442 64.5797 175.214 64.9584 173.808 64.9584C172.201 64.9584 170.682 64.5129 169.321 63.5996C167.936 62.6863 166.865 61.4611 166.061 59.9019C165.257 58.3426 164.878 56.6496 164.878 54.823C164.878 52.9519 165.257 51.2366 166.017 49.6996ZM171.151 58.7881C171.977 59.8128 173.183 60.3474 174.813 60.3474C176.509 60.3474 177.849 59.835 178.831 58.8326C179.813 57.8302 180.305 56.4937 180.305 54.8676C180.305 53.2192 179.813 51.9049 178.831 50.9025C177.849 49.9001 176.509 49.3878 174.813 49.3878C173.205 49.3878 171.977 49.9224 171.151 50.9471C170.325 51.994 169.923 53.3083 169.923 54.8676C169.923 56.4491 170.325 57.7634 171.151 58.7881Z"
  fill="white" />
  <path d="M195.285 36.9355V42.5267H189.704V36.9355H195.285ZM195.017 45.0216V64.691H189.905V45.0216H195.017Z"
  fill="white" />
  <path d="M203.232 63.7999C202.272 62.8197 201.781 61.4387 201.781 59.6566V49.6326H198.901V45.0215H199.281C200.353 45.0215 201.201 44.7097 201.848 44.1082C202.496 43.5068 202.942 42.794 203.188 42.0143C203.433 41.2124 203.567 40.5219 203.567 39.9204H208.881C208.881 40.5441 208.724 41.2347 208.434 41.9475C208.144 42.6603 207.653 43.284 206.983 43.7964C206.291 44.3087 205.42 44.576 204.371 44.576V45.0215H211.604V49.6326H206.827V58.4537C206.827 59.2556 206.916 59.8348 207.072 60.1912C207.229 60.5476 207.586 60.7258 208.122 60.7258C208.524 60.7258 208.903 60.6367 209.216 60.4585C209.55 60.2803 209.952 60.0353 210.466 59.7012L211.872 64.134C211.493 64.4013 210.912 64.6686 210.109 64.9136C209.305 65.1587 208.479 65.2701 207.586 65.2701C205.644 65.2478 204.192 64.78 203.232 63.7999Z"
  fill="white" />
  <path d="M218.503 64.3795C217.453 63.8895 216.605 63.1544 215.958 62.1965C215.31 61.2387 214.998 60.1249 214.998 58.8329C214.998 57.3404 215.31 56.1821 215.935 55.3356C216.56 54.4892 217.476 53.8654 218.637 53.4645C219.82 53.0635 221.36 52.7739 223.28 52.5957C224.821 52.4398 225.848 52.217 226.384 51.9275C226.919 51.6379 227.187 51.3706 227.187 51.1478V51.0364C227.187 50.5241 226.942 50.0563 226.428 49.5885C225.915 49.1207 225.066 48.898 223.861 48.898C222.678 48.898 221.695 49.1207 220.959 49.5662C220.222 50.0118 219.842 50.5909 219.842 51.2815L214.618 52.1948C214.618 50.8582 214.953 49.5885 215.645 48.3634C216.337 47.1382 217.342 46.1581 218.681 45.4007C220.021 44.6433 221.628 44.2646 223.504 44.2646C225.982 44.2646 227.902 44.7324 229.241 45.668C230.603 46.6036 231.474 47.6283 231.92 48.7643C232.344 49.9004 232.568 50.9473 232.568 51.9052V62.798C232.568 63.1321 232.59 63.444 232.635 63.7335C232.679 64.0454 232.724 64.2682 232.791 64.4241V64.7359H227.455C227.299 64.4241 227.232 64.0008 227.232 63.4217C227.232 62.5975 227.5 61.8178 228.058 61.0827L227.455 60.9714C227.031 62.4861 226.384 63.5553 225.513 64.2013C224.642 64.8473 223.414 65.1592 221.807 65.1592C220.646 65.1146 219.552 64.8696 218.503 64.3795ZM226.049 59.6348C226.83 59.167 227.232 58.2983 227.232 57.0063V54.556C226.986 55.447 225.758 56.0039 223.548 56.2267C222.253 56.338 221.36 56.5385 220.847 56.8504C220.333 57.1622 220.088 57.63 220.088 58.276C220.088 59.0334 220.4 59.568 221.025 59.8799C221.651 60.1917 222.298 60.3476 222.923 60.3476C224.24 60.3476 225.267 60.1026 226.049 59.6348Z"
  fill="white" />
  <path d="M236.52 37.8267H241.61V64.691H236.52V37.8267Z"
  fill="white" />
  <path d="M149.028 96.3225C149.653 96.6121 150.412 96.7458 151.327 96.7235V101.557C148.648 101.557 146.483 101.201 144.831 100.488C143.179 99.7752 142.353 98.3942 142.353 96.3448V95.4092C142.353 94.4959 142.018 93.7163 141.348 93.0703C140.678 92.4243 139.696 92.0902 138.379 92.0902H135.119V101.29H129.359V74.4033H140.187C143.38 74.4033 145.992 75.0716 148.068 76.4081C150.144 77.7447 151.171 79.7717 151.171 82.4894C151.171 84.7169 150.613 86.3653 149.497 87.4346C148.38 88.5261 147.175 89.1943 145.88 89.4394C144.585 89.6844 143.223 89.818 141.839 89.818V90.4195C143.915 90.4418 145.478 90.6868 146.527 91.1769C147.577 91.6669 148.09 92.4911 148.09 93.6717V94.8523C148.113 95.5429 148.425 96.0329 149.028 96.3225ZM143.692 86.6104C144.741 86.0089 145.255 85.0065 145.255 83.5809C145.255 82.133 144.764 81.086 143.759 80.44C142.754 79.794 141.281 79.4599 139.339 79.4599H135.097V87.5237H139.339C141.192 87.5237 142.643 87.2118 143.692 86.6104Z"
  fill="white" />
  <path d="M160.816 73.4902V79.0814H155.234V73.4902H160.816ZM160.548 81.5763V101.246H155.435V81.5763H160.548Z"
  fill="white" />
  <path d="M165.638 86.2543C166.397 84.695 167.446 83.4699 168.808 82.5566C170.17 81.6433 171.71 81.1978 173.451 81.1978C174.97 81.1978 176.153 81.4873 177.023 82.0888C177.894 82.6902 178.743 83.6258 179.546 84.9401V81.5764H184.257V99.2856C184.257 101.157 183.788 102.783 182.828 104.164C181.89 105.545 180.618 106.614 179.033 107.349C177.448 108.084 175.751 108.441 173.898 108.441C172.157 108.441 170.616 108.151 169.321 107.55C168.004 106.948 166.955 106.213 166.174 105.322C165.392 104.431 164.856 103.518 164.588 102.582L169.21 101.825C169.411 102.471 169.946 103.05 170.772 103.518C171.621 103.986 172.67 104.231 173.898 104.231C175.662 104.231 177.046 103.83 178.05 103.028C179.055 102.226 179.546 100.867 179.546 98.9514V97.5035L179.167 97.3921C178.787 98.6173 178.095 99.6197 177.09 100.377C176.086 101.134 174.858 101.513 173.451 101.513C171.844 101.513 170.326 101.068 168.964 100.154C167.58 99.241 166.508 98.0158 165.705 96.4565C164.901 94.8973 164.521 93.2043 164.521 91.3777C164.499 89.5288 164.879 87.8136 165.638 86.2543ZM170.772 95.365C171.598 96.3897 172.804 96.9243 174.434 96.9243C176.13 96.9243 177.47 96.412 178.452 95.4096C179.435 94.4072 179.926 93.0707 179.926 91.4445C179.926 89.7961 179.435 88.4819 178.452 87.4795C177.47 86.4771 176.13 85.9647 174.434 85.9647C172.826 85.9647 171.598 86.4993 170.772 87.524C169.946 88.571 169.545 89.8852 169.545 91.4445C169.522 93.0038 169.946 94.3181 170.772 95.365Z"
  fill="white" />
  <path d="M193.901 74.4033L193.857 82.2666C193.857 83.5363 193.566 84.6947 192.986 85.7416L193.589 85.853C194.125 84.0709 194.884 82.779 195.911 81.9993C196.915 81.2197 198.255 80.8187 199.884 80.8187C201.849 80.8187 203.434 81.1306 204.595 81.7766C205.756 82.4225 206.627 83.4695 207.162 84.9174C207.698 86.3653 207.966 88.3479 207.966 90.8427V101.245H202.854V93.0035C202.854 90.9096 202.764 89.3948 202.608 88.437C202.452 87.4791 202.095 86.8108 201.581 86.4099C201.068 86.0089 200.242 85.8307 199.103 85.8307C197.719 85.8307 196.513 86.3208 195.509 87.2786C194.504 88.2365 193.968 89.9962 193.946 92.5357L193.879 101.268H188.767V74.4033H193.901Z"
  fill="white" />
  <path d="M215.489 100.377C214.529 99.3969 214.038 98.0158 214.038 96.2338V86.2097H211.158V81.5987H211.538C212.609 81.5987 213.458 81.2868 214.105 80.6854C214.753 80.0839 215.199 79.3711 215.445 78.5915C215.69 77.7895 215.824 77.099 215.824 76.4976H221.138C221.138 77.1213 220.981 77.8118 220.691 78.5246C220.401 79.2375 219.91 79.8612 219.24 80.3735C218.548 80.8859 217.677 81.1532 216.628 81.1532V81.5987H223.861V86.2097H219.084V95.0309C219.084 95.8328 219.173 96.412 219.329 96.7684C219.485 97.1248 219.843 97.303 220.378 97.303C220.78 97.303 221.16 97.2139 221.472 97.0357C221.807 96.8575 222.209 96.6124 222.723 96.2783L224.129 100.711C223.75 100.978 223.169 101.246 222.365 101.491C221.562 101.736 220.736 101.847 219.843 101.847C217.9 101.825 216.449 101.335 215.489 100.377Z"
  fill="white" />
  <path d="M239.334 81.7542C240.606 82.4002 241.566 83.2913 242.258 84.405C242.95 85.5188 243.285 86.7885 243.285 88.1696L238.508 87.8578C238.508 87.0336 238.195 86.343 237.57 85.7861C236.945 85.2292 236.074 84.9397 234.936 84.9174C233.953 84.9174 233.15 85.0733 232.525 85.4074C231.899 85.7416 231.587 86.2094 231.587 86.8553C231.587 87.4345 231.743 87.88 232.078 88.1696C232.413 88.4592 233.083 88.7042 234.132 88.8602L236.677 89.1943C239.021 89.5284 240.718 90.2412 241.767 91.3773C242.794 92.4911 243.33 93.9167 243.33 95.5874C243.33 96.8571 242.95 97.9486 242.169 98.8619C241.388 99.7752 240.383 100.488 239.155 100.956C237.927 101.424 236.61 101.669 235.204 101.669C233.685 101.669 232.301 101.379 231.029 100.778C229.756 100.176 228.752 99.3297 228.015 98.1936C227.278 97.0576 226.899 95.6988 226.899 94.1395L231.788 94.6741C231.788 95.6319 232.145 96.3448 232.859 96.8348C233.574 97.3249 234.355 97.5476 235.204 97.5476C236.141 97.5476 236.923 97.3694 237.548 97.013C238.173 96.6566 238.485 96.1666 238.485 95.4983C238.485 94.9414 238.262 94.5182 237.793 94.2509C237.324 93.9835 236.521 93.7385 235.382 93.538L233.44 93.2707C230.783 92.8252 229.019 92.001 228.104 90.8204C227.211 89.6398 226.765 88.2364 226.765 86.6326C226.765 84.7614 227.524 83.3358 229.042 82.3111C230.56 81.3087 232.525 80.7964 234.913 80.7964C236.61 80.7964 238.084 81.1082 239.334 81.7542Z"
  fill="white" />
</svg>
