<svg viewBox="0 0 302 42" fill="none" xmlns="http://www.w3.org/2000/svg">
<path d="M14.867 21.8101H1.03461C0.898936 21.8095 0.76449 21.8361 0.638988 21.8881C0.513486 21.9402 0.3994 22.0168 0.303274 22.1135C0.207148 22.2103 0.130876 22.3252 0.0788322 22.4518C0.0267887 22.5784 -1.03512e-06 22.7141 0 22.8511L0 26.5111C0 26.7883 0.109004 27.0541 0.303031 27.2501C0.497059 27.4461 0.760217 27.5562 1.03461 27.5562H8.6352C8.73463 27.559 8.83047 27.5944 8.90829 27.657C8.98611 27.7196 9.0417 27.806 9.06668 27.9032C9.09166 28.0005 9.08468 28.1033 9.04679 28.1962C9.0089 28.2892 8.94216 28.3671 8.85661 28.4184L1.93638 32.4078C1.80142 32.4878 1.68618 32.5976 1.59933 32.7291C1.51248 32.8606 1.45629 33.0102 1.43497 33.1668C1.41366 33.3234 1.42778 33.4828 1.47628 33.6331C1.52478 33.7834 1.60638 33.9206 1.71496 34.0344L5.63603 38.0116C5.74929 38.1257 5.88718 38.2117 6.03888 38.2628C6.19058 38.314 6.35196 38.3289 6.51033 38.3064C6.66871 38.284 6.81978 38.2247 6.95167 38.1334C7.08356 38.042 7.19268 37.921 7.27047 37.7798L11.1674 30.6835C11.2173 30.5952 11.2946 30.5258 11.3874 30.4863C11.4801 30.4467 11.5832 30.439 11.6807 30.4644C11.7782 30.4899 11.8647 30.547 11.9269 30.627C11.9891 30.707 12.0235 30.8055 12.0249 30.9072V38.6338C12.0249 38.911 12.1339 39.1768 12.3279 39.3728C12.5219 39.5688 12.7851 39.6789 13.0595 39.6789H16.6826C16.9529 39.6779 17.212 39.5701 17.4046 39.3786C17.5972 39.1871 17.708 38.9271 17.7132 38.6541V24.6811C17.7132 24.3037 17.6396 23.9301 17.4965 23.5815C17.3534 23.2329 17.1437 22.9162 16.8794 22.6495C16.615 22.3829 16.3012 22.1715 15.9559 22.0274C15.6106 21.8834 15.2406 21.8095 14.867 21.8101Z" fill="#1C5275"/>
<path d="M17.7134 4.60789V18.589C17.7161 18.728 17.6913 18.8661 17.6405 18.9952C17.5897 19.1244 17.5139 19.242 17.4176 19.3412C17.3213 19.4405 17.2063 19.5193 17.0794 19.573C16.9526 19.6268 16.8164 19.6545 16.6788 19.6545H13.0557C12.7813 19.6545 12.5181 19.5444 12.3241 19.3484C12.13 19.1524 12.021 18.8866 12.021 18.6094V10.9112C12.0191 10.8104 11.9847 10.713 11.9231 10.6338C11.8614 10.5545 11.7759 10.4977 11.6794 10.4719C11.5829 10.4462 11.4808 10.4529 11.3884 10.4911C11.2961 10.5293 11.2185 10.5968 11.1676 10.6835L7.21431 17.6781C7.13513 17.8144 7.02637 17.9309 6.89622 18.0186C6.76606 18.1063 6.6179 18.1631 6.46289 18.1846C6.30788 18.2061 6.15005 18.1919 6.00128 18.1429C5.85252 18.0939 5.71669 18.0115 5.60402 17.9018L1.67088 13.9612C1.55796 13.8468 1.47284 13.7075 1.4222 13.5542C1.37156 13.401 1.35678 13.238 1.37901 13.078C1.40125 12.918 1.45989 12.7654 1.55035 12.6322C1.64081 12.4989 1.76061 12.3887 1.90035 12.3101L8.92525 8.37361C9.01271 8.32319 9.08133 8.2451 9.12052 8.15139C9.15971 8.05769 9.16731 7.95356 9.14213 7.85506C9.11695 7.75657 9.0604 7.66917 8.9812 7.60634C8.90199 7.54352 8.80453 7.50876 8.70384 7.50741H1.05494C0.915679 7.51018 0.777298 7.48451 0.648094 7.43194C0.51889 7.37937 0.401524 7.301 0.303031 7.2015C0.204539 7.10201 0.126948 6.98345 0.0749116 6.85293C0.0228747 6.72241 -0.00253706 6.58263 0.000199744 6.44195V2.78196C0.00650936 2.50903 0.118292 2.24942 0.31164 2.05867C0.504988 1.86791 0.764551 1.76116 1.03481 1.76123H14.8672C15.6172 1.76119 16.3369 2.0602 16.8699 2.59325C17.4029 3.12629 17.706 3.8503 17.7134 4.60789Z" fill="#1C5275"/>
<path d="M34.7343 21.8101H20.8979C20.7622 21.8095 20.6278 21.8361 20.5023 21.8881C20.3768 21.9402 20.2627 22.0168 20.1666 22.1135C20.0704 22.2103 19.9942 22.3252 19.9421 22.4518C19.8901 22.5784 19.8633 22.7141 19.8633 22.8511V26.5111C19.8633 26.7883 19.9723 27.0541 20.1663 27.2501C20.3603 27.4461 20.6235 27.5562 20.8979 27.5562H28.4985C28.5995 27.5567 28.6976 27.5909 28.7774 27.6534C28.8573 27.7159 28.9145 27.8033 28.9402 27.902C28.9659 28.0007 28.9586 28.1052 28.9195 28.1993C28.8804 28.2934 28.8117 28.3718 28.7239 28.4224L21.7997 32.4118C21.6647 32.4918 21.5495 32.6017 21.4626 32.7332C21.3758 32.8646 21.3196 33.0143 21.2983 33.1709C21.2769 33.3275 21.2911 33.4869 21.3396 33.6372C21.3881 33.7875 21.4697 33.9247 21.5782 34.0385L25.4993 37.9994C25.6126 38.1135 25.7505 38.1995 25.9022 38.2506C26.0539 38.3018 26.2152 38.3167 26.3736 38.2942C26.532 38.2718 26.6831 38.2125 26.8149 38.1212C26.9468 38.0298 27.056 37.9088 27.1338 37.7676L31.0307 30.6713C31.0806 30.583 31.1579 30.5136 31.2506 30.474C31.3434 30.4345 31.4465 30.4268 31.544 30.4522C31.6415 30.4777 31.728 30.5348 31.7902 30.6148C31.8524 30.6948 31.8868 30.7933 31.8881 30.895V38.6216C31.8881 38.8988 31.9972 39.1646 32.1912 39.3606C32.3852 39.5566 32.6484 39.6667 32.9228 39.6667H36.5459C36.8203 39.6667 37.0835 39.5566 37.2775 39.3606C37.4715 39.1646 37.5805 38.8988 37.5805 38.6216V24.6811C37.5795 23.9193 37.2791 23.189 36.7455 22.6507C36.2118 22.1124 35.4885 21.8101 34.7343 21.8101V21.8101Z" fill="#1C5275"/>
<rect x="19.7451" y="2.06104" width="17.8359" height="17.8359" rx="8.91797" fill="#E75C64"/>
<rect x="23.7451" y="16.2034" width="5.87761" height="2.61227" rx="1.30614" transform="rotate(-90 23.7451 16.2034)" fill="white"/>
<rect x="27.3574" y="16.2034" width="8.48988" height="2.61227" rx="1.30614" transform="rotate(-90 27.3574 16.2034)" fill="white"/>
<rect x="30.9697" y="16.2034" width="10.4491" height="2.61227" rx="1.30614" transform="rotate(-90 30.9697 16.2034)" fill="white"/>
<path d="M59.2019 0V2.8944H55.0979V15.336H51.8363V2.8944H47.7107V0H59.2019Z" fill="#1C5275"/>
<path d="M63.1121 0L63.0905 4.4928C63.0905 5.2128 62.9249 5.8752 62.5937 6.48L62.9393 6.5448C63.2417 5.5224 63.6809 4.788 64.2569 4.3416C64.8329 3.8952 65.5889 3.672 66.5249 3.672C67.6481 3.672 68.5409 3.8592 69.2033 4.2336C69.8801 4.5936 70.3697 5.1912 70.6721 6.0264C70.9745 6.8472 71.1257 7.9704 71.1257 9.396V15.336H68.2097V10.6272C68.2097 9.432 68.1593 8.5608 68.0585 8.0136C67.9721 7.4664 67.7777 7.0848 67.4753 6.8688C67.1873 6.6384 66.7193 6.5232 66.0713 6.5232C65.2793 6.5232 64.5953 6.7968 64.0193 7.344C63.4433 7.8912 63.1481 8.892 63.1337 10.3464L63.0905 15.336H60.1745V0H63.1121Z" fill="#1C5275"/>
<path d="M78.0435 13.1112C78.6915 13.1112 79.1955 12.9528 79.5555 12.636C79.9299 12.3048 80.1819 11.9016 80.3115 11.4264L83.0979 12.0744C82.9971 12.6504 82.7163 13.212 82.2555 13.7592C81.8091 14.292 81.2259 14.724 80.5059 15.0552C79.7859 15.3864 78.9939 15.552 78.1299 15.552C77.0643 15.552 76.0923 15.3216 75.2139 14.8608C74.3499 14.3856 73.6587 13.7016 73.1403 12.8088C72.6363 11.9016 72.3843 10.8216 72.3843 9.5688C72.3843 7.8696 72.8235 6.4728 73.7019 5.3784C74.5803 4.2696 75.9627 3.7152 77.8491 3.7152C79.1307 3.7152 80.1603 3.9672 80.9379 4.4712C81.7155 4.9608 82.2699 5.5872 82.6011 6.3504C82.9323 7.1136 83.1051 7.9272 83.1195 8.7912C83.1483 9.5256 83.0763 10.0872 82.9035 10.476L75.2787 10.5408C75.4227 11.3904 75.7467 12.0312 76.2507 12.4632C76.7547 12.8952 77.3523 13.1112 78.0435 13.1112ZM77.8923 6.1128C77.1435 6.1128 76.5603 6.2856 76.1427 6.6312C75.7251 6.9768 75.4443 7.524 75.3003 8.2728L80.4411 8.2296C80.4411 7.6536 80.1963 7.1568 79.7067 6.7392C79.2315 6.3216 78.6267 6.1128 77.8923 6.1128Z" fill="#1C5275"/>
<path d="M99.6435 11.6856C99.6435 12.0744 99.8163 12.3552 100.162 12.528C100.522 12.6864 100.961 12.7584 101.479 12.744V15.5088C99.9531 15.5088 98.7147 15.3072 97.7643 14.904C96.8283 14.4864 96.3603 13.6944 96.3603 12.528V11.988C96.3603 11.4696 96.1659 11.0232 95.7771 10.6488C95.4027 10.2744 94.8411 10.0872 94.0923 10.0872H92.2347V15.336H88.9515V0H95.1291C96.9435 0 98.4411 0.3816 99.6219 1.1448C100.803 1.908 101.393 3.0672 101.393 4.6224C101.393 5.8896 101.076 6.8328 100.443 7.452C99.8091 8.0712 99.1179 8.4528 98.3691 8.5968C97.6347 8.7408 96.8715 8.8128 96.0795 8.8128V9.1584C97.2603 9.1728 98.1459 9.3168 98.7363 9.5904C99.3411 9.864 99.6435 10.3392 99.6435 11.016V11.6856ZM94.6539 7.4952C95.7051 7.4952 96.5259 7.3224 97.1163 6.9768C97.7211 6.6312 98.0235 6.0552 98.0235 5.2488C98.0235 4.428 97.7355 3.8304 97.1595 3.456C96.5979 3.0816 95.7627 2.8944 94.6539 2.8944H92.2347V7.4952H94.6539Z" fill="#1C5275"/>
<path d="M106.175 15.5736C105.527 15.5736 104.901 15.4368 104.296 15.1632C103.706 14.8752 103.223 14.4576 102.849 13.9104C102.489 13.3632 102.309 12.7224 102.309 11.988C102.309 11.1384 102.489 10.476 102.849 10.0008C103.209 9.5112 103.72 9.1512 104.382 8.9208C105.059 8.6904 105.945 8.5248 107.039 8.424C107.918 8.3376 108.508 8.2152 108.81 8.0568C109.113 7.884 109.264 7.7328 109.264 7.6032V7.5384C109.264 7.2504 109.12 6.9768 108.832 6.7176C108.544 6.444 108.054 6.3072 107.363 6.3072C106.686 6.3072 106.132 6.4368 105.7 6.696C105.282 6.9408 105.074 7.2648 105.074 7.668L102.093 8.1864C102.093 7.4232 102.287 6.696 102.676 6.0048C103.065 5.2992 103.641 4.7304 104.404 4.2984C105.167 3.8664 106.082 3.6504 107.147 3.6504C108.558 3.6504 109.646 3.9168 110.409 4.4496C111.186 4.9824 111.698 5.5728 111.942 6.2208C112.187 6.8688 112.31 7.4664 112.31 8.0136V14.2344C112.31 14.4216 112.324 14.6016 112.353 14.7744C112.382 14.9472 112.41 15.0768 112.439 15.1632V15.336H109.394C109.307 15.1632 109.264 14.9112 109.264 14.58C109.264 14.1048 109.422 13.6584 109.739 13.2408L109.394 13.176C109.149 14.04 108.774 14.6592 108.27 15.0336C107.781 15.3936 107.082 15.5736 106.175 15.5736ZM106.845 12.852C107.579 12.852 108.17 12.7224 108.616 12.4632C109.062 12.1896 109.286 11.6856 109.286 10.9512V9.5472C109.142 10.0512 108.443 10.368 107.19 10.4976C106.456 10.5552 105.945 10.6776 105.657 10.8648C105.369 11.0376 105.225 11.304 105.225 11.664C105.225 12.096 105.405 12.4056 105.765 12.5928C106.125 12.7656 106.485 12.852 106.845 12.852Z" fill="#1C5275"/>
<path d="M117.029 4.104C117.072 4.2768 117.094 4.4784 117.094 4.7088C117.094 5.3136 116.928 5.9256 116.597 6.5448L116.942 6.6096C117.259 5.616 117.684 4.8816 118.217 4.4064C118.764 3.9168 119.542 3.672 120.55 3.672C122.033 3.672 123.098 4.1112 123.746 4.9896C124.409 5.868 124.74 7.2936 124.74 9.2664V15.336H121.824V10.7784C121.824 9.6264 121.774 8.7624 121.673 8.1864C121.586 7.596 121.406 7.1712 121.133 6.912C120.874 6.6528 120.463 6.5232 119.902 6.5232C119.095 6.5232 118.411 6.8256 117.85 7.4304C117.302 8.0352 117.029 8.9712 117.029 10.2384V15.336H114.113V4.104H117.029Z" fill="#1C5275"/>
<path d="M129.328 0V7.992L134.08 4.104H137.86L133.173 7.9488L136.823 14.2344C136.924 14.4072 137.046 14.6016 137.19 14.8176C137.349 15.0192 137.486 15.1488 137.601 15.2064V15.336H134.534C134.274 15.192 134.022 14.8968 133.778 14.4504L131.898 11.2536C131.668 10.8648 131.553 10.4832 131.553 10.1088C131.553 9.7776 131.661 9.5472 131.877 9.4176L131.704 9.1368L129.328 11.1024V15.336H126.412V0H129.328Z" fill="#1C5275"/>
<path d="M141.95 0V3.0672H138.775V0H141.95ZM141.799 4.104V15.336H138.883V4.104H141.799Z" fill="#1C5275"/>
<path d="M146.665 4.104C146.709 4.2768 146.73 4.4784 146.73 4.7088C146.73 5.3136 146.565 5.9256 146.233 6.5448L146.579 6.6096C146.896 5.616 147.321 4.8816 147.853 4.4064C148.401 3.9168 149.178 3.672 150.186 3.672C151.669 3.672 152.735 4.1112 153.383 4.9896C154.045 5.868 154.377 7.2936 154.377 9.2664V15.336H151.461V10.7784C151.461 9.6264 151.41 8.7624 151.309 8.1864C151.223 7.596 151.043 7.1712 150.769 6.912C150.51 6.6528 150.1 6.5232 149.538 6.5232C148.732 6.5232 148.048 6.8256 147.486 7.4304C146.939 8.0352 146.665 8.9712 146.665 10.2384V15.336H143.749V4.104H146.665Z" fill="#1C5275"/>
<path d="M161.333 13.068C163.406 13.068 164.918 13.3488 165.869 13.9104C166.834 14.472 167.316 15.2928 167.316 16.3728C167.316 17.5104 166.776 18.3024 165.696 18.7488C164.63 19.2096 163.176 19.44 161.333 19.44C159.547 19.44 158.129 19.1664 157.078 18.6192C156.041 18.072 155.522 17.28 155.522 16.2432C155.522 15.8256 155.717 15.5016 156.106 15.2712C156.494 15.0264 157.027 14.8824 157.704 14.8392C156.451 14.364 155.825 13.5792 155.825 12.4848C155.825 12.1248 155.954 11.7792 156.214 11.448C156.473 11.1168 156.905 10.908 157.51 10.8216C157.092 10.4616 156.775 10.044 156.559 9.5688C156.343 9.0792 156.235 8.5464 156.235 7.9704C156.235 6.6744 156.696 5.6736 157.618 4.968C158.539 4.248 159.792 3.888 161.376 3.888C162.499 3.888 163.507 4.14 164.4 4.644C164.688 4.3272 165.048 3.9096 165.48 3.3912C166.186 2.5848 166.56 2.16 166.603 2.1168L167.899 4.1904L166.193 5.2272L165.588 5.5944C166.164 6.2856 166.452 7.0776 166.452 7.9704C166.452 8.8344 166.214 9.576 165.739 10.1952C165.278 10.8144 164.659 11.2824 163.882 11.5992C163.118 11.916 162.283 12.0744 161.376 12.0744C160.958 12.0744 160.519 12.0384 160.058 11.9664C159.31 11.9664 158.935 12.1392 158.935 12.4848C158.935 12.7152 159.065 12.8736 159.324 12.96C159.598 13.0464 159.965 13.0896 160.426 13.0896L161.333 13.068ZM161.376 6.3504C160.714 6.3504 160.174 6.4944 159.756 6.7824C159.353 7.056 159.151 7.452 159.151 7.9704C159.151 8.5032 159.353 8.9136 159.756 9.2016C160.174 9.4752 160.714 9.612 161.376 9.612C162.11 9.612 162.65 9.4608 162.996 9.1584C163.356 8.8416 163.536 8.4456 163.536 7.9704C163.536 7.524 163.356 7.1424 162.996 6.8256C162.65 6.5088 162.11 6.3504 161.376 6.3504ZM161.333 17.1504C162.37 17.1504 163.147 17.0712 163.666 16.9128C164.198 16.7688 164.465 16.56 164.465 16.2864C164.465 16.0128 164.206 15.7896 163.687 15.6168C163.183 15.444 162.398 15.3576 161.333 15.3576C160.8 15.3576 160.303 15.336 159.842 15.2928C159.454 15.336 159.101 15.4368 158.784 15.5952C158.482 15.768 158.33 15.9552 158.33 16.1568C158.33 16.5168 158.604 16.7688 159.151 16.9128C159.713 17.0712 160.44 17.1504 161.333 17.1504Z" fill="#1C5275"/>
<path d="M173.781 0H179.419C181.089 0 182.515 0.3384 183.695 1.0152C184.891 1.6776 185.791 2.592 186.395 3.7584C187 4.9104 187.303 6.2136 187.303 7.668C187.303 9.1224 187 10.4328 186.395 11.5992C185.791 12.7512 184.891 13.6656 183.695 14.3424C182.515 15.0048 181.089 15.336 179.419 15.336H173.781V0ZM178.922 12.3984C180.65 12.3984 181.924 12.0168 182.745 11.2536C183.566 10.476 183.976 9.2808 183.976 7.668C183.976 6.0696 183.566 4.8816 182.745 4.104C181.924 3.312 180.65 2.916 178.922 2.916H177.064V12.3984H178.922Z" fill="#1C5275"/>
<path d="M191.563 0V3.0672H188.387V0H191.563ZM191.411 4.104V15.336H188.495V4.104H191.411Z" fill="#1C5275"/>
<path d="M198.563 13.068C200.637 13.068 202.149 13.3488 203.099 13.9104C204.064 14.472 204.546 15.2928 204.546 16.3728C204.546 17.5104 204.006 18.3024 202.926 18.7488C201.861 19.2096 200.406 19.44 198.563 19.44C196.778 19.44 195.359 19.1664 194.308 18.6192C193.271 18.072 192.753 17.28 192.753 16.2432C192.753 15.8256 192.947 15.5016 193.336 15.2712C193.725 15.0264 194.258 14.8824 194.934 14.8392C193.682 14.364 193.055 13.5792 193.055 12.4848C193.055 12.1248 193.185 11.7792 193.444 11.448C193.703 11.1168 194.135 10.908 194.74 10.8216C194.322 10.4616 194.006 10.044 193.79 9.5688C193.574 9.0792 193.466 8.5464 193.466 7.9704C193.466 6.6744 193.926 5.6736 194.848 4.968C195.77 4.248 197.022 3.888 198.606 3.888C199.73 3.888 200.738 4.14 201.63 4.644C201.918 4.3272 202.278 3.9096 202.71 3.3912C203.416 2.5848 203.79 2.16 203.834 2.1168L205.13 4.1904L203.423 5.2272L202.818 5.5944C203.394 6.2856 203.682 7.0776 203.682 7.9704C203.682 8.8344 203.445 9.576 202.97 10.1952C202.509 10.8144 201.89 11.2824 201.112 11.5992C200.349 11.916 199.514 12.0744 198.606 12.0744C198.189 12.0744 197.75 12.0384 197.289 11.9664C196.54 11.9664 196.166 12.1392 196.166 12.4848C196.166 12.7152 196.295 12.8736 196.554 12.96C196.828 13.0464 197.195 13.0896 197.656 13.0896L198.563 13.068ZM198.606 6.3504C197.944 6.3504 197.404 6.4944 196.986 6.7824C196.583 7.056 196.382 7.452 196.382 7.9704C196.382 8.5032 196.583 8.9136 196.986 9.2016C197.404 9.4752 197.944 9.612 198.606 9.612C199.341 9.612 199.881 9.4608 200.226 9.1584C200.586 8.8416 200.766 8.4456 200.766 7.9704C200.766 7.524 200.586 7.1424 200.226 6.8256C199.881 6.5088 199.341 6.3504 198.606 6.3504ZM198.563 17.1504C199.6 17.1504 200.378 17.0712 200.896 16.9128C201.429 16.7688 201.695 16.56 201.695 16.2864C201.695 16.0128 201.436 15.7896 200.918 15.6168C200.414 15.444 199.629 15.3576 198.563 15.3576C198.03 15.3576 197.534 15.336 197.073 15.2928C196.684 15.336 196.331 15.4368 196.014 15.5952C195.712 15.768 195.561 15.9552 195.561 16.1568C195.561 16.5168 195.834 16.7688 196.382 16.9128C196.943 17.0712 197.67 17.1504 198.563 17.1504Z" fill="#1C5275"/>
<path d="M209.281 0V3.0672H206.106V0H209.281ZM209.13 4.104V15.336H206.214V4.104H209.13Z" fill="#1C5275"/>
<path d="M215.524 15.66C214.415 15.66 213.587 15.3864 213.04 14.8392C212.493 14.2776 212.219 13.4856 212.219 12.4632V6.7392H210.578V4.104H210.794C211.398 4.104 211.881 3.9312 212.241 3.5856C212.615 3.24 212.874 2.844 213.018 2.3976C213.162 1.9368 213.234 1.5336 213.234 1.188H216.258C216.258 1.548 216.172 1.9368 215.999 2.3544C215.841 2.7576 215.567 3.1104 215.178 3.4128C214.79 3.7008 214.293 3.8448 213.688 3.8448V4.104H217.814V6.7392H215.092V11.772C215.092 12.2328 215.135 12.564 215.222 12.7656C215.322 12.9672 215.524 13.068 215.826 13.068C216.057 13.068 216.266 13.0176 216.453 12.9168C216.64 12.816 216.878 12.672 217.166 12.4848L217.965 15.012C217.749 15.1704 217.41 15.3144 216.95 15.444C216.503 15.588 216.028 15.66 215.524 15.66Z" fill="#1C5275"/>
<path d="M223.119 15.5736C222.471 15.5736 221.845 15.4368 221.24 15.1632C220.649 14.8752 220.167 14.4576 219.793 13.9104C219.433 13.3632 219.253 12.7224 219.253 11.988C219.253 11.1384 219.433 10.476 219.793 10.0008C220.153 9.5112 220.664 9.1512 221.326 8.9208C222.003 8.6904 222.889 8.5248 223.983 8.424C224.861 8.3376 225.452 8.2152 225.754 8.0568C226.057 7.884 226.208 7.7328 226.208 7.6032V7.5384C226.208 7.2504 226.064 6.9768 225.776 6.7176C225.488 6.444 224.998 6.3072 224.307 6.3072C223.63 6.3072 223.076 6.4368 222.644 6.696C222.226 6.9408 222.017 7.2648 222.017 7.668L219.037 8.1864C219.037 7.4232 219.231 6.696 219.62 6.0048C220.009 5.2992 220.585 4.7304 221.348 4.2984C222.111 3.8664 223.025 3.6504 224.091 3.6504C225.502 3.6504 226.589 3.9168 227.353 4.4496C228.13 4.9824 228.641 5.5728 228.886 6.2208C229.131 6.8688 229.253 7.4664 229.253 8.0136V14.2344C229.253 14.4216 229.268 14.6016 229.297 14.7744C229.325 14.9472 229.354 15.0768 229.383 15.1632V15.336H226.337C226.251 15.1632 226.208 14.9112 226.208 14.58C226.208 14.1048 226.366 13.6584 226.683 13.2408L226.337 13.176C226.093 14.04 225.718 14.6592 225.214 15.0336C224.725 15.3936 224.026 15.5736 223.119 15.5736ZM223.789 12.852C224.523 12.852 225.113 12.7224 225.56 12.4632C226.006 12.1896 226.229 11.6856 226.229 10.9512V9.5472C226.085 10.0512 225.387 10.368 224.134 10.4976C223.4 10.5552 222.889 10.6776 222.601 10.8648C222.313 11.0376 222.169 11.304 222.169 11.664C222.169 12.096 222.349 12.4056 222.709 12.5928C223.069 12.7656 223.429 12.852 223.789 12.852Z" fill="#1C5275"/>
<path d="M231.062 0H233.956V15.336H231.062V0Z" fill="#1C5275"/>
<path d="M251.244 11.6856C251.244 12.0744 251.417 12.3552 251.763 12.528C252.123 12.6864 252.562 12.7584 253.08 12.744V15.5088C251.554 15.5088 250.315 15.3072 249.365 14.904C248.429 14.4864 247.961 13.6944 247.961 12.528V11.988C247.961 11.4696 247.767 11.0232 247.378 10.6488C247.003 10.2744 246.442 10.0872 245.693 10.0872H243.835V15.336H240.552V0H246.73C248.544 0 250.042 0.3816 251.223 1.1448C252.403 1.908 252.994 3.0672 252.994 4.6224C252.994 5.8896 252.677 6.8328 252.043 7.452C251.41 8.0712 250.719 8.4528 249.97 8.5968C249.235 8.7408 248.472 8.8128 247.68 8.8128V9.1584C248.861 9.1728 249.747 9.3168 250.337 9.5904C250.942 9.864 251.244 10.3392 251.244 11.016V11.6856ZM246.255 7.4952C247.306 7.4952 248.127 7.3224 248.717 6.9768C249.322 6.6312 249.624 6.0552 249.624 5.2488C249.624 4.428 249.336 3.8304 248.76 3.456C248.199 3.0816 247.363 2.8944 246.255 2.8944H243.835V7.4952H246.255Z" fill="#1C5275"/>
<path d="M257.544 0V3.0672H254.369V0H257.544ZM257.393 4.104V15.336H254.477V4.104H257.393Z" fill="#1C5275"/>
<path d="M264.544 13.068C266.618 13.068 268.13 13.3488 269.08 13.9104C270.045 14.472 270.528 15.2928 270.528 16.3728C270.528 17.5104 269.988 18.3024 268.908 18.7488C267.842 19.2096 266.388 19.44 264.544 19.44C262.759 19.44 261.34 19.1664 260.289 18.6192C259.252 18.072 258.734 17.28 258.734 16.2432C258.734 15.8256 258.928 15.5016 259.317 15.2712C259.706 15.0264 260.239 14.8824 260.916 14.8392C259.663 14.364 259.036 13.5792 259.036 12.4848C259.036 12.1248 259.166 11.7792 259.425 11.448C259.684 11.1168 260.116 10.908 260.721 10.8216C260.304 10.4616 259.987 10.044 259.771 9.5688C259.555 9.0792 259.447 8.5464 259.447 7.9704C259.447 6.6744 259.908 5.6736 260.829 4.968C261.751 4.248 263.004 3.888 264.588 3.888C265.711 3.888 266.719 4.14 267.612 4.644C267.9 4.3272 268.26 3.9096 268.692 3.3912C269.397 2.5848 269.772 2.16 269.815 2.1168L271.111 4.1904L269.404 5.2272L268.8 5.5944C269.376 6.2856 269.664 7.0776 269.664 7.9704C269.664 8.8344 269.426 9.576 268.951 10.1952C268.49 10.8144 267.871 11.2824 267.093 11.5992C266.33 11.916 265.495 12.0744 264.588 12.0744C264.17 12.0744 263.731 12.0384 263.27 11.9664C262.521 11.9664 262.147 12.1392 262.147 12.4848C262.147 12.7152 262.276 12.8736 262.536 12.96C262.809 13.0464 263.176 13.0896 263.637 13.0896L264.544 13.068ZM264.588 6.3504C263.925 6.3504 263.385 6.4944 262.968 6.7824C262.564 7.056 262.363 7.452 262.363 7.9704C262.363 8.5032 262.564 8.9136 262.968 9.2016C263.385 9.4752 263.925 9.612 264.588 9.612C265.322 9.612 265.862 9.4608 266.208 9.1584C266.568 8.8416 266.748 8.4456 266.748 7.9704C266.748 7.524 266.568 7.1424 266.208 6.8256C265.862 6.5088 265.322 6.3504 264.588 6.3504ZM264.544 17.1504C265.581 17.1504 266.359 17.0712 266.877 16.9128C267.41 16.7688 267.676 16.56 267.676 16.2864C267.676 16.0128 267.417 15.7896 266.899 15.6168C266.395 15.444 265.61 15.3576 264.544 15.3576C264.012 15.3576 263.515 15.336 263.054 15.2928C262.665 15.336 262.312 15.4368 261.996 15.5952C261.693 15.768 261.542 15.9552 261.542 16.1568C261.542 16.5168 261.816 16.7688 262.363 16.9128C262.924 17.0712 263.652 17.1504 264.544 17.1504Z" fill="#1C5275"/>
<path d="M275.21 0L275.188 4.4928C275.188 5.2128 275.023 5.8752 274.691 6.48L275.037 6.5448C275.339 5.5224 275.779 4.788 276.355 4.3416C276.931 3.8952 277.687 3.672 278.623 3.672C279.746 3.672 280.639 3.8592 281.301 4.2336C281.978 4.5936 282.467 5.1912 282.77 6.0264C283.072 6.8472 283.223 7.9704 283.223 9.396V15.336H280.307V10.6272C280.307 9.432 280.257 8.5608 280.156 8.0136C280.07 7.4664 279.875 7.0848 279.573 6.8688C279.285 6.6384 278.817 6.5232 278.169 6.5232C277.377 6.5232 276.693 6.7968 276.117 7.344C275.541 7.8912 275.246 8.892 275.231 10.3464L275.188 15.336H272.272V0H275.21Z" fill="#1C5275"/>
<path d="M289.204 15.66C288.096 15.66 287.268 15.3864 286.72 14.8392C286.173 14.2776 285.9 13.4856 285.9 12.4632V6.7392H284.258V4.104H284.474C285.079 4.104 285.561 3.9312 285.921 3.5856C286.296 3.24 286.555 2.844 286.699 2.3976C286.843 1.9368 286.915 1.5336 286.915 1.188H289.939C289.939 1.548 289.852 1.9368 289.68 2.3544C289.521 2.7576 289.248 3.1104 288.859 3.4128C288.47 3.7008 287.973 3.8448 287.368 3.8448V4.104H291.494V6.7392H288.772V11.772C288.772 12.2328 288.816 12.564 288.902 12.7656C289.003 12.9672 289.204 13.068 289.507 13.068C289.737 13.068 289.946 13.0176 290.133 12.9168C290.32 12.816 290.558 12.672 290.846 12.4848L291.645 15.012C291.429 15.1704 291.091 15.3144 290.63 15.444C290.184 15.588 289.708 15.66 289.204 15.66Z" fill="#1C5275"/>
<path d="M297.061 3.6504C298.011 3.6504 298.846 3.8376 299.566 4.212C300.286 4.572 300.841 5.076 301.23 5.724C301.618 6.3576 301.813 7.0704 301.813 7.8624L299.091 7.6896C299.091 7.2144 298.911 6.8184 298.551 6.5016C298.206 6.1848 297.709 6.0192 297.061 6.0048C296.499 6.0048 296.038 6.0984 295.678 6.2856C295.333 6.4728 295.16 6.7464 295.16 7.1064C295.16 7.4376 295.254 7.6896 295.441 7.8624C295.628 8.0208 296.017 8.1504 296.607 8.2512L298.054 8.4456C299.394 8.6328 300.358 9.0504 300.949 9.6984C301.539 10.332 301.834 11.1312 301.834 12.096C301.834 12.816 301.611 13.4424 301.165 13.9752C300.733 14.4936 300.164 14.8896 299.458 15.1632C298.753 15.4368 298.004 15.5736 297.212 15.5736C296.348 15.5736 295.556 15.408 294.836 15.0768C294.116 14.7312 293.54 14.2344 293.108 13.5864C292.69 12.9384 292.482 12.168 292.482 11.2752L295.268 11.5776C295.268 12.1248 295.47 12.5352 295.873 12.8088C296.276 13.0824 296.722 13.2192 297.212 13.2192C297.745 13.2192 298.191 13.1184 298.551 12.9168C298.911 12.7152 299.091 12.4272 299.091 12.0528C299.091 11.736 298.954 11.4984 298.681 11.34C298.422 11.1816 297.968 11.0448 297.32 10.9296L296.218 10.7784C294.706 10.5192 293.691 10.0512 293.173 9.3744C292.669 8.6976 292.417 7.8984 292.417 6.9768C292.417 5.9112 292.849 5.0904 293.713 4.5144C294.577 3.9384 295.693 3.6504 297.061 3.6504Z" fill="#1C5275"/>
<path d="M54.6443 22C56.3435 22 57.6467 22.3456 58.5539 23.0368C59.4755 23.7136 59.9363 24.7432 59.9363 26.1256C59.9363 27.3496 59.5907 28.2208 58.8995 28.7392C58.2227 29.2432 57.3371 29.488 56.2427 29.4736V29.8192C56.7611 29.8048 57.3515 29.884 58.0139 30.0568C58.6763 30.2296 59.2595 30.5608 59.7635 31.0504C60.2819 31.54 60.5411 32.224 60.5411 33.1024C60.5411 34.6288 60.0011 35.716 58.9211 36.364C57.8555 37.012 56.5667 37.336 55.0547 37.336H47.5811V22H54.6443ZM53.9963 28.3072C54.7595 28.3072 55.3787 28.1776 55.8539 27.9184C56.3291 27.6448 56.5667 27.1336 56.5667 26.3848C56.5667 25.8376 56.3507 25.4488 55.9187 25.2184C55.4867 24.9736 54.8459 24.8512 53.9963 24.8512H50.8859V28.3072H53.9963ZM54.1259 34.4848C55.0907 34.4848 55.7963 34.3552 56.2427 34.096C56.7035 33.8368 56.9339 33.3976 56.9339 32.7784C56.9339 32.1016 56.7179 31.6552 56.2859 31.4392C55.8539 31.2088 55.1339 31.0936 54.1259 31.0936H50.8859V34.4848H54.1259Z" fill="#1C5275"/>
<path d="M65.0001 22V25.0672H61.8249V22H65.0001ZM64.8489 26.104V37.336H61.9329V26.104H64.8489Z" fill="#1C5275"/>
<path d="M72.0007 35.068C74.0743 35.068 75.5863 35.3488 76.5367 35.9104C77.5015 36.472 77.9839 37.2928 77.9839 38.3728C77.9839 39.5104 77.4439 40.3024 76.3639 40.7488C75.2983 41.2096 73.8439 41.44 72.0007 41.44C70.2151 41.44 68.7967 41.1664 67.7455 40.6192C66.7087 40.072 66.1903 39.28 66.1903 38.2432C66.1903 37.8256 66.3847 37.5016 66.7735 37.2712C67.1623 37.0264 67.6951 36.8824 68.3719 36.8392C67.1191 36.364 66.4927 35.5792 66.4927 34.4848C66.4927 34.1248 66.6223 33.7792 66.8815 33.448C67.1407 33.1168 67.5727 32.908 68.1775 32.8216C67.7599 32.4616 67.4431 32.044 67.2271 31.5688C67.0111 31.0792 66.9031 30.5464 66.9031 29.9704C66.9031 28.6744 67.3639 27.6736 68.2855 26.968C69.2071 26.248 70.4599 25.888 72.0439 25.888C73.1671 25.888 74.1751 26.14 75.0679 26.644C75.3559 26.3272 75.7159 25.9096 76.1479 25.3912C76.8535 24.5848 77.2279 24.16 77.2711 24.1168L78.5671 26.1904L76.8607 27.2272L76.2559 27.5944C76.8319 28.2856 77.1199 29.0776 77.1199 29.9704C77.1199 30.8344 76.8823 31.576 76.4071 32.1952C75.9463 32.8144 75.3271 33.2824 74.5495 33.5992C73.7863 33.916 72.9511 34.0744 72.0439 34.0744C71.6263 34.0744 71.1871 34.0384 70.7263 33.9664C69.9775 33.9664 69.6031 34.1392 69.6031 34.4848C69.6031 34.7152 69.7327 34.8736 69.9919 34.96C70.2655 35.0464 70.6327 35.0896 71.0935 35.0896L72.0007 35.068ZM72.0439 28.3504C71.3815 28.3504 70.8415 28.4944 70.4239 28.7824C70.0207 29.056 69.8191 29.452 69.8191 29.9704C69.8191 30.5032 70.0207 30.9136 70.4239 31.2016C70.8415 31.4752 71.3815 31.612 72.0439 31.612C72.7783 31.612 73.3183 31.4608 73.6639 31.1584C74.0239 30.8416 74.2039 30.4456 74.2039 29.9704C74.2039 29.524 74.0239 29.1424 73.6639 28.8256C73.3183 28.5088 72.7783 28.3504 72.0439 28.3504ZM72.0007 39.1504C73.0375 39.1504 73.8151 39.0712 74.3335 38.9128C74.8663 38.7688 75.1327 38.56 75.1327 38.2864C75.1327 38.0128 74.8735 37.7896 74.3551 37.6168C73.8511 37.444 73.0663 37.3576 72.0007 37.3576C71.4679 37.3576 70.9711 37.336 70.5103 37.2928C70.1215 37.336 69.7687 37.4368 69.4519 37.5952C69.1495 37.768 68.9983 37.9552 68.9983 38.1568C68.9983 38.5168 69.2719 38.7688 69.8191 38.9128C70.3807 39.0712 71.1079 39.1504 72.0007 39.1504Z" fill="#1C5275"/>
<path d="M94.6394 22V24.8944H90.5354V37.336H87.2738V24.8944H83.1482V22H94.6394Z" fill="#1C5275"/>
<path d="M99.8333 35.1112C100.481 35.1112 100.985 34.9528 101.345 34.636C101.72 34.3048 101.972 33.9016 102.101 33.4264L104.888 34.0744C104.787 34.6504 104.506 35.212 104.045 35.7592C103.599 36.292 103.016 36.724 102.296 37.0552C101.576 37.3864 100.784 37.552 99.9197 37.552C98.8541 37.552 97.8821 37.3216 97.0037 36.8608C96.1397 36.3856 95.4485 35.7016 94.9301 34.8088C94.4261 33.9016 94.1741 32.8216 94.1741 31.5688C94.1741 29.8696 94.6133 28.4728 95.4917 27.3784C96.3701 26.2696 97.7525 25.7152 99.6389 25.7152C100.921 25.7152 101.95 25.9672 102.728 26.4712C103.505 26.9608 104.06 27.5872 104.391 28.3504C104.722 29.1136 104.895 29.9272 104.909 30.7912C104.938 31.5256 104.866 32.0872 104.693 32.476L97.0685 32.5408C97.2125 33.3904 97.5365 34.0312 98.0405 34.4632C98.5445 34.8952 99.1421 35.1112 99.8333 35.1112ZM99.6821 28.1128C98.9333 28.1128 98.3501 28.2856 97.9325 28.6312C97.5149 28.9768 97.2341 29.524 97.0901 30.2728L102.231 30.2296C102.231 29.6536 101.986 29.1568 101.497 28.7392C101.021 28.3216 100.417 28.1128 99.6821 28.1128Z" fill="#1C5275"/>
<path d="M106.336 31.5688C106.336 29.9272 106.775 28.552 107.653 27.4432C108.546 26.3344 109.936 25.78 111.822 25.78C113.493 25.78 114.76 26.1544 115.624 26.9032C116.502 27.652 117.021 28.5808 117.179 29.6896L114.263 30.1432C114.177 29.596 113.903 29.1856 113.442 28.912C112.981 28.624 112.441 28.48 111.822 28.48C111.045 28.48 110.425 28.7608 109.965 29.3224C109.504 29.8696 109.273 30.6184 109.273 31.5688C109.273 32.6488 109.497 33.4696 109.943 34.0312C110.389 34.5784 111.109 34.852 112.103 34.852C112.823 34.852 113.385 34.6864 113.788 34.3552C114.205 34.024 114.457 33.5488 114.544 32.9296L117.46 33.3832C117.287 34.5784 116.754 35.572 115.861 36.364C114.969 37.156 113.716 37.552 112.103 37.552C110.058 37.552 108.582 37.012 107.675 35.932C106.782 34.8376 106.336 33.3832 106.336 31.5688Z" fill="#1C5275"/>
<path d="M121.9 22L121.879 26.4928C121.879 27.2128 121.713 27.8752 121.382 28.48L121.728 28.5448C122.03 27.5224 122.469 26.788 123.045 26.3416C123.621 25.8952 124.377 25.672 125.313 25.672C126.436 25.672 127.329 25.8592 127.992 26.2336C128.668 26.5936 129.158 27.1912 129.46 28.0264C129.763 28.8472 129.914 29.9704 129.914 31.396V37.336H126.998V32.6272C126.998 31.432 126.948 30.5608 126.847 30.0136C126.76 29.4664 126.566 29.0848 126.264 28.8688C125.976 28.6384 125.508 28.5232 124.86 28.5232C124.068 28.5232 123.384 28.7968 122.808 29.344C122.232 29.8912 121.936 30.892 121.922 32.3464L121.879 37.336H118.963V22H121.9Z" fill="#1C5275"/>
<path d="M144.2 33.0592C144.2 33.6208 143.97 34.06 143.509 34.3768C143.048 34.6936 142.414 34.852 141.608 34.852C140.874 34.852 140.24 34.6504 139.707 34.2472C139.174 33.844 138.908 33.2032 138.908 32.3248L135.603 32.0872C135.603 33.1816 135.87 34.1608 136.402 35.0248C136.95 35.8888 137.677 36.5656 138.584 37.0552C139.506 37.5304 140.514 37.768 141.608 37.768C142.846 37.768 143.919 37.5592 144.826 37.1416C145.748 36.7096 146.446 36.1048 146.922 35.3272C147.411 34.5352 147.656 33.6136 147.656 32.5624C147.656 31.7128 147.418 31.0288 146.943 30.5104C146.482 29.9776 145.921 29.5744 145.258 29.3008C144.596 29.0128 143.739 28.7248 142.688 28.4368C141.882 28.2064 141.255 28.012 140.809 27.8536C140.362 27.6808 139.988 27.4576 139.686 27.184C139.383 26.9104 139.232 26.5648 139.232 26.1472C139.232 25.5712 139.462 25.1536 139.923 24.8944C140.398 24.6208 140.974 24.484 141.651 24.484C142.486 24.484 143.163 24.664 143.682 25.024C144.2 25.3696 144.459 25.96 144.459 26.7952L147.764 27.2488C147.706 25.3336 147.138 23.908 146.058 22.972C144.992 22.036 143.502 21.568 141.586 21.568C140.42 21.568 139.398 21.784 138.519 22.216C137.641 22.6336 136.957 23.224 136.467 23.9872C135.992 24.736 135.754 25.6072 135.754 26.6008C135.754 27.4936 136.006 28.2208 136.51 28.7824C137.014 29.344 137.612 29.776 138.303 30.0784C138.994 30.3808 139.887 30.6976 140.982 31.0288C142.076 31.3456 142.882 31.6408 143.401 31.9144C143.934 32.188 144.2 32.5696 144.2 33.0592Z" fill="#1C5275"/>
<path d="M148.587 31.5688C148.587 29.9272 149.026 28.552 149.904 27.4432C150.797 26.3344 152.187 25.78 154.073 25.78C155.743 25.78 157.011 26.1544 157.875 26.9032C158.753 27.652 159.271 28.5808 159.43 29.6896L156.514 30.1432C156.427 29.596 156.154 29.1856 155.693 28.912C155.232 28.624 154.692 28.48 154.073 28.48C153.295 28.48 152.676 28.7608 152.215 29.3224C151.755 29.8696 151.524 30.6184 151.524 31.5688C151.524 32.6488 151.747 33.4696 152.194 34.0312C152.64 34.5784 153.36 34.852 154.354 34.852C155.074 34.852 155.635 34.6864 156.039 34.3552C156.456 34.024 156.708 33.5488 156.795 32.9296L159.711 33.3832C159.538 34.5784 159.005 35.572 158.112 36.364C157.219 37.156 155.967 37.552 154.354 37.552C152.309 37.552 150.833 37.012 149.926 35.932C149.033 34.8376 148.587 33.3832 148.587 31.5688Z" fill="#1C5275"/>
<path d="M166.266 37.552C165.229 37.552 164.272 37.3 163.393 36.796C162.529 36.292 161.845 35.5936 161.341 34.7008C160.837 33.808 160.585 32.8072 160.585 31.6984C160.585 30.6184 160.837 29.6392 161.341 28.7608C161.86 27.868 162.551 27.1696 163.415 26.6656C164.279 26.1472 165.229 25.888 166.266 25.888C167.274 25.888 168.203 26.1472 169.053 26.6656C169.917 27.1696 170.601 27.868 171.105 28.7608C171.609 29.6392 171.861 30.6184 171.861 31.6984C171.861 32.8072 171.609 33.808 171.105 34.7008C170.601 35.5936 169.924 36.292 169.074 36.796C168.225 37.3 167.289 37.552 166.266 37.552ZM166.266 34.7872C167.029 34.7872 167.663 34.5064 168.167 33.9448C168.685 33.3688 168.945 32.62 168.945 31.6984C168.945 30.7912 168.685 30.0568 168.167 29.4952C167.663 28.9336 167.029 28.6528 166.266 28.6528C165.46 28.6528 164.797 28.9336 164.279 29.4952C163.761 30.0424 163.501 30.7768 163.501 31.6984C163.501 32.62 163.761 33.3688 164.279 33.9448C164.812 34.5064 165.474 34.7872 166.266 34.7872Z" fill="#1C5275"/>
<path d="M176.217 26.104C176.261 26.2768 176.282 26.5504 176.282 26.9248C176.282 27.328 176.232 27.6952 176.131 28.0264C176.045 28.3432 175.951 28.5952 175.85 28.7824L176.196 28.8472C176.469 27.868 176.829 27.1336 177.276 26.644C177.737 26.14 178.32 25.888 179.025 25.888C179.414 25.888 179.745 25.9312 180.019 26.0176C180.307 26.104 180.516 26.1976 180.645 26.2984V29.4304C180.127 28.9984 179.537 28.7824 178.874 28.7824C177.089 28.7824 176.225 30.0928 176.282 32.7136V37.336H173.366V26.104H176.217Z" fill="#1C5275"/>
<path d="M186.929 35.1112C187.577 35.1112 188.081 34.9528 188.441 34.636C188.816 34.3048 189.068 33.9016 189.197 33.4264L191.984 34.0744C191.883 34.6504 191.602 35.212 191.141 35.7592C190.695 36.292 190.112 36.724 189.392 37.0552C188.672 37.3864 187.88 37.552 187.016 37.552C185.95 37.552 184.978 37.3216 184.1 36.8608C183.236 36.3856 182.545 35.7016 182.026 34.8088C181.522 33.9016 181.27 32.8216 181.27 31.5688C181.27 29.8696 181.709 28.4728 182.588 27.3784C183.466 26.2696 184.849 25.7152 186.735 25.7152C188.017 25.7152 189.046 25.9672 189.824 26.4712C190.601 26.9608 191.156 27.5872 191.487 28.3504C191.818 29.1136 191.991 29.9272 192.005 30.7912C192.034 31.5256 191.962 32.0872 191.789 32.476L184.165 32.5408C184.309 33.3904 184.633 34.0312 185.137 34.4632C185.641 34.8952 186.238 35.1112 186.929 35.1112ZM186.778 28.1128C186.029 28.1128 185.446 28.2856 185.029 28.6312C184.611 28.9768 184.33 29.524 184.186 30.2728L189.327 30.2296C189.327 29.6536 189.082 29.1568 188.593 28.7392C188.117 28.3216 187.513 28.1128 186.778 28.1128Z" fill="#1C5275"/>
<path d="M193.432 31.5688C193.432 29.9272 193.871 28.552 194.749 27.4432C195.642 26.3344 197.032 25.78 198.918 25.78C200.589 25.78 201.856 26.1544 202.72 26.9032C203.598 27.652 204.117 28.5808 204.275 29.6896L201.359 30.1432C201.273 29.596 200.999 29.1856 200.538 28.912C200.077 28.624 199.537 28.48 198.918 28.48C198.141 28.48 197.521 28.7608 197.061 29.3224C196.6 29.8696 196.369 30.6184 196.369 31.5688C196.369 32.6488 196.593 33.4696 197.039 34.0312C197.485 34.5784 198.205 34.852 199.199 34.852C199.919 34.852 200.481 34.6864 200.884 34.3552C201.301 34.024 201.553 33.5488 201.64 32.9296L204.556 33.3832C204.383 34.5784 203.85 35.572 202.957 36.364C202.065 37.156 200.812 37.552 199.199 37.552C197.154 37.552 195.678 37.012 194.771 35.932C193.878 34.8376 193.432 33.3832 193.432 31.5688Z" fill="#1C5275"/>
<path d="M209.703 37.5736C209.055 37.5736 208.429 37.4368 207.824 37.1632C207.234 36.8752 206.751 36.4576 206.377 35.9104C206.017 35.3632 205.837 34.7224 205.837 33.988C205.837 33.1384 206.017 32.476 206.377 32.0008C206.737 31.5112 207.248 31.1512 207.911 30.9208C208.587 30.6904 209.473 30.5248 210.567 30.424C211.446 30.3376 212.036 30.2152 212.339 30.0568C212.641 29.884 212.792 29.7328 212.792 29.6032V29.5384C212.792 29.2504 212.648 28.9768 212.36 28.7176C212.072 28.444 211.583 28.3072 210.891 28.3072C210.215 28.3072 209.66 28.4368 209.228 28.696C208.811 28.9408 208.602 29.2648 208.602 29.668L205.621 30.1864C205.621 29.4232 205.815 28.696 206.204 28.0048C206.593 27.2992 207.169 26.7304 207.932 26.2984C208.695 25.8664 209.61 25.6504 210.675 25.6504C212.087 25.6504 213.174 25.9168 213.937 26.4496C214.715 26.9824 215.226 27.5728 215.471 28.2208C215.715 28.8688 215.838 29.4664 215.838 30.0136V36.2344C215.838 36.4216 215.852 36.6016 215.881 36.7744C215.91 36.9472 215.939 37.0768 215.967 37.1632V37.336H212.922C212.835 37.1632 212.792 36.9112 212.792 36.58C212.792 36.1048 212.951 35.6584 213.267 35.2408L212.922 35.176C212.677 36.04 212.303 36.6592 211.799 37.0336C211.309 37.3936 210.611 37.5736 209.703 37.5736ZM210.373 34.852C211.107 34.852 211.698 34.7224 212.144 34.4632C212.591 34.1896 212.814 33.6856 212.814 32.9512V31.5472C212.67 32.0512 211.971 32.368 210.719 32.4976C209.984 32.5552 209.473 32.6776 209.185 32.8648C208.897 33.0376 208.753 33.304 208.753 33.664C208.753 34.096 208.933 34.4056 209.293 34.5928C209.653 34.7656 210.013 34.852 210.373 34.852Z" fill="#1C5275"/>
<path d="M220.493 26.104C220.536 26.2768 220.558 26.5504 220.558 26.9248C220.558 27.328 220.508 27.6952 220.407 28.0264C220.32 28.3432 220.227 28.5952 220.126 28.7824L220.472 28.8472C220.745 27.868 221.105 27.1336 221.552 26.644C222.012 26.14 222.596 25.888 223.301 25.888C223.69 25.888 224.021 25.9312 224.295 26.0176C224.583 26.104 224.792 26.1976 224.921 26.2984V29.4304C224.403 28.9984 223.812 28.7824 223.15 28.7824C221.364 28.7824 220.5 30.0928 220.558 32.7136V37.336H217.642V26.104H220.493Z" fill="#1C5275"/>
<path d="M230.309 37.552C229.402 37.552 228.574 37.2928 227.825 36.7744C227.091 36.2416 226.508 35.5288 226.076 34.636C225.658 33.7432 225.449 32.764 225.449 31.6984C225.449 30.6472 225.665 29.6824 226.097 28.804C226.544 27.9112 227.134 27.2056 227.868 26.6872C228.617 26.1544 229.431 25.888 230.309 25.888C231.072 25.888 231.756 26.068 232.361 26.428C232.98 26.788 233.47 27.2776 233.83 27.8968V22H236.746V36.2344C236.746 36.6952 236.775 37.0048 236.832 37.1632V37.336H233.852C233.794 37.2208 233.765 36.9832 233.765 36.6232C233.765 36.3208 233.823 36.0256 233.938 35.7376C234.053 35.4496 234.176 35.2264 234.305 35.068L233.96 35.0032C233.744 35.7376 233.312 36.3496 232.664 36.8392C232.016 37.3144 231.231 37.552 230.309 37.552ZM231.13 34.8304C232.008 34.8304 232.714 34.5352 233.247 33.9448C233.78 33.3544 234.046 32.6128 234.046 31.72C234.046 30.8272 233.78 30.0784 233.247 29.4736C232.714 28.8688 232.008 28.5664 231.13 28.5664C230.237 28.5664 229.553 28.8616 229.078 29.452C228.617 30.028 228.387 30.784 228.387 31.72C228.387 32.656 228.617 33.412 229.078 33.988C229.553 34.5496 230.237 34.8304 231.13 34.8304Z" fill="#1C5275"/>
</svg>
