<svg viewBox="0 0 30 31" fill="none" xmlns="http://www.w3.org/2000/svg">
<rect y="0.248291" width="30" height="30" rx="15" fill="white"/>
<path fill-rule="evenodd" clip-rule="evenodd" d="M7.66111 27.3969L13.6602 15.4796L15 16.1541L9.00092 28.0713L7.66111 27.3969Z" fill="#ECA400"/>
<path fill-rule="evenodd" clip-rule="evenodd" d="M19.1277 12.0849L14.6507 9.83117L12.6113 13.8825L17.0883 16.1362L19.1277 12.0849ZM13.9854 7.81689L10.597 14.5478L17.7537 18.1505L21.142 11.4195L13.9854 7.81689Z" fill="#ECA400"/>
<path fill-rule="evenodd" clip-rule="evenodd" d="M13.7809 8.22668L11.6081 7.13289C11.3614 7.00873 11.0608 7.10802 10.9366 7.35468L8.4097 12.3745C8.28554 12.6211 8.38484 12.9217 8.63149 13.0459L10.8043 14.1397L13.7809 8.22668ZM12.2825 5.79307C11.2959 5.29642 10.0935 5.69361 9.59682 6.68022L7.06989 11.7C6.57323 12.6866 6.97042 13.8891 7.95704 14.3857L11.4697 16.154L15.7952 7.56132L12.2825 5.79307Z" fill="#ECA400"/>
<path fill-rule="evenodd" clip-rule="evenodd" d="M17.9671 17.7457L20.14 18.8395C20.3866 18.9637 20.6872 18.8644 20.8114 18.6177L23.3383 13.5979C23.4625 13.3513 23.3632 13.0507 23.1166 12.9265L20.9437 11.8327L17.9671 17.7457ZM19.4655 20.1793C20.4521 20.676 21.6546 20.2788 22.1512 19.2922L24.6782 14.2724C25.1748 13.2858 24.7776 12.0834 23.791 11.5867L20.2784 9.81845L15.9529 18.4111L19.4655 20.1793Z" fill="#ECA400"/>
<path fill-rule="evenodd" clip-rule="evenodd" d="M15 28.2803C22.1797 28.2803 28 22.46 28 15.2803V15.2803C28 8.10057 22.1797 2.28027 15 2.28027V2.28027C7.8203 2.28027 2 8.10057 2 15.2803V15.2803C2 22.46 7.8203 28.2803 15 28.2803V28.2803ZM15 0.280273C6.71573 0.280273 0 6.996 0 15.2803V15.2803C0 23.5645 6.71573 30.2803 15 30.2803V30.2803C23.2843 30.2803 30 23.5645 30 15.2803V15.2803C30 6.996 23.2843 0.280273 15 0.280273V0.280273Z" fill="#D6C9C9"/>
</svg>
