<svg width="20" height="20" viewBox="0 0 20 20" fill="none" xmlns="http://www.w3.org/2000/svg">
<path fill-rule="evenodd" clip-rule="evenodd" d="M8.7809 19.3626C9.05236 19.7481 9.50088 20 10.0082 20C10.5242 20 10.9793 19.7395 11.2492 19.3429C11.2854 19.3177 11.3195 19.2892 11.3512 19.2575L19.7658 10.8429C20.1758 10.4329 20.036 9.62822 19.4534 9.04568C18.8709 8.46314 18.0662 8.32331 17.6562 8.73336L11.5082 14.8813L11.5082 1.5C11.5082 0.671574 10.8367 0 10.0082 0C9.1798 0 8.50822 0.671574 8.50822 1.5L8.50822 14.8836L2.35103 8.72643C1.94098 8.31638 1.13476 8.45777 0.550297 9.04224C-0.0341682 9.6267 -0.175558 10.4329 0.234491 10.843L8.64906 19.2575C8.68938 19.2979 8.73352 19.3328 8.7809 19.3626Z" fill="white"/>
</svg>
