<svg viewBox="0 0 20 20" fill="none" xmlns="http://www.w3.org/2000/svg">
<path fill-rule="evenodd" clip-rule="evenodd" d="M11.2201 0.637407C10.9486 0.251878 10.5001 0 9.99275 0C9.4768 0 9.02169 0.260499 8.75177 0.657149C8.7156 0.682342 8.68151 0.710777 8.64979 0.742504L0.235215 9.15707C-0.174835 9.56712 -0.0350048 10.3718 0.547535 10.9543C1.13007 11.5369 1.93473 11.6767 2.34478 11.2666L8.49275 5.11866L8.49275 18.5C8.49275 19.3284 9.16432 20 9.99275 20C10.8212 20 11.4928 19.3284 11.4928 18.5L11.4928 5.11637L17.65 11.2736C18.06 11.6836 18.8662 11.5422 19.4507 10.9578C20.0351 10.3733 20.1765 9.56708 19.7665 9.15703L11.3519 0.742462C11.3116 0.702148 11.2675 0.667164 11.2201 0.637407Z" fill="white"/>
</svg>
