<svg width="23" height="21" viewBox="0 0 23 21" fill="none" xmlns="http://www.w3.org/2000/svg">
<path fill-rule="evenodd" clip-rule="evenodd" d="M11.9186 19.7046C11.7847 19.5711 11.6785 19.4124 11.6061 19.2378C11.5336 19.0632 11.4963 18.876 11.4963 18.6869C11.4963 18.4979 11.5336 18.3107 11.6061 18.1361C11.6785 17.9614 11.7847 17.8028 11.9186 17.6693L19.5277 10.063L11.9186 2.45676C11.785 2.32312 11.6789 2.16447 11.6066 1.98987C11.5343 1.81526 11.4971 1.62813 11.4971 1.43914C11.4971 1.25015 11.5343 1.06301 11.6066 0.888402C11.6789 0.713799 11.785 0.55515 11.9186 0.421515C12.0522 0.287879 12.2109 0.181872 12.3855 0.10955C12.5601 0.0372267 12.7472 2.91837e-06 12.9362 2.93489e-06C13.1252 2.95141e-06 13.3123 0.0372268 13.4869 0.10955C13.6615 0.181873 13.8202 0.287879 13.9538 0.421516L22.5777 9.04542C22.7116 9.17893 22.8178 9.33755 22.8902 9.51217C22.9627 9.68679 23 9.87398 23 10.063C23 10.2521 22.9627 10.4393 22.8902 10.6139C22.8178 10.7885 22.7116 10.9471 22.5777 11.0807L13.9538 19.7046C13.8203 19.8384 13.6617 19.9446 13.4871 20.0171C13.3125 20.0895 13.1253 20.1268 12.9362 20.1268C12.7472 20.1268 12.56 20.0895 12.3853 20.0171C12.2107 19.9446 12.0521 19.8384 11.9186 19.7046Z" fill="#1C5275"/>
<path fill-rule="evenodd" clip-rule="evenodd" d="M21.5597 10.0627C21.5597 10.4439 21.4083 10.8095 21.1387 11.079C20.8692 11.3486 20.5036 11.5 20.1224 11.5L1.43724 11.5C1.05604 11.5 0.690451 11.3486 0.4209 11.079C0.151352 10.8095 -7.8109e-05 10.4439 -7.80756e-05 10.0627C-7.80423e-05 9.68148 0.151352 9.31589 0.420901 9.04634C0.690451 8.77679 1.05604 8.62536 1.43724 8.62536L20.1224 8.62536C20.5036 8.62536 20.8692 8.77679 21.1387 9.04634C21.4083 9.31589 21.5597 9.68148 21.5597 10.0627Z" fill="#1C5275"/>
</svg>
