<svg width="30" height="30" viewBox="0 0 30 30" fill="none" xmlns="http://www.w3.org/2000/svg">
<circle cx="15" cy="15" r="15" fill="#F7F4F2"/>
<path d="M19 22C19 17.2 19 16 14.5 16C10 16 10 17.2 10 22" stroke="#1C5275"/>
<circle cx="14.5" cy="11.1237" r="3" stroke="#1C5275"/>
<mask id="path-4-inside-1" fill="white">
<path d="M20.4788 13.6756C20.949 12.7777 21.162 11.7673 21.0942 10.756C21.0264 9.74463 20.6805 8.77169 20.0946 7.94459L19.0873 8.65813C19.5417 9.29961 19.81 10.0542 19.8626 10.8385C19.9152 11.6229 19.75 12.4065 19.3852 13.1029L20.4788 13.6756Z"/>
</mask>
<path d="M20.4788 13.6756C20.949 12.7777 21.162 11.7673 21.0942 10.756C21.0264 9.74463 20.6805 8.77169 20.0946 7.94459L19.0873 8.65813C19.5417 9.29961 19.81 10.0542 19.8626 10.8385C19.9152 11.6229 19.75 12.4065 19.3852 13.1029L20.4788 13.6756Z" stroke="#1C5275" stroke-width="2" mask="url(#path-4-inside-1)"/>
<mask id="path-5-inside-2" fill="white">
<path d="M22.7676 14.6033C23.4071 13.3824 23.6977 12.0088 23.6076 10.6335C23.5176 9.25816 23.0503 7.93425 22.257 6.80712L21.1481 7.58752C21.798 8.51087 22.1808 9.59543 22.2546 10.7221C22.3284 11.8488 22.0903 12.974 21.5664 13.9742L22.7676 14.6033Z"/>
</mask>
<path d="M22.7676 14.6033C23.4071 13.3824 23.6977 12.0088 23.6076 10.6335C23.5176 9.25816 23.0503 7.93425 22.257 6.80712L21.1481 7.58752C21.798 8.51087 22.1808 9.59543 22.2546 10.7221C22.3284 11.8488 22.0903 12.974 21.5664 13.9742L22.7676 14.6033Z" stroke="#1C5275" stroke-width="2" mask="url(#path-5-inside-2)"/>
<line x1="10" y1="21.5" x2="19" y2="21.5" stroke="#1C5275"/>
</svg>
