<svg width="30" height="30" viewBox="0 0 30 30" fill="none" xmlns="http://www.w3.org/2000/svg">
<circle cx="15" cy="15" r="15" fill="#F7F4F2"/>
<rect x="6.5" y="16.5" width="17" height="3" stroke="#1C5275" stroke-linecap="round" stroke-linejoin="round"/>
<mask id="path-3-inside-1" fill="white">
<path d="M16.4355 9.81208C15.5569 9.2638 14.5438 8.96898 13.5082 8.96018C12.4726 8.95138 11.4546 9.22894 10.5668 9.7622L11.2163 10.8434C11.9048 10.4299 12.6943 10.2146 13.4975 10.2214C14.3006 10.2282 15.0863 10.4569 15.7678 10.8821L16.4355 9.81208Z"/>
</mask>
<path d="M16.4355 9.81208C15.5569 9.2638 14.5438 8.96898 13.5082 8.96018C12.4726 8.95138 11.4546 9.22894 10.5668 9.7622L11.2163 10.8434C11.9048 10.4299 12.6943 10.2146 13.4975 10.2214C14.3006 10.2282 15.0863 10.4569 15.7678 10.8821L16.4355 9.81208Z" stroke="#1C5275" stroke-width="2" mask="url(#path-3-inside-1)"/>
<mask id="path-4-inside-2" fill="white">
<path d="M17.5569 7.55146C16.3622 6.80592 14.9851 6.40402 13.5769 6.38989C12.1687 6.37576 10.7839 6.74995 9.57443 7.47136L10.2842 8.66123C11.2749 8.07025 12.4094 7.76371 13.563 7.77529C14.7166 7.78687 15.8447 8.1161 16.8235 8.72685L17.5569 7.55146Z"/>
</mask>
<path d="M17.5569 7.55146C16.3622 6.80592 14.9851 6.40402 13.5769 6.38989C12.1687 6.37576 10.7839 6.74995 9.57443 7.47136L10.2842 8.66123C11.2749 8.07025 12.4094 7.76371 13.563 7.77529C14.7166 7.78687 15.8447 8.1161 16.8235 8.72685L17.5569 7.55146Z" stroke="#1C5275" stroke-width="2" mask="url(#path-4-inside-2)"/>
<line x1="13.5" y1="17" x2="13.5" y2="13" stroke="#1C5275"/>
<line x1="9.5" y1="21" x2="9.5" y2="19" stroke="#1C5275"/>
<line x1="20.5" y1="21" x2="20.5" y2="19" stroke="#1C5275"/>
</svg>
