<svg viewBox="0 0 30 31" fill="none" xmlns="http://www.w3.org/2000/svg">
<rect y="0.312744" width="30" height="30" rx="15" fill="white"/>
<path fill-rule="evenodd" clip-rule="evenodd" d="M15 28.3447C22.1797 28.3447 28 22.5244 28 15.3447V15.3447C28 8.16503 22.1797 2.34473 15 2.34473V2.34473C7.8203 2.34473 2 8.16503 2 15.3447V15.3447C2 22.5244 7.8203 28.3447 15 28.3447V28.3447ZM15 0.344727C6.71573 0.344727 0 7.06046 0 15.3447V15.3447C0 23.629 6.71573 30.3447 15 30.3447V30.3447C23.2843 30.3447 30 23.629 30 15.3447V15.3447C30 7.06046 23.2843 0.344727 15 0.344727V0.344727Z" fill="#D6C9C9"/>
<path d="M12.5 7.31274L14.1839 12.4951H19.6329L15.2245 15.698L16.9084 20.8804L12.5 17.6775L8.09161 20.8804L9.77547 15.698L5.36708 12.4951H10.8161L12.5 7.31274Z" fill="#ECA400"/>
<circle cx="20" cy="7.31274" r="1" fill="#ECA400"/>
<circle cx="24" cy="12.3127" r="1" fill="#ECA400"/>
<circle cx="24" cy="17.3127" r="1" fill="#ECA400"/>
<circle cx="20" cy="22.3127" r="1" fill="#ECA400"/>
</svg>
