<svg viewBox="0 0 30 31" fill="none" xmlns="http://www.w3.org/2000/svg">
<path fill-rule="evenodd" clip-rule="evenodd" d="M15 28.5283C22.1797 28.5283 28 22.708 28 15.5283C28 8.34862 22.1797 2.52832 15 2.52832C7.8203 2.52832 2 8.34862 2 15.5283C2 22.708 7.8203 28.5283 15 28.5283ZM15 0.52832C6.71573 0.52832 0 7.24405 0 15.5283C0 23.8126 6.71573 30.5283 15 30.5283C23.2843 30.5283 30 23.8126 30 15.5283C30 7.24405 23.2843 0.52832 15 0.52832Z" fill="#D6C9C9"/>
<path d="M21.9801 12.5209C22.0853 12.4245 22.1696 12.3082 22.2282 12.179C22.2867 12.0499 22.3181 11.9104 22.3207 11.7691C22.3232 11.6277 22.2968 11.4872 22.2429 11.3561C22.1891 11.225 22.1089 11.1059 22.0072 11.0059C21.9056 10.9059 21.7845 10.8271 21.6511 10.7741C21.5178 10.7212 21.375 10.6952 21.2312 10.6977C21.0875 10.7002 20.9457 10.7311 20.8144 10.7887C20.683 10.8462 20.5648 10.9292 20.4668 11.0326L13.3715 18.0104L10.5591 15.2446C10.4611 15.1411 10.3429 15.0581 10.2116 15.0006C10.0802 14.943 9.93844 14.9121 9.79468 14.9096C9.65091 14.9071 9.50811 14.9331 9.37479 14.9861C9.24147 15.039 9.12036 15.1178 9.01868 15.2178C8.91701 15.3178 8.83686 15.4369 8.78301 15.568C8.72915 15.6992 8.70271 15.8396 8.70524 15.981C8.70778 16.1224 8.73925 16.2618 8.79777 16.391C8.85629 16.5201 8.94067 16.6364 9.04586 16.7328L12.6149 20.2427C12.8157 20.4399 13.0878 20.5506 13.3715 20.5506C13.6553 20.5506 13.9274 20.4399 14.1282 20.2427L21.9801 12.5209Z" fill="#ECA400"/>
</svg>
