<svg width="30" height="30" viewBox="0 0 30 30" fill="none" xmlns="http://www.w3.org/2000/svg">
<circle cx="15" cy="15" r="15" fill="#F7F4F2"/>
<path fill-rule="evenodd" clip-rule="evenodd" d="M19.755 15.9686C18.496 16.6209 16.8134 17 15 17C13.1866 17 11.504 16.6209 10.245 15.9686C9.02141 15.3347 8 14.3229 8 13C8 11.6771 9.02141 10.6653 10.245 10.0314C11.504 9.37909 13.1866 9 15 9C16.8134 9 18.496 9.37909 19.755 10.0314C20.9786 10.6653 22 11.6771 22 13C22 14.3229 20.9786 15.3347 19.755 15.9686ZM15 16.2C18.4112 16.2 21.1765 14.7673 21.1765 13C21.1765 11.2327 18.4112 9.8 15 9.8C11.5888 9.8 8.82353 11.2327 8.82353 13C8.82353 14.7673 11.5888 16.2 15 16.2Z" fill="#1C5275"/>
<path fill-rule="evenodd" clip-rule="evenodd" d="M8.875 17C8.875 17.3521 9.00185 17.7208 9.28257 18.088C9.5655 18.4581 9.99557 18.8132 10.5655 19.122C11.1341 19.4301 11.8189 19.6794 12.583 19.8509C13.3465 20.0223 14.1681 20.1111 15 20.1111C15.8319 20.1111 16.6535 20.0223 17.417 19.8509C18.1811 19.6794 18.8659 19.4301 19.4345 19.122C20.0044 18.8132 20.4345 18.4581 20.7174 18.088C20.9982 17.7208 21.125 17.3521 21.125 17H22C22 17.5818 21.7874 18.1377 21.4085 18.6333C21.0318 19.126 20.4951 19.5548 19.8463 19.9063C19.1961 20.2586 18.434 20.533 17.6057 20.7189C16.7768 20.9049 15.8917 21 15 21C14.1083 21 13.2232 20.9049 12.3943 20.7189C11.566 20.533 10.8039 20.2586 10.1537 19.9063C9.50489 19.5548 8.96818 19.126 8.59151 18.6333C8.21264 18.1377 8 17.5818 8 17H8.875Z" fill="#1C5275"/>
<path fill-rule="evenodd" clip-rule="evenodd" d="M8.93333 21C8.93333 21.3521 9.00185 21.7208 9.28257 22.088C9.5655 22.4581 9.99557 22.8132 10.5655 23.122C11.1341 23.4301 11.8189 23.6794 12.583 23.8509C13.3465 24.0223 14.1681 24.1111 15 24.1111C15.8319 24.1111 16.6535 24.0223 17.417 23.8509C18.1811 23.6794 18.8659 23.4301 19.4345 23.122C20.0044 22.8132 20.4345 22.4581 20.7174 22.088C20.9982 21.7208 21.0667 21.3521 21.0667 21H22C22 21.5818 21.7874 22.1377 21.4085 22.6333C21.0318 23.126 20.4951 23.5548 19.8463 23.9063C19.1961 24.2586 18.434 24.533 17.6057 24.7189C16.7768 24.9049 15.8917 25 15 25C14.1083 25 13.2232 24.9049 12.3943 24.7189C11.566 24.533 10.8039 24.2586 10.1537 23.9063C9.50489 23.5548 8.96818 23.126 8.59151 22.6333C8.21264 22.1377 8 21.5818 8 21H8.93333Z" fill="#1C5275"/>
<path fill-rule="evenodd" clip-rule="evenodd" d="M7.99977 21L7.99977 13L8.93311 14.1429L8.93311 21L7.99977 21Z" fill="#1C5275"/>
<path fill-rule="evenodd" clip-rule="evenodd" d="M21.0667 21L21.0667 14.1429L22 13L22 21L21.0667 21Z" fill="#1C5275"/>
<path fill-rule="evenodd" clip-rule="evenodd" d="M11.1591 7.15325L14.6159 4.13874C14.828 3.95375 15.172 3.95375 15.3841 4.13874L18.8409 7.15325C19.053 7.33823 19.053 7.63815 18.8409 7.82314C18.6288 8.00812 18.2849 8.00812 18.0727 7.82314L15.5432 5.61726L15.5432 13L14.4568 13L14.4568 5.61726L11.9273 7.82314C11.7151 8.00812 11.3712 8.00812 11.1591 7.82314C10.947 7.63815 10.947 7.33823 11.1591 7.15325Z" fill="#1C5275"/>
</svg>
