<svg viewBox="0 0 30 31" fill="none" xmlns="http://www.w3.org/2000/svg">
<path fill-rule="evenodd" clip-rule="evenodd" d="M15 28.5281C22.1797 28.5281 28 22.7078 28 15.5281C28 8.34838 22.1797 2.52808 15 2.52808C7.8203 2.52808 2 8.34838 2 15.5281C2 22.7078 7.8203 28.5281 15 28.5281ZM15 0.528076C6.71573 0.528076 0 7.24381 0 15.5281C0 23.8123 6.71573 30.5281 15 30.5281C23.2843 30.5281 30 23.8123 30 15.5281C30 7.24381 23.2843 0.528076 15 0.528076Z" fill="#D6C9C9"/>
<line x1="15" y1="7.49609" x2="15" y2="17.4961" stroke="#ECA400" stroke-width="2" stroke-linecap="round"/>
<line x1="15" y1="21.4961" x2="15" y2="22.4961" stroke="#ECA400" stroke-width="2" stroke-linecap="round"/>
</svg>
