<svg viewBox="0 0 15 20" fill="none" xmlns="http://www.w3.org/2000/svg">
<path d="M0.686836 18.4666H13.6412C13.8175 18.4672 13.9868 18.5353 14.1144 18.6569C14.242 18.7785 14.3181 18.9443 14.3271 19.1203C14.3362 19.2964 14.2774 19.4692 14.163 19.6032C14.0485 19.7372 13.887 19.8223 13.7118 19.8409L13.6412 19.8447H0.686836C0.510588 19.8442 0.341258 19.7761 0.213672 19.6545C0.0860864 19.5329 0.00994459 19.367 0.000907202 19.191C-0.00813019 19.015 0.0506239 18.8422 0.165085 18.7082C0.279547 18.5742 0.441013 18.4891 0.616276 18.4705L0.686836 18.4666ZM6.95565 0.00321559L7.02621 -9.19104e-05C7.38287 -9.19104e-05 7.67669 0.271121 7.71197 0.618406L7.71527 0.688965V14.0787L10.8282 10.9664C10.8918 10.9006 10.9678 10.8481 11.0519 10.812C11.136 10.7759 11.2264 10.757 11.3179 10.7562C11.4094 10.7554 11.5001 10.7729 11.5848 10.8076C11.6695 10.8422 11.7464 10.8934 11.8111 10.9581C11.8757 11.0228 11.9269 11.0998 11.9615 11.1845C11.9961 11.2692 12.0135 11.3599 12.0127 11.4514C12.0119 11.5429 11.9929 11.6333 11.9567 11.7174C11.9206 11.8014 11.8681 11.8774 11.8022 11.941L7.51462 16.2286C7.38541 16.3577 7.21024 16.4302 7.02759 16.4302C6.84494 16.4302 6.66977 16.3577 6.54056 16.2286L2.25239 11.941C2.12314 11.8117 2.05054 11.6365 2.05054 11.4537C2.05054 11.2709 2.12314 11.0956 2.25239 10.9664C2.38163 10.8371 2.55692 10.7645 2.73969 10.7645C2.92247 10.7645 3.09775 10.8371 3.227 10.9664L6.33715 14.0765V0.688965C6.33715 0.332309 6.60836 0.0384953 6.95565 0.00321559Z" fill="white"/>
</svg>
