<svg viewBox="0 0 30 31" fill="none" xmlns="http://www.w3.org/2000/svg">
<path d="M0 0.52832H15H30V5.92832V30.5283H0V0.52832Z" fill="white"/>
<path fill-rule="evenodd" clip-rule="evenodd" d="M28 28.5283V2.52832H2V28.5283H28ZM0 0.52832V30.5283H30V0.52832H0Z" fill="#D6C9C9"/>
<rect x="28" y="18.5283" width="2" height="12" fill="#ECA400"/>
<path fill-rule="evenodd" clip-rule="evenodd" d="M15 7.52832C15.5523 7.52832 16 7.92007 16 8.40332L16 20.6533C16 21.1366 15.5523 21.5283 15 21.5283C14.4477 21.5283 14 21.1366 14 20.6533L14 8.40332C14 7.92007 14.4477 7.52832 15 7.52832Z" fill="#D6C9C9"/>
<path fill-rule="evenodd" clip-rule="evenodd" d="M21.3374 16.7775C21.7034 17.1815 21.6539 17.7897 21.227 18.136L15.6464 22.6626C15.2195 23.0089 14.5768 22.9621 14.2109 22.5581C13.845 22.1541 13.8944 21.5459 14.3213 21.1996L19.9019 16.673C20.3288 16.3268 20.9715 16.3736 21.3374 16.7775Z" fill="#ECA400"/>
<path fill-rule="evenodd" clip-rule="evenodd" d="M8.66256 16.7775C8.29664 17.1815 8.34608 17.7897 8.77298 18.136L14.3536 22.6626C14.7805 23.0089 15.4232 22.9621 15.7891 22.5581C16.155 22.1541 16.1056 21.5459 15.6787 21.1996L10.0981 16.673C9.67119 16.3268 9.02848 16.3736 8.66256 16.7775Z" fill="#ECA400"/>
</svg>
