<svg width="30" height="30" viewBox="0 0 30 30" fill="none" xmlns="http://www.w3.org/2000/svg">
<circle cx="15" cy="15" r="15" fill="#F7F4F2"/>
<path fill-rule="evenodd" clip-rule="evenodd" d="M7 7.5C7 7.36739 7.05268 7.24021 7.14645 7.14645C7.24021 7.05268 7.36739 7 7.5 7H9C9.11153 7.00003 9.21985 7.03735 9.30773 7.10602C9.39561 7.1747 9.45801 7.27078 9.485 7.379L9.89 9H23.5C23.5734 9.00007 23.6459 9.0163 23.7124 9.04755C23.7788 9.0788 23.8375 9.12429 23.8844 9.1808C23.9313 9.23731 23.9651 9.30345 23.9835 9.37452C24.002 9.44558 24.0045 9.51984 23.991 9.592L22.491 16.592C22.4696 16.7066 22.4087 16.8101 22.3191 16.8846C22.2294 16.9591 22.1166 16.9999 22 17H11C10.8834 16.9999 10.7706 16.9591 10.6809 16.8846C10.5913 16.8101 10.5304 16.7066 10.509 16.592L9.01 9.607L8.61 8H7.5C7.36739 8 7.24021 7.94732 7.14645 7.85355C7.05268 7.75979 7 7.63261 7 7.5ZM10.102 10L11.415 16H21.585L22.898 10H10.102ZM12 18C11.4696 18 10.9609 18.2107 10.5858 18.5858C10.2107 18.9609 10 19.4696 10 20C10 20.5304 10.2107 21.0391 10.5858 21.4142C10.9609 21.7893 11.4696 22 12 22C12.5304 22 13.0391 21.7893 13.4142 21.4142C13.7893 21.0391 14 20.5304 14 20C14 19.4696 13.7893 18.9609 13.4142 18.5858C13.0391 18.2107 12.5304 18 12 18ZM21 18C20.4696 18 19.9609 18.2107 19.5858 18.5858C19.2107 18.9609 19 19.4696 19 20C19 20.5304 19.2107 21.0391 19.5858 21.4142C19.9609 21.7893 20.4696 22 21 22C21.5304 22 22.0391 21.7893 22.4142 21.4142C22.7893 21.0391 23 20.5304 23 20C23 19.4696 22.7893 18.9609 22.4142 18.5858C22.0391 18.2107 21.5304 18 21 18ZM12 19C11.7348 19 11.4804 19.1054 11.2929 19.2929C11.1054 19.4804 11 19.7348 11 20C11 20.2652 11.1054 20.5196 11.2929 20.7071C11.4804 20.8946 11.7348 21 12 21C12.2652 21 12.5196 20.8946 12.7071 20.7071C12.8946 20.5196 13 20.2652 13 20C13 19.7348 12.8946 19.4804 12.7071 19.2929C12.5196 19.1054 12.2652 19 12 19ZM21 19C20.7348 19 20.4804 19.1054 20.2929 19.2929C20.1054 19.4804 20 19.7348 20 20C20 20.2652 20.1054 20.5196 20.2929 20.7071C20.4804 20.8946 20.7348 21 21 21C21.2652 21 21.5196 20.8946 21.7071 20.7071C21.8946 20.5196 22 20.2652 22 20C22 19.7348 21.8946 19.4804 21.7071 19.2929C21.5196 19.1054 21.2652 19 21 19Z" fill="#1C5275"/>
</svg>
