<svg viewBox="0 0 30 31" fill="none" xmlns="http://www.w3.org/2000/svg">
<path d="M0 0.52832H15H30V5.92832V30.5283H0V0.52832Z" fill="white"/>
<path fill-rule="evenodd" clip-rule="evenodd" d="M28 28.5283V2.52832H2V28.5283H28ZM0 0.52832V30.5283H30V0.52832H0Z" fill="#D6C9C9"/>
<rect x="28" y="18.5283" width="2" height="12" fill="#ECA400"/>
<path fill-rule="evenodd" clip-rule="evenodd" d="M9.64438 11.7685C8.30143 12.7896 7.54286 14.1405 7.54286 15.5668C7.54286 16.6271 7.95928 17.6375 8.72011 18.5076L8.9879 18.8138L8.49678 20.8582L11.4196 20.3673L11.6123 20.4401C12.6257 20.823 13.776 21.0412 15 21.0412C17.1215 21.0412 19.0124 20.3864 20.3556 19.3651C21.6986 18.344 22.4571 16.9931 22.4571 15.5668C22.4571 14.1405 21.6986 12.7896 20.3556 11.7685C19.0124 10.7472 17.1215 10.0924 15 10.0924C12.8785 10.0924 10.9876 10.7472 9.64438 11.7685ZM8.71866 10.5172C10.3536 9.27408 12.577 8.52832 15 8.52832C17.423 8.52832 19.6464 9.27408 21.2813 10.5172C22.9165 11.7605 24 13.5378 24 15.5668C24 17.5958 22.9165 19.3731 21.2813 20.6164C19.6464 21.8595 17.423 22.6053 15 22.6053C13.6735 22.6053 12.4097 22.3819 11.2703 21.9778L6.44519 22.7882L7.30129 19.2245C6.48691 18.1746 6 16.9238 6 15.5668C6 13.5378 7.08346 11.7605 8.71866 10.5172Z" fill="#ECA400"/>
<path d="M12.5571 15.5715C12.5571 15.8778 12.3141 16.1143 12.0286 16.1143C11.7431 16.1143 11.5 15.8778 11.5 15.5715C11.5 15.2653 11.7431 15.0288 12.0286 15.0288C12.3141 15.0288 12.5571 15.2653 12.5571 15.5715Z" fill="#ECA400" stroke="#ECA400"/>
<path d="M15.6441 15.5711C15.6441 15.8773 15.401 16.1138 15.1155 16.1138C14.83 16.1138 14.5869 15.8773 14.5869 15.5711C14.5869 15.2648 14.83 15.0283 15.1155 15.0283C15.401 15.0283 15.6441 15.2648 15.6441 15.5711Z" fill="#ECA400" stroke="#ECA400"/>
<path d="M18.728 15.5711C18.728 15.8773 18.485 16.1138 18.1995 16.1138C17.914 16.1138 17.6709 15.8773 17.6709 15.5711C17.6709 15.2648 17.914 15.0283 18.1995 15.0283C18.485 15.0283 18.728 15.2648 18.728 15.5711Z" fill="#ECA400" stroke="#ECA400"/>
</svg>
