<svg width="30" height="30" viewBox="0 0 30 30" fill="none" xmlns="http://www.w3.org/2000/svg">
<path d="M0 0H15H30V5.4V30H0V0Z" fill="white"/>
<path fill-rule="evenodd" clip-rule="evenodd" d="M28 28V2H2V28H28ZM0 0V30H30V0H0Z" fill="#D6C9C9"/>
<rect x="28" y="18" width="2" height="12" fill="#ECA400"/>
<rect x="7.5" y="7.5" width="15" height="15" rx="1.5" fill="#ECA400" stroke="#ECA400"/>
<rect x="11" y="11" width="12" height="12" fill="white"/>
<path d="M11 7V23" stroke="white"/>
<path d="M23 11L7 11" stroke="white"/>
<path d="M13.5 19.5L16.5 19.5C19.2614 19.5 21.5 17.2614 21.5 14.5L21.5 11.5" stroke="#ECA400" stroke-width="2"/>
<path d="M16.5 16.5L13.5 19.5L16.5 22.5" stroke="#ECA400" stroke-width="2"/>
</svg>
