<svg viewBox="0 0 30 30" fill="none" xmlns="http://www.w3.org/2000/svg">
<path d="M1 1H15H29V5.4V29H1V1Z" fill="white" stroke="#D6C9C9" stroke-width="2"/>
<rect x="28" y="18" width="2" height="12" fill="#ECA400"/>
<path d="M10.7397 14.2632H19.261C19.8972 14.2632 20.2351 13.5113 19.8123 13.0358L15.552 8.24783C15.4829 8.16991 15.398 8.10753 15.303 8.06481C15.208 8.02209 15.1049 8 15.0007 8C14.8965 8 14.7935 8.02209 14.6985 8.06481C14.6034 8.10753 14.5186 8.16991 14.4495 8.24783L10.1877 13.0358C9.76483 13.5113 10.1028 14.2632 10.7397 14.2632ZM14.4487 21.7522C14.5178 21.8301 14.6027 21.8925 14.6977 21.9352C14.7928 21.9779 14.8958 22 15 22C15.1042 22 15.2072 21.9779 15.3022 21.9352C15.3973 21.8925 15.4821 21.8301 15.5513 21.7522L19.8115 16.9642C20.2351 16.4895 19.8972 15.7375 19.2603 15.7375H10.7397C10.1036 15.7375 9.76557 16.4895 10.1884 16.9649L14.4487 21.7522Z" fill="#ECA400"/>
</svg>
