<svg width="31" height="27" viewBox="0 0 31 27" fill="none" xmlns="http://www.w3.org/2000/svg">
<path d="M4 6C4 5.17157 4.67157 4.5 5.5 4.5H25.5C26.3284 4.5 27 5.17157 27 6C27 6.82843 26.3284 7.5 25.5 7.5H5.5C4.67157 7.5 4 6.82843 4 6Z" fill="black"/>
<path d="M4 14C4 13.1716 4.67157 12.5 5.5 12.5H25.5C26.3284 12.5 27 13.1716 27 14C27 14.8284 26.3284 15.5 25.5 15.5H5.5C4.67157 15.5 4 14.8284 4 14Z" fill="black"/>
<path d="M4 22C4 21.1716 4.67157 20.5 5.5 20.5H25.5C26.3284 20.5 27 21.1716 27 22C27 22.8284 26.3284 23.5 25.5 23.5H5.5C4.67157 23.5 4 22.8284 4 22Z" fill="black"/>
</svg>
