<svg width="83" height="80" viewBox="0 0 83 80" fill="none" xmlns="http://www.w3.org/2000/svg">
<path d="M61 62L80 77" stroke="#ECA400" stroke-width="6" stroke-linecap="round"/>
<circle cx="35" cy="35" r="32" stroke="white" stroke-width="6"/>
<mask id="path-3-inside-1" fill="white">
<path d="M55.5553 28.8452C56.4417 28.4809 56.8704 27.4635 56.4443 26.605C54.2019 22.0884 50.6124 18.3597 46.1518 15.9481C41.6912 13.5365 36.6056 12.5751 31.5985 13.1724C30.6468 13.2859 30.0303 14.2018 30.2109 15.1431C30.3915 16.0843 31.3008 16.6934 32.2537 16.591C36.4725 16.1377 40.745 16.9704 44.5012 19.0012C48.2574 21.0319 51.2939 24.1508 53.225 27.9289C53.6612 28.7823 54.6688 29.2096 55.5553 28.8452Z"/>
</mask>
<path d="M55.5553 28.8452C56.4417 28.4809 56.8704 27.4635 56.4443 26.605C54.2019 22.0884 50.6124 18.3597 46.1518 15.9481C41.6912 13.5365 36.6056 12.5751 31.5985 13.1724C30.6468 13.2859 30.0303 14.2018 30.2109 15.1431C30.3915 16.0843 31.3008 16.6934 32.2537 16.591C36.4725 16.1377 40.745 16.9704 44.5012 19.0012C48.2574 21.0319 51.2939 24.1508 53.225 27.9289C53.6612 28.7823 54.6688 29.2096 55.5553 28.8452Z" stroke="#ECA400" stroke-width="12" mask="url(#path-3-inside-1)"/>
</svg>
