<svg viewBox="0 0 30 31" fill="none" xmlns="http://www.w3.org/2000/svg">
<path fill-rule="evenodd" clip-rule="evenodd" d="M15 28.4963C22.1797 28.4963 28 22.676 28 15.4963C28 8.31664 22.1797 2.49634 15 2.49634C7.8203 2.49634 2 8.31664 2 15.4963C2 22.676 7.8203 28.4963 15 28.4963ZM15 0.496338C6.71573 0.496338 0 7.21207 0 15.4963C0 23.7806 6.71573 30.4963 15 30.4963C23.2843 30.4963 30 23.7806 30 15.4963C30 7.21207 23.2843 0.496338 15 0.496338Z" fill="#D6C9C9"/>
<path d="M21.0663 21.43V9.56264H23.9337V21.43H21.0663Z" fill="#ECA400" stroke="#ECA400" stroke-width="0.132604"/>
<path d="M16.0663 21.43V11.5626H18.9337V21.43H16.0663Z" fill="#ECA400" stroke="#ECA400" stroke-width="0.132604"/>
<path d="M11.0663 21.43V13.5626H13.9337V21.43H11.0663Z" fill="#ECA400" stroke="#ECA400" stroke-width="0.132604"/>
<path d="M6.0663 21.43V14.5626H8.9337V21.43H6.0663Z" fill="#ECA400" stroke="#ECA400" stroke-width="0.132604"/>
</svg>
