<svg viewBox="0 0 31 31" fill="none" xmlns="http://www.w3.org/2000/svg">
<path fill-rule="evenodd" clip-rule="evenodd" d="M22.8489 23.4143C23.3174 22.9073 24.1083 22.8762 24.6153 23.3447L28.7402 27.1569C29.2472 27.6255 29.2783 28.4163 28.8098 28.9233C28.3412 29.4303 27.5504 29.4615 27.0434 28.9929L22.9185 25.1807C22.4115 24.7122 22.3803 23.9213 22.8489 23.4143Z" fill="#ECA400"/>
<path fill-rule="evenodd" clip-rule="evenodd" d="M14.4998 0.296387C6.9335 0.296387 0.799805 6.43009 0.799805 13.9964C0.799805 21.5627 6.9335 27.6964 14.4998 27.6964C22.0661 27.6964 28.1998 21.5627 28.1998 13.9964C28.1998 6.43009 22.0661 0.296387 14.4998 0.296387ZM2.9998 13.9964C2.9998 7.64511 8.14853 2.49639 14.4998 2.49639C20.8511 2.49639 25.9998 7.64511 25.9998 13.9964C25.9998 20.3477 20.8511 25.4964 14.4998 25.4964C8.14853 25.4964 2.9998 20.3477 2.9998 13.9964Z" fill="#D6C9C9"/>
<path fill-rule="evenodd" clip-rule="evenodd" d="M17.5718 7.12853C18.145 7.31413 18.7033 7.56098 19.238 7.86767C19.2577 7.87899 19.2774 7.89038 19.2971 7.90185C19.8642 8.23293 20.3938 8.6255 20.8786 9.07116C21.7242 9.84839 22.434 10.7871 22.9708 11.8427C22.9984 11.8971 23.0296 11.9487 23.0639 11.9973C23.3659 12.426 23.9085 12.6228 24.3879 12.41C24.9018 12.1819 25.1517 11.5674 24.9029 11.0474C24.8694 10.9772 24.8352 10.9074 24.8004 10.8381C24.2125 9.66583 23.4509 8.60985 22.5492 7.71045C21.8822 7.04508 21.1385 6.4654 20.3317 5.98774C20.3121 5.97615 20.2925 5.96462 20.2729 5.95315C19.4929 5.49785 18.6711 5.14716 17.8255 4.90406C17.7968 4.89579 17.768 4.88765 17.7392 4.87964C16.5629 4.55224 15.3418 4.4325 14.1241 4.52843C14.0377 4.53524 13.9512 4.54313 13.8649 4.55212C13.2858 4.61235 12.9122 5.19088 13.0179 5.78559C13.113 6.32074 13.5638 6.68786 14.0752 6.73548C14.1436 6.74185 14.213 6.74251 14.2829 6.73709C15.3942 6.6508 16.5087 6.78432 17.5718 7.12853Z" fill="#ECA400"/>
</svg>
