<svg viewBox="0 0 31 30" fill="none" xmlns="http://www.w3.org/2000/svg">
<path d="M22 23L29.1249 28.8442" stroke="#ECA400" stroke-width="2" stroke-linecap="round"/>
<path d="M25.2497 13.6364C25.2497 20.6516 19.7855 26.2727 13.1249 26.2727C6.46418 26.2727 1 20.6516 1 13.6364C1 6.62112 6.46418 1 13.1249 1C19.7855 1 25.2497 6.62112 25.2497 13.6364Z" stroke="#E5DCD2" stroke-width="2"/>
<mask id="path-3-inside-1" fill="white">
<path d="M20.6784 11.3045C21.0995 11.1246 21.3042 10.6401 21.1004 10.2301C20.2559 8.53128 18.9364 7.12889 17.3068 6.21354C15.6956 5.3085 13.8669 4.9277 12.0565 5.10891C11.582 5.1564 11.2759 5.61254 11.3625 6.08143C11.4509 6.55981 11.9139 6.86789 12.399 6.83164C13.8186 6.72557 15.2446 7.04077 16.5073 7.75C17.7825 8.4663 18.8253 9.54764 19.5173 10.8572C19.7395 11.2777 20.241 11.4913 20.6784 11.3045Z"/>
</mask>
<path d="M20.6784 11.3045C21.0995 11.1246 21.3042 10.6401 21.1004 10.2301C20.2559 8.53128 18.9364 7.12889 17.3068 6.21354C15.6956 5.3085 13.8669 4.9277 12.0565 5.10891C11.582 5.1564 11.2759 5.61254 11.3625 6.08143C11.4509 6.55981 11.9139 6.86789 12.399 6.83164C13.8186 6.72557 15.2446 7.04077 16.5073 7.75C17.7825 8.4663 18.8253 9.54764 19.5173 10.8572C19.7395 11.2777 20.241 11.4913 20.6784 11.3045Z" stroke="#ECA400" stroke-width="8" mask="url(#path-3-inside-1)"/>
</svg>
