<svg viewBox="0 0 18 18" fill="none" xmlns="http://www.w3.org/2000/svg">
<path d="M3.52969 0.00445557C1.59079 0.00445557 0.00390625 1.5913 0.00390625 3.53024V14.4714C0.00390625 16.4103 1.59075 17.9966 3.52969 17.9966H14.4708C16.4098 17.9966 17.996 16.4103 17.996 14.4714V3.53024C17.996 1.59134 16.4098 0.00445557 14.4708 0.00445557H3.52969ZM4.41648 2.97352C5.34614 2.97352 5.91878 3.58383 5.93645 4.38607C5.93645 5.1706 5.34611 5.79806 4.3985 5.79806H4.38106C3.46909 5.79806 2.87964 5.17064 2.87964 4.38607C2.87964 3.58385 3.48692 2.97352 4.41646 2.97352H4.41648ZM12.4279 6.7231C14.2158 6.7231 15.5561 7.8917 15.5561 10.4029V15.091H12.839V10.7173C12.839 9.61819 12.4457 8.86834 11.4624 8.86834C10.7117 8.86834 10.2643 9.37374 10.0679 9.86198C9.99608 10.0366 9.97845 10.2806 9.97845 10.525V15.091H7.26129C7.26129 15.091 7.29695 7.682 7.26129 6.91484H9.979V8.07267C10.3401 7.51557 10.986 6.72308 12.4279 6.72308V6.7231ZM3.03991 6.91543H5.75707V15.0911H3.03991V6.91543Z" fill="white"/>
</svg>
