<svg viewBox="0 0 31 31" fill="none" xmlns="http://www.w3.org/2000/svg">
<path d="M0 0.52832H15H30V5.92832V30.5283H0V0.52832Z" fill="white"/>
<path d="M2 2.52832V28.5283H16C16.5523 28.5283 17 28.976 17 29.5283C17 30.0806 16.5523 30.5283 16 30.5283H0V0.52832H30V18.5283C30 19.0806 29.5523 19.5283 29 19.5283C28.4477 19.5283 28 19.0806 28 18.5283V2.52832H2Z" fill="#D6C9C9"/>
<path fill-rule="evenodd" clip-rule="evenodd" d="M29.2177 22.6201C29.0579 22.5566 28.887 22.5255 28.7152 22.5285C28.5434 22.5315 28.3737 22.5685 28.2162 22.6375C28.0617 22.7052 27.9219 22.8024 27.8049 22.924L22.9362 27.712L21.2214 26.0256C21.1043 25.9039 20.9645 25.8067 20.81 25.739C20.6525 25.67 20.4828 25.633 20.311 25.63C20.1392 25.6271 19.9683 25.6581 19.8086 25.7216C19.6488 25.7851 19.5031 25.8798 19.3803 26.0004C19.2576 26.1212 19.1604 26.2654 19.0949 26.4249C19.0294 26.5843 18.9971 26.7554 19.0002 26.9279C19.0033 27.1003 19.0417 27.2701 19.1128 27.4271C19.1826 27.5811 19.2823 27.7194 19.4059 27.8344L22.0287 30.4138C22.2709 30.6517 22.5975 30.7839 22.9362 30.7839C23.275 30.7839 23.6018 30.6515 23.844 30.4136L29.6204 24.7329C29.7439 24.6179 29.8436 24.4796 29.9134 24.3256C29.9845 24.1686 30.0229 23.9988 30.026 23.8263C30.0291 23.6539 29.9968 23.4828 29.9313 23.3233C29.8659 23.1639 29.7686 23.0196 29.6459 22.8989C29.5232 22.7782 29.3774 22.6835 29.2177 22.6201Z" fill="#ECA400"/>
<rect x="24" y="7.52832" width="2" height="18" rx="1" transform="rotate(90 24 7.52832)" fill="#ECA400"/>
<rect x="24" y="12.5283" width="2" height="18" rx="1" transform="rotate(90 24 12.5283)" fill="#ECA400"/>
<rect x="22" y="17.5283" width="2" height="16" rx="1" transform="rotate(90 22 17.5283)" fill="#ECA400"/>
<rect x="18" y="22.5283" width="2" height="12" rx="1" transform="rotate(90 18 22.5283)" fill="#ECA400"/>
</svg>
