<svg viewBox="0 0 30 31" fill="none" xmlns="http://www.w3.org/2000/svg">
<path fill-rule="evenodd" clip-rule="evenodd" d="M15 28.5281C22.1797 28.5281 28 22.7078 28 15.5281C28 8.34838 22.1797 2.52808 15 2.52808C7.8203 2.52808 2 8.34838 2 15.5281C2 22.7078 7.8203 28.5281 15 28.5281ZM15 0.528076C6.71573 0.528076 0 7.24381 0 15.5281C0 23.8123 6.71573 30.5281 15 30.5281C23.2843 30.5281 30 23.8123 30 15.5281C30 7.24381 23.2843 0.528076 15 0.528076Z" fill="#D6C9C9"/>
<path d="M22.889 16.2351H22.8889H19.5555H19.5554C19.221 16.2354 18.9005 16.3683 18.6641 16.6048C18.4277 16.8412 18.2947 17.1617 18.2944 17.496V17.4962V18.4573H15.4032L13.0388 16.0929V13.2017H13.9999H14.0001C14.3344 13.2014 14.6549 13.0684 14.8913 12.832C15.1277 12.5956 15.2607 12.2751 15.261 11.9407V11.9406V8.60721V8.60706C15.2607 8.27274 15.1277 7.9522 14.8913 7.71579C14.6549 7.47939 14.3344 7.34643 14.0001 7.34609H13.9999L10.6666 7.34609L10.6664 7.34609C10.3321 7.34643 10.0115 7.47939 9.77514 7.71579C9.53873 7.9522 9.40578 8.27274 9.40544 8.60706V8.60721L9.40544 11.9406L9.40544 11.9407C9.40578 12.2751 9.53873 12.5956 9.77514 12.832C10.0115 13.0684 10.3321 13.2014 10.6664 13.2017H10.6666H11.6277V16.0929L9.05659 18.664L9.05658 18.664C8.92431 18.7963 8.85 18.9758 8.85 19.1629C8.85 19.3499 8.92431 19.5294 9.05658 19.6617L9.05659 19.6617L11.8344 22.4395L11.8344 22.4395C11.9667 22.5718 12.1462 22.6461 12.3332 22.6461C12.5203 22.6461 12.6998 22.5718 12.8321 22.4395L12.8321 22.4395L15.4032 19.8684H18.2944V20.8295V20.8297C18.2947 21.164 18.4277 21.4845 18.6641 21.721C18.9005 21.9574 19.221 22.0903 19.5554 22.0907H19.5555H22.8889H22.889C23.2234 22.0903 23.5439 21.9574 23.7803 21.721C24.0167 21.4845 24.1497 21.164 24.15 20.8297V20.8295V17.4962V17.496C24.1497 17.1617 24.0167 16.8412 23.7803 16.6048C23.5439 16.3683 23.2234 16.2354 22.889 16.2351ZM10.8166 8.75721H13.8499V11.7906H10.8166V8.75721ZM12.3332 20.943L10.5531 19.1629L12.3332 17.3827L14.1133 19.1629L12.3332 20.943ZM19.7055 17.6462H22.7389V20.6795H19.7055V17.6462Z" fill="#ECA400" stroke="#ECA400" stroke-width="0.3"/>
</svg>
