<svg viewBox="0 0 30 30" fill="none" xmlns="http://www.w3.org/2000/svg">
<path d="M15 29H1V1H15H29V6.04V17.52" stroke="#D6C9C9" stroke-width="2" stroke-linecap="round"/>
<rect x="25" y="5" width="2" height="20" rx="1" transform="rotate(90 25 5)" fill="#ECA400"/>
<rect x="25" y="10" width="2" height="20" rx="1" transform="rotate(90 25 10)" fill="#ECA400"/>
<rect x="23" y="15" width="2" height="18" rx="1" transform="rotate(90 23 15)" fill="#ECA400"/>
<rect x="19" y="20" width="2" height="14" rx="1" transform="rotate(90 19 20)" fill="#ECA400"/>
<path d="M28.7489 23.087C28.8264 23.0161 28.8885 22.9305 28.9316 22.8353C28.9747 22.7402 28.9979 22.6376 28.9997 22.5334C29.0016 22.4293 28.9821 22.3259 28.9425 22.2294C28.9028 22.1328 28.8438 22.0451 28.7689 21.9715C28.6941 21.8979 28.6049 21.8398 28.5067 21.8008C28.4085 21.7618 28.3034 21.7427 28.1975 21.7445C28.0916 21.7463 27.9872 21.7691 27.8905 21.8115C27.7938 21.8539 27.7068 21.915 27.6346 21.9912L22.4099 27.1294L20.3389 25.0927C20.2667 25.0165 20.1797 24.9554 20.083 24.913C19.9862 24.8706 19.8818 24.8479 19.776 24.846C19.6701 24.8442 19.565 24.8633 19.4668 24.9023C19.3686 24.9413 19.2794 24.9994 19.2046 25.073C19.1297 25.1466 19.0707 25.2343 19.031 25.3309C18.9914 25.4274 18.9719 25.5309 18.9738 25.635C18.9756 25.7391 18.9988 25.8417 19.0419 25.9369C19.085 26.032 19.1471 26.1176 19.2246 26.1886L21.8527 28.7732C22.0005 28.9184 22.2009 28.9999 22.4099 28.9999C22.6188 28.9999 22.8192 28.9184 22.967 28.7732L28.7489 23.087Z" fill="#ECA400" stroke="#ECA400"/>
</svg>
