<svg width="30" height="30" viewBox="0 0 30 30" fill="none" xmlns="http://www.w3.org/2000/svg">
<circle cx="15" cy="15" r="15" fill="#F7F4F2"/>
<rect x="18.5" y="8.5" width="14" height="7" transform="rotate(90 18.5 8.5)" stroke="#1C5275" stroke-linecap="round" stroke-linejoin="round"/>
<line x1="14" y1="20.5" x2="16" y2="20.5" stroke="#1C5275"/>
<mask id="path-4-inside-1" fill="white">
<path d="M21.8064 17.3386C22.3346 16.4478 22.6064 15.4283 22.5917 14.3928C22.577 13.3572 22.2764 12.3458 21.7231 11.4703L20.6569 12.1441C21.086 12.8231 21.3191 13.6075 21.3305 14.4106C21.3419 15.2138 21.1311 16.0044 20.7215 16.6953L21.8064 17.3386Z"/>
</mask>
<path d="M21.8064 17.3386C22.3346 16.4478 22.6064 15.4283 22.5917 14.3928C22.577 13.3572 22.2764 12.3458 21.7231 11.4703L20.6569 12.1441C21.086 12.8231 21.3191 13.6075 21.3305 14.4106C21.3419 15.2138 21.1311 16.0044 20.7215 16.6953L21.8064 17.3386Z" stroke="#1C5275" stroke-width="2" mask="url(#path-4-inside-1)"/>
<mask id="path-5-inside-2" fill="white">
<path d="M24.0917 18.4084C24.8099 17.1971 25.1805 15.8112 25.1627 14.4031C25.1449 12.9949 24.7394 11.6189 23.9907 10.4261L22.8172 11.1627C23.4305 12.1398 23.7627 13.267 23.7773 14.4206C23.7919 15.5742 23.4883 16.7095 22.9 17.7018L24.0917 18.4084Z"/>
</mask>
<path d="M24.0917 18.4084C24.8099 17.1971 25.1805 15.8112 25.1627 14.4031C25.1449 12.9949 24.7394 11.6189 23.9907 10.4261L22.8172 11.1627C23.4305 12.1398 23.7627 13.267 23.7773 14.4206C23.7919 15.5742 23.4883 16.7095 22.9 17.7018L24.0917 18.4084Z" stroke="#1C5275" stroke-width="2" mask="url(#path-5-inside-2)"/>
<mask id="path-6-inside-3" fill="white">
<path d="M8.19361 11.6614C7.6654 12.5522 7.39364 13.5717 7.40833 14.6072C7.42302 15.6428 7.72359 16.6542 8.27685 17.5297L9.34308 16.8559C8.91398 16.1769 8.68087 15.3925 8.66948 14.5894C8.65809 13.7862 8.86886 12.9956 9.27852 12.3047L8.19361 11.6614Z"/>
</mask>
<path d="M8.19361 11.6614C7.6654 12.5522 7.39364 13.5717 7.40833 14.6072C7.42302 15.6428 7.72359 16.6542 8.27685 17.5297L9.34308 16.8559C8.91398 16.1769 8.68087 15.3925 8.66948 14.5894C8.65809 13.7862 8.86886 12.9956 9.27852 12.3047L8.19361 11.6614Z" stroke="#1C5275" stroke-width="2" mask="url(#path-6-inside-3)"/>
<mask id="path-7-inside-4" fill="white">
<path d="M5.90832 10.5916C5.19008 11.8029 4.81951 13.1888 4.83732 14.5969C4.85514 16.0051 5.26063 17.3811 6.00929 18.5739L7.18276 17.8373C6.56946 16.8602 6.23727 15.733 6.22268 14.5794C6.20809 13.4258 6.51166 12.2905 7.10005 11.2982L5.90832 10.5916Z"/>
</mask>
<path d="M5.90832 10.5916C5.19008 11.8029 4.81951 13.1888 4.83732 14.5969C4.85514 16.0051 5.26063 17.3811 6.00929 18.5739L7.18276 17.8373C6.56946 16.8602 6.23727 15.733 6.22268 14.5794C6.20809 13.4258 6.51166 12.2905 7.10005 11.2982L5.90832 10.5916Z" stroke="#1C5275" stroke-width="2" mask="url(#path-7-inside-4)"/>
</svg>
