<svg viewBox="0 0 85 88" fill="none" xmlns="http://www.w3.org/2000/svg">
  <path d="M43.1986 33.4353L43.199 33.4351C44.3863 32.7325 44.7284 31.4389 44.4493 30.3516C44.1699 29.2632 43.2463 28.305 41.8668 28.305H5.85431C3.43948 28.305 1.4541 26.2745 1.4541 23.7305V5.97247C1.4541 3.42839 3.43948 1.39795 5.85431 1.39795H71.4143C78.5613 1.39795 84.3862 7.4038 84.3966 14.855V82.7463C84.3966 85.2903 82.4113 87.3208 79.9964 87.3208H62.8484C60.4336 87.3208 58.4482 85.2903 58.4482 82.7463V45.1107C58.4482 42.3178 54.7899 41.2611 53.4358 43.7867L53.4356 43.7869L34.9773 78.2598C34.9773 78.2598 34.9773 78.2599 34.9772 78.26C33.5528 80.9168 30.0901 81.4097 28.0294 79.2757L9.45191 60.0374L9.4515 60.037C7.3825 57.8995 7.85863 54.3119 10.3811 52.8192L43.1986 33.4353Z" />
</svg>
