<svg viewBox="0 0 24 21" fill="none" xmlns="http://www.w3.org/2000/svg">
<path fill-rule="evenodd" clip-rule="evenodd" d="M12.1686 20.1412C12.0347 20.0077 11.9285 19.8491 11.8561 19.6745C11.7836 19.4998 11.7463 19.3126 11.7463 19.1236C11.7463 18.9345 11.7836 18.7473 11.8561 18.5727C11.9285 18.3981 12.0347 18.2395 12.1686 18.106L19.7777 10.4997L12.1686 2.8934C12.035 2.75977 11.9289 2.60112 11.8566 2.42651C11.7843 2.25191 11.7471 2.06477 11.7471 1.87578C11.7471 1.68679 11.7843 1.49965 11.8566 1.32505C11.9289 1.15044 12.035 0.991796 12.1686 0.858161C12.3022 0.724524 12.4609 0.618518 12.6355 0.546195C12.8101 0.473872 12.9972 0.436648 13.1862 0.436648C13.3752 0.436648 13.5623 0.473872 13.7369 0.546195C13.9115 0.618518 14.0702 0.724525 14.2038 0.858161L22.8277 9.48207C22.9616 9.61558 23.0678 9.77419 23.1402 9.94881C23.2127 10.1234 23.25 10.3106 23.25 10.4997C23.25 10.6887 23.2127 10.8759 23.1402 11.0506C23.0678 11.2252 22.9616 11.3838 22.8277 11.5173L14.2038 20.1412C14.0703 20.2751 13.9117 20.3813 13.7371 20.4537C13.5625 20.5262 13.3753 20.5635 13.1862 20.5635C12.9972 20.5635 12.81 20.5262 12.6353 20.4537C12.4607 20.3813 12.3021 20.2751 12.1686 20.1412Z" fill="black"/>
<path fill-rule="evenodd" clip-rule="evenodd" d="M22.3098 10.4372C22.3098 10.8184 22.1584 11.184 21.8888 11.4535C21.6193 11.7231 21.2537 11.8745 20.8725 11.8745L2.18736 11.8745C1.80616 11.8745 1.44057 11.7231 1.17102 11.4535C0.901474 11.184 0.750044 10.8184 0.750044 10.4372C0.750044 10.056 0.901474 9.6904 1.17102 9.42085C1.44057 9.1513 1.80616 8.99987 2.18736 8.99987L20.8725 8.99988C21.2537 8.99988 21.6193 9.15131 21.8888 9.42086C22.1584 9.69041 22.3098 10.056 22.3098 10.4372Z" fill="black"/>
</svg>
