<svg viewBox="0 0 53 53" fill="none" xmlns="http://www.w3.org/2000/svg">
<rect x="53" width="53" height="53" rx="26.5" transform="rotate(90 53 0)" fill="#4D9ECF"/>
<path fill-rule="evenodd" clip-rule="evenodd" d="M35.5777 26.0814C35.4442 26.2153 35.2856 26.3215 35.111 26.3939C34.9364 26.4664 34.7492 26.5037 34.5601 26.5037C34.3711 26.5037 34.1839 26.4664 34.0092 26.3939C33.8346 26.3215 33.676 26.2153 33.5425 26.0814L25.9362 18.4723L18.3299 26.0814C18.1963 26.215 18.0376 26.3211 17.863 26.3934C17.6884 26.4657 17.5013 26.5029 17.3123 26.5029C17.1233 26.5029 16.9362 26.4657 16.7616 26.3934C16.587 26.3211 16.4283 26.215 16.2947 26.0814C16.161 25.9478 16.055 25.7891 15.9827 25.6145C15.9104 25.4399 15.8732 25.2528 15.8732 25.0638C15.8732 24.8748 15.9104 24.6877 15.9827 24.5131C16.055 24.3385 16.161 24.1798 16.2947 24.0462L24.9186 15.4223C25.0521 15.2884 25.2107 15.1822 25.3853 15.1098C25.56 15.0373 25.7472 15 25.9362 15C26.1253 15 26.3125 15.0373 26.4871 15.1098C26.6617 15.1822 26.8203 15.2884 26.9538 15.4223L35.5777 24.0462C35.7116 24.1797 35.8178 24.3383 35.8902 24.5129C35.9627 24.6875 36 24.8747 36 25.0638C36 25.2528 35.9627 25.44 35.8902 25.6147C35.8178 25.7893 35.7116 25.9479 35.5777 26.0814V26.0814Z" fill="white"/>
<path fill-rule="evenodd" clip-rule="evenodd" d="M25.9357 16.4404C26.3169 16.4404 26.6825 16.5919 26.9521 16.8614C27.2216 17.131 27.373 17.4965 27.373 17.8777L27.373 36.5629C27.373 36.9441 27.2216 37.3097 26.9521 37.5792C26.6825 37.8488 26.3169 38.0002 25.9357 38.0002C25.5545 38.0002 25.1889 37.8488 24.9194 37.5792C24.6498 37.3097 24.4984 36.9441 24.4984 36.5629L24.4984 17.8777C24.4984 17.4965 24.6498 17.131 24.9194 16.8614C25.1889 16.5919 25.5545 16.4404 25.9357 16.4404Z" fill="white"/>
</svg>
