<svg width="30" height="31" viewBox="0 0 30 31" fill="none" xmlns="http://www.w3.org/2000/svg">
<rect y="0.280518" width="30" height="30" rx="15" fill="white"/>
<path fill-rule="evenodd" clip-rule="evenodd" d="M15 28.3125C22.1797 28.3125 28 22.4922 28 15.3125C28 8.1328 22.1797 2.3125 15 2.3125C7.8203 2.3125 2 8.1328 2 15.3125C2 22.4922 7.8203 28.3125 15 28.3125ZM15 0.3125C6.71573 0.3125 0 7.02823 0 15.3125C0 23.5968 6.71573 30.3125 15 30.3125C23.2843 30.3125 30 23.5968 30 15.3125C30 7.02823 23.2843 0.3125 15 0.3125Z" fill="#D6C9C9"/>
<path d="M9.60604 18.9541L9.60615 18.954L11.9632 16.597L11.9633 16.5969C12.1995 16.3603 12.3321 16.0396 12.3321 15.7053C12.3321 15.3709 12.1995 15.0503 11.9633 14.8136L11.9632 14.8135L11.2836 14.1339L13.328 12.0895L16.6717 12.0895L18.7161 14.1339L18.0365 14.8135L18.0364 14.8136C17.8002 15.0503 17.6676 15.3709 17.6676 15.7053C17.6676 16.0396 17.8002 16.3603 18.0364 16.5969L18.0365 16.597L20.3935 18.954L20.3936 18.9541C20.6303 19.1903 20.951 19.323 21.2853 19.323C21.6196 19.323 21.9403 19.1903 22.1769 18.9541L22.177 18.954L24.5341 16.597L24.5342 16.5969C24.7703 16.3603 24.903 16.0396 24.903 15.7053C24.903 15.3709 24.7703 15.0503 24.5342 14.8136L24.5341 14.8135L22.177 12.4565L22.1769 12.4564C21.9403 12.2202 21.6196 12.0876 21.2853 12.0876C20.951 12.0876 20.6303 12.2202 20.3936 12.4564L20.3935 12.4565L19.7139 13.1361L17.6695 11.0917L17.6695 7.45561L17.6695 7.45559C17.6695 7.2685 17.5952 7.08908 17.4629 6.95679C17.3306 6.8245 17.1512 6.75016 16.9641 6.75014L16.964 6.75014L13.0356 6.75014L13.0356 6.75014C12.8485 6.75016 12.6691 6.8245 12.5368 6.95679C12.4045 7.08908 12.3302 7.2685 12.3302 7.45559L12.3302 7.45561L12.3302 11.0917L10.2858 13.1361L9.60615 12.4565L9.60604 12.4564C9.3694 12.2202 9.04873 12.0876 8.7144 12.0876C8.38007 12.0876 8.0594 12.2202 7.82276 12.4564L7.82266 12.4565L5.46561 14.8135L5.46551 14.8136C5.22934 15.0503 5.0967 15.3709 5.0967 15.7053C5.0967 16.0396 5.22934 16.3603 5.46551 16.5969L5.46561 16.597L7.82266 18.954L7.82276 18.9541C8.0594 19.1903 8.38007 19.323 8.7144 19.323C9.04873 19.323 9.3694 19.1903 9.60604 18.9541ZM23.4302 15.7053L21.2853 17.8502L19.1404 15.7053L21.2853 13.5603L23.4302 15.7053ZM13.7411 8.16109L16.2586 8.16109L16.2586 10.6785L13.7411 10.6785L13.7411 8.16109ZM10.8593 15.7053L8.7144 17.8502L6.56949 15.7053L8.7144 13.5603L10.8593 15.7053Z" fill="#ECA400" stroke="#ECA400" stroke-width="0.3"/>
<mask id="path-4-inside-1_4059_19988" fill="white">
<rect x="12.0586" y="18.1382" width="5.88266" height="5.88266" rx="1"/>
</mask>
<rect x="12.0586" y="18.1382" width="5.88266" height="5.88266" rx="1" stroke="#ECA400" stroke-width="3" mask="url(#path-4-inside-1_4059_19988)"/>
</svg>
