<svg viewBox="0 0 30 31" fill="none" xmlns="http://www.w3.org/2000/svg">
<rect y="0.280518" width="30" height="30" rx="15" fill="white"/>
<path fill-rule="evenodd" clip-rule="evenodd" d="M15 28.3125C22.1797 28.3125 28 22.4922 28 15.3125V15.3125C28 8.1328 22.1797 2.3125 15 2.3125V2.3125C7.8203 2.3125 2 8.1328 2 15.3125V15.3125C2 22.4922 7.8203 28.3125 15 28.3125V28.3125ZM15 0.3125C6.71573 0.3125 0 7.02823 0 15.3125V15.3125C0 23.5968 6.71573 30.3125 15 30.3125V30.3125C23.2843 30.3125 30 23.5968 30 15.3125V15.3125C30 7.02823 23.2843 0.3125 15 0.3125V0.3125Z" fill="#D6C9C9"/>
<path d="M9.5008 11.7771L11.8578 14.1341C12.0659 14.3426 12.1828 14.6252 12.1828 14.9198C12.1828 15.2144 12.0659 15.497 11.8578 15.7055L11.0722 16.4912L13.2666 18.6856L16.7346 18.6856L18.929 16.4912L18.1433 15.7055C17.9352 15.497 17.8183 15.2144 17.8183 14.9198C17.8183 14.6252 17.9352 14.3426 18.1433 14.1341L20.5003 11.7771C20.7088 11.569 20.9914 11.4521 21.286 11.4521C21.5806 11.4521 21.8632 11.569 22.0717 11.7771L24.4287 14.1341C24.6368 14.3426 24.7537 14.6252 24.7537 14.9198C24.7537 15.2144 24.6368 15.497 24.4287 15.7055L22.0717 18.0625C21.8632 18.2706 21.5806 18.3875 21.286 18.3875C20.9914 18.3875 20.7088 18.2706 20.5003 18.0625L19.7146 17.2768L17.5202 19.4712L17.5202 23.1694C17.5202 23.3168 17.4617 23.458 17.3575 23.5622C17.2534 23.6664 17.1121 23.7249 16.9648 23.7249H13.0364C12.889 23.7249 12.7478 23.6664 12.6436 23.5622C12.5394 23.458 12.4809 23.3168 12.4809 23.1694L12.4809 19.4712L10.2865 17.2768L9.5008 18.0625C9.29228 18.2706 9.00972 18.3875 8.71512 18.3875C8.42053 18.3875 8.13796 18.2706 7.92944 18.0625L5.5724 15.7055C5.3643 15.497 5.24742 15.2144 5.24742 14.9198C5.24742 14.6252 5.3643 14.3426 5.5724 14.1341L7.92944 11.7771C8.13796 11.569 8.42053 11.4521 8.71512 11.4521C9.00972 11.4521 9.29228 11.569 9.5008 11.7771ZM23.6431 14.9198L21.286 12.5628L18.929 14.9198L21.286 17.2768L23.6431 14.9198ZM13.5918 22.614H16.4093L16.4093 19.7965H13.5918V22.614ZM8.71512 17.2768L9.89364 16.0983L11.0722 14.9198L8.71512 12.5628L6.35808 14.9198L8.71512 17.2768Z" fill="#ECA400"/>
<path fill-rule="evenodd" clip-rule="evenodd" d="M9.71272 11.5647C9.44796 11.3005 9.08918 11.1521 8.71512 11.1521C8.34106 11.1521 7.98229 11.3005 7.71752 11.5647L5.36027 13.922C5.09603 14.1868 4.94742 14.5457 4.94742 14.9198C4.94742 15.2939 5.09582 15.6526 5.36006 15.9174L7.71731 18.2747C7.98207 18.5389 8.34107 18.6875 8.71512 18.6875C9.08918 18.6875 9.44796 18.5391 9.71272 18.2749L10.2865 17.7011L12.1809 19.5955L12.1809 23.1694C12.1809 23.3963 12.2711 23.6139 12.4315 23.7743C12.5919 23.9348 12.8095 24.0249 13.0363 24.0249L16.9648 24.0249C17.1916 24.0249 17.4092 23.9348 17.5697 23.7743C17.7301 23.6139 17.8202 23.3964 17.8202 23.1695L17.8202 19.5955L19.7146 17.7011L20.2882 18.2747C20.553 18.5389 20.912 18.6875 21.286 18.6875C21.6601 18.6875 22.0188 18.5391 22.2836 18.2749L24.6409 15.9176C24.9051 15.6529 25.0537 15.2939 25.0537 14.9198C25.0537 14.5457 24.9053 14.187 24.6411 13.9222L22.2838 11.5649C22.0191 11.3007 21.6601 11.1521 21.286 11.1521C20.912 11.1521 20.5532 11.3005 20.2884 11.5647L17.9312 13.922C17.6669 14.1868 17.5183 14.5457 17.5183 14.9198C17.5183 15.2939 17.6667 15.6526 17.9309 15.9174L18.5047 16.4912L16.6103 18.3856L13.3908 18.3856L11.4964 16.4912L12.07 15.9176C12.3342 15.6529 12.4828 15.2939 12.4828 14.9198C12.4828 14.5457 12.3344 14.187 12.0702 13.9222L9.71272 11.5647ZM13.2666 18.6856L16.7346 18.6856L18.929 16.4912L18.1433 15.7055C17.9352 15.497 17.8183 15.2144 17.8183 14.9198C17.8183 14.6252 17.9352 14.3426 18.1433 14.1341L20.5003 11.7771C20.7088 11.569 20.9914 11.4521 21.286 11.4521C21.5806 11.4521 21.8632 11.569 22.0717 11.7771L24.4287 14.1341C24.6368 14.3426 24.7537 14.6252 24.7537 14.9198C24.7537 15.2144 24.6368 15.497 24.4287 15.7055L22.0717 18.0625C21.8632 18.2706 21.5806 18.3875 21.286 18.3875C20.9914 18.3875 20.7088 18.2706 20.5003 18.0625L19.7146 17.2768L17.5202 19.4712L17.5202 23.1694C17.5202 23.3168 17.4617 23.458 17.3575 23.5622C17.2534 23.6664 17.1121 23.7249 16.9648 23.7249H13.0364C12.889 23.7249 12.7478 23.6664 12.6436 23.5622C12.5394 23.458 12.4809 23.3168 12.4809 23.1694L12.4809 19.4712L10.2865 17.2768L9.5008 18.0625C9.29228 18.2706 9.00972 18.3875 8.71512 18.3875C8.42053 18.3875 8.13796 18.2706 7.92944 18.0625L5.5724 15.7055C5.3643 15.497 5.24742 15.2144 5.24742 14.9198C5.24742 14.6252 5.3643 14.3426 5.5724 14.1341L7.92944 11.7771C8.13796 11.569 8.42053 11.4521 8.71512 11.4521C9.00972 11.4521 9.29228 11.569 9.5008 11.7771L11.8578 14.1341C12.0659 14.3426 12.1828 14.6252 12.1828 14.9198C12.1828 15.2144 12.0659 15.497 11.8578 15.7055L11.0722 16.4912L13.2666 18.6856ZM21.286 12.987L23.2188 14.9198L21.286 16.8526L19.3532 14.9198L21.286 12.987ZM13.5918 22.614H16.4093L16.4093 19.7965H13.5918V22.614ZM13.8918 20.0965H16.1093V22.314H13.8918V20.0965ZM10.6479 14.9198L8.71512 12.987L6.78235 14.9198L8.71512 16.8526L10.6479 14.9198ZM23.6431 14.9198L21.286 17.2768L18.929 14.9198L21.286 12.5628L23.6431 14.9198ZM8.71512 17.2768L6.35808 14.9198L8.71512 12.5628L11.0722 14.9198L9.89364 16.0983L8.71512 17.2768Z" fill="#ECA400"/>
<path fill-rule="evenodd" clip-rule="evenodd" d="M16.4414 10.9868L16.4414 8.10416L13.5587 8.10416L13.5587 10.9868L16.4414 10.9868ZM16.9414 12.4868C17.4937 12.4868 17.9414 12.0391 17.9414 11.4868L17.9414 7.60416C17.9414 7.05187 17.4937 6.60416 16.9414 6.60416L13.0587 6.60416C12.5065 6.60416 12.0587 7.05187 12.0587 7.60416L12.0587 11.4868C12.0587 12.0391 12.5065 12.4868 13.0587 12.4868L16.9414 12.4868Z" fill="#ECA400"/>
</svg>
