<svg width="16" height="17" viewBox="0 0 16 17" fill="none" xmlns="http://www.w3.org/2000/svg">
<rect x="0.5" y="16" width="15" height="15" rx="1.5" transform="rotate(-90 0.5 16)" fill="white" stroke="white"/>
<path d="M2.00786 5.31164L2.00786 2.93558L12.8588 2.93555C13.5149 2.93555 14.0468 3.46744 14.0469 4.12357C14.0469 4.77972 13.515 5.31164 12.8588 5.31164L2.00786 5.31164Z" fill="#FFA47C"/>
<path d="M2.00776 9.68859L2.00776 7.31253L10.0248 7.3125C10.681 7.3125 11.2129 7.8444 11.2129 8.50053C11.2129 9.15668 10.681 9.68859 10.0248 9.68859L2.00776 9.68859Z" fill="#DC5F38"/>
<path d="M2.00809 14.0636L2.00809 11.6875L6.47405 11.6875C7.13019 11.6875 7.66209 12.2194 7.6621 12.8755C7.66211 13.5317 7.1302 14.0636 6.47406 14.0636L2.00809 14.0636Z" fill="#C2260E"/>
</svg>
